G04 #@! TF.GenerationSoftware,KiCad,Pcbnew,(5.1.6)-1*
G04 #@! TF.CreationDate,2020-12-04T21:51:36-08:00*
G04 #@! TF.ProjectId,ReceiverCircuit,52656365-6976-4657-9243-697263756974,rev?*
G04 #@! TF.SameCoordinates,Original*
G04 #@! TF.FileFunction,Legend,Bot*
G04 #@! TF.FilePolarity,Positive*
%FSLAX46Y46*%
G04 Gerber Fmt 4.6, Leading zero omitted, Abs format (unit mm)*
G04 Created by KiCad (PCBNEW (5.1.6)-1) date 2020-12-04 21:51:36*
%MOMM*%
%LPD*%
G01*
G04 APERTURE LIST*
%ADD10C,0.150000*%
%ADD11C,0.300000*%
G04 APERTURE END LIST*
D10*
X92505280Y-142560800D02*
X92505280Y-142751276D01*
X92552900Y-142846514D01*
X92648138Y-142941752D01*
X92838614Y-142989371D01*
X93171947Y-142989371D01*
X93362423Y-142941752D01*
X93457661Y-142846514D01*
X93505280Y-142751276D01*
X93505280Y-142560800D01*
X93457661Y-142465561D01*
X93362423Y-142370323D01*
X93171947Y-142322704D01*
X92838614Y-142322704D01*
X92648138Y-142370323D01*
X92552900Y-142465561D01*
X92505280Y-142560800D01*
X92505280Y-143417942D02*
X93314804Y-143417942D01*
X93410042Y-143465561D01*
X93457661Y-143513180D01*
X93505280Y-143608419D01*
X93505280Y-143798895D01*
X93457661Y-143894133D01*
X93410042Y-143941752D01*
X93314804Y-143989371D01*
X92505280Y-143989371D01*
X92505280Y-144322704D02*
X92505280Y-144894133D01*
X93505280Y-144608419D02*
X92505280Y-144608419D01*
X96108780Y-143405290D02*
X95108780Y-143405290D01*
X96108780Y-143881480D02*
X95108780Y-143881480D01*
X96108780Y-144452909D01*
X95108780Y-144452909D01*
X90863680Y-142062366D02*
X89863680Y-142062366D01*
X89863680Y-142443319D01*
X89911300Y-142538557D01*
X89958919Y-142586176D01*
X90054157Y-142633795D01*
X90197014Y-142633795D01*
X90292252Y-142586176D01*
X90339871Y-142538557D01*
X90387490Y-142443319D01*
X90387490Y-142062366D01*
X89863680Y-142967128D02*
X90863680Y-143205223D01*
X90149395Y-143395700D01*
X90863680Y-143586176D01*
X89863680Y-143824271D01*
X90863680Y-144776652D02*
X90387490Y-144443319D01*
X90863680Y-144205223D02*
X89863680Y-144205223D01*
X89863680Y-144586176D01*
X89911300Y-144681414D01*
X89958919Y-144729033D01*
X90054157Y-144776652D01*
X90197014Y-144776652D01*
X90292252Y-144729033D01*
X90339871Y-144681414D01*
X90387490Y-144586176D01*
X90387490Y-144205223D01*
X97861500Y-142671895D02*
X97813880Y-142576657D01*
X97813880Y-142433800D01*
X97861500Y-142290942D01*
X97956738Y-142195704D01*
X98051976Y-142148085D01*
X98242452Y-142100466D01*
X98385309Y-142100466D01*
X98575785Y-142148085D01*
X98671023Y-142195704D01*
X98766261Y-142290942D01*
X98813880Y-142433800D01*
X98813880Y-142529038D01*
X98766261Y-142671895D01*
X98718642Y-142719514D01*
X98385309Y-142719514D01*
X98385309Y-142529038D01*
X98813880Y-143148085D02*
X97813880Y-143148085D01*
X98813880Y-143719514D01*
X97813880Y-143719514D01*
X98813880Y-144195704D02*
X97813880Y-144195704D01*
X97813880Y-144433800D01*
X97861500Y-144576657D01*
X97956738Y-144671895D01*
X98051976Y-144719514D01*
X98242452Y-144767133D01*
X98385309Y-144767133D01*
X98575785Y-144719514D01*
X98671023Y-144671895D01*
X98766261Y-144576657D01*
X98813880Y-144433800D01*
X98813880Y-144195704D01*
D11*
X71926031Y-132984037D02*
X71708317Y-133056608D01*
X71345460Y-133056608D01*
X71200317Y-132984037D01*
X71127745Y-132911465D01*
X71055174Y-132766322D01*
X71055174Y-132621180D01*
X71127745Y-132476037D01*
X71200317Y-132403465D01*
X71345460Y-132330894D01*
X71635745Y-132258322D01*
X71780888Y-132185751D01*
X71853460Y-132113180D01*
X71926031Y-131968037D01*
X71926031Y-131822894D01*
X71853460Y-131677751D01*
X71780888Y-131605180D01*
X71635745Y-131532608D01*
X71272888Y-131532608D01*
X71055174Y-131605180D01*
X70547174Y-131532608D02*
X70184317Y-133056608D01*
X69894031Y-131968037D01*
X69603745Y-133056608D01*
X69240888Y-131532608D01*
X69023174Y-133201751D02*
X67862031Y-133201751D01*
X67281460Y-132185751D02*
X67426602Y-132113180D01*
X67499174Y-132040608D01*
X67571745Y-131895465D01*
X67571745Y-131822894D01*
X67499174Y-131677751D01*
X67426602Y-131605180D01*
X67281460Y-131532608D01*
X66991174Y-131532608D01*
X66846031Y-131605180D01*
X66773460Y-131677751D01*
X66700888Y-131822894D01*
X66700888Y-131895465D01*
X66773460Y-132040608D01*
X66846031Y-132113180D01*
X66991174Y-132185751D01*
X67281460Y-132185751D01*
X67426602Y-132258322D01*
X67499174Y-132330894D01*
X67571745Y-132476037D01*
X67571745Y-132766322D01*
X67499174Y-132911465D01*
X67426602Y-132984037D01*
X67281460Y-133056608D01*
X66991174Y-133056608D01*
X66846031Y-132984037D01*
X66773460Y-132911465D01*
X66700888Y-132766322D01*
X66700888Y-132476037D01*
X66773460Y-132330894D01*
X66846031Y-132258322D01*
X66991174Y-132185751D01*
X71926031Y-143938037D02*
X71708317Y-144010608D01*
X71345460Y-144010608D01*
X71200317Y-143938037D01*
X71127745Y-143865465D01*
X71055174Y-143720322D01*
X71055174Y-143575180D01*
X71127745Y-143430037D01*
X71200317Y-143357465D01*
X71345460Y-143284894D01*
X71635745Y-143212322D01*
X71780888Y-143139751D01*
X71853460Y-143067180D01*
X71926031Y-142922037D01*
X71926031Y-142776894D01*
X71853460Y-142631751D01*
X71780888Y-142559180D01*
X71635745Y-142486608D01*
X71272888Y-142486608D01*
X71055174Y-142559180D01*
X70547174Y-142486608D02*
X70184317Y-144010608D01*
X69894031Y-142922037D01*
X69603745Y-144010608D01*
X69240888Y-142486608D01*
X69023174Y-144155751D02*
X67862031Y-144155751D01*
X67208888Y-142486608D02*
X67063745Y-142486608D01*
X66918602Y-142559180D01*
X66846031Y-142631751D01*
X66773460Y-142776894D01*
X66700888Y-143067180D01*
X66700888Y-143430037D01*
X66773460Y-143720322D01*
X66846031Y-143865465D01*
X66918602Y-143938037D01*
X67063745Y-144010608D01*
X67208888Y-144010608D01*
X67354031Y-143938037D01*
X67426602Y-143865465D01*
X67499174Y-143720322D01*
X67571745Y-143430037D01*
X67571745Y-143067180D01*
X67499174Y-142776894D01*
X67426602Y-142631751D01*
X67354031Y-142559180D01*
X67208888Y-142486608D01*
X86768231Y-101413037D02*
X86550517Y-101485608D01*
X86187660Y-101485608D01*
X86042517Y-101413037D01*
X85969945Y-101340465D01*
X85897374Y-101195322D01*
X85897374Y-101050180D01*
X85969945Y-100905037D01*
X86042517Y-100832465D01*
X86187660Y-100759894D01*
X86477945Y-100687322D01*
X86623088Y-100614751D01*
X86695660Y-100542180D01*
X86768231Y-100397037D01*
X86768231Y-100251894D01*
X86695660Y-100106751D01*
X86623088Y-100034180D01*
X86477945Y-99961608D01*
X86115088Y-99961608D01*
X85897374Y-100034180D01*
X85389374Y-99961608D02*
X85026517Y-101485608D01*
X84736231Y-100397037D01*
X84445945Y-101485608D01*
X84083088Y-99961608D01*
X83865374Y-101630751D02*
X82704231Y-101630751D01*
X81543088Y-101485608D02*
X82413945Y-101485608D01*
X81978517Y-101485608D02*
X81978517Y-99961608D01*
X82123660Y-100179322D01*
X82268802Y-100324465D01*
X82413945Y-100397037D01*
X71926031Y-104823137D02*
X71708317Y-104895708D01*
X71345460Y-104895708D01*
X71200317Y-104823137D01*
X71127745Y-104750565D01*
X71055174Y-104605422D01*
X71055174Y-104460280D01*
X71127745Y-104315137D01*
X71200317Y-104242565D01*
X71345460Y-104169994D01*
X71635745Y-104097422D01*
X71780888Y-104024851D01*
X71853460Y-103952280D01*
X71926031Y-103807137D01*
X71926031Y-103661994D01*
X71853460Y-103516851D01*
X71780888Y-103444280D01*
X71635745Y-103371708D01*
X71272888Y-103371708D01*
X71055174Y-103444280D01*
X70547174Y-103371708D02*
X70184317Y-104895708D01*
X69894031Y-103807137D01*
X69603745Y-104895708D01*
X69240888Y-103371708D01*
X69023174Y-105040851D02*
X67862031Y-105040851D01*
X67571745Y-103516851D02*
X67499174Y-103444280D01*
X67354031Y-103371708D01*
X66991174Y-103371708D01*
X66846031Y-103444280D01*
X66773460Y-103516851D01*
X66700888Y-103661994D01*
X66700888Y-103807137D01*
X66773460Y-104024851D01*
X67644317Y-104895708D01*
X66700888Y-104895708D01*
X57084231Y-101413037D02*
X56866517Y-101485608D01*
X56503660Y-101485608D01*
X56358517Y-101413037D01*
X56285945Y-101340465D01*
X56213374Y-101195322D01*
X56213374Y-101050180D01*
X56285945Y-100905037D01*
X56358517Y-100832465D01*
X56503660Y-100759894D01*
X56793945Y-100687322D01*
X56939088Y-100614751D01*
X57011660Y-100542180D01*
X57084231Y-100397037D01*
X57084231Y-100251894D01*
X57011660Y-100106751D01*
X56939088Y-100034180D01*
X56793945Y-99961608D01*
X56431088Y-99961608D01*
X56213374Y-100034180D01*
X55705374Y-99961608D02*
X55342517Y-101485608D01*
X55052231Y-100397037D01*
X54761945Y-101485608D01*
X54399088Y-99961608D01*
X54181374Y-101630751D02*
X53020231Y-101630751D01*
X52802517Y-99961608D02*
X51859088Y-99961608D01*
X52367088Y-100542180D01*
X52149374Y-100542180D01*
X52004231Y-100614751D01*
X51931660Y-100687322D01*
X51859088Y-100832465D01*
X51859088Y-101195322D01*
X51931660Y-101340465D01*
X52004231Y-101413037D01*
X52149374Y-101485608D01*
X52584802Y-101485608D01*
X52729945Y-101413037D01*
X52802517Y-101340465D01*
X86294231Y-115497037D02*
X86076517Y-115569608D01*
X85713660Y-115569608D01*
X85568517Y-115497037D01*
X85495945Y-115424465D01*
X85423374Y-115279322D01*
X85423374Y-115134180D01*
X85495945Y-114989037D01*
X85568517Y-114916465D01*
X85713660Y-114843894D01*
X86003945Y-114771322D01*
X86149088Y-114698751D01*
X86221660Y-114626180D01*
X86294231Y-114481037D01*
X86294231Y-114335894D01*
X86221660Y-114190751D01*
X86149088Y-114118180D01*
X86003945Y-114045608D01*
X85641088Y-114045608D01*
X85423374Y-114118180D01*
X84915374Y-114045608D02*
X84552517Y-115569608D01*
X84262231Y-114481037D01*
X83971945Y-115569608D01*
X83609088Y-114045608D01*
X83391374Y-115714751D02*
X82230231Y-115714751D01*
X81214231Y-114553608D02*
X81214231Y-115569608D01*
X81577088Y-113973037D02*
X81939945Y-115061608D01*
X80996517Y-115061608D01*
X71926031Y-117297037D02*
X71708317Y-117369608D01*
X71345460Y-117369608D01*
X71200317Y-117297037D01*
X71127745Y-117224465D01*
X71055174Y-117079322D01*
X71055174Y-116934180D01*
X71127745Y-116789037D01*
X71200317Y-116716465D01*
X71345460Y-116643894D01*
X71635745Y-116571322D01*
X71780888Y-116498751D01*
X71853460Y-116426180D01*
X71926031Y-116281037D01*
X71926031Y-116135894D01*
X71853460Y-115990751D01*
X71780888Y-115918180D01*
X71635745Y-115845608D01*
X71272888Y-115845608D01*
X71055174Y-115918180D01*
X70547174Y-115845608D02*
X70184317Y-117369608D01*
X69894031Y-116281037D01*
X69603745Y-117369608D01*
X69240888Y-115845608D01*
X69023174Y-117514751D02*
X67862031Y-117514751D01*
X66773460Y-115845608D02*
X67499174Y-115845608D01*
X67571745Y-116571322D01*
X67499174Y-116498751D01*
X67354031Y-116426180D01*
X66991174Y-116426180D01*
X66846031Y-116498751D01*
X66773460Y-116571322D01*
X66700888Y-116716465D01*
X66700888Y-117079322D01*
X66773460Y-117224465D01*
X66846031Y-117297037D01*
X66991174Y-117369608D01*
X67354031Y-117369608D01*
X67499174Y-117297037D01*
X67571745Y-117224465D01*
X57557231Y-115497037D02*
X57339517Y-115569608D01*
X56976660Y-115569608D01*
X56831517Y-115497037D01*
X56758945Y-115424465D01*
X56686374Y-115279322D01*
X56686374Y-115134180D01*
X56758945Y-114989037D01*
X56831517Y-114916465D01*
X56976660Y-114843894D01*
X57266945Y-114771322D01*
X57412088Y-114698751D01*
X57484660Y-114626180D01*
X57557231Y-114481037D01*
X57557231Y-114335894D01*
X57484660Y-114190751D01*
X57412088Y-114118180D01*
X57266945Y-114045608D01*
X56904088Y-114045608D01*
X56686374Y-114118180D01*
X56178374Y-114045608D02*
X55815517Y-115569608D01*
X55525231Y-114481037D01*
X55234945Y-115569608D01*
X54872088Y-114045608D01*
X54654374Y-115714751D02*
X53493231Y-115714751D01*
X52477231Y-114045608D02*
X52767517Y-114045608D01*
X52912660Y-114118180D01*
X52985231Y-114190751D01*
X53130374Y-114408465D01*
X53202945Y-114698751D01*
X53202945Y-115279322D01*
X53130374Y-115424465D01*
X53057802Y-115497037D01*
X52912660Y-115569608D01*
X52622374Y-115569608D01*
X52477231Y-115497037D01*
X52404660Y-115424465D01*
X52332088Y-115279322D01*
X52332088Y-114916465D01*
X52404660Y-114771322D01*
X52477231Y-114698751D01*
X52622374Y-114626180D01*
X52912660Y-114626180D01*
X53057802Y-114698751D01*
X53130374Y-114771322D01*
X53202945Y-114916465D01*
X84715231Y-129945037D02*
X84497517Y-130017608D01*
X84134660Y-130017608D01*
X83989517Y-129945037D01*
X83916945Y-129872465D01*
X83844374Y-129727322D01*
X83844374Y-129582180D01*
X83916945Y-129437037D01*
X83989517Y-129364465D01*
X84134660Y-129291894D01*
X84424945Y-129219322D01*
X84570088Y-129146751D01*
X84642660Y-129074180D01*
X84715231Y-128929037D01*
X84715231Y-128783894D01*
X84642660Y-128638751D01*
X84570088Y-128566180D01*
X84424945Y-128493608D01*
X84062088Y-128493608D01*
X83844374Y-128566180D01*
X83336374Y-128493608D02*
X82973517Y-130017608D01*
X82683231Y-128929037D01*
X82392945Y-130017608D01*
X82030088Y-128493608D01*
X81812374Y-130162751D02*
X80651231Y-130162751D01*
X80433517Y-128493608D02*
X79417517Y-128493608D01*
X80070660Y-130017608D01*
X59136231Y-129945037D02*
X58918517Y-130017608D01*
X58555660Y-130017608D01*
X58410517Y-129945037D01*
X58337945Y-129872465D01*
X58265374Y-129727322D01*
X58265374Y-129582180D01*
X58337945Y-129437037D01*
X58410517Y-129364465D01*
X58555660Y-129291894D01*
X58845945Y-129219322D01*
X58991088Y-129146751D01*
X59063660Y-129074180D01*
X59136231Y-128929037D01*
X59136231Y-128783894D01*
X59063660Y-128638751D01*
X58991088Y-128566180D01*
X58845945Y-128493608D01*
X58483088Y-128493608D01*
X58265374Y-128566180D01*
X57757374Y-128493608D02*
X57394517Y-130017608D01*
X57104231Y-128929037D01*
X56813945Y-130017608D01*
X56451088Y-128493608D01*
X56233374Y-130162751D02*
X55072231Y-130162751D01*
X54636802Y-130017608D02*
X54346517Y-130017608D01*
X54201374Y-129945037D01*
X54128802Y-129872465D01*
X53983660Y-129654751D01*
X53911088Y-129364465D01*
X53911088Y-128783894D01*
X53983660Y-128638751D01*
X54056231Y-128566180D01*
X54201374Y-128493608D01*
X54491660Y-128493608D01*
X54636802Y-128566180D01*
X54709374Y-128638751D01*
X54781945Y-128783894D01*
X54781945Y-129146751D01*
X54709374Y-129291894D01*
X54636802Y-129364465D01*
X54491660Y-129437037D01*
X54201374Y-129437037D01*
X54056231Y-129364465D01*
X53983660Y-129291894D01*
X53911088Y-129146751D01*
X84335945Y-66294037D02*
X84118231Y-66366608D01*
X83755374Y-66366608D01*
X83610231Y-66294037D01*
X83537660Y-66221465D01*
X83465088Y-66076322D01*
X83465088Y-65931180D01*
X83537660Y-65786037D01*
X83610231Y-65713465D01*
X83755374Y-65640894D01*
X84045660Y-65568322D01*
X84190802Y-65495751D01*
X84263374Y-65423180D01*
X84335945Y-65278037D01*
X84335945Y-65132894D01*
X84263374Y-64987751D01*
X84190802Y-64915180D01*
X84045660Y-64842608D01*
X83682802Y-64842608D01*
X83465088Y-64915180D01*
X82957088Y-64842608D02*
X82594231Y-66366608D01*
X82303945Y-65278037D01*
X82013660Y-66366608D01*
X81650802Y-64842608D01*
X81433088Y-66511751D02*
X80271945Y-66511751D01*
X79110802Y-66366608D02*
X79981660Y-66366608D01*
X79546231Y-66366608D02*
X79546231Y-64842608D01*
X79691374Y-65060322D01*
X79836517Y-65205465D01*
X79981660Y-65278037D01*
X78167374Y-64842608D02*
X78022231Y-64842608D01*
X77877088Y-64915180D01*
X77804517Y-64987751D01*
X77731945Y-65132894D01*
X77659374Y-65423180D01*
X77659374Y-65786037D01*
X77731945Y-66076322D01*
X77804517Y-66221465D01*
X77877088Y-66294037D01*
X78022231Y-66366608D01*
X78167374Y-66366608D01*
X78312517Y-66294037D01*
X78385088Y-66221465D01*
X78457660Y-66076322D01*
X78530231Y-65786037D01*
X78530231Y-65423180D01*
X78457660Y-65132894D01*
X78385088Y-64987751D01*
X78312517Y-64915180D01*
X78167374Y-64842608D01*
X61029345Y-66294037D02*
X60811631Y-66366608D01*
X60448774Y-66366608D01*
X60303631Y-66294037D01*
X60231060Y-66221465D01*
X60158488Y-66076322D01*
X60158488Y-65931180D01*
X60231060Y-65786037D01*
X60303631Y-65713465D01*
X60448774Y-65640894D01*
X60739060Y-65568322D01*
X60884202Y-65495751D01*
X60956774Y-65423180D01*
X61029345Y-65278037D01*
X61029345Y-65132894D01*
X60956774Y-64987751D01*
X60884202Y-64915180D01*
X60739060Y-64842608D01*
X60376202Y-64842608D01*
X60158488Y-64915180D01*
X59650488Y-64842608D02*
X59287631Y-66366608D01*
X58997345Y-65278037D01*
X58707060Y-66366608D01*
X58344202Y-64842608D01*
X58126488Y-66511751D02*
X56965345Y-66511751D01*
X55804202Y-66366608D02*
X56675060Y-66366608D01*
X56239631Y-66366608D02*
X56239631Y-64842608D01*
X56384774Y-65060322D01*
X56529917Y-65205465D01*
X56675060Y-65278037D01*
X54352774Y-66366608D02*
X55223631Y-66366608D01*
X54788202Y-66366608D02*
X54788202Y-64842608D01*
X54933345Y-65060322D01*
X55078488Y-65205465D01*
X55223631Y-65278037D01*
X84335945Y-88275737D02*
X84118231Y-88348308D01*
X83755374Y-88348308D01*
X83610231Y-88275737D01*
X83537660Y-88203165D01*
X83465088Y-88058022D01*
X83465088Y-87912880D01*
X83537660Y-87767737D01*
X83610231Y-87695165D01*
X83755374Y-87622594D01*
X84045660Y-87550022D01*
X84190802Y-87477451D01*
X84263374Y-87404880D01*
X84335945Y-87259737D01*
X84335945Y-87114594D01*
X84263374Y-86969451D01*
X84190802Y-86896880D01*
X84045660Y-86824308D01*
X83682802Y-86824308D01*
X83465088Y-86896880D01*
X82957088Y-86824308D02*
X82594231Y-88348308D01*
X82303945Y-87259737D01*
X82013660Y-88348308D01*
X81650802Y-86824308D01*
X81433088Y-88493451D02*
X80271945Y-88493451D01*
X79110802Y-88348308D02*
X79981660Y-88348308D01*
X79546231Y-88348308D02*
X79546231Y-86824308D01*
X79691374Y-87042022D01*
X79836517Y-87187165D01*
X79981660Y-87259737D01*
X78530231Y-86969451D02*
X78457660Y-86896880D01*
X78312517Y-86824308D01*
X77949660Y-86824308D01*
X77804517Y-86896880D01*
X77731945Y-86969451D01*
X77659374Y-87114594D01*
X77659374Y-87259737D01*
X77731945Y-87477451D01*
X78602802Y-88348308D01*
X77659374Y-88348308D01*
X61029345Y-88275737D02*
X60811631Y-88348308D01*
X60448774Y-88348308D01*
X60303631Y-88275737D01*
X60231060Y-88203165D01*
X60158488Y-88058022D01*
X60158488Y-87912880D01*
X60231060Y-87767737D01*
X60303631Y-87695165D01*
X60448774Y-87622594D01*
X60739060Y-87550022D01*
X60884202Y-87477451D01*
X60956774Y-87404880D01*
X61029345Y-87259737D01*
X61029345Y-87114594D01*
X60956774Y-86969451D01*
X60884202Y-86896880D01*
X60739060Y-86824308D01*
X60376202Y-86824308D01*
X60158488Y-86896880D01*
X59650488Y-86824308D02*
X59287631Y-88348308D01*
X58997345Y-87259737D01*
X58707060Y-88348308D01*
X58344202Y-86824308D01*
X58126488Y-88493451D02*
X56965345Y-88493451D01*
X55804202Y-88348308D02*
X56675060Y-88348308D01*
X56239631Y-88348308D02*
X56239631Y-86824308D01*
X56384774Y-87042022D01*
X56529917Y-87187165D01*
X56675060Y-87259737D01*
X55296202Y-86824308D02*
X54352774Y-86824308D01*
X54860774Y-87404880D01*
X54643060Y-87404880D01*
X54497917Y-87477451D01*
X54425345Y-87550022D01*
X54352774Y-87695165D01*
X54352774Y-88058022D01*
X54425345Y-88203165D01*
X54497917Y-88275737D01*
X54643060Y-88348308D01*
X55078488Y-88348308D01*
X55223631Y-88275737D01*
X55296202Y-88203165D01*
M02*
