G04 #@! TF.GenerationSoftware,KiCad,Pcbnew,(5.1.6)-1*
G04 #@! TF.CreationDate,2020-12-04T21:51:36-08:00*
G04 #@! TF.ProjectId,ReceiverCircuit,52656365-6976-4657-9243-697263756974,rev?*
G04 #@! TF.SameCoordinates,Original*
G04 #@! TF.FileFunction,Paste,Top*
G04 #@! TF.FilePolarity,Positive*
%FSLAX46Y46*%
G04 Gerber Fmt 4.6, Leading zero omitted, Abs format (unit mm)*
G04 Created by KiCad (PCBNEW (5.1.6)-1) date 2020-12-04 21:51:36*
%MOMM*%
%LPD*%
G01*
G04 APERTURE LIST*
%ADD10R,0.550000X1.600000*%
%ADD11R,1.600000X0.550000*%
%ADD12R,0.800000X0.900000*%
%ADD13R,0.450000X1.450000*%
%ADD14R,1.000000X1.500000*%
%ADD15R,2.000000X0.700000*%
G04 APERTURE END LIST*
G36*
G01*
X124501340Y-94647640D02*
X123001340Y-94647640D01*
G75*
G02*
X122751340Y-94397640I0J250000D01*
G01*
X122751340Y-93897640D01*
G75*
G02*
X123001340Y-93647640I250000J0D01*
G01*
X124501340Y-93647640D01*
G75*
G02*
X124751340Y-93897640I0J-250000D01*
G01*
X124751340Y-94397640D01*
G75*
G02*
X124501340Y-94647640I-250000J0D01*
G01*
G37*
G36*
G01*
X124468320Y-90101040D02*
X122968320Y-90101040D01*
G75*
G02*
X122718320Y-89851040I0J250000D01*
G01*
X122718320Y-89351040D01*
G75*
G02*
X122968320Y-89101040I250000J0D01*
G01*
X124468320Y-89101040D01*
G75*
G02*
X124718320Y-89351040I0J-250000D01*
G01*
X124718320Y-89851040D01*
G75*
G02*
X124468320Y-90101040I-250000J0D01*
G01*
G37*
D10*
X161392520Y-83788940D03*
X160592520Y-83788940D03*
X159792520Y-83788940D03*
X158992520Y-83788940D03*
X158192520Y-83788940D03*
X157392520Y-83788940D03*
X156592520Y-83788940D03*
X155792520Y-83788940D03*
D11*
X154342520Y-85238940D03*
X154342520Y-86038940D03*
X154342520Y-86838940D03*
X154342520Y-87638940D03*
X154342520Y-88438940D03*
X154342520Y-89238940D03*
X154342520Y-90038940D03*
X154342520Y-90838940D03*
D10*
X155792520Y-92288940D03*
X156592520Y-92288940D03*
X157392520Y-92288940D03*
X158192520Y-92288940D03*
X158992520Y-92288940D03*
X159792520Y-92288940D03*
X160592520Y-92288940D03*
X161392520Y-92288940D03*
D11*
X162842520Y-90838940D03*
X162842520Y-90038940D03*
X162842520Y-89238940D03*
X162842520Y-88438940D03*
X162842520Y-87638940D03*
X162842520Y-86838940D03*
X162842520Y-86038940D03*
X162842520Y-85238940D03*
G36*
G01*
X172933860Y-83853240D02*
X172933860Y-84198240D01*
G75*
G02*
X172786360Y-84345740I-147500J0D01*
G01*
X172491360Y-84345740D01*
G75*
G02*
X172343860Y-84198240I0J147500D01*
G01*
X172343860Y-83853240D01*
G75*
G02*
X172491360Y-83705740I147500J0D01*
G01*
X172786360Y-83705740D01*
G75*
G02*
X172933860Y-83853240I0J-147500D01*
G01*
G37*
G36*
G01*
X173903860Y-83853240D02*
X173903860Y-84198240D01*
G75*
G02*
X173756360Y-84345740I-147500J0D01*
G01*
X173461360Y-84345740D01*
G75*
G02*
X173313860Y-84198240I0J147500D01*
G01*
X173313860Y-83853240D01*
G75*
G02*
X173461360Y-83705740I147500J0D01*
G01*
X173756360Y-83705740D01*
G75*
G02*
X173903860Y-83853240I0J-147500D01*
G01*
G37*
G36*
G01*
X183147200Y-93594140D02*
X183147200Y-93939140D01*
G75*
G02*
X182999700Y-94086640I-147500J0D01*
G01*
X182704700Y-94086640D01*
G75*
G02*
X182557200Y-93939140I0J147500D01*
G01*
X182557200Y-93594140D01*
G75*
G02*
X182704700Y-93446640I147500J0D01*
G01*
X182999700Y-93446640D01*
G75*
G02*
X183147200Y-93594140I0J-147500D01*
G01*
G37*
G36*
G01*
X184117200Y-93594140D02*
X184117200Y-93939140D01*
G75*
G02*
X183969700Y-94086640I-147500J0D01*
G01*
X183674700Y-94086640D01*
G75*
G02*
X183527200Y-93939140I0J147500D01*
G01*
X183527200Y-93594140D01*
G75*
G02*
X183674700Y-93446640I147500J0D01*
G01*
X183969700Y-93446640D01*
G75*
G02*
X184117200Y-93594140I0J-147500D01*
G01*
G37*
G36*
G01*
X159626520Y-81815440D02*
X159971520Y-81815440D01*
G75*
G02*
X160119020Y-81962940I0J-147500D01*
G01*
X160119020Y-82257940D01*
G75*
G02*
X159971520Y-82405440I-147500J0D01*
G01*
X159626520Y-82405440D01*
G75*
G02*
X159479020Y-82257940I0J147500D01*
G01*
X159479020Y-81962940D01*
G75*
G02*
X159626520Y-81815440I147500J0D01*
G01*
G37*
G36*
G01*
X159626520Y-80845440D02*
X159971520Y-80845440D01*
G75*
G02*
X160119020Y-80992940I0J-147500D01*
G01*
X160119020Y-81287940D01*
G75*
G02*
X159971520Y-81435440I-147500J0D01*
G01*
X159626520Y-81435440D01*
G75*
G02*
X159479020Y-81287940I0J147500D01*
G01*
X159479020Y-80992940D01*
G75*
G02*
X159626520Y-80845440I147500J0D01*
G01*
G37*
G36*
G01*
X158774900Y-94050900D02*
X158774900Y-93705900D01*
G75*
G02*
X158922400Y-93558400I147500J0D01*
G01*
X159217400Y-93558400D01*
G75*
G02*
X159364900Y-93705900I0J-147500D01*
G01*
X159364900Y-94050900D01*
G75*
G02*
X159217400Y-94198400I-147500J0D01*
G01*
X158922400Y-94198400D01*
G75*
G02*
X158774900Y-94050900I0J147500D01*
G01*
G37*
G36*
G01*
X157804900Y-94050900D02*
X157804900Y-93705900D01*
G75*
G02*
X157952400Y-93558400I147500J0D01*
G01*
X158247400Y-93558400D01*
G75*
G02*
X158394900Y-93705900I0J-147500D01*
G01*
X158394900Y-94050900D01*
G75*
G02*
X158247400Y-94198400I-147500J0D01*
G01*
X157952400Y-94198400D01*
G75*
G02*
X157804900Y-94050900I0J147500D01*
G01*
G37*
G36*
G01*
X158516540Y-80835280D02*
X158861540Y-80835280D01*
G75*
G02*
X159009040Y-80982780I0J-147500D01*
G01*
X159009040Y-81277780D01*
G75*
G02*
X158861540Y-81425280I-147500J0D01*
G01*
X158516540Y-81425280D01*
G75*
G02*
X158369040Y-81277780I0J147500D01*
G01*
X158369040Y-80982780D01*
G75*
G02*
X158516540Y-80835280I147500J0D01*
G01*
G37*
G36*
G01*
X158516540Y-81805280D02*
X158861540Y-81805280D01*
G75*
G02*
X159009040Y-81952780I0J-147500D01*
G01*
X159009040Y-82247780D01*
G75*
G02*
X158861540Y-82395280I-147500J0D01*
G01*
X158516540Y-82395280D01*
G75*
G02*
X158369040Y-82247780I0J147500D01*
G01*
X158369040Y-81952780D01*
G75*
G02*
X158516540Y-81805280I147500J0D01*
G01*
G37*
G36*
G01*
X160693320Y-80444120D02*
X161038320Y-80444120D01*
G75*
G02*
X161185820Y-80591620I0J-147500D01*
G01*
X161185820Y-80886620D01*
G75*
G02*
X161038320Y-81034120I-147500J0D01*
G01*
X160693320Y-81034120D01*
G75*
G02*
X160545820Y-80886620I0J147500D01*
G01*
X160545820Y-80591620D01*
G75*
G02*
X160693320Y-80444120I147500J0D01*
G01*
G37*
G36*
G01*
X160693320Y-81414120D02*
X161038320Y-81414120D01*
G75*
G02*
X161185820Y-81561620I0J-147500D01*
G01*
X161185820Y-81856620D01*
G75*
G02*
X161038320Y-82004120I-147500J0D01*
G01*
X160693320Y-82004120D01*
G75*
G02*
X160545820Y-81856620I0J147500D01*
G01*
X160545820Y-81561620D01*
G75*
G02*
X160693320Y-81414120I147500J0D01*
G01*
G37*
G36*
G01*
X126482060Y-83350320D02*
X126482060Y-83695320D01*
G75*
G02*
X126334560Y-83842820I-147500J0D01*
G01*
X126039560Y-83842820D01*
G75*
G02*
X125892060Y-83695320I0J147500D01*
G01*
X125892060Y-83350320D01*
G75*
G02*
X126039560Y-83202820I147500J0D01*
G01*
X126334560Y-83202820D01*
G75*
G02*
X126482060Y-83350320I0J-147500D01*
G01*
G37*
G36*
G01*
X125512060Y-83350320D02*
X125512060Y-83695320D01*
G75*
G02*
X125364560Y-83842820I-147500J0D01*
G01*
X125069560Y-83842820D01*
G75*
G02*
X124922060Y-83695320I0J147500D01*
G01*
X124922060Y-83350320D01*
G75*
G02*
X125069560Y-83202820I147500J0D01*
G01*
X125364560Y-83202820D01*
G75*
G02*
X125512060Y-83350320I0J-147500D01*
G01*
G37*
G36*
G01*
X125512060Y-82093020D02*
X125512060Y-82438020D01*
G75*
G02*
X125364560Y-82585520I-147500J0D01*
G01*
X125069560Y-82585520D01*
G75*
G02*
X124922060Y-82438020I0J147500D01*
G01*
X124922060Y-82093020D01*
G75*
G02*
X125069560Y-81945520I147500J0D01*
G01*
X125364560Y-81945520D01*
G75*
G02*
X125512060Y-82093020I0J-147500D01*
G01*
G37*
G36*
G01*
X126482060Y-82093020D02*
X126482060Y-82438020D01*
G75*
G02*
X126334560Y-82585520I-147500J0D01*
G01*
X126039560Y-82585520D01*
G75*
G02*
X125892060Y-82438020I0J147500D01*
G01*
X125892060Y-82093020D01*
G75*
G02*
X126039560Y-81945520I147500J0D01*
G01*
X126334560Y-81945520D01*
G75*
G02*
X126482060Y-82093020I0J-147500D01*
G01*
G37*
G36*
G01*
X126443960Y-80861120D02*
X126443960Y-81206120D01*
G75*
G02*
X126296460Y-81353620I-147500J0D01*
G01*
X126001460Y-81353620D01*
G75*
G02*
X125853960Y-81206120I0J147500D01*
G01*
X125853960Y-80861120D01*
G75*
G02*
X126001460Y-80713620I147500J0D01*
G01*
X126296460Y-80713620D01*
G75*
G02*
X126443960Y-80861120I0J-147500D01*
G01*
G37*
G36*
G01*
X125473960Y-80861120D02*
X125473960Y-81206120D01*
G75*
G02*
X125326460Y-81353620I-147500J0D01*
G01*
X125031460Y-81353620D01*
G75*
G02*
X124883960Y-81206120I0J147500D01*
G01*
X124883960Y-80861120D01*
G75*
G02*
X125031460Y-80713620I147500J0D01*
G01*
X125326460Y-80713620D01*
G75*
G02*
X125473960Y-80861120I0J-147500D01*
G01*
G37*
G36*
G01*
X121264600Y-124708700D02*
X121264600Y-124363700D01*
G75*
G02*
X121412100Y-124216200I147500J0D01*
G01*
X121707100Y-124216200D01*
G75*
G02*
X121854600Y-124363700I0J-147500D01*
G01*
X121854600Y-124708700D01*
G75*
G02*
X121707100Y-124856200I-147500J0D01*
G01*
X121412100Y-124856200D01*
G75*
G02*
X121264600Y-124708700I0J147500D01*
G01*
G37*
G36*
G01*
X122234600Y-124708700D02*
X122234600Y-124363700D01*
G75*
G02*
X122382100Y-124216200I147500J0D01*
G01*
X122677100Y-124216200D01*
G75*
G02*
X122824600Y-124363700I0J-147500D01*
G01*
X122824600Y-124708700D01*
G75*
G02*
X122677100Y-124856200I-147500J0D01*
G01*
X122382100Y-124856200D01*
G75*
G02*
X122234600Y-124708700I0J147500D01*
G01*
G37*
G36*
G01*
X122234600Y-123692700D02*
X122234600Y-123347700D01*
G75*
G02*
X122382100Y-123200200I147500J0D01*
G01*
X122677100Y-123200200D01*
G75*
G02*
X122824600Y-123347700I0J-147500D01*
G01*
X122824600Y-123692700D01*
G75*
G02*
X122677100Y-123840200I-147500J0D01*
G01*
X122382100Y-123840200D01*
G75*
G02*
X122234600Y-123692700I0J147500D01*
G01*
G37*
G36*
G01*
X121264600Y-123692700D02*
X121264600Y-123347700D01*
G75*
G02*
X121412100Y-123200200I147500J0D01*
G01*
X121707100Y-123200200D01*
G75*
G02*
X121854600Y-123347700I0J-147500D01*
G01*
X121854600Y-123692700D01*
G75*
G02*
X121707100Y-123840200I-147500J0D01*
G01*
X121412100Y-123840200D01*
G75*
G02*
X121264600Y-123692700I0J147500D01*
G01*
G37*
G36*
G01*
X169961060Y-96583280D02*
X169961060Y-96238280D01*
G75*
G02*
X170108560Y-96090780I147500J0D01*
G01*
X170403560Y-96090780D01*
G75*
G02*
X170551060Y-96238280I0J-147500D01*
G01*
X170551060Y-96583280D01*
G75*
G02*
X170403560Y-96730780I-147500J0D01*
G01*
X170108560Y-96730780D01*
G75*
G02*
X169961060Y-96583280I0J147500D01*
G01*
G37*
G36*
G01*
X168991060Y-96583280D02*
X168991060Y-96238280D01*
G75*
G02*
X169138560Y-96090780I147500J0D01*
G01*
X169433560Y-96090780D01*
G75*
G02*
X169581060Y-96238280I0J-147500D01*
G01*
X169581060Y-96583280D01*
G75*
G02*
X169433560Y-96730780I-147500J0D01*
G01*
X169138560Y-96730780D01*
G75*
G02*
X168991060Y-96583280I0J147500D01*
G01*
G37*
G36*
G01*
X168265060Y-94904780D02*
X168265060Y-95249780D01*
G75*
G02*
X168117560Y-95397280I-147500J0D01*
G01*
X167822560Y-95397280D01*
G75*
G02*
X167675060Y-95249780I0J147500D01*
G01*
X167675060Y-94904780D01*
G75*
G02*
X167822560Y-94757280I147500J0D01*
G01*
X168117560Y-94757280D01*
G75*
G02*
X168265060Y-94904780I0J-147500D01*
G01*
G37*
G36*
G01*
X167295060Y-94904780D02*
X167295060Y-95249780D01*
G75*
G02*
X167147560Y-95397280I-147500J0D01*
G01*
X166852560Y-95397280D01*
G75*
G02*
X166705060Y-95249780I0J147500D01*
G01*
X166705060Y-94904780D01*
G75*
G02*
X166852560Y-94757280I147500J0D01*
G01*
X167147560Y-94757280D01*
G75*
G02*
X167295060Y-94904780I0J-147500D01*
G01*
G37*
G36*
G01*
X167295060Y-96111280D02*
X167295060Y-96456280D01*
G75*
G02*
X167147560Y-96603780I-147500J0D01*
G01*
X166852560Y-96603780D01*
G75*
G02*
X166705060Y-96456280I0J147500D01*
G01*
X166705060Y-96111280D01*
G75*
G02*
X166852560Y-95963780I147500J0D01*
G01*
X167147560Y-95963780D01*
G75*
G02*
X167295060Y-96111280I0J-147500D01*
G01*
G37*
G36*
G01*
X168265060Y-96111280D02*
X168265060Y-96456280D01*
G75*
G02*
X168117560Y-96603780I-147500J0D01*
G01*
X167822560Y-96603780D01*
G75*
G02*
X167675060Y-96456280I0J147500D01*
G01*
X167675060Y-96111280D01*
G75*
G02*
X167822560Y-95963780I147500J0D01*
G01*
X168117560Y-95963780D01*
G75*
G02*
X168265060Y-96111280I0J-147500D01*
G01*
G37*
G36*
G01*
X145931120Y-135280620D02*
X145931120Y-135625620D01*
G75*
G02*
X145783620Y-135773120I-147500J0D01*
G01*
X145488620Y-135773120D01*
G75*
G02*
X145341120Y-135625620I0J147500D01*
G01*
X145341120Y-135280620D01*
G75*
G02*
X145488620Y-135133120I147500J0D01*
G01*
X145783620Y-135133120D01*
G75*
G02*
X145931120Y-135280620I0J-147500D01*
G01*
G37*
G36*
G01*
X146901120Y-135280620D02*
X146901120Y-135625620D01*
G75*
G02*
X146753620Y-135773120I-147500J0D01*
G01*
X146458620Y-135773120D01*
G75*
G02*
X146311120Y-135625620I0J147500D01*
G01*
X146311120Y-135280620D01*
G75*
G02*
X146458620Y-135133120I147500J0D01*
G01*
X146753620Y-135133120D01*
G75*
G02*
X146901120Y-135280620I0J-147500D01*
G01*
G37*
G36*
G01*
X146901120Y-134074120D02*
X146901120Y-134419120D01*
G75*
G02*
X146753620Y-134566620I-147500J0D01*
G01*
X146458620Y-134566620D01*
G75*
G02*
X146311120Y-134419120I0J147500D01*
G01*
X146311120Y-134074120D01*
G75*
G02*
X146458620Y-133926620I147500J0D01*
G01*
X146753620Y-133926620D01*
G75*
G02*
X146901120Y-134074120I0J-147500D01*
G01*
G37*
G36*
G01*
X145931120Y-134074120D02*
X145931120Y-134419120D01*
G75*
G02*
X145783620Y-134566620I-147500J0D01*
G01*
X145488620Y-134566620D01*
G75*
G02*
X145341120Y-134419120I0J147500D01*
G01*
X145341120Y-134074120D01*
G75*
G02*
X145488620Y-133926620I147500J0D01*
G01*
X145783620Y-133926620D01*
G75*
G02*
X145931120Y-134074120I0J-147500D01*
G01*
G37*
G36*
G01*
X145931120Y-132867620D02*
X145931120Y-133212620D01*
G75*
G02*
X145783620Y-133360120I-147500J0D01*
G01*
X145488620Y-133360120D01*
G75*
G02*
X145341120Y-133212620I0J147500D01*
G01*
X145341120Y-132867620D01*
G75*
G02*
X145488620Y-132720120I147500J0D01*
G01*
X145783620Y-132720120D01*
G75*
G02*
X145931120Y-132867620I0J-147500D01*
G01*
G37*
G36*
G01*
X146901120Y-132867620D02*
X146901120Y-133212620D01*
G75*
G02*
X146753620Y-133360120I-147500J0D01*
G01*
X146458620Y-133360120D01*
G75*
G02*
X146311120Y-133212620I0J147500D01*
G01*
X146311120Y-132867620D01*
G75*
G02*
X146458620Y-132720120I147500J0D01*
G01*
X146753620Y-132720120D01*
G75*
G02*
X146901120Y-132867620I0J-147500D01*
G01*
G37*
G36*
G01*
X156283160Y-118252020D02*
X156283160Y-117907020D01*
G75*
G02*
X156430660Y-117759520I147500J0D01*
G01*
X156725660Y-117759520D01*
G75*
G02*
X156873160Y-117907020I0J-147500D01*
G01*
X156873160Y-118252020D01*
G75*
G02*
X156725660Y-118399520I-147500J0D01*
G01*
X156430660Y-118399520D01*
G75*
G02*
X156283160Y-118252020I0J147500D01*
G01*
G37*
G36*
G01*
X155313160Y-118252020D02*
X155313160Y-117907020D01*
G75*
G02*
X155460660Y-117759520I147500J0D01*
G01*
X155755660Y-117759520D01*
G75*
G02*
X155903160Y-117907020I0J-147500D01*
G01*
X155903160Y-118252020D01*
G75*
G02*
X155755660Y-118399520I-147500J0D01*
G01*
X155460660Y-118399520D01*
G75*
G02*
X155313160Y-118252020I0J147500D01*
G01*
G37*
G36*
G01*
X155313160Y-117083620D02*
X155313160Y-116738620D01*
G75*
G02*
X155460660Y-116591120I147500J0D01*
G01*
X155755660Y-116591120D01*
G75*
G02*
X155903160Y-116738620I0J-147500D01*
G01*
X155903160Y-117083620D01*
G75*
G02*
X155755660Y-117231120I-147500J0D01*
G01*
X155460660Y-117231120D01*
G75*
G02*
X155313160Y-117083620I0J147500D01*
G01*
G37*
G36*
G01*
X156283160Y-117083620D02*
X156283160Y-116738620D01*
G75*
G02*
X156430660Y-116591120I147500J0D01*
G01*
X156725660Y-116591120D01*
G75*
G02*
X156873160Y-116738620I0J-147500D01*
G01*
X156873160Y-117083620D01*
G75*
G02*
X156725660Y-117231120I-147500J0D01*
G01*
X156430660Y-117231120D01*
G75*
G02*
X156283160Y-117083620I0J147500D01*
G01*
G37*
G36*
G01*
X154046140Y-120514880D02*
X154391140Y-120514880D01*
G75*
G02*
X154538640Y-120662380I0J-147500D01*
G01*
X154538640Y-120957380D01*
G75*
G02*
X154391140Y-121104880I-147500J0D01*
G01*
X154046140Y-121104880D01*
G75*
G02*
X153898640Y-120957380I0J147500D01*
G01*
X153898640Y-120662380D01*
G75*
G02*
X154046140Y-120514880I147500J0D01*
G01*
G37*
G36*
G01*
X154046140Y-119544880D02*
X154391140Y-119544880D01*
G75*
G02*
X154538640Y-119692380I0J-147500D01*
G01*
X154538640Y-119987380D01*
G75*
G02*
X154391140Y-120134880I-147500J0D01*
G01*
X154046140Y-120134880D01*
G75*
G02*
X153898640Y-119987380I0J147500D01*
G01*
X153898640Y-119692380D01*
G75*
G02*
X154046140Y-119544880I147500J0D01*
G01*
G37*
G36*
G01*
X147472620Y-111638300D02*
X147472620Y-111983300D01*
G75*
G02*
X147325120Y-112130800I-147500J0D01*
G01*
X147030120Y-112130800D01*
G75*
G02*
X146882620Y-111983300I0J147500D01*
G01*
X146882620Y-111638300D01*
G75*
G02*
X147030120Y-111490800I147500J0D01*
G01*
X147325120Y-111490800D01*
G75*
G02*
X147472620Y-111638300I0J-147500D01*
G01*
G37*
G36*
G01*
X146502620Y-111638300D02*
X146502620Y-111983300D01*
G75*
G02*
X146355120Y-112130800I-147500J0D01*
G01*
X146060120Y-112130800D01*
G75*
G02*
X145912620Y-111983300I0J147500D01*
G01*
X145912620Y-111638300D01*
G75*
G02*
X146060120Y-111490800I147500J0D01*
G01*
X146355120Y-111490800D01*
G75*
G02*
X146502620Y-111638300I0J-147500D01*
G01*
G37*
G36*
G01*
X146505160Y-112727960D02*
X146505160Y-113072960D01*
G75*
G02*
X146357660Y-113220460I-147500J0D01*
G01*
X146062660Y-113220460D01*
G75*
G02*
X145915160Y-113072960I0J147500D01*
G01*
X145915160Y-112727960D01*
G75*
G02*
X146062660Y-112580460I147500J0D01*
G01*
X146357660Y-112580460D01*
G75*
G02*
X146505160Y-112727960I0J-147500D01*
G01*
G37*
G36*
G01*
X147475160Y-112727960D02*
X147475160Y-113072960D01*
G75*
G02*
X147327660Y-113220460I-147500J0D01*
G01*
X147032660Y-113220460D01*
G75*
G02*
X146885160Y-113072960I0J147500D01*
G01*
X146885160Y-112727960D01*
G75*
G02*
X147032660Y-112580460I147500J0D01*
G01*
X147327660Y-112580460D01*
G75*
G02*
X147475160Y-112727960I0J-147500D01*
G01*
G37*
G36*
G01*
X147475160Y-110538480D02*
X147475160Y-110883480D01*
G75*
G02*
X147327660Y-111030980I-147500J0D01*
G01*
X147032660Y-111030980D01*
G75*
G02*
X146885160Y-110883480I0J147500D01*
G01*
X146885160Y-110538480D01*
G75*
G02*
X147032660Y-110390980I147500J0D01*
G01*
X147327660Y-110390980D01*
G75*
G02*
X147475160Y-110538480I0J-147500D01*
G01*
G37*
G36*
G01*
X146505160Y-110538480D02*
X146505160Y-110883480D01*
G75*
G02*
X146357660Y-111030980I-147500J0D01*
G01*
X146062660Y-111030980D01*
G75*
G02*
X145915160Y-110883480I0J147500D01*
G01*
X145915160Y-110538480D01*
G75*
G02*
X146062660Y-110390980I147500J0D01*
G01*
X146357660Y-110390980D01*
G75*
G02*
X146505160Y-110538480I0J-147500D01*
G01*
G37*
D12*
X148300400Y-68030600D03*
X150200400Y-68030600D03*
X149250400Y-66030600D03*
G36*
G01*
X119714440Y-119154240D02*
X120224440Y-119154240D01*
G75*
G02*
X120474440Y-119404240I0J-250000D01*
G01*
X120474440Y-119914240D01*
G75*
G02*
X120224440Y-120164240I-250000J0D01*
G01*
X119714440Y-120164240D01*
G75*
G02*
X119464440Y-119914240I0J250000D01*
G01*
X119464440Y-119404240D01*
G75*
G02*
X119714440Y-119154240I250000J0D01*
G01*
G37*
G36*
G01*
X118464440Y-119154240D02*
X118974440Y-119154240D01*
G75*
G02*
X119224440Y-119404240I0J-250000D01*
G01*
X119224440Y-119914240D01*
G75*
G02*
X118974440Y-120164240I-250000J0D01*
G01*
X118464440Y-120164240D01*
G75*
G02*
X118214440Y-119914240I0J250000D01*
G01*
X118214440Y-119404240D01*
G75*
G02*
X118464440Y-119154240I250000J0D01*
G01*
G37*
G36*
G01*
X119714440Y-120404240D02*
X120224440Y-120404240D01*
G75*
G02*
X120474440Y-120654240I0J-250000D01*
G01*
X120474440Y-121164240D01*
G75*
G02*
X120224440Y-121414240I-250000J0D01*
G01*
X119714440Y-121414240D01*
G75*
G02*
X119464440Y-121164240I0J250000D01*
G01*
X119464440Y-120654240D01*
G75*
G02*
X119714440Y-120404240I250000J0D01*
G01*
G37*
G36*
G01*
X118464440Y-120404240D02*
X118974440Y-120404240D01*
G75*
G02*
X119224440Y-120654240I0J-250000D01*
G01*
X119224440Y-121164240D01*
G75*
G02*
X118974440Y-121414240I-250000J0D01*
G01*
X118464440Y-121414240D01*
G75*
G02*
X118214440Y-121164240I0J250000D01*
G01*
X118214440Y-120654240D01*
G75*
G02*
X118464440Y-120404240I250000J0D01*
G01*
G37*
G36*
G01*
X120281940Y-117934240D02*
X120406940Y-117934240D01*
G75*
G02*
X120469440Y-117996740I0J-62500D01*
G01*
X120469440Y-118696740D01*
G75*
G02*
X120406940Y-118759240I-62500J0D01*
G01*
X120281940Y-118759240D01*
G75*
G02*
X120219440Y-118696740I0J62500D01*
G01*
X120219440Y-117996740D01*
G75*
G02*
X120281940Y-117934240I62500J0D01*
G01*
G37*
G36*
G01*
X119781940Y-117934240D02*
X119906940Y-117934240D01*
G75*
G02*
X119969440Y-117996740I0J-62500D01*
G01*
X119969440Y-118696740D01*
G75*
G02*
X119906940Y-118759240I-62500J0D01*
G01*
X119781940Y-118759240D01*
G75*
G02*
X119719440Y-118696740I0J62500D01*
G01*
X119719440Y-117996740D01*
G75*
G02*
X119781940Y-117934240I62500J0D01*
G01*
G37*
G36*
G01*
X119281940Y-117934240D02*
X119406940Y-117934240D01*
G75*
G02*
X119469440Y-117996740I0J-62500D01*
G01*
X119469440Y-118696740D01*
G75*
G02*
X119406940Y-118759240I-62500J0D01*
G01*
X119281940Y-118759240D01*
G75*
G02*
X119219440Y-118696740I0J62500D01*
G01*
X119219440Y-117996740D01*
G75*
G02*
X119281940Y-117934240I62500J0D01*
G01*
G37*
G36*
G01*
X118781940Y-117934240D02*
X118906940Y-117934240D01*
G75*
G02*
X118969440Y-117996740I0J-62500D01*
G01*
X118969440Y-118696740D01*
G75*
G02*
X118906940Y-118759240I-62500J0D01*
G01*
X118781940Y-118759240D01*
G75*
G02*
X118719440Y-118696740I0J62500D01*
G01*
X118719440Y-117996740D01*
G75*
G02*
X118781940Y-117934240I62500J0D01*
G01*
G37*
G36*
G01*
X118281940Y-117934240D02*
X118406940Y-117934240D01*
G75*
G02*
X118469440Y-117996740I0J-62500D01*
G01*
X118469440Y-118696740D01*
G75*
G02*
X118406940Y-118759240I-62500J0D01*
G01*
X118281940Y-118759240D01*
G75*
G02*
X118219440Y-118696740I0J62500D01*
G01*
X118219440Y-117996740D01*
G75*
G02*
X118281940Y-117934240I62500J0D01*
G01*
G37*
G36*
G01*
X117056940Y-119159240D02*
X117756940Y-119159240D01*
G75*
G02*
X117819440Y-119221740I0J-62500D01*
G01*
X117819440Y-119346740D01*
G75*
G02*
X117756940Y-119409240I-62500J0D01*
G01*
X117056940Y-119409240D01*
G75*
G02*
X116994440Y-119346740I0J62500D01*
G01*
X116994440Y-119221740D01*
G75*
G02*
X117056940Y-119159240I62500J0D01*
G01*
G37*
G36*
G01*
X117056940Y-119659240D02*
X117756940Y-119659240D01*
G75*
G02*
X117819440Y-119721740I0J-62500D01*
G01*
X117819440Y-119846740D01*
G75*
G02*
X117756940Y-119909240I-62500J0D01*
G01*
X117056940Y-119909240D01*
G75*
G02*
X116994440Y-119846740I0J62500D01*
G01*
X116994440Y-119721740D01*
G75*
G02*
X117056940Y-119659240I62500J0D01*
G01*
G37*
G36*
G01*
X117056940Y-120159240D02*
X117756940Y-120159240D01*
G75*
G02*
X117819440Y-120221740I0J-62500D01*
G01*
X117819440Y-120346740D01*
G75*
G02*
X117756940Y-120409240I-62500J0D01*
G01*
X117056940Y-120409240D01*
G75*
G02*
X116994440Y-120346740I0J62500D01*
G01*
X116994440Y-120221740D01*
G75*
G02*
X117056940Y-120159240I62500J0D01*
G01*
G37*
G36*
G01*
X117056940Y-120659240D02*
X117756940Y-120659240D01*
G75*
G02*
X117819440Y-120721740I0J-62500D01*
G01*
X117819440Y-120846740D01*
G75*
G02*
X117756940Y-120909240I-62500J0D01*
G01*
X117056940Y-120909240D01*
G75*
G02*
X116994440Y-120846740I0J62500D01*
G01*
X116994440Y-120721740D01*
G75*
G02*
X117056940Y-120659240I62500J0D01*
G01*
G37*
G36*
G01*
X117056940Y-121159240D02*
X117756940Y-121159240D01*
G75*
G02*
X117819440Y-121221740I0J-62500D01*
G01*
X117819440Y-121346740D01*
G75*
G02*
X117756940Y-121409240I-62500J0D01*
G01*
X117056940Y-121409240D01*
G75*
G02*
X116994440Y-121346740I0J62500D01*
G01*
X116994440Y-121221740D01*
G75*
G02*
X117056940Y-121159240I62500J0D01*
G01*
G37*
G36*
G01*
X118281940Y-121809240D02*
X118406940Y-121809240D01*
G75*
G02*
X118469440Y-121871740I0J-62500D01*
G01*
X118469440Y-122571740D01*
G75*
G02*
X118406940Y-122634240I-62500J0D01*
G01*
X118281940Y-122634240D01*
G75*
G02*
X118219440Y-122571740I0J62500D01*
G01*
X118219440Y-121871740D01*
G75*
G02*
X118281940Y-121809240I62500J0D01*
G01*
G37*
G36*
G01*
X118781940Y-121809240D02*
X118906940Y-121809240D01*
G75*
G02*
X118969440Y-121871740I0J-62500D01*
G01*
X118969440Y-122571740D01*
G75*
G02*
X118906940Y-122634240I-62500J0D01*
G01*
X118781940Y-122634240D01*
G75*
G02*
X118719440Y-122571740I0J62500D01*
G01*
X118719440Y-121871740D01*
G75*
G02*
X118781940Y-121809240I62500J0D01*
G01*
G37*
G36*
G01*
X119281940Y-121809240D02*
X119406940Y-121809240D01*
G75*
G02*
X119469440Y-121871740I0J-62500D01*
G01*
X119469440Y-122571740D01*
G75*
G02*
X119406940Y-122634240I-62500J0D01*
G01*
X119281940Y-122634240D01*
G75*
G02*
X119219440Y-122571740I0J62500D01*
G01*
X119219440Y-121871740D01*
G75*
G02*
X119281940Y-121809240I62500J0D01*
G01*
G37*
G36*
G01*
X119781940Y-121809240D02*
X119906940Y-121809240D01*
G75*
G02*
X119969440Y-121871740I0J-62500D01*
G01*
X119969440Y-122571740D01*
G75*
G02*
X119906940Y-122634240I-62500J0D01*
G01*
X119781940Y-122634240D01*
G75*
G02*
X119719440Y-122571740I0J62500D01*
G01*
X119719440Y-121871740D01*
G75*
G02*
X119781940Y-121809240I62500J0D01*
G01*
G37*
G36*
G01*
X120281940Y-121809240D02*
X120406940Y-121809240D01*
G75*
G02*
X120469440Y-121871740I0J-62500D01*
G01*
X120469440Y-122571740D01*
G75*
G02*
X120406940Y-122634240I-62500J0D01*
G01*
X120281940Y-122634240D01*
G75*
G02*
X120219440Y-122571740I0J62500D01*
G01*
X120219440Y-121871740D01*
G75*
G02*
X120281940Y-121809240I62500J0D01*
G01*
G37*
G36*
G01*
X120931940Y-121159240D02*
X121631940Y-121159240D01*
G75*
G02*
X121694440Y-121221740I0J-62500D01*
G01*
X121694440Y-121346740D01*
G75*
G02*
X121631940Y-121409240I-62500J0D01*
G01*
X120931940Y-121409240D01*
G75*
G02*
X120869440Y-121346740I0J62500D01*
G01*
X120869440Y-121221740D01*
G75*
G02*
X120931940Y-121159240I62500J0D01*
G01*
G37*
G36*
G01*
X120931940Y-120659240D02*
X121631940Y-120659240D01*
G75*
G02*
X121694440Y-120721740I0J-62500D01*
G01*
X121694440Y-120846740D01*
G75*
G02*
X121631940Y-120909240I-62500J0D01*
G01*
X120931940Y-120909240D01*
G75*
G02*
X120869440Y-120846740I0J62500D01*
G01*
X120869440Y-120721740D01*
G75*
G02*
X120931940Y-120659240I62500J0D01*
G01*
G37*
G36*
G01*
X120931940Y-120159240D02*
X121631940Y-120159240D01*
G75*
G02*
X121694440Y-120221740I0J-62500D01*
G01*
X121694440Y-120346740D01*
G75*
G02*
X121631940Y-120409240I-62500J0D01*
G01*
X120931940Y-120409240D01*
G75*
G02*
X120869440Y-120346740I0J62500D01*
G01*
X120869440Y-120221740D01*
G75*
G02*
X120931940Y-120159240I62500J0D01*
G01*
G37*
G36*
G01*
X120931940Y-119659240D02*
X121631940Y-119659240D01*
G75*
G02*
X121694440Y-119721740I0J-62500D01*
G01*
X121694440Y-119846740D01*
G75*
G02*
X121631940Y-119909240I-62500J0D01*
G01*
X120931940Y-119909240D01*
G75*
G02*
X120869440Y-119846740I0J62500D01*
G01*
X120869440Y-119721740D01*
G75*
G02*
X120931940Y-119659240I62500J0D01*
G01*
G37*
G36*
G01*
X120931940Y-119159240D02*
X121631940Y-119159240D01*
G75*
G02*
X121694440Y-119221740I0J-62500D01*
G01*
X121694440Y-119346740D01*
G75*
G02*
X121631940Y-119409240I-62500J0D01*
G01*
X120931940Y-119409240D01*
G75*
G02*
X120869440Y-119346740I0J62500D01*
G01*
X120869440Y-119221740D01*
G75*
G02*
X120931940Y-119159240I62500J0D01*
G01*
G37*
G36*
G01*
X148477600Y-133291720D02*
X148477600Y-132991720D01*
G75*
G02*
X148627600Y-132841720I150000J0D01*
G01*
X150377600Y-132841720D01*
G75*
G02*
X150527600Y-132991720I0J-150000D01*
G01*
X150527600Y-133291720D01*
G75*
G02*
X150377600Y-133441720I-150000J0D01*
G01*
X148627600Y-133441720D01*
G75*
G02*
X148477600Y-133291720I0J150000D01*
G01*
G37*
G36*
G01*
X148477600Y-134561720D02*
X148477600Y-134261720D01*
G75*
G02*
X148627600Y-134111720I150000J0D01*
G01*
X150377600Y-134111720D01*
G75*
G02*
X150527600Y-134261720I0J-150000D01*
G01*
X150527600Y-134561720D01*
G75*
G02*
X150377600Y-134711720I-150000J0D01*
G01*
X148627600Y-134711720D01*
G75*
G02*
X148477600Y-134561720I0J150000D01*
G01*
G37*
G36*
G01*
X148477600Y-135831720D02*
X148477600Y-135531720D01*
G75*
G02*
X148627600Y-135381720I150000J0D01*
G01*
X150377600Y-135381720D01*
G75*
G02*
X150527600Y-135531720I0J-150000D01*
G01*
X150527600Y-135831720D01*
G75*
G02*
X150377600Y-135981720I-150000J0D01*
G01*
X148627600Y-135981720D01*
G75*
G02*
X148477600Y-135831720I0J150000D01*
G01*
G37*
G36*
G01*
X148477600Y-137101720D02*
X148477600Y-136801720D01*
G75*
G02*
X148627600Y-136651720I150000J0D01*
G01*
X150377600Y-136651720D01*
G75*
G02*
X150527600Y-136801720I0J-150000D01*
G01*
X150527600Y-137101720D01*
G75*
G02*
X150377600Y-137251720I-150000J0D01*
G01*
X148627600Y-137251720D01*
G75*
G02*
X148477600Y-137101720I0J150000D01*
G01*
G37*
G36*
G01*
X148477600Y-138371720D02*
X148477600Y-138071720D01*
G75*
G02*
X148627600Y-137921720I150000J0D01*
G01*
X150377600Y-137921720D01*
G75*
G02*
X150527600Y-138071720I0J-150000D01*
G01*
X150527600Y-138371720D01*
G75*
G02*
X150377600Y-138521720I-150000J0D01*
G01*
X148627600Y-138521720D01*
G75*
G02*
X148477600Y-138371720I0J150000D01*
G01*
G37*
G36*
G01*
X148477600Y-139641720D02*
X148477600Y-139341720D01*
G75*
G02*
X148627600Y-139191720I150000J0D01*
G01*
X150377600Y-139191720D01*
G75*
G02*
X150527600Y-139341720I0J-150000D01*
G01*
X150527600Y-139641720D01*
G75*
G02*
X150377600Y-139791720I-150000J0D01*
G01*
X148627600Y-139791720D01*
G75*
G02*
X148477600Y-139641720I0J150000D01*
G01*
G37*
G36*
G01*
X148477600Y-140911720D02*
X148477600Y-140611720D01*
G75*
G02*
X148627600Y-140461720I150000J0D01*
G01*
X150377600Y-140461720D01*
G75*
G02*
X150527600Y-140611720I0J-150000D01*
G01*
X150527600Y-140911720D01*
G75*
G02*
X150377600Y-141061720I-150000J0D01*
G01*
X148627600Y-141061720D01*
G75*
G02*
X148477600Y-140911720I0J150000D01*
G01*
G37*
G36*
G01*
X148477600Y-142181720D02*
X148477600Y-141881720D01*
G75*
G02*
X148627600Y-141731720I150000J0D01*
G01*
X150377600Y-141731720D01*
G75*
G02*
X150527600Y-141881720I0J-150000D01*
G01*
X150527600Y-142181720D01*
G75*
G02*
X150377600Y-142331720I-150000J0D01*
G01*
X148627600Y-142331720D01*
G75*
G02*
X148477600Y-142181720I0J150000D01*
G01*
G37*
G36*
G01*
X157777600Y-142181720D02*
X157777600Y-141881720D01*
G75*
G02*
X157927600Y-141731720I150000J0D01*
G01*
X159677600Y-141731720D01*
G75*
G02*
X159827600Y-141881720I0J-150000D01*
G01*
X159827600Y-142181720D01*
G75*
G02*
X159677600Y-142331720I-150000J0D01*
G01*
X157927600Y-142331720D01*
G75*
G02*
X157777600Y-142181720I0J150000D01*
G01*
G37*
G36*
G01*
X157777600Y-140911720D02*
X157777600Y-140611720D01*
G75*
G02*
X157927600Y-140461720I150000J0D01*
G01*
X159677600Y-140461720D01*
G75*
G02*
X159827600Y-140611720I0J-150000D01*
G01*
X159827600Y-140911720D01*
G75*
G02*
X159677600Y-141061720I-150000J0D01*
G01*
X157927600Y-141061720D01*
G75*
G02*
X157777600Y-140911720I0J150000D01*
G01*
G37*
G36*
G01*
X157777600Y-139641720D02*
X157777600Y-139341720D01*
G75*
G02*
X157927600Y-139191720I150000J0D01*
G01*
X159677600Y-139191720D01*
G75*
G02*
X159827600Y-139341720I0J-150000D01*
G01*
X159827600Y-139641720D01*
G75*
G02*
X159677600Y-139791720I-150000J0D01*
G01*
X157927600Y-139791720D01*
G75*
G02*
X157777600Y-139641720I0J150000D01*
G01*
G37*
G36*
G01*
X157777600Y-138371720D02*
X157777600Y-138071720D01*
G75*
G02*
X157927600Y-137921720I150000J0D01*
G01*
X159677600Y-137921720D01*
G75*
G02*
X159827600Y-138071720I0J-150000D01*
G01*
X159827600Y-138371720D01*
G75*
G02*
X159677600Y-138521720I-150000J0D01*
G01*
X157927600Y-138521720D01*
G75*
G02*
X157777600Y-138371720I0J150000D01*
G01*
G37*
G36*
G01*
X157777600Y-137101720D02*
X157777600Y-136801720D01*
G75*
G02*
X157927600Y-136651720I150000J0D01*
G01*
X159677600Y-136651720D01*
G75*
G02*
X159827600Y-136801720I0J-150000D01*
G01*
X159827600Y-137101720D01*
G75*
G02*
X159677600Y-137251720I-150000J0D01*
G01*
X157927600Y-137251720D01*
G75*
G02*
X157777600Y-137101720I0J150000D01*
G01*
G37*
G36*
G01*
X157777600Y-135831720D02*
X157777600Y-135531720D01*
G75*
G02*
X157927600Y-135381720I150000J0D01*
G01*
X159677600Y-135381720D01*
G75*
G02*
X159827600Y-135531720I0J-150000D01*
G01*
X159827600Y-135831720D01*
G75*
G02*
X159677600Y-135981720I-150000J0D01*
G01*
X157927600Y-135981720D01*
G75*
G02*
X157777600Y-135831720I0J150000D01*
G01*
G37*
G36*
G01*
X157777600Y-134561720D02*
X157777600Y-134261720D01*
G75*
G02*
X157927600Y-134111720I150000J0D01*
G01*
X159677600Y-134111720D01*
G75*
G02*
X159827600Y-134261720I0J-150000D01*
G01*
X159827600Y-134561720D01*
G75*
G02*
X159677600Y-134711720I-150000J0D01*
G01*
X157927600Y-134711720D01*
G75*
G02*
X157777600Y-134561720I0J150000D01*
G01*
G37*
G36*
G01*
X157777600Y-133291720D02*
X157777600Y-132991720D01*
G75*
G02*
X157927600Y-132841720I150000J0D01*
G01*
X159677600Y-132841720D01*
G75*
G02*
X159827600Y-132991720I0J-150000D01*
G01*
X159827600Y-133291720D01*
G75*
G02*
X159677600Y-133441720I-150000J0D01*
G01*
X157927600Y-133441720D01*
G75*
G02*
X157777600Y-133291720I0J150000D01*
G01*
G37*
D13*
X148385340Y-112180580D03*
X149035340Y-112180580D03*
X149685340Y-112180580D03*
X150335340Y-112180580D03*
X150985340Y-112180580D03*
X151635340Y-112180580D03*
X152285340Y-112180580D03*
X152935340Y-112180580D03*
X153585340Y-112180580D03*
X154235340Y-112180580D03*
X154235340Y-118080580D03*
X153585340Y-118080580D03*
X152935340Y-118080580D03*
X152285340Y-118080580D03*
X151635340Y-118080580D03*
X150985340Y-118080580D03*
X150335340Y-118080580D03*
X149685340Y-118080580D03*
X149035340Y-118080580D03*
X148385340Y-118080580D03*
D12*
X165486080Y-113846100D03*
X166436080Y-115846100D03*
X164536080Y-115846100D03*
G36*
G01*
X156425400Y-97238600D02*
X156425400Y-96893600D01*
G75*
G02*
X156572900Y-96746100I147500J0D01*
G01*
X156867900Y-96746100D01*
G75*
G02*
X157015400Y-96893600I0J-147500D01*
G01*
X157015400Y-97238600D01*
G75*
G02*
X156867900Y-97386100I-147500J0D01*
G01*
X156572900Y-97386100D01*
G75*
G02*
X156425400Y-97238600I0J147500D01*
G01*
G37*
G36*
G01*
X155455400Y-97238600D02*
X155455400Y-96893600D01*
G75*
G02*
X155602900Y-96746100I147500J0D01*
G01*
X155897900Y-96746100D01*
G75*
G02*
X156045400Y-96893600I0J-147500D01*
G01*
X156045400Y-97238600D01*
G75*
G02*
X155897900Y-97386100I-147500J0D01*
G01*
X155602900Y-97386100D01*
G75*
G02*
X155455400Y-97238600I0J147500D01*
G01*
G37*
G36*
G01*
X156311100Y-82067180D02*
X156311100Y-81722180D01*
G75*
G02*
X156458600Y-81574680I147500J0D01*
G01*
X156753600Y-81574680D01*
G75*
G02*
X156901100Y-81722180I0J-147500D01*
G01*
X156901100Y-82067180D01*
G75*
G02*
X156753600Y-82214680I-147500J0D01*
G01*
X156458600Y-82214680D01*
G75*
G02*
X156311100Y-82067180I0J147500D01*
G01*
G37*
G36*
G01*
X155341100Y-82067180D02*
X155341100Y-81722180D01*
G75*
G02*
X155488600Y-81574680I147500J0D01*
G01*
X155783600Y-81574680D01*
G75*
G02*
X155931100Y-81722180I0J-147500D01*
G01*
X155931100Y-82067180D01*
G75*
G02*
X155783600Y-82214680I-147500J0D01*
G01*
X155488600Y-82214680D01*
G75*
G02*
X155341100Y-82067180I0J147500D01*
G01*
G37*
G36*
G01*
X156151800Y-80612200D02*
X156151800Y-80957200D01*
G75*
G02*
X156004300Y-81104700I-147500J0D01*
G01*
X155709300Y-81104700D01*
G75*
G02*
X155561800Y-80957200I0J147500D01*
G01*
X155561800Y-80612200D01*
G75*
G02*
X155709300Y-80464700I147500J0D01*
G01*
X156004300Y-80464700D01*
G75*
G02*
X156151800Y-80612200I0J-147500D01*
G01*
G37*
G36*
G01*
X155181800Y-80612200D02*
X155181800Y-80957200D01*
G75*
G02*
X155034300Y-81104700I-147500J0D01*
G01*
X154739300Y-81104700D01*
G75*
G02*
X154591800Y-80957200I0J147500D01*
G01*
X154591800Y-80612200D01*
G75*
G02*
X154739300Y-80464700I147500J0D01*
G01*
X155034300Y-80464700D01*
G75*
G02*
X155181800Y-80612200I0J-147500D01*
G01*
G37*
G36*
G01*
X165023080Y-112308350D02*
X165023080Y-111795850D01*
G75*
G02*
X165241830Y-111577100I218750J0D01*
G01*
X165679330Y-111577100D01*
G75*
G02*
X165898080Y-111795850I0J-218750D01*
G01*
X165898080Y-112308350D01*
G75*
G02*
X165679330Y-112527100I-218750J0D01*
G01*
X165241830Y-112527100D01*
G75*
G02*
X165023080Y-112308350I0J218750D01*
G01*
G37*
G36*
G01*
X166598080Y-112308350D02*
X166598080Y-111795850D01*
G75*
G02*
X166816830Y-111577100I218750J0D01*
G01*
X167254330Y-111577100D01*
G75*
G02*
X167473080Y-111795850I0J-218750D01*
G01*
X167473080Y-112308350D01*
G75*
G02*
X167254330Y-112527100I-218750J0D01*
G01*
X166816830Y-112527100D01*
G75*
G02*
X166598080Y-112308350I0J218750D01*
G01*
G37*
G36*
G01*
X164673780Y-116985000D02*
X164673780Y-117330000D01*
G75*
G02*
X164526280Y-117477500I-147500J0D01*
G01*
X164231280Y-117477500D01*
G75*
G02*
X164083780Y-117330000I0J147500D01*
G01*
X164083780Y-116985000D01*
G75*
G02*
X164231280Y-116837500I147500J0D01*
G01*
X164526280Y-116837500D01*
G75*
G02*
X164673780Y-116985000I0J-147500D01*
G01*
G37*
G36*
G01*
X165643780Y-116985000D02*
X165643780Y-117330000D01*
G75*
G02*
X165496280Y-117477500I-147500J0D01*
G01*
X165201280Y-117477500D01*
G75*
G02*
X165053780Y-117330000I0J147500D01*
G01*
X165053780Y-116985000D01*
G75*
G02*
X165201280Y-116837500I147500J0D01*
G01*
X165496280Y-116837500D01*
G75*
G02*
X165643780Y-116985000I0J-147500D01*
G01*
G37*
G36*
G01*
X123847360Y-119725220D02*
X123847360Y-119380220D01*
G75*
G02*
X123994860Y-119232720I147500J0D01*
G01*
X124289860Y-119232720D01*
G75*
G02*
X124437360Y-119380220I0J-147500D01*
G01*
X124437360Y-119725220D01*
G75*
G02*
X124289860Y-119872720I-147500J0D01*
G01*
X123994860Y-119872720D01*
G75*
G02*
X123847360Y-119725220I0J147500D01*
G01*
G37*
G36*
G01*
X122877360Y-119725220D02*
X122877360Y-119380220D01*
G75*
G02*
X123024860Y-119232720I147500J0D01*
G01*
X123319860Y-119232720D01*
G75*
G02*
X123467360Y-119380220I0J-147500D01*
G01*
X123467360Y-119725220D01*
G75*
G02*
X123319860Y-119872720I-147500J0D01*
G01*
X123024860Y-119872720D01*
G75*
G02*
X122877360Y-119725220I0J147500D01*
G01*
G37*
G36*
G01*
X117622100Y-126101200D02*
X117277100Y-126101200D01*
G75*
G02*
X117129600Y-125953700I0J147500D01*
G01*
X117129600Y-125658700D01*
G75*
G02*
X117277100Y-125511200I147500J0D01*
G01*
X117622100Y-125511200D01*
G75*
G02*
X117769600Y-125658700I0J-147500D01*
G01*
X117769600Y-125953700D01*
G75*
G02*
X117622100Y-126101200I-147500J0D01*
G01*
G37*
G36*
G01*
X117622100Y-127071200D02*
X117277100Y-127071200D01*
G75*
G02*
X117129600Y-126923700I0J147500D01*
G01*
X117129600Y-126628700D01*
G75*
G02*
X117277100Y-126481200I147500J0D01*
G01*
X117622100Y-126481200D01*
G75*
G02*
X117769600Y-126628700I0J-147500D01*
G01*
X117769600Y-126923700D01*
G75*
G02*
X117622100Y-127071200I-147500J0D01*
G01*
G37*
G36*
G01*
X116606100Y-127071200D02*
X116261100Y-127071200D01*
G75*
G02*
X116113600Y-126923700I0J147500D01*
G01*
X116113600Y-126628700D01*
G75*
G02*
X116261100Y-126481200I147500J0D01*
G01*
X116606100Y-126481200D01*
G75*
G02*
X116753600Y-126628700I0J-147500D01*
G01*
X116753600Y-126923700D01*
G75*
G02*
X116606100Y-127071200I-147500J0D01*
G01*
G37*
G36*
G01*
X116606100Y-126101200D02*
X116261100Y-126101200D01*
G75*
G02*
X116113600Y-125953700I0J147500D01*
G01*
X116113600Y-125658700D01*
G75*
G02*
X116261100Y-125511200I147500J0D01*
G01*
X116606100Y-125511200D01*
G75*
G02*
X116753600Y-125658700I0J-147500D01*
G01*
X116753600Y-125953700D01*
G75*
G02*
X116606100Y-126101200I-147500J0D01*
G01*
G37*
G36*
G01*
X114929700Y-124300200D02*
X114584700Y-124300200D01*
G75*
G02*
X114437200Y-124152700I0J147500D01*
G01*
X114437200Y-123857700D01*
G75*
G02*
X114584700Y-123710200I147500J0D01*
G01*
X114929700Y-123710200D01*
G75*
G02*
X115077200Y-123857700I0J-147500D01*
G01*
X115077200Y-124152700D01*
G75*
G02*
X114929700Y-124300200I-147500J0D01*
G01*
G37*
G36*
G01*
X114929700Y-123330200D02*
X114584700Y-123330200D01*
G75*
G02*
X114437200Y-123182700I0J147500D01*
G01*
X114437200Y-122887700D01*
G75*
G02*
X114584700Y-122740200I147500J0D01*
G01*
X114929700Y-122740200D01*
G75*
G02*
X115077200Y-122887700I0J-147500D01*
G01*
X115077200Y-123182700D01*
G75*
G02*
X114929700Y-123330200I-147500J0D01*
G01*
G37*
G36*
G01*
X114894140Y-119865360D02*
X114549140Y-119865360D01*
G75*
G02*
X114401640Y-119717860I0J147500D01*
G01*
X114401640Y-119422860D01*
G75*
G02*
X114549140Y-119275360I147500J0D01*
G01*
X114894140Y-119275360D01*
G75*
G02*
X115041640Y-119422860I0J-147500D01*
G01*
X115041640Y-119717860D01*
G75*
G02*
X114894140Y-119865360I-147500J0D01*
G01*
G37*
G36*
G01*
X114894140Y-118895360D02*
X114549140Y-118895360D01*
G75*
G02*
X114401640Y-118747860I0J147500D01*
G01*
X114401640Y-118452860D01*
G75*
G02*
X114549140Y-118305360I147500J0D01*
G01*
X114894140Y-118305360D01*
G75*
G02*
X115041640Y-118452860I0J-147500D01*
G01*
X115041640Y-118747860D01*
G75*
G02*
X114894140Y-118895360I-147500J0D01*
G01*
G37*
G36*
G01*
X119654100Y-128110200D02*
X119309100Y-128110200D01*
G75*
G02*
X119161600Y-127962700I0J147500D01*
G01*
X119161600Y-127667700D01*
G75*
G02*
X119309100Y-127520200I147500J0D01*
G01*
X119654100Y-127520200D01*
G75*
G02*
X119801600Y-127667700I0J-147500D01*
G01*
X119801600Y-127962700D01*
G75*
G02*
X119654100Y-128110200I-147500J0D01*
G01*
G37*
G36*
G01*
X119654100Y-127140200D02*
X119309100Y-127140200D01*
G75*
G02*
X119161600Y-126992700I0J147500D01*
G01*
X119161600Y-126697700D01*
G75*
G02*
X119309100Y-126550200I147500J0D01*
G01*
X119654100Y-126550200D01*
G75*
G02*
X119801600Y-126697700I0J-147500D01*
G01*
X119801600Y-126992700D01*
G75*
G02*
X119654100Y-127140200I-147500J0D01*
G01*
G37*
G36*
G01*
X157991000Y-95533200D02*
X157991000Y-96008200D01*
G75*
G02*
X157753500Y-96245700I-237500J0D01*
G01*
X157178500Y-96245700D01*
G75*
G02*
X156941000Y-96008200I0J237500D01*
G01*
X156941000Y-95533200D01*
G75*
G02*
X157178500Y-95295700I237500J0D01*
G01*
X157753500Y-95295700D01*
G75*
G02*
X157991000Y-95533200I0J-237500D01*
G01*
G37*
G36*
G01*
X156241000Y-95533200D02*
X156241000Y-96008200D01*
G75*
G02*
X156003500Y-96245700I-237500J0D01*
G01*
X155428500Y-96245700D01*
G75*
G02*
X155191000Y-96008200I0J237500D01*
G01*
X155191000Y-95533200D01*
G75*
G02*
X155428500Y-95295700I237500J0D01*
G01*
X156003500Y-95295700D01*
G75*
G02*
X156241000Y-95533200I0J-237500D01*
G01*
G37*
G36*
G01*
X172308740Y-87286880D02*
X172653740Y-87286880D01*
G75*
G02*
X172801240Y-87434380I0J-147500D01*
G01*
X172801240Y-87729380D01*
G75*
G02*
X172653740Y-87876880I-147500J0D01*
G01*
X172308740Y-87876880D01*
G75*
G02*
X172161240Y-87729380I0J147500D01*
G01*
X172161240Y-87434380D01*
G75*
G02*
X172308740Y-87286880I147500J0D01*
G01*
G37*
G36*
G01*
X172308740Y-88256880D02*
X172653740Y-88256880D01*
G75*
G02*
X172801240Y-88404380I0J-147500D01*
G01*
X172801240Y-88699380D01*
G75*
G02*
X172653740Y-88846880I-147500J0D01*
G01*
X172308740Y-88846880D01*
G75*
G02*
X172161240Y-88699380I0J147500D01*
G01*
X172161240Y-88404380D01*
G75*
G02*
X172308740Y-88256880I147500J0D01*
G01*
G37*
G36*
G01*
X166672040Y-91419460D02*
X166672040Y-91074460D01*
G75*
G02*
X166819540Y-90926960I147500J0D01*
G01*
X167114540Y-90926960D01*
G75*
G02*
X167262040Y-91074460I0J-147500D01*
G01*
X167262040Y-91419460D01*
G75*
G02*
X167114540Y-91566960I-147500J0D01*
G01*
X166819540Y-91566960D01*
G75*
G02*
X166672040Y-91419460I0J147500D01*
G01*
G37*
G36*
G01*
X167642040Y-91419460D02*
X167642040Y-91074460D01*
G75*
G02*
X167789540Y-90926960I147500J0D01*
G01*
X168084540Y-90926960D01*
G75*
G02*
X168232040Y-91074460I0J-147500D01*
G01*
X168232040Y-91419460D01*
G75*
G02*
X168084540Y-91566960I-147500J0D01*
G01*
X167789540Y-91566960D01*
G75*
G02*
X167642040Y-91419460I0J147500D01*
G01*
G37*
G36*
G01*
X168277320Y-92845120D02*
X167932320Y-92845120D01*
G75*
G02*
X167784820Y-92697620I0J147500D01*
G01*
X167784820Y-92402620D01*
G75*
G02*
X167932320Y-92255120I147500J0D01*
G01*
X168277320Y-92255120D01*
G75*
G02*
X168424820Y-92402620I0J-147500D01*
G01*
X168424820Y-92697620D01*
G75*
G02*
X168277320Y-92845120I-147500J0D01*
G01*
G37*
G36*
G01*
X168277320Y-93815120D02*
X167932320Y-93815120D01*
G75*
G02*
X167784820Y-93667620I0J147500D01*
G01*
X167784820Y-93372620D01*
G75*
G02*
X167932320Y-93225120I147500J0D01*
G01*
X168277320Y-93225120D01*
G75*
G02*
X168424820Y-93372620I0J-147500D01*
G01*
X168424820Y-93667620D01*
G75*
G02*
X168277320Y-93815120I-147500J0D01*
G01*
G37*
G36*
G01*
X139817300Y-80001100D02*
X139817300Y-80476100D01*
G75*
G02*
X139579800Y-80713600I-237500J0D01*
G01*
X139004800Y-80713600D01*
G75*
G02*
X138767300Y-80476100I0J237500D01*
G01*
X138767300Y-80001100D01*
G75*
G02*
X139004800Y-79763600I237500J0D01*
G01*
X139579800Y-79763600D01*
G75*
G02*
X139817300Y-80001100I0J-237500D01*
G01*
G37*
G36*
G01*
X138067300Y-80001100D02*
X138067300Y-80476100D01*
G75*
G02*
X137829800Y-80713600I-237500J0D01*
G01*
X137254800Y-80713600D01*
G75*
G02*
X137017300Y-80476100I0J237500D01*
G01*
X137017300Y-80001100D01*
G75*
G02*
X137254800Y-79763600I237500J0D01*
G01*
X137829800Y-79763600D01*
G75*
G02*
X138067300Y-80001100I0J-237500D01*
G01*
G37*
G36*
G01*
X122984040Y-121899460D02*
X122984040Y-121554460D01*
G75*
G02*
X123131540Y-121406960I147500J0D01*
G01*
X123426540Y-121406960D01*
G75*
G02*
X123574040Y-121554460I0J-147500D01*
G01*
X123574040Y-121899460D01*
G75*
G02*
X123426540Y-122046960I-147500J0D01*
G01*
X123131540Y-122046960D01*
G75*
G02*
X122984040Y-121899460I0J147500D01*
G01*
G37*
G36*
G01*
X123954040Y-121899460D02*
X123954040Y-121554460D01*
G75*
G02*
X124101540Y-121406960I147500J0D01*
G01*
X124396540Y-121406960D01*
G75*
G02*
X124544040Y-121554460I0J-147500D01*
G01*
X124544040Y-121899460D01*
G75*
G02*
X124396540Y-122046960I-147500J0D01*
G01*
X124101540Y-122046960D01*
G75*
G02*
X123954040Y-121899460I0J147500D01*
G01*
G37*
G36*
G01*
X114909380Y-122082640D02*
X114564380Y-122082640D01*
G75*
G02*
X114416880Y-121935140I0J147500D01*
G01*
X114416880Y-121640140D01*
G75*
G02*
X114564380Y-121492640I147500J0D01*
G01*
X114909380Y-121492640D01*
G75*
G02*
X115056880Y-121640140I0J-147500D01*
G01*
X115056880Y-121935140D01*
G75*
G02*
X114909380Y-122082640I-147500J0D01*
G01*
G37*
G36*
G01*
X114909380Y-121112640D02*
X114564380Y-121112640D01*
G75*
G02*
X114416880Y-120965140I0J147500D01*
G01*
X114416880Y-120670140D01*
G75*
G02*
X114564380Y-120522640I147500J0D01*
G01*
X114909380Y-120522640D01*
G75*
G02*
X115056880Y-120670140I0J-147500D01*
G01*
X115056880Y-120965140D01*
G75*
G02*
X114909380Y-121112640I-147500J0D01*
G01*
G37*
G36*
G01*
X156290920Y-119455980D02*
X156290920Y-119110980D01*
G75*
G02*
X156438420Y-118963480I147500J0D01*
G01*
X156733420Y-118963480D01*
G75*
G02*
X156880920Y-119110980I0J-147500D01*
G01*
X156880920Y-119455980D01*
G75*
G02*
X156733420Y-119603480I-147500J0D01*
G01*
X156438420Y-119603480D01*
G75*
G02*
X156290920Y-119455980I0J147500D01*
G01*
G37*
G36*
G01*
X155320920Y-119455980D02*
X155320920Y-119110980D01*
G75*
G02*
X155468420Y-118963480I147500J0D01*
G01*
X155763420Y-118963480D01*
G75*
G02*
X155910920Y-119110980I0J-147500D01*
G01*
X155910920Y-119455980D01*
G75*
G02*
X155763420Y-119603480I-147500J0D01*
G01*
X155468420Y-119603480D01*
G75*
G02*
X155320920Y-119455980I0J147500D01*
G01*
G37*
G36*
G01*
X133039780Y-68883760D02*
X133314780Y-68883760D01*
G75*
G02*
X133452280Y-69021260I0J-137500D01*
G01*
X133452280Y-70746260D01*
G75*
G02*
X133314780Y-70883760I-137500J0D01*
G01*
X133039780Y-70883760D01*
G75*
G02*
X132902280Y-70746260I0J137500D01*
G01*
X132902280Y-69021260D01*
G75*
G02*
X133039780Y-68883760I137500J0D01*
G01*
G37*
G36*
G01*
X131769780Y-68883760D02*
X132044780Y-68883760D01*
G75*
G02*
X132182280Y-69021260I0J-137500D01*
G01*
X132182280Y-70746260D01*
G75*
G02*
X132044780Y-70883760I-137500J0D01*
G01*
X131769780Y-70883760D01*
G75*
G02*
X131632280Y-70746260I0J137500D01*
G01*
X131632280Y-69021260D01*
G75*
G02*
X131769780Y-68883760I137500J0D01*
G01*
G37*
G36*
G01*
X130499780Y-68883760D02*
X130774780Y-68883760D01*
G75*
G02*
X130912280Y-69021260I0J-137500D01*
G01*
X130912280Y-70746260D01*
G75*
G02*
X130774780Y-70883760I-137500J0D01*
G01*
X130499780Y-70883760D01*
G75*
G02*
X130362280Y-70746260I0J137500D01*
G01*
X130362280Y-69021260D01*
G75*
G02*
X130499780Y-68883760I137500J0D01*
G01*
G37*
G36*
G01*
X129229780Y-68883760D02*
X129504780Y-68883760D01*
G75*
G02*
X129642280Y-69021260I0J-137500D01*
G01*
X129642280Y-70746260D01*
G75*
G02*
X129504780Y-70883760I-137500J0D01*
G01*
X129229780Y-70883760D01*
G75*
G02*
X129092280Y-70746260I0J137500D01*
G01*
X129092280Y-69021260D01*
G75*
G02*
X129229780Y-68883760I137500J0D01*
G01*
G37*
G36*
G01*
X127959780Y-68883760D02*
X128234780Y-68883760D01*
G75*
G02*
X128372280Y-69021260I0J-137500D01*
G01*
X128372280Y-70746260D01*
G75*
G02*
X128234780Y-70883760I-137500J0D01*
G01*
X127959780Y-70883760D01*
G75*
G02*
X127822280Y-70746260I0J137500D01*
G01*
X127822280Y-69021260D01*
G75*
G02*
X127959780Y-68883760I137500J0D01*
G01*
G37*
G36*
G01*
X126689780Y-68883760D02*
X126964780Y-68883760D01*
G75*
G02*
X127102280Y-69021260I0J-137500D01*
G01*
X127102280Y-70746260D01*
G75*
G02*
X126964780Y-70883760I-137500J0D01*
G01*
X126689780Y-70883760D01*
G75*
G02*
X126552280Y-70746260I0J137500D01*
G01*
X126552280Y-69021260D01*
G75*
G02*
X126689780Y-68883760I137500J0D01*
G01*
G37*
G36*
G01*
X125419780Y-68883760D02*
X125694780Y-68883760D01*
G75*
G02*
X125832280Y-69021260I0J-137500D01*
G01*
X125832280Y-70746260D01*
G75*
G02*
X125694780Y-70883760I-137500J0D01*
G01*
X125419780Y-70883760D01*
G75*
G02*
X125282280Y-70746260I0J137500D01*
G01*
X125282280Y-69021260D01*
G75*
G02*
X125419780Y-68883760I137500J0D01*
G01*
G37*
G36*
G01*
X124149780Y-68883760D02*
X124424780Y-68883760D01*
G75*
G02*
X124562280Y-69021260I0J-137500D01*
G01*
X124562280Y-70746260D01*
G75*
G02*
X124424780Y-70883760I-137500J0D01*
G01*
X124149780Y-70883760D01*
G75*
G02*
X124012280Y-70746260I0J137500D01*
G01*
X124012280Y-69021260D01*
G75*
G02*
X124149780Y-68883760I137500J0D01*
G01*
G37*
G36*
G01*
X122879780Y-68883760D02*
X123154780Y-68883760D01*
G75*
G02*
X123292280Y-69021260I0J-137500D01*
G01*
X123292280Y-70746260D01*
G75*
G02*
X123154780Y-70883760I-137500J0D01*
G01*
X122879780Y-70883760D01*
G75*
G02*
X122742280Y-70746260I0J137500D01*
G01*
X122742280Y-69021260D01*
G75*
G02*
X122879780Y-68883760I137500J0D01*
G01*
G37*
G36*
G01*
X121609780Y-68883760D02*
X121884780Y-68883760D01*
G75*
G02*
X122022280Y-69021260I0J-137500D01*
G01*
X122022280Y-70746260D01*
G75*
G02*
X121884780Y-70883760I-137500J0D01*
G01*
X121609780Y-70883760D01*
G75*
G02*
X121472280Y-70746260I0J137500D01*
G01*
X121472280Y-69021260D01*
G75*
G02*
X121609780Y-68883760I137500J0D01*
G01*
G37*
G36*
G01*
X120339780Y-68883760D02*
X120614780Y-68883760D01*
G75*
G02*
X120752280Y-69021260I0J-137500D01*
G01*
X120752280Y-70746260D01*
G75*
G02*
X120614780Y-70883760I-137500J0D01*
G01*
X120339780Y-70883760D01*
G75*
G02*
X120202280Y-70746260I0J137500D01*
G01*
X120202280Y-69021260D01*
G75*
G02*
X120339780Y-68883760I137500J0D01*
G01*
G37*
G36*
G01*
X119069780Y-68883760D02*
X119344780Y-68883760D01*
G75*
G02*
X119482280Y-69021260I0J-137500D01*
G01*
X119482280Y-70746260D01*
G75*
G02*
X119344780Y-70883760I-137500J0D01*
G01*
X119069780Y-70883760D01*
G75*
G02*
X118932280Y-70746260I0J137500D01*
G01*
X118932280Y-69021260D01*
G75*
G02*
X119069780Y-68883760I137500J0D01*
G01*
G37*
G36*
G01*
X119069780Y-78183760D02*
X119344780Y-78183760D01*
G75*
G02*
X119482280Y-78321260I0J-137500D01*
G01*
X119482280Y-80046260D01*
G75*
G02*
X119344780Y-80183760I-137500J0D01*
G01*
X119069780Y-80183760D01*
G75*
G02*
X118932280Y-80046260I0J137500D01*
G01*
X118932280Y-78321260D01*
G75*
G02*
X119069780Y-78183760I137500J0D01*
G01*
G37*
G36*
G01*
X120339780Y-78183760D02*
X120614780Y-78183760D01*
G75*
G02*
X120752280Y-78321260I0J-137500D01*
G01*
X120752280Y-80046260D01*
G75*
G02*
X120614780Y-80183760I-137500J0D01*
G01*
X120339780Y-80183760D01*
G75*
G02*
X120202280Y-80046260I0J137500D01*
G01*
X120202280Y-78321260D01*
G75*
G02*
X120339780Y-78183760I137500J0D01*
G01*
G37*
G36*
G01*
X121609780Y-78183760D02*
X121884780Y-78183760D01*
G75*
G02*
X122022280Y-78321260I0J-137500D01*
G01*
X122022280Y-80046260D01*
G75*
G02*
X121884780Y-80183760I-137500J0D01*
G01*
X121609780Y-80183760D01*
G75*
G02*
X121472280Y-80046260I0J137500D01*
G01*
X121472280Y-78321260D01*
G75*
G02*
X121609780Y-78183760I137500J0D01*
G01*
G37*
G36*
G01*
X122879780Y-78183760D02*
X123154780Y-78183760D01*
G75*
G02*
X123292280Y-78321260I0J-137500D01*
G01*
X123292280Y-80046260D01*
G75*
G02*
X123154780Y-80183760I-137500J0D01*
G01*
X122879780Y-80183760D01*
G75*
G02*
X122742280Y-80046260I0J137500D01*
G01*
X122742280Y-78321260D01*
G75*
G02*
X122879780Y-78183760I137500J0D01*
G01*
G37*
G36*
G01*
X124149780Y-78183760D02*
X124424780Y-78183760D01*
G75*
G02*
X124562280Y-78321260I0J-137500D01*
G01*
X124562280Y-80046260D01*
G75*
G02*
X124424780Y-80183760I-137500J0D01*
G01*
X124149780Y-80183760D01*
G75*
G02*
X124012280Y-80046260I0J137500D01*
G01*
X124012280Y-78321260D01*
G75*
G02*
X124149780Y-78183760I137500J0D01*
G01*
G37*
G36*
G01*
X125419780Y-78183760D02*
X125694780Y-78183760D01*
G75*
G02*
X125832280Y-78321260I0J-137500D01*
G01*
X125832280Y-80046260D01*
G75*
G02*
X125694780Y-80183760I-137500J0D01*
G01*
X125419780Y-80183760D01*
G75*
G02*
X125282280Y-80046260I0J137500D01*
G01*
X125282280Y-78321260D01*
G75*
G02*
X125419780Y-78183760I137500J0D01*
G01*
G37*
G36*
G01*
X126689780Y-78183760D02*
X126964780Y-78183760D01*
G75*
G02*
X127102280Y-78321260I0J-137500D01*
G01*
X127102280Y-80046260D01*
G75*
G02*
X126964780Y-80183760I-137500J0D01*
G01*
X126689780Y-80183760D01*
G75*
G02*
X126552280Y-80046260I0J137500D01*
G01*
X126552280Y-78321260D01*
G75*
G02*
X126689780Y-78183760I137500J0D01*
G01*
G37*
G36*
G01*
X127959780Y-78183760D02*
X128234780Y-78183760D01*
G75*
G02*
X128372280Y-78321260I0J-137500D01*
G01*
X128372280Y-80046260D01*
G75*
G02*
X128234780Y-80183760I-137500J0D01*
G01*
X127959780Y-80183760D01*
G75*
G02*
X127822280Y-80046260I0J137500D01*
G01*
X127822280Y-78321260D01*
G75*
G02*
X127959780Y-78183760I137500J0D01*
G01*
G37*
G36*
G01*
X129229780Y-78183760D02*
X129504780Y-78183760D01*
G75*
G02*
X129642280Y-78321260I0J-137500D01*
G01*
X129642280Y-80046260D01*
G75*
G02*
X129504780Y-80183760I-137500J0D01*
G01*
X129229780Y-80183760D01*
G75*
G02*
X129092280Y-80046260I0J137500D01*
G01*
X129092280Y-78321260D01*
G75*
G02*
X129229780Y-78183760I137500J0D01*
G01*
G37*
G36*
G01*
X130499780Y-78183760D02*
X130774780Y-78183760D01*
G75*
G02*
X130912280Y-78321260I0J-137500D01*
G01*
X130912280Y-80046260D01*
G75*
G02*
X130774780Y-80183760I-137500J0D01*
G01*
X130499780Y-80183760D01*
G75*
G02*
X130362280Y-80046260I0J137500D01*
G01*
X130362280Y-78321260D01*
G75*
G02*
X130499780Y-78183760I137500J0D01*
G01*
G37*
G36*
G01*
X131769780Y-78183760D02*
X132044780Y-78183760D01*
G75*
G02*
X132182280Y-78321260I0J-137500D01*
G01*
X132182280Y-80046260D01*
G75*
G02*
X132044780Y-80183760I-137500J0D01*
G01*
X131769780Y-80183760D01*
G75*
G02*
X131632280Y-80046260I0J137500D01*
G01*
X131632280Y-78321260D01*
G75*
G02*
X131769780Y-78183760I137500J0D01*
G01*
G37*
G36*
G01*
X133039780Y-78183760D02*
X133314780Y-78183760D01*
G75*
G02*
X133452280Y-78321260I0J-137500D01*
G01*
X133452280Y-80046260D01*
G75*
G02*
X133314780Y-80183760I-137500J0D01*
G01*
X133039780Y-80183760D01*
G75*
G02*
X132902280Y-80046260I0J137500D01*
G01*
X132902280Y-78321260D01*
G75*
G02*
X133039780Y-78183760I137500J0D01*
G01*
G37*
G36*
G01*
X175888060Y-94863780D02*
X175888060Y-95163780D01*
G75*
G02*
X175738060Y-95313780I-150000J0D01*
G01*
X174088060Y-95313780D01*
G75*
G02*
X173938060Y-95163780I0J150000D01*
G01*
X173938060Y-94863780D01*
G75*
G02*
X174088060Y-94713780I150000J0D01*
G01*
X175738060Y-94713780D01*
G75*
G02*
X175888060Y-94863780I0J-150000D01*
G01*
G37*
G36*
G01*
X175888060Y-93593780D02*
X175888060Y-93893780D01*
G75*
G02*
X175738060Y-94043780I-150000J0D01*
G01*
X174088060Y-94043780D01*
G75*
G02*
X173938060Y-93893780I0J150000D01*
G01*
X173938060Y-93593780D01*
G75*
G02*
X174088060Y-93443780I150000J0D01*
G01*
X175738060Y-93443780D01*
G75*
G02*
X175888060Y-93593780I0J-150000D01*
G01*
G37*
G36*
G01*
X175888060Y-92323780D02*
X175888060Y-92623780D01*
G75*
G02*
X175738060Y-92773780I-150000J0D01*
G01*
X174088060Y-92773780D01*
G75*
G02*
X173938060Y-92623780I0J150000D01*
G01*
X173938060Y-92323780D01*
G75*
G02*
X174088060Y-92173780I150000J0D01*
G01*
X175738060Y-92173780D01*
G75*
G02*
X175888060Y-92323780I0J-150000D01*
G01*
G37*
G36*
G01*
X175888060Y-91053780D02*
X175888060Y-91353780D01*
G75*
G02*
X175738060Y-91503780I-150000J0D01*
G01*
X174088060Y-91503780D01*
G75*
G02*
X173938060Y-91353780I0J150000D01*
G01*
X173938060Y-91053780D01*
G75*
G02*
X174088060Y-90903780I150000J0D01*
G01*
X175738060Y-90903780D01*
G75*
G02*
X175888060Y-91053780I0J-150000D01*
G01*
G37*
G36*
G01*
X170938060Y-91053780D02*
X170938060Y-91353780D01*
G75*
G02*
X170788060Y-91503780I-150000J0D01*
G01*
X169138060Y-91503780D01*
G75*
G02*
X168988060Y-91353780I0J150000D01*
G01*
X168988060Y-91053780D01*
G75*
G02*
X169138060Y-90903780I150000J0D01*
G01*
X170788060Y-90903780D01*
G75*
G02*
X170938060Y-91053780I0J-150000D01*
G01*
G37*
G36*
G01*
X170938060Y-92323780D02*
X170938060Y-92623780D01*
G75*
G02*
X170788060Y-92773780I-150000J0D01*
G01*
X169138060Y-92773780D01*
G75*
G02*
X168988060Y-92623780I0J150000D01*
G01*
X168988060Y-92323780D01*
G75*
G02*
X169138060Y-92173780I150000J0D01*
G01*
X170788060Y-92173780D01*
G75*
G02*
X170938060Y-92323780I0J-150000D01*
G01*
G37*
G36*
G01*
X170938060Y-93593780D02*
X170938060Y-93893780D01*
G75*
G02*
X170788060Y-94043780I-150000J0D01*
G01*
X169138060Y-94043780D01*
G75*
G02*
X168988060Y-93893780I0J150000D01*
G01*
X168988060Y-93593780D01*
G75*
G02*
X169138060Y-93443780I150000J0D01*
G01*
X170788060Y-93443780D01*
G75*
G02*
X170938060Y-93593780I0J-150000D01*
G01*
G37*
G36*
G01*
X170938060Y-94863780D02*
X170938060Y-95163780D01*
G75*
G02*
X170788060Y-95313780I-150000J0D01*
G01*
X169138060Y-95313780D01*
G75*
G02*
X168988060Y-95163780I0J150000D01*
G01*
X168988060Y-94863780D01*
G75*
G02*
X169138060Y-94713780I150000J0D01*
G01*
X170788060Y-94713780D01*
G75*
G02*
X170938060Y-94863780I0J-150000D01*
G01*
G37*
G36*
G01*
X120746600Y-128681700D02*
X120746600Y-129026700D01*
G75*
G02*
X120599100Y-129174200I-147500J0D01*
G01*
X120304100Y-129174200D01*
G75*
G02*
X120156600Y-129026700I0J147500D01*
G01*
X120156600Y-128681700D01*
G75*
G02*
X120304100Y-128534200I147500J0D01*
G01*
X120599100Y-128534200D01*
G75*
G02*
X120746600Y-128681700I0J-147500D01*
G01*
G37*
G36*
G01*
X119776600Y-128681700D02*
X119776600Y-129026700D01*
G75*
G02*
X119629100Y-129174200I-147500J0D01*
G01*
X119334100Y-129174200D01*
G75*
G02*
X119186600Y-129026700I0J147500D01*
G01*
X119186600Y-128681700D01*
G75*
G02*
X119334100Y-128534200I147500J0D01*
G01*
X119629100Y-128534200D01*
G75*
G02*
X119776600Y-128681700I0J-147500D01*
G01*
G37*
G36*
G01*
X117200600Y-124962700D02*
X117200600Y-124617700D01*
G75*
G02*
X117348100Y-124470200I147500J0D01*
G01*
X117643100Y-124470200D01*
G75*
G02*
X117790600Y-124617700I0J-147500D01*
G01*
X117790600Y-124962700D01*
G75*
G02*
X117643100Y-125110200I-147500J0D01*
G01*
X117348100Y-125110200D01*
G75*
G02*
X117200600Y-124962700I0J147500D01*
G01*
G37*
G36*
G01*
X118170600Y-124962700D02*
X118170600Y-124617700D01*
G75*
G02*
X118318100Y-124470200I147500J0D01*
G01*
X118613100Y-124470200D01*
G75*
G02*
X118760600Y-124617700I0J-147500D01*
G01*
X118760600Y-124962700D01*
G75*
G02*
X118613100Y-125110200I-147500J0D01*
G01*
X118318100Y-125110200D01*
G75*
G02*
X118170600Y-124962700I0J147500D01*
G01*
G37*
G36*
G01*
X118216600Y-123946700D02*
X118216600Y-123601700D01*
G75*
G02*
X118364100Y-123454200I147500J0D01*
G01*
X118659100Y-123454200D01*
G75*
G02*
X118806600Y-123601700I0J-147500D01*
G01*
X118806600Y-123946700D01*
G75*
G02*
X118659100Y-124094200I-147500J0D01*
G01*
X118364100Y-124094200D01*
G75*
G02*
X118216600Y-123946700I0J147500D01*
G01*
G37*
G36*
G01*
X119186600Y-123946700D02*
X119186600Y-123601700D01*
G75*
G02*
X119334100Y-123454200I147500J0D01*
G01*
X119629100Y-123454200D01*
G75*
G02*
X119776600Y-123601700I0J-147500D01*
G01*
X119776600Y-123946700D01*
G75*
G02*
X119629100Y-124094200I-147500J0D01*
G01*
X119334100Y-124094200D01*
G75*
G02*
X119186600Y-123946700I0J147500D01*
G01*
G37*
G36*
G01*
X119654100Y-125085200D02*
X119309100Y-125085200D01*
G75*
G02*
X119161600Y-124937700I0J147500D01*
G01*
X119161600Y-124642700D01*
G75*
G02*
X119309100Y-124495200I147500J0D01*
G01*
X119654100Y-124495200D01*
G75*
G02*
X119801600Y-124642700I0J-147500D01*
G01*
X119801600Y-124937700D01*
G75*
G02*
X119654100Y-125085200I-147500J0D01*
G01*
G37*
G36*
G01*
X119654100Y-126055200D02*
X119309100Y-126055200D01*
G75*
G02*
X119161600Y-125907700I0J147500D01*
G01*
X119161600Y-125612700D01*
G75*
G02*
X119309100Y-125465200I147500J0D01*
G01*
X119654100Y-125465200D01*
G75*
G02*
X119801600Y-125612700I0J-147500D01*
G01*
X119801600Y-125907700D01*
G75*
G02*
X119654100Y-126055200I-147500J0D01*
G01*
G37*
G36*
G01*
X177601380Y-95153260D02*
X177601380Y-94808260D01*
G75*
G02*
X177748880Y-94660760I147500J0D01*
G01*
X178043880Y-94660760D01*
G75*
G02*
X178191380Y-94808260I0J-147500D01*
G01*
X178191380Y-95153260D01*
G75*
G02*
X178043880Y-95300760I-147500J0D01*
G01*
X177748880Y-95300760D01*
G75*
G02*
X177601380Y-95153260I0J147500D01*
G01*
G37*
G36*
G01*
X176631380Y-95153260D02*
X176631380Y-94808260D01*
G75*
G02*
X176778880Y-94660760I147500J0D01*
G01*
X177073880Y-94660760D01*
G75*
G02*
X177221380Y-94808260I0J-147500D01*
G01*
X177221380Y-95153260D01*
G75*
G02*
X177073880Y-95300760I-147500J0D01*
G01*
X176778880Y-95300760D01*
G75*
G02*
X176631380Y-95153260I0J147500D01*
G01*
G37*
G36*
G01*
X176588060Y-93862940D02*
X176588060Y-93517940D01*
G75*
G02*
X176735560Y-93370440I147500J0D01*
G01*
X177030560Y-93370440D01*
G75*
G02*
X177178060Y-93517940I0J-147500D01*
G01*
X177178060Y-93862940D01*
G75*
G02*
X177030560Y-94010440I-147500J0D01*
G01*
X176735560Y-94010440D01*
G75*
G02*
X176588060Y-93862940I0J147500D01*
G01*
G37*
G36*
G01*
X177558060Y-93862940D02*
X177558060Y-93517940D01*
G75*
G02*
X177705560Y-93370440I147500J0D01*
G01*
X178000560Y-93370440D01*
G75*
G02*
X178148060Y-93517940I0J-147500D01*
G01*
X178148060Y-93862940D01*
G75*
G02*
X178000560Y-94010440I-147500J0D01*
G01*
X177705560Y-94010440D01*
G75*
G02*
X177558060Y-93862940I0J147500D01*
G01*
G37*
G36*
G01*
X176600900Y-92633580D02*
X176600900Y-92288580D01*
G75*
G02*
X176748400Y-92141080I147500J0D01*
G01*
X177043400Y-92141080D01*
G75*
G02*
X177190900Y-92288580I0J-147500D01*
G01*
X177190900Y-92633580D01*
G75*
G02*
X177043400Y-92781080I-147500J0D01*
G01*
X176748400Y-92781080D01*
G75*
G02*
X176600900Y-92633580I0J147500D01*
G01*
G37*
G36*
G01*
X177570900Y-92633580D02*
X177570900Y-92288580D01*
G75*
G02*
X177718400Y-92141080I147500J0D01*
G01*
X178013400Y-92141080D01*
G75*
G02*
X178160900Y-92288580I0J-147500D01*
G01*
X178160900Y-92633580D01*
G75*
G02*
X178013400Y-92781080I-147500J0D01*
G01*
X177718400Y-92781080D01*
G75*
G02*
X177570900Y-92633580I0J147500D01*
G01*
G37*
G36*
G01*
X163907460Y-121642620D02*
X164382460Y-121642620D01*
G75*
G02*
X164619960Y-121880120I0J-237500D01*
G01*
X164619960Y-122455120D01*
G75*
G02*
X164382460Y-122692620I-237500J0D01*
G01*
X163907460Y-122692620D01*
G75*
G02*
X163669960Y-122455120I0J237500D01*
G01*
X163669960Y-121880120D01*
G75*
G02*
X163907460Y-121642620I237500J0D01*
G01*
G37*
G36*
G01*
X163907460Y-119892620D02*
X164382460Y-119892620D01*
G75*
G02*
X164619960Y-120130120I0J-237500D01*
G01*
X164619960Y-120705120D01*
G75*
G02*
X164382460Y-120942620I-237500J0D01*
G01*
X163907460Y-120942620D01*
G75*
G02*
X163669960Y-120705120I0J237500D01*
G01*
X163669960Y-120130120D01*
G75*
G02*
X163907460Y-119892620I237500J0D01*
G01*
G37*
G36*
G01*
X160177700Y-131205600D02*
X160522700Y-131205600D01*
G75*
G02*
X160670200Y-131353100I0J-147500D01*
G01*
X160670200Y-131648100D01*
G75*
G02*
X160522700Y-131795600I-147500J0D01*
G01*
X160177700Y-131795600D01*
G75*
G02*
X160030200Y-131648100I0J147500D01*
G01*
X160030200Y-131353100D01*
G75*
G02*
X160177700Y-131205600I147500J0D01*
G01*
G37*
G36*
G01*
X160177700Y-130235600D02*
X160522700Y-130235600D01*
G75*
G02*
X160670200Y-130383100I0J-147500D01*
G01*
X160670200Y-130678100D01*
G75*
G02*
X160522700Y-130825600I-147500J0D01*
G01*
X160177700Y-130825600D01*
G75*
G02*
X160030200Y-130678100I0J147500D01*
G01*
X160030200Y-130383100D01*
G75*
G02*
X160177700Y-130235600I147500J0D01*
G01*
G37*
G36*
G01*
X151190600Y-126791500D02*
X151190600Y-126446500D01*
G75*
G02*
X151338100Y-126299000I147500J0D01*
G01*
X151633100Y-126299000D01*
G75*
G02*
X151780600Y-126446500I0J-147500D01*
G01*
X151780600Y-126791500D01*
G75*
G02*
X151633100Y-126939000I-147500J0D01*
G01*
X151338100Y-126939000D01*
G75*
G02*
X151190600Y-126791500I0J147500D01*
G01*
G37*
G36*
G01*
X152160600Y-126791500D02*
X152160600Y-126446500D01*
G75*
G02*
X152308100Y-126299000I147500J0D01*
G01*
X152603100Y-126299000D01*
G75*
G02*
X152750600Y-126446500I0J-147500D01*
G01*
X152750600Y-126791500D01*
G75*
G02*
X152603100Y-126939000I-147500J0D01*
G01*
X152308100Y-126939000D01*
G75*
G02*
X152160600Y-126791500I0J147500D01*
G01*
G37*
G36*
G01*
X52210200Y-96372900D02*
X52210200Y-96717900D01*
G75*
G02*
X52062700Y-96865400I-147500J0D01*
G01*
X51767700Y-96865400D01*
G75*
G02*
X51620200Y-96717900I0J147500D01*
G01*
X51620200Y-96372900D01*
G75*
G02*
X51767700Y-96225400I147500J0D01*
G01*
X52062700Y-96225400D01*
G75*
G02*
X52210200Y-96372900I0J-147500D01*
G01*
G37*
G36*
G01*
X53180200Y-96372900D02*
X53180200Y-96717900D01*
G75*
G02*
X53032700Y-96865400I-147500J0D01*
G01*
X52737700Y-96865400D01*
G75*
G02*
X52590200Y-96717900I0J147500D01*
G01*
X52590200Y-96372900D01*
G75*
G02*
X52737700Y-96225400I147500J0D01*
G01*
X53032700Y-96225400D01*
G75*
G02*
X53180200Y-96372900I0J-147500D01*
G01*
G37*
G36*
G01*
X57827500Y-95190000D02*
X58172500Y-95190000D01*
G75*
G02*
X58320000Y-95337500I0J-147500D01*
G01*
X58320000Y-95632500D01*
G75*
G02*
X58172500Y-95780000I-147500J0D01*
G01*
X57827500Y-95780000D01*
G75*
G02*
X57680000Y-95632500I0J147500D01*
G01*
X57680000Y-95337500D01*
G75*
G02*
X57827500Y-95190000I147500J0D01*
G01*
G37*
G36*
G01*
X57827500Y-94220000D02*
X58172500Y-94220000D01*
G75*
G02*
X58320000Y-94367500I0J-147500D01*
G01*
X58320000Y-94662500D01*
G75*
G02*
X58172500Y-94810000I-147500J0D01*
G01*
X57827500Y-94810000D01*
G75*
G02*
X57680000Y-94662500I0J147500D01*
G01*
X57680000Y-94367500D01*
G75*
G02*
X57827500Y-94220000I147500J0D01*
G01*
G37*
G36*
G01*
X67827500Y-94220000D02*
X68172500Y-94220000D01*
G75*
G02*
X68320000Y-94367500I0J-147500D01*
G01*
X68320000Y-94662500D01*
G75*
G02*
X68172500Y-94810000I-147500J0D01*
G01*
X67827500Y-94810000D01*
G75*
G02*
X67680000Y-94662500I0J147500D01*
G01*
X67680000Y-94367500D01*
G75*
G02*
X67827500Y-94220000I147500J0D01*
G01*
G37*
G36*
G01*
X67827500Y-95190000D02*
X68172500Y-95190000D01*
G75*
G02*
X68320000Y-95337500I0J-147500D01*
G01*
X68320000Y-95632500D01*
G75*
G02*
X68172500Y-95780000I-147500J0D01*
G01*
X67827500Y-95780000D01*
G75*
G02*
X67680000Y-95632500I0J147500D01*
G01*
X67680000Y-95337500D01*
G75*
G02*
X67827500Y-95190000I147500J0D01*
G01*
G37*
G36*
G01*
X77827500Y-94220000D02*
X78172500Y-94220000D01*
G75*
G02*
X78320000Y-94367500I0J-147500D01*
G01*
X78320000Y-94662500D01*
G75*
G02*
X78172500Y-94810000I-147500J0D01*
G01*
X77827500Y-94810000D01*
G75*
G02*
X77680000Y-94662500I0J147500D01*
G01*
X77680000Y-94367500D01*
G75*
G02*
X77827500Y-94220000I147500J0D01*
G01*
G37*
G36*
G01*
X77827500Y-95190000D02*
X78172500Y-95190000D01*
G75*
G02*
X78320000Y-95337500I0J-147500D01*
G01*
X78320000Y-95632500D01*
G75*
G02*
X78172500Y-95780000I-147500J0D01*
G01*
X77827500Y-95780000D01*
G75*
G02*
X77680000Y-95632500I0J147500D01*
G01*
X77680000Y-95337500D01*
G75*
G02*
X77827500Y-95190000I147500J0D01*
G01*
G37*
G36*
G01*
X79810000Y-99827500D02*
X79810000Y-100172500D01*
G75*
G02*
X79662500Y-100320000I-147500J0D01*
G01*
X79367500Y-100320000D01*
G75*
G02*
X79220000Y-100172500I0J147500D01*
G01*
X79220000Y-99827500D01*
G75*
G02*
X79367500Y-99680000I147500J0D01*
G01*
X79662500Y-99680000D01*
G75*
G02*
X79810000Y-99827500I0J-147500D01*
G01*
G37*
G36*
G01*
X80780000Y-99827500D02*
X80780000Y-100172500D01*
G75*
G02*
X80632500Y-100320000I-147500J0D01*
G01*
X80337500Y-100320000D01*
G75*
G02*
X80190000Y-100172500I0J147500D01*
G01*
X80190000Y-99827500D01*
G75*
G02*
X80337500Y-99680000I147500J0D01*
G01*
X80632500Y-99680000D01*
G75*
G02*
X80780000Y-99827500I0J-147500D01*
G01*
G37*
G36*
G01*
X80780000Y-109827500D02*
X80780000Y-110172500D01*
G75*
G02*
X80632500Y-110320000I-147500J0D01*
G01*
X80337500Y-110320000D01*
G75*
G02*
X80190000Y-110172500I0J147500D01*
G01*
X80190000Y-109827500D01*
G75*
G02*
X80337500Y-109680000I147500J0D01*
G01*
X80632500Y-109680000D01*
G75*
G02*
X80780000Y-109827500I0J-147500D01*
G01*
G37*
G36*
G01*
X79810000Y-109827500D02*
X79810000Y-110172500D01*
G75*
G02*
X79662500Y-110320000I-147500J0D01*
G01*
X79367500Y-110320000D01*
G75*
G02*
X79220000Y-110172500I0J147500D01*
G01*
X79220000Y-109827500D01*
G75*
G02*
X79367500Y-109680000I147500J0D01*
G01*
X79662500Y-109680000D01*
G75*
G02*
X79810000Y-109827500I0J-147500D01*
G01*
G37*
G36*
G01*
X79810000Y-119827500D02*
X79810000Y-120172500D01*
G75*
G02*
X79662500Y-120320000I-147500J0D01*
G01*
X79367500Y-120320000D01*
G75*
G02*
X79220000Y-120172500I0J147500D01*
G01*
X79220000Y-119827500D01*
G75*
G02*
X79367500Y-119680000I147500J0D01*
G01*
X79662500Y-119680000D01*
G75*
G02*
X79810000Y-119827500I0J-147500D01*
G01*
G37*
G36*
G01*
X80780000Y-119827500D02*
X80780000Y-120172500D01*
G75*
G02*
X80632500Y-120320000I-147500J0D01*
G01*
X80337500Y-120320000D01*
G75*
G02*
X80190000Y-120172500I0J147500D01*
G01*
X80190000Y-119827500D01*
G75*
G02*
X80337500Y-119680000I147500J0D01*
G01*
X80632500Y-119680000D01*
G75*
G02*
X80780000Y-119827500I0J-147500D01*
G01*
G37*
G36*
G01*
X79810000Y-129827500D02*
X79810000Y-130172500D01*
G75*
G02*
X79662500Y-130320000I-147500J0D01*
G01*
X79367500Y-130320000D01*
G75*
G02*
X79220000Y-130172500I0J147500D01*
G01*
X79220000Y-129827500D01*
G75*
G02*
X79367500Y-129680000I147500J0D01*
G01*
X79662500Y-129680000D01*
G75*
G02*
X79810000Y-129827500I0J-147500D01*
G01*
G37*
G36*
G01*
X80780000Y-129827500D02*
X80780000Y-130172500D01*
G75*
G02*
X80632500Y-130320000I-147500J0D01*
G01*
X80337500Y-130320000D01*
G75*
G02*
X80190000Y-130172500I0J147500D01*
G01*
X80190000Y-129827500D01*
G75*
G02*
X80337500Y-129680000I147500J0D01*
G01*
X80632500Y-129680000D01*
G75*
G02*
X80780000Y-129827500I0J-147500D01*
G01*
G37*
G36*
G01*
X58133200Y-62681900D02*
X58478200Y-62681900D01*
G75*
G02*
X58625700Y-62829400I0J-147500D01*
G01*
X58625700Y-63124400D01*
G75*
G02*
X58478200Y-63271900I-147500J0D01*
G01*
X58133200Y-63271900D01*
G75*
G02*
X57985700Y-63124400I0J147500D01*
G01*
X57985700Y-62829400D01*
G75*
G02*
X58133200Y-62681900I147500J0D01*
G01*
G37*
G36*
G01*
X58133200Y-63651900D02*
X58478200Y-63651900D01*
G75*
G02*
X58625700Y-63799400I0J-147500D01*
G01*
X58625700Y-64094400D01*
G75*
G02*
X58478200Y-64241900I-147500J0D01*
G01*
X58133200Y-64241900D01*
G75*
G02*
X57985700Y-64094400I0J147500D01*
G01*
X57985700Y-63799400D01*
G75*
G02*
X58133200Y-63651900I147500J0D01*
G01*
G37*
G36*
G01*
X59238100Y-57295000D02*
X59238100Y-57640000D01*
G75*
G02*
X59090600Y-57787500I-147500J0D01*
G01*
X58795600Y-57787500D01*
G75*
G02*
X58648100Y-57640000I0J147500D01*
G01*
X58648100Y-57295000D01*
G75*
G02*
X58795600Y-57147500I147500J0D01*
G01*
X59090600Y-57147500D01*
G75*
G02*
X59238100Y-57295000I0J-147500D01*
G01*
G37*
G36*
G01*
X58268100Y-57295000D02*
X58268100Y-57640000D01*
G75*
G02*
X58120600Y-57787500I-147500J0D01*
G01*
X57825600Y-57787500D01*
G75*
G02*
X57678100Y-57640000I0J147500D01*
G01*
X57678100Y-57295000D01*
G75*
G02*
X57825600Y-57147500I147500J0D01*
G01*
X58120600Y-57147500D01*
G75*
G02*
X58268100Y-57295000I0J-147500D01*
G01*
G37*
G36*
G01*
X58257800Y-58412600D02*
X58257800Y-58757600D01*
G75*
G02*
X58110300Y-58905100I-147500J0D01*
G01*
X57815300Y-58905100D01*
G75*
G02*
X57667800Y-58757600I0J147500D01*
G01*
X57667800Y-58412600D01*
G75*
G02*
X57815300Y-58265100I147500J0D01*
G01*
X58110300Y-58265100D01*
G75*
G02*
X58257800Y-58412600I0J-147500D01*
G01*
G37*
G36*
G01*
X59227800Y-58412600D02*
X59227800Y-58757600D01*
G75*
G02*
X59080300Y-58905100I-147500J0D01*
G01*
X58785300Y-58905100D01*
G75*
G02*
X58637800Y-58757600I0J147500D01*
G01*
X58637800Y-58412600D01*
G75*
G02*
X58785300Y-58265100I147500J0D01*
G01*
X59080300Y-58265100D01*
G75*
G02*
X59227800Y-58412600I0J-147500D01*
G01*
G37*
G36*
G01*
X63416400Y-56171600D02*
X63761400Y-56171600D01*
G75*
G02*
X63908900Y-56319100I0J-147500D01*
G01*
X63908900Y-56614100D01*
G75*
G02*
X63761400Y-56761600I-147500J0D01*
G01*
X63416400Y-56761600D01*
G75*
G02*
X63268900Y-56614100I0J147500D01*
G01*
X63268900Y-56319100D01*
G75*
G02*
X63416400Y-56171600I147500J0D01*
G01*
G37*
G36*
G01*
X63416400Y-55201600D02*
X63761400Y-55201600D01*
G75*
G02*
X63908900Y-55349100I0J-147500D01*
G01*
X63908900Y-55644100D01*
G75*
G02*
X63761400Y-55791600I-147500J0D01*
G01*
X63416400Y-55791600D01*
G75*
G02*
X63268900Y-55644100I0J147500D01*
G01*
X63268900Y-55349100D01*
G75*
G02*
X63416400Y-55201600I147500J0D01*
G01*
G37*
G36*
G01*
X64470500Y-55199200D02*
X64815500Y-55199200D01*
G75*
G02*
X64963000Y-55346700I0J-147500D01*
G01*
X64963000Y-55641700D01*
G75*
G02*
X64815500Y-55789200I-147500J0D01*
G01*
X64470500Y-55789200D01*
G75*
G02*
X64323000Y-55641700I0J147500D01*
G01*
X64323000Y-55346700D01*
G75*
G02*
X64470500Y-55199200I147500J0D01*
G01*
G37*
G36*
G01*
X64470500Y-56169200D02*
X64815500Y-56169200D01*
G75*
G02*
X64963000Y-56316700I0J-147500D01*
G01*
X64963000Y-56611700D01*
G75*
G02*
X64815500Y-56759200I-147500J0D01*
G01*
X64470500Y-56759200D01*
G75*
G02*
X64323000Y-56611700I0J147500D01*
G01*
X64323000Y-56316700D01*
G75*
G02*
X64470500Y-56169200I147500J0D01*
G01*
G37*
G36*
G01*
X65257900Y-59217200D02*
X65602900Y-59217200D01*
G75*
G02*
X65750400Y-59364700I0J-147500D01*
G01*
X65750400Y-59659700D01*
G75*
G02*
X65602900Y-59807200I-147500J0D01*
G01*
X65257900Y-59807200D01*
G75*
G02*
X65110400Y-59659700I0J147500D01*
G01*
X65110400Y-59364700D01*
G75*
G02*
X65257900Y-59217200I147500J0D01*
G01*
G37*
G36*
G01*
X65257900Y-58247200D02*
X65602900Y-58247200D01*
G75*
G02*
X65750400Y-58394700I0J-147500D01*
G01*
X65750400Y-58689700D01*
G75*
G02*
X65602900Y-58837200I-147500J0D01*
G01*
X65257900Y-58837200D01*
G75*
G02*
X65110400Y-58689700I0J147500D01*
G01*
X65110400Y-58394700D01*
G75*
G02*
X65257900Y-58247200I147500J0D01*
G01*
G37*
G36*
G01*
X65194400Y-62427900D02*
X65539400Y-62427900D01*
G75*
G02*
X65686900Y-62575400I0J-147500D01*
G01*
X65686900Y-62870400D01*
G75*
G02*
X65539400Y-63017900I-147500J0D01*
G01*
X65194400Y-63017900D01*
G75*
G02*
X65046900Y-62870400I0J147500D01*
G01*
X65046900Y-62575400D01*
G75*
G02*
X65194400Y-62427900I147500J0D01*
G01*
G37*
G36*
G01*
X65194400Y-63397900D02*
X65539400Y-63397900D01*
G75*
G02*
X65686900Y-63545400I0J-147500D01*
G01*
X65686900Y-63840400D01*
G75*
G02*
X65539400Y-63987900I-147500J0D01*
G01*
X65194400Y-63987900D01*
G75*
G02*
X65046900Y-63840400I0J147500D01*
G01*
X65046900Y-63545400D01*
G75*
G02*
X65194400Y-63397900I147500J0D01*
G01*
G37*
G36*
G01*
X61371700Y-54234000D02*
X61716700Y-54234000D01*
G75*
G02*
X61864200Y-54381500I0J-147500D01*
G01*
X61864200Y-54676500D01*
G75*
G02*
X61716700Y-54824000I-147500J0D01*
G01*
X61371700Y-54824000D01*
G75*
G02*
X61224200Y-54676500I0J147500D01*
G01*
X61224200Y-54381500D01*
G75*
G02*
X61371700Y-54234000I147500J0D01*
G01*
G37*
G36*
G01*
X61371700Y-55204000D02*
X61716700Y-55204000D01*
G75*
G02*
X61864200Y-55351500I0J-147500D01*
G01*
X61864200Y-55646500D01*
G75*
G02*
X61716700Y-55794000I-147500J0D01*
G01*
X61371700Y-55794000D01*
G75*
G02*
X61224200Y-55646500I0J147500D01*
G01*
X61224200Y-55351500D01*
G75*
G02*
X61371700Y-55204000I147500J0D01*
G01*
G37*
G36*
G01*
X60241100Y-53690300D02*
X60241100Y-53345300D01*
G75*
G02*
X60388600Y-53197800I147500J0D01*
G01*
X60683600Y-53197800D01*
G75*
G02*
X60831100Y-53345300I0J-147500D01*
G01*
X60831100Y-53690300D01*
G75*
G02*
X60683600Y-53837800I-147500J0D01*
G01*
X60388600Y-53837800D01*
G75*
G02*
X60241100Y-53690300I0J147500D01*
G01*
G37*
G36*
G01*
X61211100Y-53690300D02*
X61211100Y-53345300D01*
G75*
G02*
X61358600Y-53197800I147500J0D01*
G01*
X61653600Y-53197800D01*
G75*
G02*
X61801100Y-53345300I0J-147500D01*
G01*
X61801100Y-53690300D01*
G75*
G02*
X61653600Y-53837800I-147500J0D01*
G01*
X61358600Y-53837800D01*
G75*
G02*
X61211100Y-53690300I0J147500D01*
G01*
G37*
G36*
G01*
X62906000Y-57295000D02*
X62906000Y-57640000D01*
G75*
G02*
X62758500Y-57787500I-147500J0D01*
G01*
X62463500Y-57787500D01*
G75*
G02*
X62316000Y-57640000I0J147500D01*
G01*
X62316000Y-57295000D01*
G75*
G02*
X62463500Y-57147500I147500J0D01*
G01*
X62758500Y-57147500D01*
G75*
G02*
X62906000Y-57295000I0J-147500D01*
G01*
G37*
G36*
G01*
X63876000Y-57295000D02*
X63876000Y-57640000D01*
G75*
G02*
X63728500Y-57787500I-147500J0D01*
G01*
X63433500Y-57787500D01*
G75*
G02*
X63286000Y-57640000I0J147500D01*
G01*
X63286000Y-57295000D01*
G75*
G02*
X63433500Y-57147500I147500J0D01*
G01*
X63728500Y-57147500D01*
G75*
G02*
X63876000Y-57295000I0J-147500D01*
G01*
G37*
G36*
G01*
X62794100Y-58374500D02*
X62794100Y-58719500D01*
G75*
G02*
X62646600Y-58867000I-147500J0D01*
G01*
X62351600Y-58867000D01*
G75*
G02*
X62204100Y-58719500I0J147500D01*
G01*
X62204100Y-58374500D01*
G75*
G02*
X62351600Y-58227000I147500J0D01*
G01*
X62646600Y-58227000D01*
G75*
G02*
X62794100Y-58374500I0J-147500D01*
G01*
G37*
G36*
G01*
X61824100Y-58374500D02*
X61824100Y-58719500D01*
G75*
G02*
X61676600Y-58867000I-147500J0D01*
G01*
X61381600Y-58867000D01*
G75*
G02*
X61234100Y-58719500I0J147500D01*
G01*
X61234100Y-58374500D01*
G75*
G02*
X61381600Y-58227000I147500J0D01*
G01*
X61676600Y-58227000D01*
G75*
G02*
X61824100Y-58374500I0J-147500D01*
G01*
G37*
G36*
G01*
X61359000Y-56202500D02*
X61704000Y-56202500D01*
G75*
G02*
X61851500Y-56350000I0J-147500D01*
G01*
X61851500Y-56645000D01*
G75*
G02*
X61704000Y-56792500I-147500J0D01*
G01*
X61359000Y-56792500D01*
G75*
G02*
X61211500Y-56645000I0J147500D01*
G01*
X61211500Y-56350000D01*
G75*
G02*
X61359000Y-56202500I147500J0D01*
G01*
G37*
G36*
G01*
X61359000Y-57172500D02*
X61704000Y-57172500D01*
G75*
G02*
X61851500Y-57320000I0J-147500D01*
G01*
X61851500Y-57615000D01*
G75*
G02*
X61704000Y-57762500I-147500J0D01*
G01*
X61359000Y-57762500D01*
G75*
G02*
X61211500Y-57615000I0J147500D01*
G01*
X61211500Y-57320000D01*
G75*
G02*
X61359000Y-57172500I147500J0D01*
G01*
G37*
G36*
G01*
X58402000Y-60988300D02*
X58057000Y-60988300D01*
G75*
G02*
X57909500Y-60840800I0J147500D01*
G01*
X57909500Y-60545800D01*
G75*
G02*
X58057000Y-60398300I147500J0D01*
G01*
X58402000Y-60398300D01*
G75*
G02*
X58549500Y-60545800I0J-147500D01*
G01*
X58549500Y-60840800D01*
G75*
G02*
X58402000Y-60988300I-147500J0D01*
G01*
G37*
G36*
G01*
X58402000Y-60018300D02*
X58057000Y-60018300D01*
G75*
G02*
X57909500Y-59870800I0J147500D01*
G01*
X57909500Y-59575800D01*
G75*
G02*
X58057000Y-59428300I147500J0D01*
G01*
X58402000Y-59428300D01*
G75*
G02*
X58549500Y-59575800I0J-147500D01*
G01*
X58549500Y-59870800D01*
G75*
G02*
X58402000Y-60018300I-147500J0D01*
G01*
G37*
G36*
G01*
X65257900Y-61300000D02*
X65602900Y-61300000D01*
G75*
G02*
X65750400Y-61447500I0J-147500D01*
G01*
X65750400Y-61742500D01*
G75*
G02*
X65602900Y-61890000I-147500J0D01*
G01*
X65257900Y-61890000D01*
G75*
G02*
X65110400Y-61742500I0J147500D01*
G01*
X65110400Y-61447500D01*
G75*
G02*
X65257900Y-61300000I147500J0D01*
G01*
G37*
G36*
G01*
X65257900Y-60330000D02*
X65602900Y-60330000D01*
G75*
G02*
X65750400Y-60477500I0J-147500D01*
G01*
X65750400Y-60772500D01*
G75*
G02*
X65602900Y-60920000I-147500J0D01*
G01*
X65257900Y-60920000D01*
G75*
G02*
X65110400Y-60772500I0J147500D01*
G01*
X65110400Y-60477500D01*
G75*
G02*
X65257900Y-60330000I147500J0D01*
G01*
G37*
G36*
G01*
X61174200Y-62953600D02*
X60664200Y-62953600D01*
G75*
G02*
X60414200Y-62703600I0J250000D01*
G01*
X60414200Y-62193600D01*
G75*
G02*
X60664200Y-61943600I250000J0D01*
G01*
X61174200Y-61943600D01*
G75*
G02*
X61424200Y-62193600I0J-250000D01*
G01*
X61424200Y-62703600D01*
G75*
G02*
X61174200Y-62953600I-250000J0D01*
G01*
G37*
G36*
G01*
X62424200Y-62953600D02*
X61914200Y-62953600D01*
G75*
G02*
X61664200Y-62703600I0J250000D01*
G01*
X61664200Y-62193600D01*
G75*
G02*
X61914200Y-61943600I250000J0D01*
G01*
X62424200Y-61943600D01*
G75*
G02*
X62674200Y-62193600I0J-250000D01*
G01*
X62674200Y-62703600D01*
G75*
G02*
X62424200Y-62953600I-250000J0D01*
G01*
G37*
G36*
G01*
X61174200Y-61703600D02*
X60664200Y-61703600D01*
G75*
G02*
X60414200Y-61453600I0J250000D01*
G01*
X60414200Y-60943600D01*
G75*
G02*
X60664200Y-60693600I250000J0D01*
G01*
X61174200Y-60693600D01*
G75*
G02*
X61424200Y-60943600I0J-250000D01*
G01*
X61424200Y-61453600D01*
G75*
G02*
X61174200Y-61703600I-250000J0D01*
G01*
G37*
G36*
G01*
X62424200Y-61703600D02*
X61914200Y-61703600D01*
G75*
G02*
X61664200Y-61453600I0J250000D01*
G01*
X61664200Y-60943600D01*
G75*
G02*
X61914200Y-60693600I250000J0D01*
G01*
X62424200Y-60693600D01*
G75*
G02*
X62674200Y-60943600I0J-250000D01*
G01*
X62674200Y-61453600D01*
G75*
G02*
X62424200Y-61703600I-250000J0D01*
G01*
G37*
G36*
G01*
X60606700Y-64173600D02*
X60481700Y-64173600D01*
G75*
G02*
X60419200Y-64111100I0J62500D01*
G01*
X60419200Y-63411100D01*
G75*
G02*
X60481700Y-63348600I62500J0D01*
G01*
X60606700Y-63348600D01*
G75*
G02*
X60669200Y-63411100I0J-62500D01*
G01*
X60669200Y-64111100D01*
G75*
G02*
X60606700Y-64173600I-62500J0D01*
G01*
G37*
G36*
G01*
X61106700Y-64173600D02*
X60981700Y-64173600D01*
G75*
G02*
X60919200Y-64111100I0J62500D01*
G01*
X60919200Y-63411100D01*
G75*
G02*
X60981700Y-63348600I62500J0D01*
G01*
X61106700Y-63348600D01*
G75*
G02*
X61169200Y-63411100I0J-62500D01*
G01*
X61169200Y-64111100D01*
G75*
G02*
X61106700Y-64173600I-62500J0D01*
G01*
G37*
G36*
G01*
X61606700Y-64173600D02*
X61481700Y-64173600D01*
G75*
G02*
X61419200Y-64111100I0J62500D01*
G01*
X61419200Y-63411100D01*
G75*
G02*
X61481700Y-63348600I62500J0D01*
G01*
X61606700Y-63348600D01*
G75*
G02*
X61669200Y-63411100I0J-62500D01*
G01*
X61669200Y-64111100D01*
G75*
G02*
X61606700Y-64173600I-62500J0D01*
G01*
G37*
G36*
G01*
X62106700Y-64173600D02*
X61981700Y-64173600D01*
G75*
G02*
X61919200Y-64111100I0J62500D01*
G01*
X61919200Y-63411100D01*
G75*
G02*
X61981700Y-63348600I62500J0D01*
G01*
X62106700Y-63348600D01*
G75*
G02*
X62169200Y-63411100I0J-62500D01*
G01*
X62169200Y-64111100D01*
G75*
G02*
X62106700Y-64173600I-62500J0D01*
G01*
G37*
G36*
G01*
X62606700Y-64173600D02*
X62481700Y-64173600D01*
G75*
G02*
X62419200Y-64111100I0J62500D01*
G01*
X62419200Y-63411100D01*
G75*
G02*
X62481700Y-63348600I62500J0D01*
G01*
X62606700Y-63348600D01*
G75*
G02*
X62669200Y-63411100I0J-62500D01*
G01*
X62669200Y-64111100D01*
G75*
G02*
X62606700Y-64173600I-62500J0D01*
G01*
G37*
G36*
G01*
X63831700Y-62948600D02*
X63131700Y-62948600D01*
G75*
G02*
X63069200Y-62886100I0J62500D01*
G01*
X63069200Y-62761100D01*
G75*
G02*
X63131700Y-62698600I62500J0D01*
G01*
X63831700Y-62698600D01*
G75*
G02*
X63894200Y-62761100I0J-62500D01*
G01*
X63894200Y-62886100D01*
G75*
G02*
X63831700Y-62948600I-62500J0D01*
G01*
G37*
G36*
G01*
X63831700Y-62448600D02*
X63131700Y-62448600D01*
G75*
G02*
X63069200Y-62386100I0J62500D01*
G01*
X63069200Y-62261100D01*
G75*
G02*
X63131700Y-62198600I62500J0D01*
G01*
X63831700Y-62198600D01*
G75*
G02*
X63894200Y-62261100I0J-62500D01*
G01*
X63894200Y-62386100D01*
G75*
G02*
X63831700Y-62448600I-62500J0D01*
G01*
G37*
G36*
G01*
X63831700Y-61948600D02*
X63131700Y-61948600D01*
G75*
G02*
X63069200Y-61886100I0J62500D01*
G01*
X63069200Y-61761100D01*
G75*
G02*
X63131700Y-61698600I62500J0D01*
G01*
X63831700Y-61698600D01*
G75*
G02*
X63894200Y-61761100I0J-62500D01*
G01*
X63894200Y-61886100D01*
G75*
G02*
X63831700Y-61948600I-62500J0D01*
G01*
G37*
G36*
G01*
X63831700Y-61448600D02*
X63131700Y-61448600D01*
G75*
G02*
X63069200Y-61386100I0J62500D01*
G01*
X63069200Y-61261100D01*
G75*
G02*
X63131700Y-61198600I62500J0D01*
G01*
X63831700Y-61198600D01*
G75*
G02*
X63894200Y-61261100I0J-62500D01*
G01*
X63894200Y-61386100D01*
G75*
G02*
X63831700Y-61448600I-62500J0D01*
G01*
G37*
G36*
G01*
X63831700Y-60948600D02*
X63131700Y-60948600D01*
G75*
G02*
X63069200Y-60886100I0J62500D01*
G01*
X63069200Y-60761100D01*
G75*
G02*
X63131700Y-60698600I62500J0D01*
G01*
X63831700Y-60698600D01*
G75*
G02*
X63894200Y-60761100I0J-62500D01*
G01*
X63894200Y-60886100D01*
G75*
G02*
X63831700Y-60948600I-62500J0D01*
G01*
G37*
G36*
G01*
X62606700Y-60298600D02*
X62481700Y-60298600D01*
G75*
G02*
X62419200Y-60236100I0J62500D01*
G01*
X62419200Y-59536100D01*
G75*
G02*
X62481700Y-59473600I62500J0D01*
G01*
X62606700Y-59473600D01*
G75*
G02*
X62669200Y-59536100I0J-62500D01*
G01*
X62669200Y-60236100D01*
G75*
G02*
X62606700Y-60298600I-62500J0D01*
G01*
G37*
G36*
G01*
X62106700Y-60298600D02*
X61981700Y-60298600D01*
G75*
G02*
X61919200Y-60236100I0J62500D01*
G01*
X61919200Y-59536100D01*
G75*
G02*
X61981700Y-59473600I62500J0D01*
G01*
X62106700Y-59473600D01*
G75*
G02*
X62169200Y-59536100I0J-62500D01*
G01*
X62169200Y-60236100D01*
G75*
G02*
X62106700Y-60298600I-62500J0D01*
G01*
G37*
G36*
G01*
X61606700Y-60298600D02*
X61481700Y-60298600D01*
G75*
G02*
X61419200Y-60236100I0J62500D01*
G01*
X61419200Y-59536100D01*
G75*
G02*
X61481700Y-59473600I62500J0D01*
G01*
X61606700Y-59473600D01*
G75*
G02*
X61669200Y-59536100I0J-62500D01*
G01*
X61669200Y-60236100D01*
G75*
G02*
X61606700Y-60298600I-62500J0D01*
G01*
G37*
G36*
G01*
X61106700Y-60298600D02*
X60981700Y-60298600D01*
G75*
G02*
X60919200Y-60236100I0J62500D01*
G01*
X60919200Y-59536100D01*
G75*
G02*
X60981700Y-59473600I62500J0D01*
G01*
X61106700Y-59473600D01*
G75*
G02*
X61169200Y-59536100I0J-62500D01*
G01*
X61169200Y-60236100D01*
G75*
G02*
X61106700Y-60298600I-62500J0D01*
G01*
G37*
G36*
G01*
X60606700Y-60298600D02*
X60481700Y-60298600D01*
G75*
G02*
X60419200Y-60236100I0J62500D01*
G01*
X60419200Y-59536100D01*
G75*
G02*
X60481700Y-59473600I62500J0D01*
G01*
X60606700Y-59473600D01*
G75*
G02*
X60669200Y-59536100I0J-62500D01*
G01*
X60669200Y-60236100D01*
G75*
G02*
X60606700Y-60298600I-62500J0D01*
G01*
G37*
G36*
G01*
X59956700Y-60948600D02*
X59256700Y-60948600D01*
G75*
G02*
X59194200Y-60886100I0J62500D01*
G01*
X59194200Y-60761100D01*
G75*
G02*
X59256700Y-60698600I62500J0D01*
G01*
X59956700Y-60698600D01*
G75*
G02*
X60019200Y-60761100I0J-62500D01*
G01*
X60019200Y-60886100D01*
G75*
G02*
X59956700Y-60948600I-62500J0D01*
G01*
G37*
G36*
G01*
X59956700Y-61448600D02*
X59256700Y-61448600D01*
G75*
G02*
X59194200Y-61386100I0J62500D01*
G01*
X59194200Y-61261100D01*
G75*
G02*
X59256700Y-61198600I62500J0D01*
G01*
X59956700Y-61198600D01*
G75*
G02*
X60019200Y-61261100I0J-62500D01*
G01*
X60019200Y-61386100D01*
G75*
G02*
X59956700Y-61448600I-62500J0D01*
G01*
G37*
G36*
G01*
X59956700Y-61948600D02*
X59256700Y-61948600D01*
G75*
G02*
X59194200Y-61886100I0J62500D01*
G01*
X59194200Y-61761100D01*
G75*
G02*
X59256700Y-61698600I62500J0D01*
G01*
X59956700Y-61698600D01*
G75*
G02*
X60019200Y-61761100I0J-62500D01*
G01*
X60019200Y-61886100D01*
G75*
G02*
X59956700Y-61948600I-62500J0D01*
G01*
G37*
G36*
G01*
X59956700Y-62448600D02*
X59256700Y-62448600D01*
G75*
G02*
X59194200Y-62386100I0J62500D01*
G01*
X59194200Y-62261100D01*
G75*
G02*
X59256700Y-62198600I62500J0D01*
G01*
X59956700Y-62198600D01*
G75*
G02*
X60019200Y-62261100I0J-62500D01*
G01*
X60019200Y-62386100D01*
G75*
G02*
X59956700Y-62448600I-62500J0D01*
G01*
G37*
G36*
G01*
X59956700Y-62948600D02*
X59256700Y-62948600D01*
G75*
G02*
X59194200Y-62886100I0J62500D01*
G01*
X59194200Y-62761100D01*
G75*
G02*
X59256700Y-62698600I62500J0D01*
G01*
X59956700Y-62698600D01*
G75*
G02*
X60019200Y-62761100I0J-62500D01*
G01*
X60019200Y-62886100D01*
G75*
G02*
X59956700Y-62948600I-62500J0D01*
G01*
G37*
G36*
G01*
X58796000Y-77259400D02*
X58796000Y-77604400D01*
G75*
G02*
X58648500Y-77751900I-147500J0D01*
G01*
X58353500Y-77751900D01*
G75*
G02*
X58206000Y-77604400I0J147500D01*
G01*
X58206000Y-77259400D01*
G75*
G02*
X58353500Y-77111900I147500J0D01*
G01*
X58648500Y-77111900D01*
G75*
G02*
X58796000Y-77259400I0J-147500D01*
G01*
G37*
G36*
G01*
X57826000Y-77259400D02*
X57826000Y-77604400D01*
G75*
G02*
X57678500Y-77751900I-147500J0D01*
G01*
X57383500Y-77751900D01*
G75*
G02*
X57236000Y-77604400I0J147500D01*
G01*
X57236000Y-77259400D01*
G75*
G02*
X57383500Y-77111900I147500J0D01*
G01*
X57678500Y-77111900D01*
G75*
G02*
X57826000Y-77259400I0J-147500D01*
G01*
G37*
G36*
G01*
X70515400Y-77934600D02*
X70515400Y-77589600D01*
G75*
G02*
X70662900Y-77442100I147500J0D01*
G01*
X70957900Y-77442100D01*
G75*
G02*
X71105400Y-77589600I0J-147500D01*
G01*
X71105400Y-77934600D01*
G75*
G02*
X70957900Y-78082100I-147500J0D01*
G01*
X70662900Y-78082100D01*
G75*
G02*
X70515400Y-77934600I0J147500D01*
G01*
G37*
G36*
G01*
X71485400Y-77934600D02*
X71485400Y-77589600D01*
G75*
G02*
X71632900Y-77442100I147500J0D01*
G01*
X71927900Y-77442100D01*
G75*
G02*
X72075400Y-77589600I0J-147500D01*
G01*
X72075400Y-77934600D01*
G75*
G02*
X71927900Y-78082100I-147500J0D01*
G01*
X71632900Y-78082100D01*
G75*
G02*
X71485400Y-77934600I0J147500D01*
G01*
G37*
G36*
G01*
X57824199Y-76209499D02*
X57824199Y-76554499D01*
G75*
G02*
X57676699Y-76701999I-147500J0D01*
G01*
X57381699Y-76701999D01*
G75*
G02*
X57234199Y-76554499I0J147500D01*
G01*
X57234199Y-76209499D01*
G75*
G02*
X57381699Y-76061999I147500J0D01*
G01*
X57676699Y-76061999D01*
G75*
G02*
X57824199Y-76209499I0J-147500D01*
G01*
G37*
G36*
G01*
X58794199Y-76209499D02*
X58794199Y-76554499D01*
G75*
G02*
X58646699Y-76701999I-147500J0D01*
G01*
X58351699Y-76701999D01*
G75*
G02*
X58204199Y-76554499I0J147500D01*
G01*
X58204199Y-76209499D01*
G75*
G02*
X58351699Y-76061999I147500J0D01*
G01*
X58646699Y-76061999D01*
G75*
G02*
X58794199Y-76209499I0J-147500D01*
G01*
G37*
G36*
G01*
X57826000Y-75151200D02*
X57826000Y-75496200D01*
G75*
G02*
X57678500Y-75643700I-147500J0D01*
G01*
X57383500Y-75643700D01*
G75*
G02*
X57236000Y-75496200I0J147500D01*
G01*
X57236000Y-75151200D01*
G75*
G02*
X57383500Y-75003700I147500J0D01*
G01*
X57678500Y-75003700D01*
G75*
G02*
X57826000Y-75151200I0J-147500D01*
G01*
G37*
G36*
G01*
X58796000Y-75151200D02*
X58796000Y-75496200D01*
G75*
G02*
X58648500Y-75643700I-147500J0D01*
G01*
X58353500Y-75643700D01*
G75*
G02*
X58206000Y-75496200I0J147500D01*
G01*
X58206000Y-75151200D01*
G75*
G02*
X58353500Y-75003700I147500J0D01*
G01*
X58648500Y-75003700D01*
G75*
G02*
X58796000Y-75151200I0J-147500D01*
G01*
G37*
G36*
G01*
X71447300Y-79547500D02*
X71447300Y-79202500D01*
G75*
G02*
X71594800Y-79055000I147500J0D01*
G01*
X71889800Y-79055000D01*
G75*
G02*
X72037300Y-79202500I0J-147500D01*
G01*
X72037300Y-79547500D01*
G75*
G02*
X71889800Y-79695000I-147500J0D01*
G01*
X71594800Y-79695000D01*
G75*
G02*
X71447300Y-79547500I0J147500D01*
G01*
G37*
G36*
G01*
X70477300Y-79547500D02*
X70477300Y-79202500D01*
G75*
G02*
X70624800Y-79055000I147500J0D01*
G01*
X70919800Y-79055000D01*
G75*
G02*
X71067300Y-79202500I0J-147500D01*
G01*
X71067300Y-79547500D01*
G75*
G02*
X70919800Y-79695000I-147500J0D01*
G01*
X70624800Y-79695000D01*
G75*
G02*
X70477300Y-79547500I0J147500D01*
G01*
G37*
G36*
G01*
X58196700Y-79207000D02*
X58541700Y-79207000D01*
G75*
G02*
X58689200Y-79354500I0J-147500D01*
G01*
X58689200Y-79649500D01*
G75*
G02*
X58541700Y-79797000I-147500J0D01*
G01*
X58196700Y-79797000D01*
G75*
G02*
X58049200Y-79649500I0J147500D01*
G01*
X58049200Y-79354500D01*
G75*
G02*
X58196700Y-79207000I147500J0D01*
G01*
G37*
G36*
G01*
X58196700Y-78237000D02*
X58541700Y-78237000D01*
G75*
G02*
X58689200Y-78384500I0J-147500D01*
G01*
X58689200Y-78679500D01*
G75*
G02*
X58541700Y-78827000I-147500J0D01*
G01*
X58196700Y-78827000D01*
G75*
G02*
X58049200Y-78679500I0J147500D01*
G01*
X58049200Y-78384500D01*
G75*
G02*
X58196700Y-78237000I147500J0D01*
G01*
G37*
G36*
G01*
X58478200Y-82047300D02*
X58133200Y-82047300D01*
G75*
G02*
X57985700Y-81899800I0J147500D01*
G01*
X57985700Y-81604800D01*
G75*
G02*
X58133200Y-81457300I147500J0D01*
G01*
X58478200Y-81457300D01*
G75*
G02*
X58625700Y-81604800I0J-147500D01*
G01*
X58625700Y-81899800D01*
G75*
G02*
X58478200Y-82047300I-147500J0D01*
G01*
G37*
G36*
G01*
X58478200Y-81077300D02*
X58133200Y-81077300D01*
G75*
G02*
X57985700Y-80929800I0J147500D01*
G01*
X57985700Y-80634800D01*
G75*
G02*
X58133200Y-80487300I147500J0D01*
G01*
X58478200Y-80487300D01*
G75*
G02*
X58625700Y-80634800I0J-147500D01*
G01*
X58625700Y-80929800D01*
G75*
G02*
X58478200Y-81077300I-147500J0D01*
G01*
G37*
G36*
G01*
X71444400Y-80763100D02*
X71444400Y-81238100D01*
G75*
G02*
X71206900Y-81475600I-237500J0D01*
G01*
X70631900Y-81475600D01*
G75*
G02*
X70394400Y-81238100I0J237500D01*
G01*
X70394400Y-80763100D01*
G75*
G02*
X70631900Y-80525600I237500J0D01*
G01*
X71206900Y-80525600D01*
G75*
G02*
X71444400Y-80763100I0J-237500D01*
G01*
G37*
G36*
G01*
X73194400Y-80763100D02*
X73194400Y-81238100D01*
G75*
G02*
X72956900Y-81475600I-237500J0D01*
G01*
X72381900Y-81475600D01*
G75*
G02*
X72144400Y-81238100I0J237500D01*
G01*
X72144400Y-80763100D01*
G75*
G02*
X72381900Y-80525600I237500J0D01*
G01*
X72956900Y-80525600D01*
G75*
G02*
X73194400Y-80763100I0J-237500D01*
G01*
G37*
G36*
G01*
X62577900Y-71737000D02*
X62577900Y-71392000D01*
G75*
G02*
X62725400Y-71244500I147500J0D01*
G01*
X63020400Y-71244500D01*
G75*
G02*
X63167900Y-71392000I0J-147500D01*
G01*
X63167900Y-71737000D01*
G75*
G02*
X63020400Y-71884500I-147500J0D01*
G01*
X62725400Y-71884500D01*
G75*
G02*
X62577900Y-71737000I0J147500D01*
G01*
G37*
G36*
G01*
X63547900Y-71737000D02*
X63547900Y-71392000D01*
G75*
G02*
X63695400Y-71244500I147500J0D01*
G01*
X63990400Y-71244500D01*
G75*
G02*
X64137900Y-71392000I0J-147500D01*
G01*
X64137900Y-71737000D01*
G75*
G02*
X63990400Y-71884500I-147500J0D01*
G01*
X63695400Y-71884500D01*
G75*
G02*
X63547900Y-71737000I0J147500D01*
G01*
G37*
G36*
G01*
X66070700Y-71218700D02*
X66415700Y-71218700D01*
G75*
G02*
X66563200Y-71366200I0J-147500D01*
G01*
X66563200Y-71661200D01*
G75*
G02*
X66415700Y-71808700I-147500J0D01*
G01*
X66070700Y-71808700D01*
G75*
G02*
X65923200Y-71661200I0J147500D01*
G01*
X65923200Y-71366200D01*
G75*
G02*
X66070700Y-71218700I147500J0D01*
G01*
G37*
G36*
G01*
X66070700Y-70248700D02*
X66415700Y-70248700D01*
G75*
G02*
X66563200Y-70396200I0J-147500D01*
G01*
X66563200Y-70691200D01*
G75*
G02*
X66415700Y-70838700I-147500J0D01*
G01*
X66070700Y-70838700D01*
G75*
G02*
X65923200Y-70691200I0J147500D01*
G01*
X65923200Y-70396200D01*
G75*
G02*
X66070700Y-70248700I147500J0D01*
G01*
G37*
G36*
G01*
X64953100Y-71233800D02*
X65298100Y-71233800D01*
G75*
G02*
X65445600Y-71381300I0J-147500D01*
G01*
X65445600Y-71676300D01*
G75*
G02*
X65298100Y-71823800I-147500J0D01*
G01*
X64953100Y-71823800D01*
G75*
G02*
X64805600Y-71676300I0J147500D01*
G01*
X64805600Y-71381300D01*
G75*
G02*
X64953100Y-71233800I147500J0D01*
G01*
G37*
G36*
G01*
X64953100Y-70263800D02*
X65298100Y-70263800D01*
G75*
G02*
X65445600Y-70411300I0J-147500D01*
G01*
X65445600Y-70706300D01*
G75*
G02*
X65298100Y-70853800I-147500J0D01*
G01*
X64953100Y-70853800D01*
G75*
G02*
X64805600Y-70706300I0J147500D01*
G01*
X64805600Y-70411300D01*
G75*
G02*
X64953100Y-70263800I147500J0D01*
G01*
G37*
D10*
X61585501Y-73223701D03*
X62385501Y-73223701D03*
X63185501Y-73223701D03*
X63985501Y-73223701D03*
X64785501Y-73223701D03*
X65585501Y-73223701D03*
X66385501Y-73223701D03*
X67185501Y-73223701D03*
D11*
X68635501Y-74673701D03*
X68635501Y-75473701D03*
X68635501Y-76273701D03*
X68635501Y-77073701D03*
X68635501Y-77873701D03*
X68635501Y-78673701D03*
X68635501Y-79473701D03*
X68635501Y-80273701D03*
D10*
X67185501Y-81723701D03*
X66385501Y-81723701D03*
X65585501Y-81723701D03*
X64785501Y-81723701D03*
X63985501Y-81723701D03*
X63185501Y-81723701D03*
X62385501Y-81723701D03*
X61585501Y-81723701D03*
D11*
X60135501Y-80273701D03*
X60135501Y-79473701D03*
X60135501Y-78673701D03*
X60135501Y-77873701D03*
X60135501Y-77073701D03*
X60135501Y-76273701D03*
X60135501Y-75473701D03*
X60135501Y-74673701D03*
G36*
G01*
X98297500Y-65971200D02*
X98297500Y-65626200D01*
G75*
G02*
X98445000Y-65478700I147500J0D01*
G01*
X98740000Y-65478700D01*
G75*
G02*
X98887500Y-65626200I0J-147500D01*
G01*
X98887500Y-65971200D01*
G75*
G02*
X98740000Y-66118700I-147500J0D01*
G01*
X98445000Y-66118700D01*
G75*
G02*
X98297500Y-65971200I0J147500D01*
G01*
G37*
G36*
G01*
X97327500Y-65971200D02*
X97327500Y-65626200D01*
G75*
G02*
X97475000Y-65478700I147500J0D01*
G01*
X97770000Y-65478700D01*
G75*
G02*
X97917500Y-65626200I0J-147500D01*
G01*
X97917500Y-65971200D01*
G75*
G02*
X97770000Y-66118700I-147500J0D01*
G01*
X97475000Y-66118700D01*
G75*
G02*
X97327500Y-65971200I0J147500D01*
G01*
G37*
G36*
G01*
X97251300Y-105861900D02*
X97251300Y-105516900D01*
G75*
G02*
X97398800Y-105369400I147500J0D01*
G01*
X97693800Y-105369400D01*
G75*
G02*
X97841300Y-105516900I0J-147500D01*
G01*
X97841300Y-105861900D01*
G75*
G02*
X97693800Y-106009400I-147500J0D01*
G01*
X97398800Y-106009400D01*
G75*
G02*
X97251300Y-105861900I0J147500D01*
G01*
G37*
G36*
G01*
X98221300Y-105861900D02*
X98221300Y-105516900D01*
G75*
G02*
X98368800Y-105369400I147500J0D01*
G01*
X98663800Y-105369400D01*
G75*
G02*
X98811300Y-105516900I0J-147500D01*
G01*
X98811300Y-105861900D01*
G75*
G02*
X98663800Y-106009400I-147500J0D01*
G01*
X98368800Y-106009400D01*
G75*
G02*
X98221300Y-105861900I0J147500D01*
G01*
G37*
G36*
G01*
X98272100Y-85999100D02*
X98272100Y-85654100D01*
G75*
G02*
X98419600Y-85506600I147500J0D01*
G01*
X98714600Y-85506600D01*
G75*
G02*
X98862100Y-85654100I0J-147500D01*
G01*
X98862100Y-85999100D01*
G75*
G02*
X98714600Y-86146600I-147500J0D01*
G01*
X98419600Y-86146600D01*
G75*
G02*
X98272100Y-85999100I0J147500D01*
G01*
G37*
G36*
G01*
X97302100Y-85999100D02*
X97302100Y-85654100D01*
G75*
G02*
X97449600Y-85506600I147500J0D01*
G01*
X97744600Y-85506600D01*
G75*
G02*
X97892100Y-85654100I0J-147500D01*
G01*
X97892100Y-85999100D01*
G75*
G02*
X97744600Y-86146600I-147500J0D01*
G01*
X97449600Y-86146600D01*
G75*
G02*
X97302100Y-85999100I0J147500D01*
G01*
G37*
G36*
G01*
X97454500Y-131122200D02*
X97454500Y-130777200D01*
G75*
G02*
X97602000Y-130629700I147500J0D01*
G01*
X97897000Y-130629700D01*
G75*
G02*
X98044500Y-130777200I0J-147500D01*
G01*
X98044500Y-131122200D01*
G75*
G02*
X97897000Y-131269700I-147500J0D01*
G01*
X97602000Y-131269700D01*
G75*
G02*
X97454500Y-131122200I0J147500D01*
G01*
G37*
G36*
G01*
X98424500Y-131122200D02*
X98424500Y-130777200D01*
G75*
G02*
X98572000Y-130629700I147500J0D01*
G01*
X98867000Y-130629700D01*
G75*
G02*
X99014500Y-130777200I0J-147500D01*
G01*
X99014500Y-131122200D01*
G75*
G02*
X98867000Y-131269700I-147500J0D01*
G01*
X98572000Y-131269700D01*
G75*
G02*
X98424500Y-131122200I0J147500D01*
G01*
G37*
D14*
X94400000Y-137450000D03*
X97600000Y-137450000D03*
X94400000Y-132550000D03*
X97600000Y-132550000D03*
X94400000Y-112450000D03*
X97600000Y-112450000D03*
X94400000Y-107550000D03*
X97600000Y-107550000D03*
X97600000Y-87550000D03*
X94400000Y-87550000D03*
X97600000Y-92450000D03*
X94400000Y-92450000D03*
X94400000Y-72450000D03*
X97600000Y-72450000D03*
X94400000Y-67550000D03*
X97600000Y-67550000D03*
G36*
G01*
X54689200Y-55667900D02*
X54689200Y-56142900D01*
G75*
G02*
X54451700Y-56380400I-237500J0D01*
G01*
X53876700Y-56380400D01*
G75*
G02*
X53639200Y-56142900I0J237500D01*
G01*
X53639200Y-55667900D01*
G75*
G02*
X53876700Y-55430400I237500J0D01*
G01*
X54451700Y-55430400D01*
G75*
G02*
X54689200Y-55667900I0J-237500D01*
G01*
G37*
G36*
G01*
X52939200Y-55667900D02*
X52939200Y-56142900D01*
G75*
G02*
X52701700Y-56380400I-237500J0D01*
G01*
X52126700Y-56380400D01*
G75*
G02*
X51889200Y-56142900I0J237500D01*
G01*
X51889200Y-55667900D01*
G75*
G02*
X52126700Y-55430400I237500J0D01*
G01*
X52701700Y-55430400D01*
G75*
G02*
X52939200Y-55667900I0J-237500D01*
G01*
G37*
G36*
G01*
X60715700Y-30831800D02*
X60715700Y-30356800D01*
G75*
G02*
X60953200Y-30119300I237500J0D01*
G01*
X61528200Y-30119300D01*
G75*
G02*
X61765700Y-30356800I0J-237500D01*
G01*
X61765700Y-30831800D01*
G75*
G02*
X61528200Y-31069300I-237500J0D01*
G01*
X60953200Y-31069300D01*
G75*
G02*
X60715700Y-30831800I0J237500D01*
G01*
G37*
G36*
G01*
X62465700Y-30831800D02*
X62465700Y-30356800D01*
G75*
G02*
X62703200Y-30119300I237500J0D01*
G01*
X63278200Y-30119300D01*
G75*
G02*
X63515700Y-30356800I0J-237500D01*
G01*
X63515700Y-30831800D01*
G75*
G02*
X63278200Y-31069300I-237500J0D01*
G01*
X62703200Y-31069300D01*
G75*
G02*
X62465700Y-30831800I0J237500D01*
G01*
G37*
D15*
X45848800Y-57825600D03*
X45848800Y-59725600D03*
X49248800Y-58775600D03*
M02*
