M48
; DRILL file {KiCad (5.1.6)-1} date 12/04/20 21:51:32
; FORMAT={-:-/ absolute / inch / decimal}
; #@! TF.CreationDate,2020-12-04T21:51:32-08:00
; #@! TF.GenerationSoftware,Kicad,Pcbnew,(5.1.6)-1
; #@! TF.FileFunction,Plated,1,2,PTH
FMAT,2
INCH
T1C0.0079
T2C0.0118
T3C0.0157
T4C0.0315
T5C0.0354
T6C0.0394
T7C0.0433
T8C0.0748
T9C0.0787
T10C0.0866
%
G90
G05
T1
X2.311Y-2.415
X2.537Y-2.4415
T2
X4.517Y-4.63
X4.529Y-5.015
X4.56Y-4.882
X4.572Y-4.702
X4.572Y-4.737
X4.584Y-5.03
X4.625Y-5.03
X4.739Y-4.852
X4.78Y-5.074
X4.8095Y-4.6795
X4.814Y-4.728
X4.8165Y-4.7665
X4.86Y-4.863
X4.86Y-4.903
X4.887Y-4.67
X4.892Y-4.83
X5.69Y-5.238
X5.69Y-5.285
X5.69Y-5.333
X5.956Y-5.442
X5.956Y-5.492
X5.956Y-5.542
X5.956Y-5.592
X6.0718Y-4.7892
X6.1646Y-4.6028
X6.1646Y-4.6498
X6.1646Y-4.6968
X6.172Y-5.392
X6.172Y-5.442
X6.172Y-5.492
X6.172Y-5.542
X6.172Y-5.592
X6.674Y-5.61
X6.674Y-5.719
X6.774Y-5.61
X6.774Y-5.716
T3
X1.8045Y-2.2295
X1.8047Y-3.1893
X1.8051Y-2.5134
X1.82Y-3.399
X1.882Y-2.512
X1.9035Y-2.6705
X1.927Y-3.891
X1.9421Y-3.4001
X1.9475Y-2.1095
X1.949Y-3.694
X2.0005Y-3.6994
X2.0545Y-3.845
X2.0615Y-2.5246
X2.0656Y-2.1095
X2.1837Y-2.1095
X2.215Y-3.0495
X2.2172Y-3.0072
X2.2395Y-2.3075
X2.241Y-2.3465
X2.2435Y-2.262
X2.2575Y-2.934
X2.259Y-3.091
X2.2685Y-2.1085
X2.2955Y-2.5605
X2.3375Y-3.218
X2.343Y-2.1075
X2.346Y-2.5105
X2.379Y-2.749
X2.3804Y-2.3143
X2.3926Y-3.364
X2.4Y-3.3
X2.428Y-3.003
X2.434Y-3.066
X2.437Y-3.152
X2.441Y-2.953
X2.4513Y-2.5612
X2.4888Y-2.9485
X2.4907Y-2.5629
X2.4909Y-3.364
X2.4925Y-2.5135
X2.496Y-3.2778
X2.503Y-3.1565
X2.5036Y-2.1464
X2.5055Y-2.087
X2.52Y-5.55
X2.521Y-4.01
X2.522Y-4.502
X2.5298Y-2.9577
X2.533Y-5.13
X2.5444Y-2.1464
X2.5615Y-3.5215
X2.5654Y-2.7405
X2.572Y-2.553
X2.579Y-2.9495
X2.599Y-3.4285
X2.6096Y-2.3043
X2.6236Y-2.087
X2.638Y-3.034
X2.6737Y-5.6059
X2.6765Y-3.799
X2.732Y-3.247
X2.7348Y-2.6882
X2.7417Y-2.087
X2.7642Y-2.7659
X2.77Y-2.971
X2.775Y-2.7137
X2.7777Y-2.8684
X2.7944Y-2.7936
X2.866Y-3.896
X2.869Y-3.06
X2.869Y-3.124
X2.869Y-4.198
X2.971Y-3.757
X2.98Y-3.375
X3.0189Y-3.0202
X3.068Y-4.331
X3.0689Y-2.8944
X3.096Y-3.876
X3.101Y-4.251
X3.171Y-4.807
X3.716Y-3.5865
X3.716Y-4.374
X3.7165Y-2.799
X3.7165Y-5.3575
X3.878Y-4.1165
X3.8815Y-3.342
X3.882Y-2.554
X3.888Y-5.119
X4.07Y-5.12
X4.32Y-5.12
X4.57Y-5.12
X4.778Y-4.818
X4.82Y-5.12
X4.8436Y-2.6772
X4.896Y-3.1913
X4.897Y-3.2383
X4.898Y-3.2873
X5.07Y-5.12
X5.0936Y-2.6754
X5.1757Y-3.7355
X5.32Y-5.12
X5.57Y-5.12
X5.57Y-5.37
X5.57Y-5.62
X5.57Y-5.87
X5.6415Y-4.1355
X5.7152Y-4.3576
X5.7166Y-4.4466
X5.7171Y-4.4016
X5.8678Y-4.309
X5.8823Y-4.1353
X5.8992Y-4.588
X5.959Y-2.679
X5.9616Y-4.4938
X5.9632Y-4.3082
X5.9744Y-4.7516
X6.105Y-4.43
X6.1306Y-4.3015
X6.1365Y-3.1374
X6.1406Y-3.8594
X6.1661Y-4.3289
X6.181Y-3.7185
X6.1955Y-3.5741
X6.2272Y-3.3552
X6.2487Y-3.7343
X6.2594Y-3.5744
X6.2904Y-3.3554
X6.3078Y-3.8294
X6.3416Y-3.563
X6.354Y-3.45
X6.42Y-4.5618
X6.4305Y-4.6127
X6.4627Y-4.8728
X6.4705Y-3.8233
X6.5075Y-3.847
X6.511Y-3.595
X6.5374Y-3.7432
X6.5374Y-3.7914
X6.6183Y-3.713
X6.625Y-4.412
X6.6488Y-3.4499
X6.7392Y-3.7954
X6.7528Y-3.6902
X6.8236Y-3.5914
X7.0368Y-3.6404
X7.0368Y-3.6886
X7.0372Y-3.7396
X7.1593Y-3.6928
X7.657Y-3.7266
X7.7747Y-3.6207
T4
X7.7747Y-3.4055
X7.7747Y-3.5039
X7.448Y-3.7236
X7.5464Y-3.7236
X6.05Y-2.4393
X6.05Y-2.518
X6.0219Y-3.0326
X6.214Y-3.0326
X4.3718Y-4.676
X4.3718Y-4.8681
X2.7185Y-2.2979
X2.7185Y-2.49
X7.2263Y-3.0973
X7.2263Y-3.4973
X7.3263Y-3.0973
X7.3263Y-3.4973
X7.4263Y-3.0973
X7.4263Y-3.4973
X7.5263Y-3.0973
X7.5263Y-3.4973
X2.1305Y-3.046
X2.1305Y-3.2381
T5
X6.6224Y-4.6404
X6.6224Y-4.7404
T6
X7.8838Y-4.0718
X7.8838Y-4.1718
X5.3466Y-3.4388
X5.4451Y-3.2419
X5.5435Y-3.4388
X4.5209Y-3.3831
X4.6209Y-3.3831
X4.7209Y-3.3831
X4.8209Y-3.3831
X4.9209Y-3.3831
X5.0209Y-3.3831
X5.1209Y-3.3831
X5.2209Y-3.3831
X5.876Y-2.277
X5.976Y-2.277
X5.7602Y-3.7355
X5.7602Y-3.8355
X5.7602Y-3.9355
X5.7602Y-4.0355
X5.7602Y-4.1355
X5.7602Y-4.2355
X7.349Y-4.0716
X7.5459Y-4.0716
X4.6072Y-2.5112
X4.7072Y-2.5112
X4.8072Y-2.5112
X4.9072Y-2.5112
X5.0072Y-2.5112
X5.1072Y-2.5112
X5.2072Y-2.5112
X5.3072Y-2.5112
X5.1584Y-4.4619
X5.1584Y-4.5619
X5.1584Y-4.6619
X5.1584Y-4.7619
X5.2584Y-4.4619
X5.2584Y-4.5619
X5.2584Y-4.6619
X5.2584Y-4.7619
X5.561Y-2.276
X5.561Y-2.376
X5.561Y-2.476
X5.561Y-2.576
X7.0148Y-2.789
X7.1148Y-2.789
X7.2148Y-2.789
X7.3148Y-2.789
X6.3213Y-4.4497
X6.3213Y-4.5497
X6.76Y-2.293
X6.76Y-2.393
X6.76Y-2.493
X6.76Y-2.593
X5.6636Y-3.4042
X5.6636Y-3.5042
X3.2964Y-2.4873
X3.2964Y-2.5873
X3.2964Y-2.6873
X3.3964Y-2.4873
X3.3964Y-2.5873
X3.3964Y-2.6873
X5.3901Y-3.5777
X5.4901Y-3.5777
X5.719Y-2.277
X5.719Y-2.377
X5.719Y-2.477
X3.5635Y-5.7785
X3.6635Y-5.7785
X3.7635Y-5.7785
X3.8635Y-5.7785
T7
X2.961Y-2.9725
X2.961Y-3.1497
X3.2169Y-2.9725
X3.2169Y-3.1497
X6.8009Y-4.374
X6.8009Y-4.5512
X7.0568Y-4.374
X7.0568Y-4.5512
T8
X6.4636Y-5.6638
X6.9832Y-5.6638
T10
X7.8258Y-2.2113
X7.8583Y-5.3337
X4.2137Y-2.2361
T4
G00X7.5021Y-5.6198
M15
G01X7.5021Y-5.5923
M16
G05
G00X7.6852Y-5.8029
M15
G01X7.7128Y-5.8029
M16
G05
G00X7.8959Y-5.6198
M15
G01X7.8959Y-5.5923
M16
G05
T6
G00X4.1138Y-3.9606
M15
G01X4.1138Y-4.0394
M16
G05
G00X4.1925Y-4.185
M15
G01X4.2713Y-4.185
M16
G05
G00X4.35Y-3.9606
M15
G01X4.35Y-4.0394
M16
G05
T9
G00X4.6359Y-3.9974
M15
G01X4.7933Y-3.9974
M16
G05
G00X5.002Y-3.9974
M15
G01X5.1595Y-3.9974
M16
G05
T0
M30
