G04 #@! TF.GenerationSoftware,KiCad,Pcbnew,(5.1.6)-1*
G04 #@! TF.CreationDate,2020-12-04T21:51:36-08:00*
G04 #@! TF.ProjectId,ReceiverCircuit,52656365-6976-4657-9243-697263756974,rev?*
G04 #@! TF.SameCoordinates,Original*
G04 #@! TF.FileFunction,Soldermask,Bot*
G04 #@! TF.FilePolarity,Negative*
%FSLAX46Y46*%
G04 Gerber Fmt 4.6, Leading zero omitted, Abs format (unit mm)*
G04 Created by KiCad (PCBNEW (5.1.6)-1) date 2020-12-04 21:51:36*
%MOMM*%
%LPD*%
G01*
G04 APERTURE LIST*
%ADD10C,0.500000*%
%ADD11C,0.100000*%
G04 APERTURE END LIST*
D10*
X67072594Y-134988460D02*
G75*
G03*
X67072594Y-134988460I-3077894J0D01*
G01*
D11*
G36*
X63984540Y-132123340D02*
G01*
X62861860Y-132293520D01*
X61972860Y-132778660D01*
X61444540Y-133731160D01*
X61127040Y-134513480D01*
X61149900Y-135445660D01*
X61403900Y-136334660D01*
X61952540Y-137053480D01*
X62587540Y-137497980D01*
X63456220Y-137815480D01*
X64238540Y-137899300D01*
X65084360Y-137708800D01*
X65719360Y-137391300D01*
X66311180Y-136819800D01*
X66671860Y-136080660D01*
X66839500Y-135298340D01*
X66946180Y-134429660D01*
X66268000Y-133119020D01*
X65572040Y-132547520D01*
X64683040Y-132143660D01*
X63941360Y-132103020D01*
X63984540Y-132123340D01*
G37*
X63984540Y-132123340D02*
X62861860Y-132293520D01*
X61972860Y-132778660D01*
X61444540Y-133731160D01*
X61127040Y-134513480D01*
X61149900Y-135445660D01*
X61403900Y-136334660D01*
X61952540Y-137053480D01*
X62587540Y-137497980D01*
X63456220Y-137815480D01*
X64238540Y-137899300D01*
X65084360Y-137708800D01*
X65719360Y-137391300D01*
X66311180Y-136819800D01*
X66671860Y-136080660D01*
X66839500Y-135298340D01*
X66946180Y-134429660D01*
X66268000Y-133119020D01*
X65572040Y-132547520D01*
X64683040Y-132143660D01*
X63941360Y-132103020D01*
X63984540Y-132123340D01*
G36*
X63984540Y-143077340D02*
G01*
X62861860Y-143247520D01*
X61972860Y-143732660D01*
X61444540Y-144685160D01*
X61127040Y-145467480D01*
X61149900Y-146399660D01*
X61403900Y-147288660D01*
X61952540Y-148007480D01*
X62587540Y-148451980D01*
X63456220Y-148769480D01*
X64238540Y-148853300D01*
X65084360Y-148662800D01*
X65719360Y-148345300D01*
X66311180Y-147773800D01*
X66671860Y-147034660D01*
X66839500Y-146252340D01*
X66946180Y-145383660D01*
X66268000Y-144073020D01*
X65572040Y-143501520D01*
X64683040Y-143097660D01*
X63941360Y-143057020D01*
X63984540Y-143077340D01*
G37*
X63984540Y-143077340D02*
X62861860Y-143247520D01*
X61972860Y-143732660D01*
X61444540Y-144685160D01*
X61127040Y-145467480D01*
X61149900Y-146399660D01*
X61403900Y-147288660D01*
X61952540Y-148007480D01*
X62587540Y-148451980D01*
X63456220Y-148769480D01*
X64238540Y-148853300D01*
X65084360Y-148662800D01*
X65719360Y-148345300D01*
X66311180Y-147773800D01*
X66671860Y-147034660D01*
X66839500Y-146252340D01*
X66946180Y-145383660D01*
X66268000Y-144073020D01*
X65572040Y-143501520D01*
X64683040Y-143097660D01*
X63941360Y-143057020D01*
X63984540Y-143077340D01*
D10*
X67072594Y-145942460D02*
G75*
G03*
X67072594Y-145942460I-3077894J0D01*
G01*
D11*
G36*
X78826740Y-100552340D02*
G01*
X77704060Y-100722520D01*
X76815060Y-101207660D01*
X76286740Y-102160160D01*
X75969240Y-102942480D01*
X75992100Y-103874660D01*
X76246100Y-104763660D01*
X76794740Y-105482480D01*
X77429740Y-105926980D01*
X78298420Y-106244480D01*
X79080740Y-106328300D01*
X79926560Y-106137800D01*
X80561560Y-105820300D01*
X81153380Y-105248800D01*
X81514060Y-104509660D01*
X81681700Y-103727340D01*
X81788380Y-102858660D01*
X81110200Y-101548020D01*
X80414240Y-100976520D01*
X79525240Y-100572660D01*
X78783560Y-100532020D01*
X78826740Y-100552340D01*
G37*
X78826740Y-100552340D02*
X77704060Y-100722520D01*
X76815060Y-101207660D01*
X76286740Y-102160160D01*
X75969240Y-102942480D01*
X75992100Y-103874660D01*
X76246100Y-104763660D01*
X76794740Y-105482480D01*
X77429740Y-105926980D01*
X78298420Y-106244480D01*
X79080740Y-106328300D01*
X79926560Y-106137800D01*
X80561560Y-105820300D01*
X81153380Y-105248800D01*
X81514060Y-104509660D01*
X81681700Y-103727340D01*
X81788380Y-102858660D01*
X81110200Y-101548020D01*
X80414240Y-100976520D01*
X79525240Y-100572660D01*
X78783560Y-100532020D01*
X78826740Y-100552340D01*
D10*
X81914794Y-103417460D02*
G75*
G03*
X81914794Y-103417460I-3077894J0D01*
G01*
D11*
G36*
X63984540Y-103962440D02*
G01*
X62861860Y-104132620D01*
X61972860Y-104617760D01*
X61444540Y-105570260D01*
X61127040Y-106352580D01*
X61149900Y-107284760D01*
X61403900Y-108173760D01*
X61952540Y-108892580D01*
X62587540Y-109337080D01*
X63456220Y-109654580D01*
X64238540Y-109738400D01*
X65084360Y-109547900D01*
X65719360Y-109230400D01*
X66311180Y-108658900D01*
X66671860Y-107919760D01*
X66839500Y-107137440D01*
X66946180Y-106268760D01*
X66268000Y-104958120D01*
X65572040Y-104386620D01*
X64683040Y-103982760D01*
X63941360Y-103942120D01*
X63984540Y-103962440D01*
G37*
X63984540Y-103962440D02*
X62861860Y-104132620D01*
X61972860Y-104617760D01*
X61444540Y-105570260D01*
X61127040Y-106352580D01*
X61149900Y-107284760D01*
X61403900Y-108173760D01*
X61952540Y-108892580D01*
X62587540Y-109337080D01*
X63456220Y-109654580D01*
X64238540Y-109738400D01*
X65084360Y-109547900D01*
X65719360Y-109230400D01*
X66311180Y-108658900D01*
X66671860Y-107919760D01*
X66839500Y-107137440D01*
X66946180Y-106268760D01*
X66268000Y-104958120D01*
X65572040Y-104386620D01*
X64683040Y-103982760D01*
X63941360Y-103942120D01*
X63984540Y-103962440D01*
D10*
X67072594Y-106827560D02*
G75*
G03*
X67072594Y-106827560I-3077894J0D01*
G01*
X52230794Y-103417460D02*
G75*
G03*
X52230794Y-103417460I-3077894J0D01*
G01*
D11*
G36*
X49142740Y-100552340D02*
G01*
X48020060Y-100722520D01*
X47131060Y-101207660D01*
X46602740Y-102160160D01*
X46285240Y-102942480D01*
X46308100Y-103874660D01*
X46562100Y-104763660D01*
X47110740Y-105482480D01*
X47745740Y-105926980D01*
X48614420Y-106244480D01*
X49396740Y-106328300D01*
X50242560Y-106137800D01*
X50877560Y-105820300D01*
X51469380Y-105248800D01*
X51830060Y-104509660D01*
X51997700Y-103727340D01*
X52104380Y-102858660D01*
X51426200Y-101548020D01*
X50730240Y-100976520D01*
X49841240Y-100572660D01*
X49099560Y-100532020D01*
X49142740Y-100552340D01*
G37*
X49142740Y-100552340D02*
X48020060Y-100722520D01*
X47131060Y-101207660D01*
X46602740Y-102160160D01*
X46285240Y-102942480D01*
X46308100Y-103874660D01*
X46562100Y-104763660D01*
X47110740Y-105482480D01*
X47745740Y-105926980D01*
X48614420Y-106244480D01*
X49396740Y-106328300D01*
X50242560Y-106137800D01*
X50877560Y-105820300D01*
X51469380Y-105248800D01*
X51830060Y-104509660D01*
X51997700Y-103727340D01*
X52104380Y-102858660D01*
X51426200Y-101548020D01*
X50730240Y-100976520D01*
X49841240Y-100572660D01*
X49099560Y-100532020D01*
X49142740Y-100552340D01*
G36*
X78352740Y-114636340D02*
G01*
X77230060Y-114806520D01*
X76341060Y-115291660D01*
X75812740Y-116244160D01*
X75495240Y-117026480D01*
X75518100Y-117958660D01*
X75772100Y-118847660D01*
X76320740Y-119566480D01*
X76955740Y-120010980D01*
X77824420Y-120328480D01*
X78606740Y-120412300D01*
X79452560Y-120221800D01*
X80087560Y-119904300D01*
X80679380Y-119332800D01*
X81040060Y-118593660D01*
X81207700Y-117811340D01*
X81314380Y-116942660D01*
X80636200Y-115632020D01*
X79940240Y-115060520D01*
X79051240Y-114656660D01*
X78309560Y-114616020D01*
X78352740Y-114636340D01*
G37*
X78352740Y-114636340D02*
X77230060Y-114806520D01*
X76341060Y-115291660D01*
X75812740Y-116244160D01*
X75495240Y-117026480D01*
X75518100Y-117958660D01*
X75772100Y-118847660D01*
X76320740Y-119566480D01*
X76955740Y-120010980D01*
X77824420Y-120328480D01*
X78606740Y-120412300D01*
X79452560Y-120221800D01*
X80087560Y-119904300D01*
X80679380Y-119332800D01*
X81040060Y-118593660D01*
X81207700Y-117811340D01*
X81314380Y-116942660D01*
X80636200Y-115632020D01*
X79940240Y-115060520D01*
X79051240Y-114656660D01*
X78309560Y-114616020D01*
X78352740Y-114636340D01*
D10*
X81440794Y-117501460D02*
G75*
G03*
X81440794Y-117501460I-3077894J0D01*
G01*
X67072594Y-119301460D02*
G75*
G03*
X67072594Y-119301460I-3077894J0D01*
G01*
D11*
G36*
X63984540Y-116436340D02*
G01*
X62861860Y-116606520D01*
X61972860Y-117091660D01*
X61444540Y-118044160D01*
X61127040Y-118826480D01*
X61149900Y-119758660D01*
X61403900Y-120647660D01*
X61952540Y-121366480D01*
X62587540Y-121810980D01*
X63456220Y-122128480D01*
X64238540Y-122212300D01*
X65084360Y-122021800D01*
X65719360Y-121704300D01*
X66311180Y-121132800D01*
X66671860Y-120393660D01*
X66839500Y-119611340D01*
X66946180Y-118742660D01*
X66268000Y-117432020D01*
X65572040Y-116860520D01*
X64683040Y-116456660D01*
X63941360Y-116416020D01*
X63984540Y-116436340D01*
G37*
X63984540Y-116436340D02*
X62861860Y-116606520D01*
X61972860Y-117091660D01*
X61444540Y-118044160D01*
X61127040Y-118826480D01*
X61149900Y-119758660D01*
X61403900Y-120647660D01*
X61952540Y-121366480D01*
X62587540Y-121810980D01*
X63456220Y-122128480D01*
X64238540Y-122212300D01*
X65084360Y-122021800D01*
X65719360Y-121704300D01*
X66311180Y-121132800D01*
X66671860Y-120393660D01*
X66839500Y-119611340D01*
X66946180Y-118742660D01*
X66268000Y-117432020D01*
X65572040Y-116860520D01*
X64683040Y-116456660D01*
X63941360Y-116416020D01*
X63984540Y-116436340D01*
G36*
X49615740Y-114636340D02*
G01*
X48493060Y-114806520D01*
X47604060Y-115291660D01*
X47075740Y-116244160D01*
X46758240Y-117026480D01*
X46781100Y-117958660D01*
X47035100Y-118847660D01*
X47583740Y-119566480D01*
X48218740Y-120010980D01*
X49087420Y-120328480D01*
X49869740Y-120412300D01*
X50715560Y-120221800D01*
X51350560Y-119904300D01*
X51942380Y-119332800D01*
X52303060Y-118593660D01*
X52470700Y-117811340D01*
X52577380Y-116942660D01*
X51899200Y-115632020D01*
X51203240Y-115060520D01*
X50314240Y-114656660D01*
X49572560Y-114616020D01*
X49615740Y-114636340D01*
G37*
X49615740Y-114636340D02*
X48493060Y-114806520D01*
X47604060Y-115291660D01*
X47075740Y-116244160D01*
X46758240Y-117026480D01*
X46781100Y-117958660D01*
X47035100Y-118847660D01*
X47583740Y-119566480D01*
X48218740Y-120010980D01*
X49087420Y-120328480D01*
X49869740Y-120412300D01*
X50715560Y-120221800D01*
X51350560Y-119904300D01*
X51942380Y-119332800D01*
X52303060Y-118593660D01*
X52470700Y-117811340D01*
X52577380Y-116942660D01*
X51899200Y-115632020D01*
X51203240Y-115060520D01*
X50314240Y-114656660D01*
X49572560Y-114616020D01*
X49615740Y-114636340D01*
D10*
X52703794Y-117501460D02*
G75*
G03*
X52703794Y-117501460I-3077894J0D01*
G01*
X79861794Y-131949460D02*
G75*
G03*
X79861794Y-131949460I-3077894J0D01*
G01*
D11*
G36*
X76773740Y-129084340D02*
G01*
X75651060Y-129254520D01*
X74762060Y-129739660D01*
X74233740Y-130692160D01*
X73916240Y-131474480D01*
X73939100Y-132406660D01*
X74193100Y-133295660D01*
X74741740Y-134014480D01*
X75376740Y-134458980D01*
X76245420Y-134776480D01*
X77027740Y-134860300D01*
X77873560Y-134669800D01*
X78508560Y-134352300D01*
X79100380Y-133780800D01*
X79461060Y-133041660D01*
X79628700Y-132259340D01*
X79735380Y-131390660D01*
X79057200Y-130080020D01*
X78361240Y-129508520D01*
X77472240Y-129104660D01*
X76730560Y-129064020D01*
X76773740Y-129084340D01*
G37*
X76773740Y-129084340D02*
X75651060Y-129254520D01*
X74762060Y-129739660D01*
X74233740Y-130692160D01*
X73916240Y-131474480D01*
X73939100Y-132406660D01*
X74193100Y-133295660D01*
X74741740Y-134014480D01*
X75376740Y-134458980D01*
X76245420Y-134776480D01*
X77027740Y-134860300D01*
X77873560Y-134669800D01*
X78508560Y-134352300D01*
X79100380Y-133780800D01*
X79461060Y-133041660D01*
X79628700Y-132259340D01*
X79735380Y-131390660D01*
X79057200Y-130080020D01*
X78361240Y-129508520D01*
X77472240Y-129104660D01*
X76730560Y-129064020D01*
X76773740Y-129084340D01*
D10*
X54282794Y-131949460D02*
G75*
G03*
X54282794Y-131949460I-3077894J0D01*
G01*
D11*
G36*
X51194740Y-129084340D02*
G01*
X50072060Y-129254520D01*
X49183060Y-129739660D01*
X48654740Y-130692160D01*
X48337240Y-131474480D01*
X48360100Y-132406660D01*
X48614100Y-133295660D01*
X49162740Y-134014480D01*
X49797740Y-134458980D01*
X50666420Y-134776480D01*
X51448740Y-134860300D01*
X52294560Y-134669800D01*
X52929560Y-134352300D01*
X53521380Y-133780800D01*
X53882060Y-133041660D01*
X54049700Y-132259340D01*
X54156380Y-131390660D01*
X53478200Y-130080020D01*
X52782240Y-129508520D01*
X51893240Y-129104660D01*
X51151560Y-129064020D01*
X51194740Y-129084340D01*
G37*
X51194740Y-129084340D02*
X50072060Y-129254520D01*
X49183060Y-129739660D01*
X48654740Y-130692160D01*
X48337240Y-131474480D01*
X48360100Y-132406660D01*
X48614100Y-133295660D01*
X49162740Y-134014480D01*
X49797740Y-134458980D01*
X50666420Y-134776480D01*
X51448740Y-134860300D01*
X52294560Y-134669800D01*
X52929560Y-134352300D01*
X53521380Y-133780800D01*
X53882060Y-133041660D01*
X54049700Y-132259340D01*
X54156380Y-131390660D01*
X53478200Y-130080020D01*
X52782240Y-129508520D01*
X51893240Y-129104660D01*
X51151560Y-129064020D01*
X51194740Y-129084340D01*
G36*
X75668740Y-65433340D02*
G01*
X74546060Y-65603520D01*
X73657060Y-66088660D01*
X73128740Y-67041160D01*
X72811240Y-67823480D01*
X72834100Y-68755660D01*
X73088100Y-69644660D01*
X73636740Y-70363480D01*
X74271740Y-70807980D01*
X75140420Y-71125480D01*
X75922740Y-71209300D01*
X76768560Y-71018800D01*
X77403560Y-70701300D01*
X77995380Y-70129800D01*
X78356060Y-69390660D01*
X78523700Y-68608340D01*
X78630380Y-67739660D01*
X77952200Y-66429020D01*
X77256240Y-65857520D01*
X76367240Y-65453660D01*
X75625560Y-65413020D01*
X75668740Y-65433340D01*
G37*
X75668740Y-65433340D02*
X74546060Y-65603520D01*
X73657060Y-66088660D01*
X73128740Y-67041160D01*
X72811240Y-67823480D01*
X72834100Y-68755660D01*
X73088100Y-69644660D01*
X73636740Y-70363480D01*
X74271740Y-70807980D01*
X75140420Y-71125480D01*
X75922740Y-71209300D01*
X76768560Y-71018800D01*
X77403560Y-70701300D01*
X77995380Y-70129800D01*
X78356060Y-69390660D01*
X78523700Y-68608340D01*
X78630380Y-67739660D01*
X77952200Y-66429020D01*
X77256240Y-65857520D01*
X76367240Y-65453660D01*
X75625560Y-65413020D01*
X75668740Y-65433340D01*
D10*
X78756794Y-68298460D02*
G75*
G03*
X78756794Y-68298460I-3077894J0D01*
G01*
X55450194Y-68298460D02*
G75*
G03*
X55450194Y-68298460I-3077894J0D01*
G01*
D11*
G36*
X52362140Y-65433340D02*
G01*
X51239460Y-65603520D01*
X50350460Y-66088660D01*
X49822140Y-67041160D01*
X49504640Y-67823480D01*
X49527500Y-68755660D01*
X49781500Y-69644660D01*
X50330140Y-70363480D01*
X50965140Y-70807980D01*
X51833820Y-71125480D01*
X52616140Y-71209300D01*
X53461960Y-71018800D01*
X54096960Y-70701300D01*
X54688780Y-70129800D01*
X55049460Y-69390660D01*
X55217100Y-68608340D01*
X55323780Y-67739660D01*
X54645600Y-66429020D01*
X53949640Y-65857520D01*
X53060640Y-65453660D01*
X52318960Y-65413020D01*
X52362140Y-65433340D01*
G37*
X52362140Y-65433340D02*
X51239460Y-65603520D01*
X50350460Y-66088660D01*
X49822140Y-67041160D01*
X49504640Y-67823480D01*
X49527500Y-68755660D01*
X49781500Y-69644660D01*
X50330140Y-70363480D01*
X50965140Y-70807980D01*
X51833820Y-71125480D01*
X52616140Y-71209300D01*
X53461960Y-71018800D01*
X54096960Y-70701300D01*
X54688780Y-70129800D01*
X55049460Y-69390660D01*
X55217100Y-68608340D01*
X55323780Y-67739660D01*
X54645600Y-66429020D01*
X53949640Y-65857520D01*
X53060640Y-65453660D01*
X52318960Y-65413020D01*
X52362140Y-65433340D01*
D10*
X78756794Y-90280160D02*
G75*
G03*
X78756794Y-90280160I-3077894J0D01*
G01*
D11*
G36*
X75668740Y-87415040D02*
G01*
X74546060Y-87585220D01*
X73657060Y-88070360D01*
X73128740Y-89022860D01*
X72811240Y-89805180D01*
X72834100Y-90737360D01*
X73088100Y-91626360D01*
X73636740Y-92345180D01*
X74271740Y-92789680D01*
X75140420Y-93107180D01*
X75922740Y-93191000D01*
X76768560Y-93000500D01*
X77403560Y-92683000D01*
X77995380Y-92111500D01*
X78356060Y-91372360D01*
X78523700Y-90590040D01*
X78630380Y-89721360D01*
X77952200Y-88410720D01*
X77256240Y-87839220D01*
X76367240Y-87435360D01*
X75625560Y-87394720D01*
X75668740Y-87415040D01*
G37*
X75668740Y-87415040D02*
X74546060Y-87585220D01*
X73657060Y-88070360D01*
X73128740Y-89022860D01*
X72811240Y-89805180D01*
X72834100Y-90737360D01*
X73088100Y-91626360D01*
X73636740Y-92345180D01*
X74271740Y-92789680D01*
X75140420Y-93107180D01*
X75922740Y-93191000D01*
X76768560Y-93000500D01*
X77403560Y-92683000D01*
X77995380Y-92111500D01*
X78356060Y-91372360D01*
X78523700Y-90590040D01*
X78630380Y-89721360D01*
X77952200Y-88410720D01*
X77256240Y-87839220D01*
X76367240Y-87435360D01*
X75625560Y-87394720D01*
X75668740Y-87415040D01*
D10*
X55450194Y-90280160D02*
G75*
G03*
X55450194Y-90280160I-3077894J0D01*
G01*
D11*
G36*
X52362140Y-87415040D02*
G01*
X51239460Y-87585220D01*
X50350460Y-88070360D01*
X49822140Y-89022860D01*
X49504640Y-89805180D01*
X49527500Y-90737360D01*
X49781500Y-91626360D01*
X50330140Y-92345180D01*
X50965140Y-92789680D01*
X51833820Y-93107180D01*
X52616140Y-93191000D01*
X53461960Y-93000500D01*
X54096960Y-92683000D01*
X54688780Y-92111500D01*
X55049460Y-91372360D01*
X55217100Y-90590040D01*
X55323780Y-89721360D01*
X54645600Y-88410720D01*
X53949640Y-87839220D01*
X53060640Y-87435360D01*
X52318960Y-87394720D01*
X52362140Y-87415040D01*
G37*
X52362140Y-87415040D02*
X51239460Y-87585220D01*
X50350460Y-88070360D01*
X49822140Y-89022860D01*
X49504640Y-89805180D01*
X49527500Y-90737360D01*
X49781500Y-91626360D01*
X50330140Y-92345180D01*
X50965140Y-92789680D01*
X51833820Y-93107180D01*
X52616140Y-93191000D01*
X53461960Y-93000500D01*
X54096960Y-92683000D01*
X54688780Y-92111500D01*
X55049460Y-91372360D01*
X55217100Y-90590040D01*
X55323780Y-89721360D01*
X54645600Y-88410720D01*
X53949640Y-87839220D01*
X53060640Y-87435360D01*
X52318960Y-87394720D01*
X52362140Y-87415040D01*
G36*
X200744490Y-149267677D02*
G01*
X200862964Y-149316751D01*
X200969588Y-149387995D01*
X201060265Y-149478672D01*
X201131509Y-149585296D01*
X201180583Y-149703770D01*
X201205600Y-149829542D01*
X201205600Y-149957778D01*
X201180583Y-150083550D01*
X201131509Y-150202024D01*
X201060265Y-150308648D01*
X200969588Y-150399325D01*
X200862964Y-150470569D01*
X200862963Y-150470570D01*
X200862962Y-150470570D01*
X200744490Y-150519643D01*
X200618719Y-150544660D01*
X200490481Y-150544660D01*
X200364710Y-150519643D01*
X200246238Y-150470570D01*
X200246237Y-150470570D01*
X200246236Y-150470569D01*
X200139612Y-150399325D01*
X200048935Y-150308648D01*
X199977691Y-150202024D01*
X199928617Y-150083550D01*
X199903600Y-149957778D01*
X199903600Y-149829542D01*
X199928617Y-149703770D01*
X199977691Y-149585296D01*
X200048935Y-149478672D01*
X200139612Y-149387995D01*
X200246236Y-149316751D01*
X200364710Y-149267677D01*
X200490481Y-149242660D01*
X200618719Y-149242660D01*
X200744490Y-149267677D01*
G37*
G36*
X190744490Y-149267677D02*
G01*
X190862964Y-149316751D01*
X190969588Y-149387995D01*
X191060265Y-149478672D01*
X191131509Y-149585296D01*
X191180583Y-149703770D01*
X191205600Y-149829542D01*
X191205600Y-149957778D01*
X191180583Y-150083550D01*
X191131509Y-150202024D01*
X191060265Y-150308648D01*
X190969588Y-150399325D01*
X190862964Y-150470569D01*
X190862963Y-150470570D01*
X190862962Y-150470570D01*
X190744490Y-150519643D01*
X190618719Y-150544660D01*
X190490481Y-150544660D01*
X190364710Y-150519643D01*
X190246238Y-150470570D01*
X190246237Y-150470570D01*
X190246236Y-150470569D01*
X190139612Y-150399325D01*
X190048935Y-150308648D01*
X189977691Y-150202024D01*
X189928617Y-150083550D01*
X189903600Y-149957778D01*
X189903600Y-149829542D01*
X189928617Y-149703770D01*
X189977691Y-149585296D01*
X190048935Y-149478672D01*
X190139612Y-149387995D01*
X190246236Y-149316751D01*
X190364710Y-149267677D01*
X190490481Y-149242660D01*
X190618719Y-149242660D01*
X190744490Y-149267677D01*
G37*
G36*
X196346805Y-146698860D02*
G01*
X196479697Y-146739173D01*
X196602171Y-146804637D01*
X196709523Y-146892737D01*
X196797623Y-147000089D01*
X196863087Y-147122563D01*
X196903400Y-147255455D01*
X196917011Y-147393660D01*
X196903400Y-147531865D01*
X196863087Y-147664757D01*
X196797623Y-147787231D01*
X196709523Y-147894583D01*
X196602171Y-147982683D01*
X196479697Y-148048147D01*
X196346805Y-148088460D01*
X196243236Y-148098660D01*
X194865964Y-148098660D01*
X194762395Y-148088460D01*
X194629503Y-148048147D01*
X194507029Y-147982683D01*
X194399677Y-147894583D01*
X194311577Y-147787231D01*
X194246113Y-147664757D01*
X194205800Y-147531865D01*
X194192189Y-147393660D01*
X194205800Y-147255455D01*
X194246113Y-147122563D01*
X194311577Y-147000089D01*
X194399677Y-146892737D01*
X194507029Y-146804637D01*
X194629503Y-146739173D01*
X194762395Y-146698860D01*
X194865964Y-146688660D01*
X196243236Y-146688660D01*
X196346805Y-146698860D01*
G37*
G36*
X190744490Y-146767677D02*
G01*
X190833719Y-146804637D01*
X190862964Y-146816751D01*
X190969588Y-146887995D01*
X191060265Y-146978672D01*
X191131510Y-147085298D01*
X191180583Y-147203770D01*
X191205600Y-147329541D01*
X191205600Y-147457779D01*
X191190864Y-147531864D01*
X191180583Y-147583550D01*
X191131509Y-147702024D01*
X191060265Y-147808648D01*
X190969588Y-147899325D01*
X190862964Y-147970569D01*
X190862963Y-147970570D01*
X190862962Y-147970570D01*
X190744490Y-148019643D01*
X190618719Y-148044660D01*
X190490481Y-148044660D01*
X190364710Y-148019643D01*
X190246238Y-147970570D01*
X190246237Y-147970570D01*
X190246236Y-147970569D01*
X190139612Y-147899325D01*
X190048935Y-147808648D01*
X189977691Y-147702024D01*
X189928617Y-147583550D01*
X189918336Y-147531864D01*
X189903600Y-147457779D01*
X189903600Y-147329541D01*
X189928617Y-147203770D01*
X189977690Y-147085298D01*
X190048935Y-146978672D01*
X190139612Y-146887995D01*
X190246236Y-146816751D01*
X190275482Y-146804637D01*
X190364710Y-146767677D01*
X190490481Y-146742660D01*
X190618719Y-146742660D01*
X190744490Y-146767677D01*
G37*
G36*
X200744490Y-146767677D02*
G01*
X200833719Y-146804637D01*
X200862964Y-146816751D01*
X200969588Y-146887995D01*
X201060265Y-146978672D01*
X201131510Y-147085298D01*
X201180583Y-147203770D01*
X201205600Y-147329541D01*
X201205600Y-147457779D01*
X201190864Y-147531864D01*
X201180583Y-147583550D01*
X201131509Y-147702024D01*
X201060265Y-147808648D01*
X200969588Y-147899325D01*
X200862964Y-147970569D01*
X200862963Y-147970570D01*
X200862962Y-147970570D01*
X200744490Y-148019643D01*
X200618719Y-148044660D01*
X200490481Y-148044660D01*
X200364710Y-148019643D01*
X200246238Y-147970570D01*
X200246237Y-147970570D01*
X200246236Y-147970569D01*
X200139612Y-147899325D01*
X200048935Y-147808648D01*
X199977691Y-147702024D01*
X199928617Y-147583550D01*
X199918336Y-147531864D01*
X199903600Y-147457779D01*
X199903600Y-147329541D01*
X199928617Y-147203770D01*
X199977690Y-147085298D01*
X200048935Y-146978672D01*
X200139612Y-146887995D01*
X200246236Y-146816751D01*
X200275482Y-146804637D01*
X200364710Y-146767677D01*
X200490481Y-146742660D01*
X200618719Y-146742660D01*
X200744490Y-146767677D01*
G37*
G36*
X98246412Y-145877827D02*
G01*
X98395712Y-145907524D01*
X98559684Y-145975444D01*
X98707254Y-146074047D01*
X98832753Y-146199546D01*
X98931356Y-146347116D01*
X98999276Y-146511088D01*
X99033900Y-146685159D01*
X99033900Y-146862641D01*
X98999276Y-147036712D01*
X98931356Y-147200684D01*
X98832753Y-147348254D01*
X98707254Y-147473753D01*
X98559684Y-147572356D01*
X98395712Y-147640276D01*
X98246412Y-147669973D01*
X98221642Y-147674900D01*
X98044158Y-147674900D01*
X98019388Y-147669973D01*
X97870088Y-147640276D01*
X97706116Y-147572356D01*
X97558546Y-147473753D01*
X97433047Y-147348254D01*
X97334444Y-147200684D01*
X97266524Y-147036712D01*
X97231900Y-146862641D01*
X97231900Y-146685159D01*
X97266524Y-146511088D01*
X97334444Y-146347116D01*
X97433047Y-146199546D01*
X97558546Y-146074047D01*
X97706116Y-145975444D01*
X97870088Y-145907524D01*
X98019388Y-145877827D01*
X98044158Y-145872900D01*
X98221642Y-145872900D01*
X98246412Y-145877827D01*
G37*
G36*
X95706412Y-145877827D02*
G01*
X95855712Y-145907524D01*
X96019684Y-145975444D01*
X96167254Y-146074047D01*
X96292753Y-146199546D01*
X96391356Y-146347116D01*
X96459276Y-146511088D01*
X96493900Y-146685159D01*
X96493900Y-146862641D01*
X96459276Y-147036712D01*
X96391356Y-147200684D01*
X96292753Y-147348254D01*
X96167254Y-147473753D01*
X96019684Y-147572356D01*
X95855712Y-147640276D01*
X95706412Y-147669973D01*
X95681642Y-147674900D01*
X95504158Y-147674900D01*
X95479388Y-147669973D01*
X95330088Y-147640276D01*
X95166116Y-147572356D01*
X95018546Y-147473753D01*
X94893047Y-147348254D01*
X94794444Y-147200684D01*
X94726524Y-147036712D01*
X94691900Y-146862641D01*
X94691900Y-146685159D01*
X94726524Y-146511088D01*
X94794444Y-146347116D01*
X94893047Y-146199546D01*
X95018546Y-146074047D01*
X95166116Y-145975444D01*
X95330088Y-145907524D01*
X95479388Y-145877827D01*
X95504158Y-145872900D01*
X95681642Y-145872900D01*
X95706412Y-145877827D01*
G37*
G36*
X93166412Y-145877827D02*
G01*
X93315712Y-145907524D01*
X93479684Y-145975444D01*
X93627254Y-146074047D01*
X93752753Y-146199546D01*
X93851356Y-146347116D01*
X93919276Y-146511088D01*
X93953900Y-146685159D01*
X93953900Y-146862641D01*
X93919276Y-147036712D01*
X93851356Y-147200684D01*
X93752753Y-147348254D01*
X93627254Y-147473753D01*
X93479684Y-147572356D01*
X93315712Y-147640276D01*
X93166412Y-147669973D01*
X93141642Y-147674900D01*
X92964158Y-147674900D01*
X92939388Y-147669973D01*
X92790088Y-147640276D01*
X92626116Y-147572356D01*
X92478546Y-147473753D01*
X92353047Y-147348254D01*
X92254444Y-147200684D01*
X92186524Y-147036712D01*
X92151900Y-146862641D01*
X92151900Y-146685159D01*
X92186524Y-146511088D01*
X92254444Y-146347116D01*
X92353047Y-146199546D01*
X92478546Y-146074047D01*
X92626116Y-145975444D01*
X92790088Y-145907524D01*
X92939388Y-145877827D01*
X92964158Y-145872900D01*
X93141642Y-145872900D01*
X93166412Y-145877827D01*
G37*
G36*
X91413900Y-147674900D02*
G01*
X89611900Y-147674900D01*
X89611900Y-145872900D01*
X91413900Y-145872900D01*
X91413900Y-147674900D01*
G37*
G36*
X177627773Y-142329541D02*
G01*
X177826770Y-142369124D01*
X178109034Y-142486041D01*
X178363065Y-142655779D01*
X178579101Y-142871815D01*
X178748839Y-143125846D01*
X178865756Y-143408110D01*
X178925360Y-143707760D01*
X178925360Y-144013280D01*
X178865756Y-144312930D01*
X178748839Y-144595194D01*
X178579101Y-144849225D01*
X178363065Y-145065261D01*
X178109034Y-145234999D01*
X177826770Y-145351916D01*
X177676945Y-145381718D01*
X177527121Y-145411520D01*
X177221599Y-145411520D01*
X177071775Y-145381718D01*
X176921950Y-145351916D01*
X176639686Y-145234999D01*
X176385655Y-145065261D01*
X176169619Y-144849225D01*
X175999881Y-144595194D01*
X175882964Y-144312930D01*
X175823360Y-144013280D01*
X175823360Y-143707760D01*
X175882964Y-143408110D01*
X175999881Y-143125846D01*
X176169619Y-142871815D01*
X176385655Y-142655779D01*
X176639686Y-142486041D01*
X176921950Y-142369124D01*
X177120947Y-142329541D01*
X177221599Y-142309520D01*
X177527121Y-142309520D01*
X177627773Y-142329541D01*
G37*
G36*
X164427773Y-142329541D02*
G01*
X164626770Y-142369124D01*
X164909034Y-142486041D01*
X165163065Y-142655779D01*
X165379101Y-142871815D01*
X165548839Y-143125846D01*
X165665756Y-143408110D01*
X165725360Y-143707760D01*
X165725360Y-144013280D01*
X165665756Y-144312930D01*
X165548839Y-144595194D01*
X165379101Y-144849225D01*
X165163065Y-145065261D01*
X164909034Y-145234999D01*
X164626770Y-145351916D01*
X164476945Y-145381718D01*
X164327121Y-145411520D01*
X164021599Y-145411520D01*
X163871775Y-145381718D01*
X163721950Y-145351916D01*
X163439686Y-145234999D01*
X163185655Y-145065261D01*
X162969619Y-144849225D01*
X162799881Y-144595194D01*
X162682964Y-144312930D01*
X162623360Y-144013280D01*
X162623360Y-143707760D01*
X162682964Y-143408110D01*
X162799881Y-143125846D01*
X162969619Y-142871815D01*
X163185655Y-142655779D01*
X163439686Y-142486041D01*
X163721950Y-142369124D01*
X163920947Y-142329541D01*
X164021599Y-142309520D01*
X164327121Y-142309520D01*
X164427773Y-142329541D01*
G37*
G36*
X190692804Y-141044860D02*
G01*
X190825696Y-141085173D01*
X190948170Y-141150637D01*
X191055523Y-141238738D01*
X191143623Y-141346089D01*
X191209087Y-141468563D01*
X191249400Y-141601455D01*
X191259600Y-141705024D01*
X191259600Y-143082296D01*
X191249400Y-143185865D01*
X191209087Y-143318757D01*
X191143623Y-143441231D01*
X191055523Y-143548583D01*
X190948171Y-143636683D01*
X190825697Y-143702147D01*
X190692805Y-143742460D01*
X190554600Y-143756071D01*
X190416396Y-143742460D01*
X190283504Y-143702147D01*
X190161030Y-143636683D01*
X190053678Y-143548583D01*
X189965578Y-143441231D01*
X189900114Y-143318757D01*
X189859801Y-143185865D01*
X189849601Y-143082296D01*
X189849600Y-141705025D01*
X189859800Y-141601456D01*
X189900113Y-141468564D01*
X189965577Y-141346090D01*
X190053678Y-141238737D01*
X190161029Y-141150637D01*
X190283503Y-141085173D01*
X190416395Y-141044860D01*
X190554600Y-141031249D01*
X190692804Y-141044860D01*
G37*
G36*
X200692804Y-141044860D02*
G01*
X200825696Y-141085173D01*
X200948170Y-141150637D01*
X201055523Y-141238738D01*
X201143623Y-141346089D01*
X201209087Y-141468563D01*
X201249400Y-141601455D01*
X201259600Y-141705024D01*
X201259600Y-143082296D01*
X201249400Y-143185865D01*
X201209087Y-143318757D01*
X201143623Y-143441231D01*
X201055523Y-143548583D01*
X200948171Y-143636683D01*
X200825697Y-143702147D01*
X200692805Y-143742460D01*
X200554600Y-143756071D01*
X200416396Y-143742460D01*
X200283504Y-143702147D01*
X200161030Y-143636683D01*
X200053678Y-143548583D01*
X199965578Y-143441231D01*
X199900114Y-143318757D01*
X199859801Y-143185865D01*
X199849601Y-143082296D01*
X199849600Y-141705025D01*
X199859800Y-141601456D01*
X199900113Y-141468564D01*
X199965577Y-141346090D01*
X200053678Y-141238737D01*
X200161029Y-141150637D01*
X200283503Y-141085173D01*
X200416395Y-141044860D01*
X200554600Y-141031249D01*
X200692804Y-141044860D01*
G37*
G36*
X195744490Y-141767677D02*
G01*
X195862964Y-141816751D01*
X195969588Y-141887995D01*
X196060265Y-141978672D01*
X196131510Y-142085298D01*
X196180583Y-142203770D01*
X196205600Y-142329541D01*
X196205600Y-142457779D01*
X196180583Y-142583550D01*
X196150665Y-142655779D01*
X196131509Y-142702024D01*
X196060265Y-142808648D01*
X195969588Y-142899325D01*
X195862964Y-142970569D01*
X195862963Y-142970570D01*
X195862962Y-142970570D01*
X195744490Y-143019643D01*
X195618719Y-143044660D01*
X195490481Y-143044660D01*
X195364710Y-143019643D01*
X195246238Y-142970570D01*
X195246237Y-142970570D01*
X195246236Y-142970569D01*
X195139612Y-142899325D01*
X195048935Y-142808648D01*
X194977691Y-142702024D01*
X194958536Y-142655779D01*
X194928617Y-142583550D01*
X194903600Y-142457779D01*
X194903600Y-142329541D01*
X194928617Y-142203770D01*
X194977690Y-142085298D01*
X195048935Y-141978672D01*
X195139612Y-141887995D01*
X195246236Y-141816751D01*
X195364710Y-141767677D01*
X195490481Y-141742660D01*
X195618719Y-141742660D01*
X195744490Y-141767677D01*
G37*
G36*
X199876700Y-133235756D02*
G01*
X200257413Y-133311484D01*
X200667069Y-133481169D01*
X201035749Y-133727514D01*
X201349286Y-134041051D01*
X201595631Y-134409731D01*
X201765316Y-134819387D01*
X201851820Y-135254276D01*
X201851820Y-135697684D01*
X201765316Y-136132573D01*
X201595631Y-136542229D01*
X201349286Y-136910909D01*
X201035749Y-137224446D01*
X200667069Y-137470791D01*
X200257413Y-137640476D01*
X199876700Y-137716204D01*
X199822525Y-137726980D01*
X199379115Y-137726980D01*
X199324940Y-137716204D01*
X198944227Y-137640476D01*
X198534571Y-137470791D01*
X198165891Y-137224446D01*
X197852354Y-136910909D01*
X197606009Y-136542229D01*
X197436324Y-136132573D01*
X197349820Y-135697684D01*
X197349820Y-135254276D01*
X197436324Y-134819387D01*
X197606009Y-134409731D01*
X197852354Y-134041051D01*
X198165891Y-133727514D01*
X198534571Y-133481169D01*
X198944227Y-133311484D01*
X199324940Y-133235756D01*
X199379115Y-133224980D01*
X199822525Y-133224980D01*
X199876700Y-133235756D01*
G37*
G36*
X64329104Y-131161215D02*
G01*
X64357475Y-131169821D01*
X64385845Y-131178427D01*
X64385847Y-131178428D01*
X64438131Y-131206374D01*
X64438132Y-131206375D01*
X64438136Y-131206377D01*
X64483969Y-131243991D01*
X64521583Y-131289824D01*
X64521585Y-131289828D01*
X64521586Y-131289829D01*
X64549532Y-131342113D01*
X64566745Y-131398856D01*
X64572556Y-131457860D01*
X64566745Y-131516864D01*
X64566744Y-131516866D01*
X64549533Y-131573605D01*
X64521583Y-131625896D01*
X64483969Y-131671729D01*
X64438136Y-131709343D01*
X64438132Y-131709345D01*
X64438131Y-131709346D01*
X64385847Y-131737292D01*
X64385845Y-131737293D01*
X64357475Y-131745899D01*
X64329104Y-131754505D01*
X64284886Y-131758860D01*
X63755314Y-131758860D01*
X63711096Y-131754505D01*
X63682725Y-131745899D01*
X63654355Y-131737293D01*
X63654353Y-131737292D01*
X63602069Y-131709346D01*
X63602068Y-131709345D01*
X63602064Y-131709343D01*
X63556231Y-131671729D01*
X63518617Y-131625896D01*
X63490667Y-131573605D01*
X63473456Y-131516866D01*
X63473455Y-131516864D01*
X63467644Y-131457860D01*
X63473455Y-131398856D01*
X63490668Y-131342113D01*
X63518614Y-131289829D01*
X63518615Y-131289828D01*
X63518617Y-131289824D01*
X63556231Y-131243991D01*
X63602064Y-131206377D01*
X63602068Y-131206375D01*
X63602069Y-131206374D01*
X63654353Y-131178428D01*
X63654355Y-131178427D01*
X63682725Y-131169821D01*
X63711096Y-131161215D01*
X63755314Y-131156860D01*
X64284886Y-131156860D01*
X64329104Y-131161215D01*
G37*
G36*
X111277362Y-122880181D02*
G01*
X111423134Y-122940562D01*
X111423136Y-122940563D01*
X111554328Y-123028222D01*
X111665898Y-123139792D01*
X111753557Y-123270984D01*
X111753558Y-123270986D01*
X111813939Y-123416758D01*
X111844720Y-123571507D01*
X111844720Y-123729293D01*
X111813939Y-123884042D01*
X111753558Y-124029814D01*
X111753557Y-124029816D01*
X111665898Y-124161008D01*
X111554328Y-124272578D01*
X111423136Y-124360237D01*
X111423135Y-124360238D01*
X111423134Y-124360238D01*
X111277362Y-124420619D01*
X111122613Y-124451400D01*
X110964827Y-124451400D01*
X110810078Y-124420619D01*
X110664306Y-124360238D01*
X110664305Y-124360238D01*
X110664304Y-124360237D01*
X110533112Y-124272578D01*
X110421542Y-124161008D01*
X110333883Y-124029816D01*
X110333882Y-124029814D01*
X110273501Y-123884042D01*
X110242720Y-123729293D01*
X110242720Y-123571507D01*
X110273501Y-123416758D01*
X110333882Y-123270986D01*
X110333883Y-123270984D01*
X110421542Y-123139792D01*
X110533112Y-123028222D01*
X110664304Y-122940563D01*
X110664306Y-122940562D01*
X110810078Y-122880181D01*
X110964827Y-122849400D01*
X111122613Y-122849400D01*
X111277362Y-122880181D01*
G37*
G36*
X133676872Y-120056187D02*
G01*
X133826172Y-120085884D01*
X133990144Y-120153804D01*
X134137714Y-120252407D01*
X134263213Y-120377906D01*
X134361816Y-120525476D01*
X134429736Y-120689448D01*
X134464360Y-120863519D01*
X134464360Y-121041001D01*
X134429736Y-121215072D01*
X134361816Y-121379044D01*
X134263213Y-121526614D01*
X134137714Y-121652113D01*
X133990144Y-121750716D01*
X133826172Y-121818636D01*
X133676872Y-121848333D01*
X133652102Y-121853260D01*
X133474618Y-121853260D01*
X133449848Y-121848333D01*
X133300548Y-121818636D01*
X133136576Y-121750716D01*
X132989006Y-121652113D01*
X132863507Y-121526614D01*
X132764904Y-121379044D01*
X132696984Y-121215072D01*
X132662360Y-121041001D01*
X132662360Y-120863519D01*
X132696984Y-120689448D01*
X132764904Y-120525476D01*
X132863507Y-120377906D01*
X132989006Y-120252407D01*
X133136576Y-120153804D01*
X133300548Y-120085884D01*
X133449848Y-120056187D01*
X133474618Y-120051260D01*
X133652102Y-120051260D01*
X133676872Y-120056187D01*
G37*
G36*
X131924360Y-121853260D02*
G01*
X130122360Y-121853260D01*
X130122360Y-120051260D01*
X131924360Y-120051260D01*
X131924360Y-121853260D01*
G37*
G36*
X169159960Y-121357160D02*
G01*
X167257960Y-121357160D01*
X167257960Y-119455160D01*
X169159960Y-119455160D01*
X169159960Y-121357160D01*
G37*
G36*
X111277362Y-118000181D02*
G01*
X111423134Y-118060562D01*
X111423136Y-118060563D01*
X111554328Y-118148222D01*
X111665898Y-118259792D01*
X111753557Y-118390984D01*
X111753558Y-118390986D01*
X111813939Y-118536758D01*
X111844720Y-118691507D01*
X111844720Y-118849293D01*
X111813939Y-119004042D01*
X111769174Y-119112113D01*
X111753557Y-119149816D01*
X111665898Y-119281008D01*
X111554328Y-119392578D01*
X111423136Y-119480237D01*
X111423135Y-119480238D01*
X111423134Y-119480238D01*
X111277362Y-119540619D01*
X111122613Y-119571400D01*
X110964827Y-119571400D01*
X110810078Y-119540619D01*
X110664306Y-119480238D01*
X110664305Y-119480238D01*
X110664304Y-119480237D01*
X110533112Y-119392578D01*
X110421542Y-119281008D01*
X110333883Y-119149816D01*
X110318266Y-119112113D01*
X110273501Y-119004042D01*
X110242720Y-118849293D01*
X110242720Y-118691507D01*
X110273501Y-118536758D01*
X110333882Y-118390986D01*
X110333883Y-118390984D01*
X110421542Y-118259792D01*
X110533112Y-118148222D01*
X110664304Y-118060563D01*
X110664306Y-118060562D01*
X110810078Y-118000181D01*
X110964827Y-117969400D01*
X111122613Y-117969400D01*
X111277362Y-118000181D01*
G37*
G36*
X133676872Y-117516187D02*
G01*
X133826172Y-117545884D01*
X133990144Y-117613804D01*
X134137714Y-117712407D01*
X134263213Y-117837906D01*
X134361816Y-117985476D01*
X134429736Y-118149448D01*
X134464360Y-118323519D01*
X134464360Y-118501001D01*
X134429736Y-118675072D01*
X134361816Y-118839044D01*
X134263213Y-118986614D01*
X134137714Y-119112113D01*
X133990144Y-119210716D01*
X133826172Y-119278636D01*
X133676872Y-119308333D01*
X133652102Y-119313260D01*
X133474618Y-119313260D01*
X133449848Y-119308333D01*
X133300548Y-119278636D01*
X133136576Y-119210716D01*
X132989006Y-119112113D01*
X132863507Y-118986614D01*
X132764904Y-118839044D01*
X132696984Y-118675072D01*
X132662360Y-118501001D01*
X132662360Y-118323519D01*
X132696984Y-118149448D01*
X132764904Y-117985476D01*
X132863507Y-117837906D01*
X132989006Y-117712407D01*
X133136576Y-117613804D01*
X133300548Y-117545884D01*
X133449848Y-117516187D01*
X133474618Y-117511260D01*
X133652102Y-117511260D01*
X133676872Y-117516187D01*
G37*
G36*
X131136872Y-117516187D02*
G01*
X131286172Y-117545884D01*
X131450144Y-117613804D01*
X131597714Y-117712407D01*
X131723213Y-117837906D01*
X131821816Y-117985476D01*
X131889736Y-118149448D01*
X131924360Y-118323519D01*
X131924360Y-118501001D01*
X131889736Y-118675072D01*
X131821816Y-118839044D01*
X131723213Y-118986614D01*
X131597714Y-119112113D01*
X131450144Y-119210716D01*
X131286172Y-119278636D01*
X131136872Y-119308333D01*
X131112102Y-119313260D01*
X130934618Y-119313260D01*
X130909848Y-119308333D01*
X130760548Y-119278636D01*
X130596576Y-119210716D01*
X130449006Y-119112113D01*
X130323507Y-118986614D01*
X130224904Y-118839044D01*
X130156984Y-118675072D01*
X130122360Y-118501001D01*
X130122360Y-118323519D01*
X130156984Y-118149448D01*
X130224904Y-117985476D01*
X130323507Y-117837906D01*
X130449006Y-117712407D01*
X130596576Y-117613804D01*
X130760548Y-117545884D01*
X130909848Y-117516187D01*
X130934618Y-117511260D01*
X131112102Y-117511260D01*
X131136872Y-117516187D01*
G37*
G36*
X168486355Y-116951706D02*
G01*
X168659426Y-117023394D01*
X168659427Y-117023395D01*
X168815187Y-117127470D01*
X168947650Y-117259933D01*
X168947651Y-117259935D01*
X169051726Y-117415694D01*
X169123414Y-117588765D01*
X169159960Y-117772493D01*
X169159960Y-117959827D01*
X169123414Y-118143555D01*
X169051726Y-118316626D01*
X169051725Y-118316627D01*
X168947650Y-118472387D01*
X168815187Y-118604850D01*
X168736778Y-118657241D01*
X168659426Y-118708926D01*
X168486355Y-118780614D01*
X168302627Y-118817160D01*
X168115293Y-118817160D01*
X167931565Y-118780614D01*
X167758494Y-118708926D01*
X167681142Y-118657241D01*
X167602733Y-118604850D01*
X167470270Y-118472387D01*
X167366195Y-118316627D01*
X167366194Y-118316626D01*
X167294506Y-118143555D01*
X167257960Y-117959827D01*
X167257960Y-117772493D01*
X167294506Y-117588765D01*
X167366194Y-117415694D01*
X167470269Y-117259935D01*
X167470270Y-117259933D01*
X167602733Y-117127470D01*
X167758493Y-117023395D01*
X167758494Y-117023394D01*
X167931565Y-116951706D01*
X168115293Y-116915160D01*
X168302627Y-116915160D01*
X168486355Y-116951706D01*
G37*
G36*
X131136872Y-114976187D02*
G01*
X131286172Y-115005884D01*
X131450144Y-115073804D01*
X131597714Y-115172407D01*
X131723213Y-115297906D01*
X131821816Y-115445476D01*
X131889736Y-115609448D01*
X131924360Y-115783519D01*
X131924360Y-115961001D01*
X131889736Y-116135072D01*
X131821816Y-116299044D01*
X131723213Y-116446614D01*
X131597714Y-116572113D01*
X131450144Y-116670716D01*
X131286172Y-116738636D01*
X131136872Y-116768333D01*
X131112102Y-116773260D01*
X130934618Y-116773260D01*
X130909848Y-116768333D01*
X130760548Y-116738636D01*
X130596576Y-116670716D01*
X130449006Y-116572113D01*
X130323507Y-116446614D01*
X130224904Y-116299044D01*
X130156984Y-116135072D01*
X130122360Y-115961001D01*
X130122360Y-115783519D01*
X130156984Y-115609448D01*
X130224904Y-115445476D01*
X130323507Y-115297906D01*
X130449006Y-115172407D01*
X130596576Y-115073804D01*
X130760548Y-115005884D01*
X130909848Y-114976187D01*
X130934618Y-114971260D01*
X131112102Y-114971260D01*
X131136872Y-114976187D01*
G37*
G36*
X133676872Y-114976187D02*
G01*
X133826172Y-115005884D01*
X133990144Y-115073804D01*
X134137714Y-115172407D01*
X134263213Y-115297906D01*
X134361816Y-115445476D01*
X134429736Y-115609448D01*
X134464360Y-115783519D01*
X134464360Y-115961001D01*
X134429736Y-116135072D01*
X134361816Y-116299044D01*
X134263213Y-116446614D01*
X134137714Y-116572113D01*
X133990144Y-116670716D01*
X133826172Y-116738636D01*
X133676872Y-116768333D01*
X133652102Y-116773260D01*
X133474618Y-116773260D01*
X133449848Y-116768333D01*
X133300548Y-116738636D01*
X133136576Y-116670716D01*
X132989006Y-116572113D01*
X132863507Y-116446614D01*
X132764904Y-116299044D01*
X132696984Y-116135072D01*
X132662360Y-115961001D01*
X132662360Y-115783519D01*
X132696984Y-115609448D01*
X132764904Y-115445476D01*
X132863507Y-115297906D01*
X132989006Y-115172407D01*
X133136576Y-115073804D01*
X133300548Y-115005884D01*
X133449848Y-114976187D01*
X133474618Y-114971260D01*
X133652102Y-114971260D01*
X133676872Y-114976187D01*
G37*
G36*
X179549424Y-114588989D02*
G01*
X179740693Y-114668215D01*
X179740695Y-114668216D01*
X179782284Y-114696005D01*
X179912833Y-114783235D01*
X180059225Y-114929627D01*
X180174245Y-115101767D01*
X180253471Y-115293036D01*
X180293860Y-115496084D01*
X180293860Y-115703116D01*
X180253471Y-115906164D01*
X180230756Y-115961002D01*
X180174244Y-116097435D01*
X180059225Y-116269573D01*
X179912833Y-116415965D01*
X179740695Y-116530984D01*
X179740694Y-116530985D01*
X179740693Y-116530985D01*
X179549424Y-116610211D01*
X179346376Y-116650600D01*
X179139344Y-116650600D01*
X178936296Y-116610211D01*
X178745027Y-116530985D01*
X178745026Y-116530985D01*
X178745025Y-116530984D01*
X178572887Y-116415965D01*
X178426495Y-116269573D01*
X178311476Y-116097435D01*
X178254964Y-115961002D01*
X178232249Y-115906164D01*
X178191860Y-115703116D01*
X178191860Y-115496084D01*
X178232249Y-115293036D01*
X178311475Y-115101767D01*
X178426495Y-114929627D01*
X178572887Y-114783235D01*
X178703436Y-114696005D01*
X178745025Y-114668216D01*
X178745027Y-114668215D01*
X178936296Y-114588989D01*
X179139344Y-114548600D01*
X179346376Y-114548600D01*
X179549424Y-114588989D01*
G37*
G36*
X173049424Y-114588989D02*
G01*
X173240693Y-114668215D01*
X173240695Y-114668216D01*
X173282284Y-114696005D01*
X173412833Y-114783235D01*
X173559225Y-114929627D01*
X173674245Y-115101767D01*
X173753471Y-115293036D01*
X173793860Y-115496084D01*
X173793860Y-115703116D01*
X173753471Y-115906164D01*
X173730756Y-115961002D01*
X173674244Y-116097435D01*
X173559225Y-116269573D01*
X173412833Y-116415965D01*
X173240695Y-116530984D01*
X173240694Y-116530985D01*
X173240693Y-116530985D01*
X173049424Y-116610211D01*
X172846376Y-116650600D01*
X172639344Y-116650600D01*
X172436296Y-116610211D01*
X172245027Y-116530985D01*
X172245026Y-116530985D01*
X172245025Y-116530984D01*
X172072887Y-116415965D01*
X171926495Y-116269573D01*
X171811476Y-116097435D01*
X171754964Y-115961002D01*
X171732249Y-115906164D01*
X171691860Y-115703116D01*
X171691860Y-115496084D01*
X171732249Y-115293036D01*
X171811475Y-115101767D01*
X171926495Y-114929627D01*
X172072887Y-114783235D01*
X172203436Y-114696005D01*
X172245025Y-114668216D01*
X172245027Y-114668215D01*
X172436296Y-114588989D01*
X172639344Y-114548600D01*
X172846376Y-114548600D01*
X173049424Y-114588989D01*
G37*
G36*
X160674532Y-114666307D02*
G01*
X160823832Y-114696004D01*
X160987804Y-114763924D01*
X161135374Y-114862527D01*
X161260873Y-114988026D01*
X161359476Y-115135596D01*
X161427396Y-115299568D01*
X161462020Y-115473639D01*
X161462020Y-115651121D01*
X161427396Y-115825192D01*
X161359476Y-115989164D01*
X161260873Y-116136734D01*
X161135374Y-116262233D01*
X160987804Y-116360836D01*
X160823832Y-116428756D01*
X160674532Y-116458453D01*
X160649762Y-116463380D01*
X160472278Y-116463380D01*
X160447508Y-116458453D01*
X160298208Y-116428756D01*
X160134236Y-116360836D01*
X159986666Y-116262233D01*
X159861167Y-116136734D01*
X159762564Y-115989164D01*
X159694644Y-115825192D01*
X159660020Y-115651121D01*
X159660020Y-115473639D01*
X159694644Y-115299568D01*
X159762564Y-115135596D01*
X159861167Y-114988026D01*
X159986666Y-114862527D01*
X160134236Y-114763924D01*
X160298208Y-114696004D01*
X160447508Y-114666307D01*
X160472278Y-114661380D01*
X160649762Y-114661380D01*
X160674532Y-114666307D01*
G37*
G36*
X131136872Y-112436187D02*
G01*
X131286172Y-112465884D01*
X131450144Y-112533804D01*
X131597714Y-112632407D01*
X131723213Y-112757906D01*
X131821816Y-112905476D01*
X131889736Y-113069448D01*
X131924360Y-113243519D01*
X131924360Y-113421001D01*
X131889736Y-113595072D01*
X131821816Y-113759044D01*
X131723213Y-113906614D01*
X131597714Y-114032113D01*
X131450144Y-114130716D01*
X131286172Y-114198636D01*
X131136872Y-114228333D01*
X131112102Y-114233260D01*
X130934618Y-114233260D01*
X130909848Y-114228333D01*
X130760548Y-114198636D01*
X130596576Y-114130716D01*
X130449006Y-114032113D01*
X130323507Y-113906614D01*
X130224904Y-113759044D01*
X130156984Y-113595072D01*
X130122360Y-113421001D01*
X130122360Y-113243519D01*
X130156984Y-113069448D01*
X130224904Y-112905476D01*
X130323507Y-112757906D01*
X130449006Y-112632407D01*
X130596576Y-112533804D01*
X130760548Y-112465884D01*
X130909848Y-112436187D01*
X130934618Y-112431260D01*
X131112102Y-112431260D01*
X131136872Y-112436187D01*
G37*
G36*
X133676872Y-112436187D02*
G01*
X133826172Y-112465884D01*
X133990144Y-112533804D01*
X134137714Y-112632407D01*
X134263213Y-112757906D01*
X134361816Y-112905476D01*
X134429736Y-113069448D01*
X134464360Y-113243519D01*
X134464360Y-113421001D01*
X134429736Y-113595072D01*
X134361816Y-113759044D01*
X134263213Y-113906614D01*
X134137714Y-114032113D01*
X133990144Y-114130716D01*
X133826172Y-114198636D01*
X133676872Y-114228333D01*
X133652102Y-114233260D01*
X133474618Y-114233260D01*
X133449848Y-114228333D01*
X133300548Y-114198636D01*
X133136576Y-114130716D01*
X132989006Y-114032113D01*
X132863507Y-113906614D01*
X132764904Y-113759044D01*
X132696984Y-113595072D01*
X132662360Y-113421001D01*
X132662360Y-113243519D01*
X132696984Y-113069448D01*
X132764904Y-112905476D01*
X132863507Y-112757906D01*
X132989006Y-112632407D01*
X133136576Y-112533804D01*
X133300548Y-112465884D01*
X133449848Y-112436187D01*
X133474618Y-112431260D01*
X133652102Y-112431260D01*
X133676872Y-112436187D01*
G37*
G36*
X161462020Y-113923380D02*
G01*
X159660020Y-113923380D01*
X159660020Y-112121380D01*
X161462020Y-112121380D01*
X161462020Y-113923380D01*
G37*
G36*
X179549424Y-110088989D02*
G01*
X179740693Y-110168215D01*
X179740695Y-110168216D01*
X179912833Y-110283235D01*
X180059225Y-110429627D01*
X180174245Y-110601767D01*
X180253471Y-110793036D01*
X180293860Y-110996084D01*
X180293860Y-111203116D01*
X180253471Y-111406164D01*
X180174245Y-111597433D01*
X180174244Y-111597435D01*
X180059225Y-111769573D01*
X179912833Y-111915965D01*
X179740695Y-112030984D01*
X179740694Y-112030985D01*
X179740693Y-112030985D01*
X179549424Y-112110211D01*
X179346376Y-112150600D01*
X179139344Y-112150600D01*
X178936296Y-112110211D01*
X178745027Y-112030985D01*
X178745026Y-112030985D01*
X178745025Y-112030984D01*
X178572887Y-111915965D01*
X178426495Y-111769573D01*
X178311476Y-111597435D01*
X178311475Y-111597433D01*
X178232249Y-111406164D01*
X178191860Y-111203116D01*
X178191860Y-110996084D01*
X178232249Y-110793036D01*
X178311475Y-110601767D01*
X178426495Y-110429627D01*
X178572887Y-110283235D01*
X178745025Y-110168216D01*
X178745027Y-110168215D01*
X178936296Y-110088989D01*
X179139344Y-110048600D01*
X179346376Y-110048600D01*
X179549424Y-110088989D01*
G37*
G36*
X173049424Y-110088989D02*
G01*
X173240693Y-110168215D01*
X173240695Y-110168216D01*
X173412833Y-110283235D01*
X173559225Y-110429627D01*
X173674245Y-110601767D01*
X173753471Y-110793036D01*
X173793860Y-110996084D01*
X173793860Y-111203116D01*
X173753471Y-111406164D01*
X173674245Y-111597433D01*
X173674244Y-111597435D01*
X173559225Y-111769573D01*
X173412833Y-111915965D01*
X173240695Y-112030984D01*
X173240694Y-112030985D01*
X173240693Y-112030985D01*
X173049424Y-112110211D01*
X172846376Y-112150600D01*
X172639344Y-112150600D01*
X172436296Y-112110211D01*
X172245027Y-112030985D01*
X172245026Y-112030985D01*
X172245025Y-112030984D01*
X172072887Y-111915965D01*
X171926495Y-111769573D01*
X171811476Y-111597435D01*
X171811475Y-111597433D01*
X171732249Y-111406164D01*
X171691860Y-111203116D01*
X171691860Y-110996084D01*
X171732249Y-110793036D01*
X171811475Y-110601767D01*
X171926495Y-110429627D01*
X172072887Y-110283235D01*
X172245025Y-110168216D01*
X172245027Y-110168215D01*
X172436296Y-110088989D01*
X172639344Y-110048600D01*
X172846376Y-110048600D01*
X173049424Y-110088989D01*
G37*
G36*
X147210080Y-108482700D02*
G01*
X145408080Y-108482700D01*
X145408080Y-106680700D01*
X147210080Y-106680700D01*
X147210080Y-108482700D01*
G37*
G36*
X108616366Y-104515695D02*
G01*
X108773460Y-104563349D01*
X108918231Y-104640731D01*
X109045128Y-104744872D01*
X109149269Y-104871769D01*
X109226651Y-105016540D01*
X109274305Y-105173634D01*
X109291000Y-105343140D01*
X109291000Y-107256860D01*
X109274305Y-107426366D01*
X109226651Y-107583460D01*
X109149269Y-107728231D01*
X109045128Y-107855128D01*
X108918231Y-107959269D01*
X108773460Y-108036651D01*
X108616366Y-108084305D01*
X108446860Y-108101000D01*
X106533140Y-108101000D01*
X106363634Y-108084305D01*
X106206540Y-108036651D01*
X106061769Y-107959269D01*
X105934872Y-107855128D01*
X105830731Y-107728231D01*
X105753349Y-107583460D01*
X105705695Y-107426366D01*
X105689000Y-107256860D01*
X105689000Y-105343140D01*
X105705695Y-105173634D01*
X105753349Y-105016540D01*
X105830731Y-104871769D01*
X105934872Y-104744872D01*
X106061769Y-104640731D01*
X106206540Y-104563349D01*
X106363634Y-104515695D01*
X106533140Y-104499000D01*
X108446860Y-104499000D01*
X108616366Y-104515695D01*
G37*
G36*
X200362032Y-105067647D02*
G01*
X200511332Y-105097344D01*
X200675304Y-105165264D01*
X200822874Y-105263867D01*
X200948373Y-105389366D01*
X201046976Y-105536936D01*
X201114896Y-105700908D01*
X201149520Y-105874979D01*
X201149520Y-106052461D01*
X201114896Y-106226532D01*
X201046976Y-106390504D01*
X200948373Y-106538074D01*
X200822874Y-106663573D01*
X200675304Y-106762176D01*
X200511332Y-106830096D01*
X200362032Y-106859793D01*
X200337262Y-106864720D01*
X200159778Y-106864720D01*
X200135008Y-106859793D01*
X199985708Y-106830096D01*
X199821736Y-106762176D01*
X199674166Y-106663573D01*
X199548667Y-106538074D01*
X199450064Y-106390504D01*
X199382144Y-106226532D01*
X199347520Y-106052461D01*
X199347520Y-105874979D01*
X199382144Y-105700908D01*
X199450064Y-105536936D01*
X199548667Y-105389366D01*
X199674166Y-105263867D01*
X199821736Y-105165264D01*
X199985708Y-105097344D01*
X200135008Y-105067647D01*
X200159778Y-105062720D01*
X200337262Y-105062720D01*
X200362032Y-105067647D01*
G37*
G36*
X146422592Y-104145627D02*
G01*
X146571892Y-104175324D01*
X146735864Y-104243244D01*
X146883434Y-104341847D01*
X147008933Y-104467346D01*
X147107536Y-104614916D01*
X147175456Y-104778888D01*
X147210080Y-104952959D01*
X147210080Y-105130441D01*
X147175456Y-105304512D01*
X147107536Y-105468484D01*
X147008933Y-105616054D01*
X146883434Y-105741553D01*
X146735864Y-105840156D01*
X146571892Y-105908076D01*
X146422592Y-105937773D01*
X146397822Y-105942700D01*
X146220338Y-105942700D01*
X146195568Y-105937773D01*
X146046268Y-105908076D01*
X145882296Y-105840156D01*
X145734726Y-105741553D01*
X145609227Y-105616054D01*
X145510624Y-105468484D01*
X145442704Y-105304512D01*
X145408080Y-105130441D01*
X145408080Y-104952959D01*
X145442704Y-104778888D01*
X145510624Y-104614916D01*
X145609227Y-104467346D01*
X145734726Y-104341847D01*
X145882296Y-104243244D01*
X146046268Y-104175324D01*
X146195568Y-104145627D01*
X146220338Y-104140700D01*
X146397822Y-104140700D01*
X146422592Y-104145627D01*
G37*
G36*
X191971164Y-102408029D02*
G01*
X192162433Y-102487255D01*
X192162435Y-102487256D01*
X192334573Y-102602275D01*
X192480965Y-102748667D01*
X192595580Y-102920200D01*
X192595985Y-102920807D01*
X192675211Y-103112076D01*
X192715600Y-103315124D01*
X192715600Y-103522156D01*
X192675211Y-103725204D01*
X192595985Y-103916473D01*
X192595984Y-103916475D01*
X192480965Y-104088613D01*
X192334573Y-104235005D01*
X192162435Y-104350024D01*
X192162434Y-104350025D01*
X192162433Y-104350025D01*
X191971164Y-104429251D01*
X191768116Y-104469640D01*
X191561084Y-104469640D01*
X191358036Y-104429251D01*
X191166767Y-104350025D01*
X191166766Y-104350025D01*
X191166765Y-104350024D01*
X190994627Y-104235005D01*
X190848235Y-104088613D01*
X190733216Y-103916475D01*
X190733215Y-103916473D01*
X190653989Y-103725204D01*
X190613600Y-103522156D01*
X190613600Y-103315124D01*
X190653989Y-103112076D01*
X190733215Y-102920807D01*
X190733621Y-102920200D01*
X190848235Y-102748667D01*
X190994627Y-102602275D01*
X191166765Y-102487256D01*
X191166767Y-102487255D01*
X191358036Y-102408029D01*
X191561084Y-102367640D01*
X191768116Y-102367640D01*
X191971164Y-102408029D01*
G37*
G36*
X187715600Y-104469640D02*
G01*
X185613600Y-104469640D01*
X185613600Y-102367640D01*
X187715600Y-102367640D01*
X187715600Y-104469640D01*
G37*
G36*
X201149520Y-104324720D02*
G01*
X199347520Y-104324720D01*
X199347520Y-102522720D01*
X201149520Y-102522720D01*
X201149520Y-104324720D01*
G37*
G36*
X122233303Y-99611189D02*
G01*
X122601068Y-99722750D01*
X122940002Y-99903914D01*
X123237080Y-100147720D01*
X123480886Y-100444798D01*
X123662050Y-100783732D01*
X123773611Y-101151497D01*
X123811280Y-101533960D01*
X123773611Y-101916423D01*
X123662050Y-102284188D01*
X123480886Y-102623122D01*
X123237080Y-102920200D01*
X122940002Y-103164006D01*
X122601068Y-103345170D01*
X122233303Y-103456731D01*
X121946687Y-103484960D01*
X117554993Y-103484960D01*
X117268377Y-103456731D01*
X116900612Y-103345170D01*
X116561678Y-103164006D01*
X116264600Y-102920200D01*
X116020794Y-102623122D01*
X115839630Y-102284188D01*
X115728069Y-101916423D01*
X115690400Y-101533960D01*
X115728069Y-101151497D01*
X115839630Y-100783732D01*
X116020794Y-100444798D01*
X116264600Y-100147720D01*
X116561678Y-99903914D01*
X116900612Y-99722750D01*
X117268377Y-99611189D01*
X117554993Y-99582960D01*
X121946687Y-99582960D01*
X122233303Y-99611189D01*
G37*
G36*
X131533303Y-99611189D02*
G01*
X131901068Y-99722750D01*
X132240002Y-99903914D01*
X132537080Y-100147720D01*
X132780886Y-100444798D01*
X132962050Y-100783732D01*
X133073611Y-101151497D01*
X133111280Y-101533960D01*
X133073611Y-101916423D01*
X132962050Y-102284188D01*
X132780886Y-102623122D01*
X132537080Y-102920200D01*
X132240002Y-103164006D01*
X131901068Y-103345170D01*
X131533303Y-103456731D01*
X131246687Y-103484960D01*
X126854993Y-103484960D01*
X126568377Y-103456731D01*
X126200612Y-103345170D01*
X125861678Y-103164006D01*
X125564600Y-102920200D01*
X125320794Y-102623122D01*
X125139630Y-102284188D01*
X125028069Y-101916423D01*
X124990400Y-101533960D01*
X125028069Y-101151497D01*
X125139630Y-100783732D01*
X125320794Y-100444798D01*
X125564600Y-100147720D01*
X125861678Y-99903914D01*
X126200612Y-99722750D01*
X126568377Y-99611189D01*
X126854993Y-99582960D01*
X131246687Y-99582960D01*
X131533303Y-99611189D01*
G37*
G36*
X146422592Y-101605627D02*
G01*
X146571892Y-101635324D01*
X146735864Y-101703244D01*
X146883434Y-101801847D01*
X147008933Y-101927346D01*
X147107536Y-102074916D01*
X147175456Y-102238888D01*
X147201066Y-102367640D01*
X147209100Y-102408029D01*
X147210080Y-102412959D01*
X147210080Y-102590441D01*
X147175456Y-102764512D01*
X147107536Y-102928484D01*
X147008933Y-103076054D01*
X146883434Y-103201553D01*
X146735864Y-103300156D01*
X146571892Y-103368076D01*
X146422592Y-103397773D01*
X146397822Y-103402700D01*
X146220338Y-103402700D01*
X146195568Y-103397773D01*
X146046268Y-103368076D01*
X145882296Y-103300156D01*
X145734726Y-103201553D01*
X145609227Y-103076054D01*
X145510624Y-102928484D01*
X145442704Y-102764512D01*
X145408080Y-102590441D01*
X145408080Y-102412959D01*
X145409061Y-102408029D01*
X145417094Y-102367640D01*
X145442704Y-102238888D01*
X145510624Y-102074916D01*
X145609227Y-101927346D01*
X145734726Y-101801847D01*
X145882296Y-101703244D01*
X146046268Y-101635324D01*
X146195568Y-101605627D01*
X146220338Y-101600700D01*
X146397822Y-101600700D01*
X146422592Y-101605627D01*
G37*
G36*
X112291000Y-103401000D02*
G01*
X108689000Y-103401000D01*
X108689000Y-99799000D01*
X112291000Y-99799000D01*
X112291000Y-103401000D01*
G37*
G36*
X105466979Y-99813293D02*
G01*
X105600625Y-99853834D01*
X105723784Y-99919664D01*
X105831740Y-100008260D01*
X105920336Y-100116216D01*
X105986166Y-100239375D01*
X106026707Y-100373021D01*
X106041000Y-100518140D01*
X106041000Y-102681860D01*
X106026707Y-102826979D01*
X105986166Y-102960625D01*
X105920336Y-103083784D01*
X105831740Y-103191740D01*
X105723784Y-103280336D01*
X105600625Y-103346166D01*
X105466979Y-103386707D01*
X105321860Y-103401000D01*
X103658140Y-103401000D01*
X103513021Y-103386707D01*
X103379375Y-103346166D01*
X103256216Y-103280336D01*
X103148260Y-103191740D01*
X103059664Y-103083784D01*
X102993834Y-102960625D01*
X102953293Y-102826979D01*
X102939000Y-102681860D01*
X102939000Y-100518140D01*
X102953293Y-100373021D01*
X102993834Y-100239375D01*
X103059664Y-100116216D01*
X103148260Y-100008260D01*
X103256216Y-99919664D01*
X103379375Y-99853834D01*
X103513021Y-99813293D01*
X103658140Y-99799000D01*
X105321860Y-99799000D01*
X105466979Y-99813293D01*
G37*
G36*
X146422592Y-99065627D02*
G01*
X146571892Y-99095324D01*
X146735864Y-99163244D01*
X146883434Y-99261847D01*
X147008933Y-99387346D01*
X147107536Y-99534916D01*
X147175456Y-99698888D01*
X147210080Y-99872959D01*
X147210080Y-100050441D01*
X147175456Y-100224512D01*
X147107536Y-100388484D01*
X147008933Y-100536054D01*
X146883434Y-100661553D01*
X146735864Y-100760156D01*
X146571892Y-100828076D01*
X146422592Y-100857773D01*
X146397822Y-100862700D01*
X146220338Y-100862700D01*
X146195568Y-100857773D01*
X146046268Y-100828076D01*
X145882296Y-100760156D01*
X145734726Y-100661553D01*
X145609227Y-100536054D01*
X145510624Y-100388484D01*
X145442704Y-100224512D01*
X145408080Y-100050441D01*
X145408080Y-99872959D01*
X145442704Y-99698888D01*
X145510624Y-99534916D01*
X145609227Y-99387346D01*
X145734726Y-99261847D01*
X145882296Y-99163244D01*
X146046268Y-99095324D01*
X146195568Y-99065627D01*
X146220338Y-99060700D01*
X146397822Y-99060700D01*
X146422592Y-99065627D01*
G37*
G36*
X146422592Y-96525627D02*
G01*
X146571892Y-96555324D01*
X146735864Y-96623244D01*
X146883434Y-96721847D01*
X147008933Y-96847346D01*
X147107536Y-96994916D01*
X147175456Y-97158888D01*
X147210080Y-97332959D01*
X147210080Y-97510441D01*
X147175456Y-97684512D01*
X147107536Y-97848484D01*
X147008933Y-97996054D01*
X146883434Y-98121553D01*
X146735864Y-98220156D01*
X146571892Y-98288076D01*
X146422592Y-98317773D01*
X146397822Y-98322700D01*
X146220338Y-98322700D01*
X146195568Y-98317773D01*
X146046268Y-98288076D01*
X145882296Y-98220156D01*
X145734726Y-98121553D01*
X145609227Y-97996054D01*
X145510624Y-97848484D01*
X145442704Y-97684512D01*
X145408080Y-97510441D01*
X145408080Y-97332959D01*
X145442704Y-97158888D01*
X145510624Y-96994916D01*
X145609227Y-96847346D01*
X145734726Y-96721847D01*
X145882296Y-96623244D01*
X146046268Y-96555324D01*
X146195568Y-96525627D01*
X146220338Y-96520700D01*
X146397822Y-96520700D01*
X146422592Y-96525627D01*
G37*
G36*
X146422592Y-93985627D02*
G01*
X146571892Y-94015324D01*
X146735864Y-94083244D01*
X146883434Y-94181847D01*
X147008933Y-94307346D01*
X147107536Y-94454916D01*
X147175456Y-94618888D01*
X147205153Y-94768188D01*
X147210080Y-94792958D01*
X147210080Y-94970442D01*
X147205153Y-94995212D01*
X147175456Y-95144512D01*
X147107536Y-95308484D01*
X147008933Y-95456054D01*
X146883434Y-95581553D01*
X146735864Y-95680156D01*
X146571892Y-95748076D01*
X146422592Y-95777773D01*
X146397822Y-95782700D01*
X146220338Y-95782700D01*
X146195568Y-95777773D01*
X146046268Y-95748076D01*
X145882296Y-95680156D01*
X145734726Y-95581553D01*
X145609227Y-95456054D01*
X145510624Y-95308484D01*
X145442704Y-95144512D01*
X145413007Y-94995212D01*
X145408080Y-94970442D01*
X145408080Y-94792958D01*
X145413007Y-94768188D01*
X145442704Y-94618888D01*
X145510624Y-94454916D01*
X145609227Y-94307346D01*
X145734726Y-94181847D01*
X145882296Y-94083244D01*
X146046268Y-94015324D01*
X146195568Y-93985627D01*
X146220338Y-93980700D01*
X146397822Y-93980700D01*
X146422592Y-93985627D01*
G37*
G36*
X191927428Y-93761143D02*
G01*
X192082300Y-93825293D01*
X192221681Y-93918425D01*
X192340215Y-94036959D01*
X192433347Y-94176340D01*
X192497497Y-94331212D01*
X192530200Y-94495624D01*
X192530200Y-94663256D01*
X192497497Y-94827668D01*
X192433347Y-94982540D01*
X192340215Y-95121921D01*
X192221681Y-95240455D01*
X192082300Y-95333587D01*
X191927428Y-95397737D01*
X191763016Y-95430440D01*
X191595384Y-95430440D01*
X191430972Y-95397737D01*
X191276100Y-95333587D01*
X191136719Y-95240455D01*
X191018185Y-95121921D01*
X190925053Y-94982540D01*
X190860903Y-94827668D01*
X190828200Y-94663256D01*
X190828200Y-94495624D01*
X190860903Y-94331212D01*
X190925053Y-94176340D01*
X191018185Y-94036959D01*
X191136719Y-93918425D01*
X191276100Y-93825293D01*
X191430972Y-93761143D01*
X191595384Y-93728440D01*
X191763016Y-93728440D01*
X191927428Y-93761143D01*
G37*
G36*
X190030200Y-95430440D02*
G01*
X188328200Y-95430440D01*
X188328200Y-93728440D01*
X190030200Y-93728440D01*
X190030200Y-95430440D01*
G37*
G36*
X137022052Y-89977507D02*
G01*
X137171352Y-90007204D01*
X137335324Y-90075124D01*
X137482894Y-90173727D01*
X137608393Y-90299226D01*
X137706996Y-90446796D01*
X137774916Y-90610768D01*
X137809540Y-90784839D01*
X137809540Y-90962321D01*
X137774916Y-91136392D01*
X137706996Y-91300364D01*
X137608393Y-91447934D01*
X137482894Y-91573433D01*
X137335324Y-91672036D01*
X137171352Y-91739956D01*
X137022052Y-91769653D01*
X136997282Y-91774580D01*
X136819798Y-91774580D01*
X136795028Y-91769653D01*
X136645728Y-91739956D01*
X136481756Y-91672036D01*
X136334186Y-91573433D01*
X136208687Y-91447934D01*
X136110084Y-91300364D01*
X136042164Y-91136392D01*
X136007540Y-90962321D01*
X136007540Y-90784839D01*
X136042164Y-90610768D01*
X136110084Y-90446796D01*
X136208687Y-90299226D01*
X136334186Y-90173727D01*
X136481756Y-90075124D01*
X136645728Y-90007204D01*
X136795028Y-89977507D01*
X136819798Y-89972580D01*
X136997282Y-89972580D01*
X137022052Y-89977507D01*
G37*
G36*
X140349540Y-91774580D02*
G01*
X138547540Y-91774580D01*
X138547540Y-89972580D01*
X140349540Y-89972580D01*
X140349540Y-91774580D01*
G37*
G36*
X143968952Y-88110607D02*
G01*
X144118252Y-88140304D01*
X144282224Y-88208224D01*
X144429794Y-88306827D01*
X144555293Y-88432326D01*
X144653896Y-88579896D01*
X144721816Y-88743868D01*
X144751513Y-88893168D01*
X144756032Y-88915885D01*
X144756440Y-88917939D01*
X144756440Y-89095421D01*
X144721816Y-89269492D01*
X144653896Y-89433464D01*
X144555293Y-89581034D01*
X144429794Y-89706533D01*
X144282224Y-89805136D01*
X144118252Y-89873056D01*
X143968952Y-89902753D01*
X143944182Y-89907680D01*
X143766698Y-89907680D01*
X143741928Y-89902753D01*
X143592628Y-89873056D01*
X143428656Y-89805136D01*
X143281086Y-89706533D01*
X143155587Y-89581034D01*
X143056984Y-89433464D01*
X142989064Y-89269492D01*
X142954440Y-89095421D01*
X142954440Y-88917939D01*
X142954849Y-88915885D01*
X142959367Y-88893168D01*
X142989064Y-88743868D01*
X143056984Y-88579896D01*
X143155587Y-88432326D01*
X143281086Y-88306827D01*
X143428656Y-88208224D01*
X143592628Y-88140304D01*
X143741928Y-88110607D01*
X143766698Y-88105680D01*
X143944182Y-88105680D01*
X143968952Y-88110607D01*
G37*
G36*
X197725608Y-88181403D02*
G01*
X197880480Y-88245553D01*
X198019861Y-88338685D01*
X198138395Y-88457219D01*
X198231527Y-88596600D01*
X198295677Y-88751472D01*
X198328380Y-88915884D01*
X198328380Y-89083516D01*
X198295677Y-89247928D01*
X198231527Y-89402800D01*
X198138395Y-89542181D01*
X198019861Y-89660715D01*
X197880480Y-89753847D01*
X197725608Y-89817997D01*
X197561196Y-89850700D01*
X197393564Y-89850700D01*
X197229152Y-89817997D01*
X197074280Y-89753847D01*
X196934899Y-89660715D01*
X196816365Y-89542181D01*
X196723233Y-89402800D01*
X196659083Y-89247928D01*
X196626380Y-89083516D01*
X196626380Y-88915884D01*
X196659083Y-88751472D01*
X196723233Y-88596600D01*
X196816365Y-88457219D01*
X196934899Y-88338685D01*
X197074280Y-88245553D01*
X197229152Y-88181403D01*
X197393564Y-88148700D01*
X197561196Y-88148700D01*
X197725608Y-88181403D01*
G37*
G36*
X191416248Y-88013123D02*
G01*
X191571120Y-88077273D01*
X191710501Y-88170405D01*
X191829035Y-88288939D01*
X191922167Y-88428320D01*
X191986317Y-88583192D01*
X192019020Y-88747604D01*
X192019020Y-88915236D01*
X191986317Y-89079648D01*
X191922167Y-89234520D01*
X191829035Y-89373901D01*
X191710501Y-89492435D01*
X191571120Y-89585567D01*
X191416248Y-89649717D01*
X191251836Y-89682420D01*
X191084204Y-89682420D01*
X190919792Y-89649717D01*
X190764920Y-89585567D01*
X190625539Y-89492435D01*
X190507005Y-89373901D01*
X190413873Y-89234520D01*
X190349723Y-89079648D01*
X190317020Y-88915236D01*
X190317020Y-88747604D01*
X190349723Y-88583192D01*
X190413873Y-88428320D01*
X190507005Y-88288939D01*
X190625539Y-88170405D01*
X190764920Y-88077273D01*
X190919792Y-88013123D01*
X191084204Y-87980420D01*
X191251836Y-87980420D01*
X191416248Y-88013123D01*
G37*
G36*
X188876248Y-88013123D02*
G01*
X189031120Y-88077273D01*
X189170501Y-88170405D01*
X189289035Y-88288939D01*
X189382167Y-88428320D01*
X189446317Y-88583192D01*
X189479020Y-88747604D01*
X189479020Y-88915236D01*
X189446317Y-89079648D01*
X189382167Y-89234520D01*
X189289035Y-89373901D01*
X189170501Y-89492435D01*
X189031120Y-89585567D01*
X188876248Y-89649717D01*
X188711836Y-89682420D01*
X188544204Y-89682420D01*
X188379792Y-89649717D01*
X188224920Y-89585567D01*
X188085539Y-89492435D01*
X187967005Y-89373901D01*
X187873873Y-89234520D01*
X187809723Y-89079648D01*
X187777020Y-88915236D01*
X187777020Y-88747604D01*
X187809723Y-88583192D01*
X187873873Y-88428320D01*
X187967005Y-88288939D01*
X188085539Y-88170405D01*
X188224920Y-88077273D01*
X188379792Y-88013123D01*
X188544204Y-87980420D01*
X188711836Y-87980420D01*
X188876248Y-88013123D01*
G37*
G36*
X186336248Y-88013123D02*
G01*
X186491120Y-88077273D01*
X186630501Y-88170405D01*
X186749035Y-88288939D01*
X186842167Y-88428320D01*
X186906317Y-88583192D01*
X186939020Y-88747604D01*
X186939020Y-88915236D01*
X186906317Y-89079648D01*
X186842167Y-89234520D01*
X186749035Y-89373901D01*
X186630501Y-89492435D01*
X186491120Y-89585567D01*
X186336248Y-89649717D01*
X186171836Y-89682420D01*
X186004204Y-89682420D01*
X185839792Y-89649717D01*
X185684920Y-89585567D01*
X185545539Y-89492435D01*
X185427005Y-89373901D01*
X185333873Y-89234520D01*
X185269723Y-89079648D01*
X185237020Y-88915236D01*
X185237020Y-88747604D01*
X185269723Y-88583192D01*
X185333873Y-88428320D01*
X185427005Y-88288939D01*
X185545539Y-88170405D01*
X185684920Y-88077273D01*
X185839792Y-88013123D01*
X186004204Y-87980420D01*
X186171836Y-87980420D01*
X186336248Y-88013123D01*
G37*
G36*
X183796248Y-88013123D02*
G01*
X183951120Y-88077273D01*
X184090501Y-88170405D01*
X184209035Y-88288939D01*
X184302167Y-88428320D01*
X184366317Y-88583192D01*
X184399020Y-88747604D01*
X184399020Y-88915236D01*
X184366317Y-89079648D01*
X184302167Y-89234520D01*
X184209035Y-89373901D01*
X184090501Y-89492435D01*
X183951120Y-89585567D01*
X183796248Y-89649717D01*
X183631836Y-89682420D01*
X183464204Y-89682420D01*
X183299792Y-89649717D01*
X183144920Y-89585567D01*
X183005539Y-89492435D01*
X182887005Y-89373901D01*
X182793873Y-89234520D01*
X182729723Y-89079648D01*
X182697020Y-88915236D01*
X182697020Y-88747604D01*
X182729723Y-88583192D01*
X182793873Y-88428320D01*
X182887005Y-88288939D01*
X183005539Y-88170405D01*
X183144920Y-88077273D01*
X183299792Y-88013123D01*
X183464204Y-87980420D01*
X183631836Y-87980420D01*
X183796248Y-88013123D01*
G37*
G36*
X136045835Y-86551262D02*
G01*
X136196158Y-86613528D01*
X136331445Y-86703924D01*
X136446496Y-86818975D01*
X136536892Y-86954262D01*
X136599158Y-87104585D01*
X136630900Y-87264166D01*
X136630900Y-87426874D01*
X136599158Y-87586455D01*
X136536892Y-87736778D01*
X136446496Y-87872065D01*
X136331445Y-87987116D01*
X136196158Y-88077512D01*
X136045835Y-88139778D01*
X135886254Y-88171520D01*
X135723546Y-88171520D01*
X135563965Y-88139778D01*
X135413642Y-88077512D01*
X135278355Y-87987116D01*
X135163304Y-87872065D01*
X135072908Y-87736778D01*
X135010642Y-87586455D01*
X134978900Y-87426874D01*
X134978900Y-87264166D01*
X135010642Y-87104585D01*
X135072908Y-86954262D01*
X135163304Y-86818975D01*
X135278355Y-86703924D01*
X135413642Y-86613528D01*
X135563965Y-86551262D01*
X135723546Y-86519520D01*
X135886254Y-86519520D01*
X136045835Y-86551262D01*
G37*
G36*
X141630900Y-88171520D02*
G01*
X139978900Y-88171520D01*
X139978900Y-86519520D01*
X141630900Y-86519520D01*
X141630900Y-88171520D01*
G37*
G36*
X144756440Y-87367680D02*
G01*
X142954440Y-87367680D01*
X142954440Y-85565680D01*
X144756440Y-85565680D01*
X144756440Y-87367680D01*
G37*
G36*
X198328380Y-87350700D02*
G01*
X196626380Y-87350700D01*
X196626380Y-85648700D01*
X198328380Y-85648700D01*
X198328380Y-87350700D01*
G37*
G36*
X120024372Y-85034667D02*
G01*
X120173672Y-85064364D01*
X120337644Y-85132284D01*
X120485214Y-85230887D01*
X120610713Y-85356386D01*
X120709316Y-85503956D01*
X120777236Y-85667928D01*
X120811860Y-85841999D01*
X120811860Y-86019481D01*
X120777236Y-86193552D01*
X120709316Y-86357524D01*
X120610713Y-86505094D01*
X120485214Y-86630593D01*
X120337644Y-86729196D01*
X120173672Y-86797116D01*
X120024372Y-86826813D01*
X119999602Y-86831740D01*
X119822118Y-86831740D01*
X119797348Y-86826813D01*
X119648048Y-86797116D01*
X119484076Y-86729196D01*
X119336506Y-86630593D01*
X119211007Y-86505094D01*
X119112404Y-86357524D01*
X119044484Y-86193552D01*
X119009860Y-86019481D01*
X119009860Y-85841999D01*
X119044484Y-85667928D01*
X119112404Y-85503956D01*
X119211007Y-85356386D01*
X119336506Y-85230887D01*
X119484076Y-85132284D01*
X119648048Y-85064364D01*
X119797348Y-85034667D01*
X119822118Y-85029740D01*
X119999602Y-85029740D01*
X120024372Y-85034667D01*
G37*
G36*
X117484372Y-85034667D02*
G01*
X117633672Y-85064364D01*
X117797644Y-85132284D01*
X117945214Y-85230887D01*
X118070713Y-85356386D01*
X118169316Y-85503956D01*
X118237236Y-85667928D01*
X118271860Y-85841999D01*
X118271860Y-86019481D01*
X118237236Y-86193552D01*
X118169316Y-86357524D01*
X118070713Y-86505094D01*
X117945214Y-86630593D01*
X117797644Y-86729196D01*
X117633672Y-86797116D01*
X117484372Y-86826813D01*
X117459602Y-86831740D01*
X117282118Y-86831740D01*
X117257348Y-86826813D01*
X117108048Y-86797116D01*
X116944076Y-86729196D01*
X116796506Y-86630593D01*
X116671007Y-86505094D01*
X116572404Y-86357524D01*
X116504484Y-86193552D01*
X116469860Y-86019481D01*
X116469860Y-85841999D01*
X116504484Y-85667928D01*
X116572404Y-85503956D01*
X116671007Y-85356386D01*
X116796506Y-85230887D01*
X116944076Y-85132284D01*
X117108048Y-85064364D01*
X117257348Y-85034667D01*
X117282118Y-85029740D01*
X117459602Y-85029740D01*
X117484372Y-85034667D01*
G37*
G36*
X115731860Y-86831740D02*
G01*
X113929860Y-86831740D01*
X113929860Y-85029740D01*
X115731860Y-85029740D01*
X115731860Y-86831740D01*
G37*
G36*
X132724372Y-85034667D02*
G01*
X132873672Y-85064364D01*
X133037644Y-85132284D01*
X133185214Y-85230887D01*
X133310713Y-85356386D01*
X133409316Y-85503956D01*
X133477236Y-85667928D01*
X133511860Y-85841999D01*
X133511860Y-86019481D01*
X133477236Y-86193552D01*
X133409316Y-86357524D01*
X133310713Y-86505094D01*
X133185214Y-86630593D01*
X133037644Y-86729196D01*
X132873672Y-86797116D01*
X132724372Y-86826813D01*
X132699602Y-86831740D01*
X132522118Y-86831740D01*
X132497348Y-86826813D01*
X132348048Y-86797116D01*
X132184076Y-86729196D01*
X132036506Y-86630593D01*
X131911007Y-86505094D01*
X131812404Y-86357524D01*
X131744484Y-86193552D01*
X131709860Y-86019481D01*
X131709860Y-85841999D01*
X131744484Y-85667928D01*
X131812404Y-85503956D01*
X131911007Y-85356386D01*
X132036506Y-85230887D01*
X132184076Y-85132284D01*
X132348048Y-85064364D01*
X132497348Y-85034667D01*
X132522118Y-85029740D01*
X132699602Y-85029740D01*
X132724372Y-85034667D01*
G37*
G36*
X130184372Y-85034667D02*
G01*
X130333672Y-85064364D01*
X130497644Y-85132284D01*
X130645214Y-85230887D01*
X130770713Y-85356386D01*
X130869316Y-85503956D01*
X130937236Y-85667928D01*
X130971860Y-85841999D01*
X130971860Y-86019481D01*
X130937236Y-86193552D01*
X130869316Y-86357524D01*
X130770713Y-86505094D01*
X130645214Y-86630593D01*
X130497644Y-86729196D01*
X130333672Y-86797116D01*
X130184372Y-86826813D01*
X130159602Y-86831740D01*
X129982118Y-86831740D01*
X129957348Y-86826813D01*
X129808048Y-86797116D01*
X129644076Y-86729196D01*
X129496506Y-86630593D01*
X129371007Y-86505094D01*
X129272404Y-86357524D01*
X129204484Y-86193552D01*
X129169860Y-86019481D01*
X129169860Y-85841999D01*
X129204484Y-85667928D01*
X129272404Y-85503956D01*
X129371007Y-85356386D01*
X129496506Y-85230887D01*
X129644076Y-85132284D01*
X129808048Y-85064364D01*
X129957348Y-85034667D01*
X129982118Y-85029740D01*
X130159602Y-85029740D01*
X130184372Y-85034667D01*
G37*
G36*
X127644372Y-85034667D02*
G01*
X127793672Y-85064364D01*
X127957644Y-85132284D01*
X128105214Y-85230887D01*
X128230713Y-85356386D01*
X128329316Y-85503956D01*
X128397236Y-85667928D01*
X128431860Y-85841999D01*
X128431860Y-86019481D01*
X128397236Y-86193552D01*
X128329316Y-86357524D01*
X128230713Y-86505094D01*
X128105214Y-86630593D01*
X127957644Y-86729196D01*
X127793672Y-86797116D01*
X127644372Y-86826813D01*
X127619602Y-86831740D01*
X127442118Y-86831740D01*
X127417348Y-86826813D01*
X127268048Y-86797116D01*
X127104076Y-86729196D01*
X126956506Y-86630593D01*
X126831007Y-86505094D01*
X126732404Y-86357524D01*
X126664484Y-86193552D01*
X126629860Y-86019481D01*
X126629860Y-85841999D01*
X126664484Y-85667928D01*
X126732404Y-85503956D01*
X126831007Y-85356386D01*
X126956506Y-85230887D01*
X127104076Y-85132284D01*
X127268048Y-85064364D01*
X127417348Y-85034667D01*
X127442118Y-85029740D01*
X127619602Y-85029740D01*
X127644372Y-85034667D01*
G37*
G36*
X125104372Y-85034667D02*
G01*
X125253672Y-85064364D01*
X125417644Y-85132284D01*
X125565214Y-85230887D01*
X125690713Y-85356386D01*
X125789316Y-85503956D01*
X125857236Y-85667928D01*
X125891860Y-85841999D01*
X125891860Y-86019481D01*
X125857236Y-86193552D01*
X125789316Y-86357524D01*
X125690713Y-86505094D01*
X125565214Y-86630593D01*
X125417644Y-86729196D01*
X125253672Y-86797116D01*
X125104372Y-86826813D01*
X125079602Y-86831740D01*
X124902118Y-86831740D01*
X124877348Y-86826813D01*
X124728048Y-86797116D01*
X124564076Y-86729196D01*
X124416506Y-86630593D01*
X124291007Y-86505094D01*
X124192404Y-86357524D01*
X124124484Y-86193552D01*
X124089860Y-86019481D01*
X124089860Y-85841999D01*
X124124484Y-85667928D01*
X124192404Y-85503956D01*
X124291007Y-85356386D01*
X124416506Y-85230887D01*
X124564076Y-85132284D01*
X124728048Y-85064364D01*
X124877348Y-85034667D01*
X124902118Y-85029740D01*
X125079602Y-85029740D01*
X125104372Y-85034667D01*
G37*
G36*
X122564372Y-85034667D02*
G01*
X122713672Y-85064364D01*
X122877644Y-85132284D01*
X123025214Y-85230887D01*
X123150713Y-85356386D01*
X123249316Y-85503956D01*
X123317236Y-85667928D01*
X123351860Y-85841999D01*
X123351860Y-86019481D01*
X123317236Y-86193552D01*
X123249316Y-86357524D01*
X123150713Y-86505094D01*
X123025214Y-86630593D01*
X122877644Y-86729196D01*
X122713672Y-86797116D01*
X122564372Y-86826813D01*
X122539602Y-86831740D01*
X122362118Y-86831740D01*
X122337348Y-86826813D01*
X122188048Y-86797116D01*
X122024076Y-86729196D01*
X121876506Y-86630593D01*
X121751007Y-86505094D01*
X121652404Y-86357524D01*
X121584484Y-86193552D01*
X121549860Y-86019481D01*
X121549860Y-85841999D01*
X121584484Y-85667928D01*
X121652404Y-85503956D01*
X121751007Y-85356386D01*
X121876506Y-85230887D01*
X122024076Y-85132284D01*
X122188048Y-85064364D01*
X122337348Y-85034667D01*
X122362118Y-85029740D01*
X122539602Y-85029740D01*
X122564372Y-85034667D01*
G37*
G36*
X138545835Y-81551262D02*
G01*
X138696158Y-81613528D01*
X138831445Y-81703924D01*
X138946496Y-81818975D01*
X139036892Y-81954262D01*
X139099158Y-82104585D01*
X139130900Y-82264166D01*
X139130900Y-82426874D01*
X139099158Y-82586455D01*
X139036892Y-82736778D01*
X138946496Y-82872065D01*
X138831445Y-82987116D01*
X138696158Y-83077512D01*
X138545835Y-83139778D01*
X138386254Y-83171520D01*
X138223546Y-83171520D01*
X138063965Y-83139778D01*
X137913642Y-83077512D01*
X137778355Y-82987116D01*
X137663304Y-82872065D01*
X137572908Y-82736778D01*
X137510642Y-82586455D01*
X137478900Y-82426874D01*
X137478900Y-82264166D01*
X137510642Y-82104585D01*
X137572908Y-81954262D01*
X137663304Y-81818975D01*
X137778355Y-81703924D01*
X137913642Y-81613528D01*
X138063965Y-81551262D01*
X138223546Y-81519520D01*
X138386254Y-81519520D01*
X138545835Y-81551262D01*
G37*
G36*
X54348342Y-81478181D02*
G01*
X54494114Y-81538562D01*
X54494116Y-81538563D01*
X54625308Y-81626222D01*
X54736878Y-81737792D01*
X54824537Y-81868984D01*
X54824538Y-81868986D01*
X54884919Y-82014758D01*
X54915700Y-82169507D01*
X54915700Y-82327293D01*
X54884919Y-82482042D01*
X54824538Y-82627814D01*
X54824537Y-82627816D01*
X54736878Y-82759008D01*
X54625308Y-82870578D01*
X54494116Y-82958237D01*
X54494115Y-82958238D01*
X54494114Y-82958238D01*
X54348342Y-83018619D01*
X54193593Y-83049400D01*
X54035807Y-83049400D01*
X53881058Y-83018619D01*
X53735286Y-82958238D01*
X53735285Y-82958238D01*
X53735284Y-82958237D01*
X53604092Y-82870578D01*
X53492522Y-82759008D01*
X53404863Y-82627816D01*
X53404862Y-82627814D01*
X53344481Y-82482042D01*
X53313700Y-82327293D01*
X53313700Y-82169507D01*
X53344481Y-82014758D01*
X53404862Y-81868986D01*
X53404863Y-81868984D01*
X53492522Y-81737792D01*
X53604092Y-81626222D01*
X53735284Y-81538563D01*
X53735286Y-81538562D01*
X53881058Y-81478181D01*
X54035807Y-81447400D01*
X54193593Y-81447400D01*
X54348342Y-81478181D01*
G37*
G36*
X82015964Y-78990889D02*
G01*
X82207233Y-79070115D01*
X82207235Y-79070116D01*
X82379373Y-79185135D01*
X82525765Y-79331527D01*
X82588601Y-79425567D01*
X82640785Y-79503667D01*
X82720011Y-79694936D01*
X82760400Y-79897984D01*
X82760400Y-80105016D01*
X82720011Y-80308064D01*
X82640785Y-80499333D01*
X82640784Y-80499335D01*
X82525765Y-80671473D01*
X82379373Y-80817865D01*
X82207235Y-80932884D01*
X82207234Y-80932885D01*
X82207233Y-80932885D01*
X82015964Y-81012111D01*
X81812916Y-81052500D01*
X81605884Y-81052500D01*
X81402836Y-81012111D01*
X81211567Y-80932885D01*
X81211566Y-80932885D01*
X81211565Y-80932884D01*
X81039427Y-80817865D01*
X80893035Y-80671473D01*
X80778016Y-80499335D01*
X80778015Y-80499333D01*
X80698789Y-80308064D01*
X80658400Y-80105016D01*
X80658400Y-79897984D01*
X80698789Y-79694936D01*
X80778015Y-79503667D01*
X80830200Y-79425567D01*
X80893035Y-79331527D01*
X81039427Y-79185135D01*
X81211565Y-79070116D01*
X81211567Y-79070115D01*
X81402836Y-78990889D01*
X81605884Y-78950500D01*
X81812916Y-78950500D01*
X82015964Y-78990889D01*
G37*
G36*
X75515964Y-78990889D02*
G01*
X75707233Y-79070115D01*
X75707235Y-79070116D01*
X75879373Y-79185135D01*
X76025765Y-79331527D01*
X76088601Y-79425567D01*
X76140785Y-79503667D01*
X76220011Y-79694936D01*
X76260400Y-79897984D01*
X76260400Y-80105016D01*
X76220011Y-80308064D01*
X76140785Y-80499333D01*
X76140784Y-80499335D01*
X76025765Y-80671473D01*
X75879373Y-80817865D01*
X75707235Y-80932884D01*
X75707234Y-80932885D01*
X75707233Y-80932885D01*
X75515964Y-81012111D01*
X75312916Y-81052500D01*
X75105884Y-81052500D01*
X74902836Y-81012111D01*
X74711567Y-80932885D01*
X74711566Y-80932885D01*
X74711565Y-80932884D01*
X74539427Y-80817865D01*
X74393035Y-80671473D01*
X74278016Y-80499335D01*
X74278015Y-80499333D01*
X74198789Y-80308064D01*
X74158400Y-80105016D01*
X74158400Y-79897984D01*
X74198789Y-79694936D01*
X74278015Y-79503667D01*
X74330200Y-79425567D01*
X74393035Y-79331527D01*
X74539427Y-79185135D01*
X74711565Y-79070116D01*
X74711567Y-79070115D01*
X74902836Y-78990889D01*
X75105884Y-78950500D01*
X75312916Y-78950500D01*
X75515964Y-78990889D01*
G37*
G36*
X186336248Y-77853123D02*
G01*
X186491120Y-77917273D01*
X186630501Y-78010405D01*
X186749035Y-78128939D01*
X186842167Y-78268320D01*
X186906317Y-78423192D01*
X186939020Y-78587604D01*
X186939020Y-78755236D01*
X186906317Y-78919648D01*
X186842167Y-79074520D01*
X186749035Y-79213901D01*
X186630501Y-79332435D01*
X186491120Y-79425567D01*
X186336248Y-79489717D01*
X186171836Y-79522420D01*
X186004204Y-79522420D01*
X185839792Y-79489717D01*
X185684920Y-79425567D01*
X185545539Y-79332435D01*
X185427005Y-79213901D01*
X185333873Y-79074520D01*
X185269723Y-78919648D01*
X185237020Y-78755236D01*
X185237020Y-78587604D01*
X185269723Y-78423192D01*
X185333873Y-78268320D01*
X185427005Y-78128939D01*
X185545539Y-78010405D01*
X185684920Y-77917273D01*
X185839792Y-77853123D01*
X186004204Y-77820420D01*
X186171836Y-77820420D01*
X186336248Y-77853123D01*
G37*
G36*
X192019020Y-79522420D02*
G01*
X190317020Y-79522420D01*
X190317020Y-77820420D01*
X192019020Y-77820420D01*
X192019020Y-79522420D01*
G37*
G36*
X188876248Y-77853123D02*
G01*
X189031120Y-77917273D01*
X189170501Y-78010405D01*
X189289035Y-78128939D01*
X189382167Y-78268320D01*
X189446317Y-78423192D01*
X189479020Y-78587604D01*
X189479020Y-78755236D01*
X189446317Y-78919648D01*
X189382167Y-79074520D01*
X189289035Y-79213901D01*
X189170501Y-79332435D01*
X189031120Y-79425567D01*
X188876248Y-79489717D01*
X188711836Y-79522420D01*
X188544204Y-79522420D01*
X188379792Y-79489717D01*
X188224920Y-79425567D01*
X188085539Y-79332435D01*
X187967005Y-79213901D01*
X187873873Y-79074520D01*
X187809723Y-78919648D01*
X187777020Y-78755236D01*
X187777020Y-78587604D01*
X187809723Y-78423192D01*
X187873873Y-78268320D01*
X187967005Y-78128939D01*
X188085539Y-78010405D01*
X188224920Y-77917273D01*
X188379792Y-77853123D01*
X188544204Y-77820420D01*
X188711836Y-77820420D01*
X188876248Y-77853123D01*
G37*
G36*
X183796248Y-77853123D02*
G01*
X183951120Y-77917273D01*
X184090501Y-78010405D01*
X184209035Y-78128939D01*
X184302167Y-78268320D01*
X184366317Y-78423192D01*
X184399020Y-78587604D01*
X184399020Y-78755236D01*
X184366317Y-78919648D01*
X184302167Y-79074520D01*
X184209035Y-79213901D01*
X184090501Y-79332435D01*
X183951120Y-79425567D01*
X183796248Y-79489717D01*
X183631836Y-79522420D01*
X183464204Y-79522420D01*
X183299792Y-79489717D01*
X183144920Y-79425567D01*
X183005539Y-79332435D01*
X182887005Y-79213901D01*
X182793873Y-79074520D01*
X182729723Y-78919648D01*
X182697020Y-78755236D01*
X182697020Y-78587604D01*
X182729723Y-78423192D01*
X182793873Y-78268320D01*
X182887005Y-78128939D01*
X183005539Y-78010405D01*
X183144920Y-77917273D01*
X183299792Y-77853123D01*
X183464204Y-77820420D01*
X183631836Y-77820420D01*
X183796248Y-77853123D01*
G37*
G36*
X54348342Y-76598181D02*
G01*
X54470126Y-76648626D01*
X54494116Y-76658563D01*
X54625308Y-76746222D01*
X54736878Y-76857792D01*
X54824537Y-76988984D01*
X54824538Y-76988986D01*
X54884919Y-77134758D01*
X54915700Y-77289507D01*
X54915700Y-77447293D01*
X54884919Y-77602042D01*
X54824538Y-77747814D01*
X54824537Y-77747816D01*
X54736878Y-77879008D01*
X54625308Y-77990578D01*
X54494116Y-78078237D01*
X54494115Y-78078238D01*
X54494114Y-78078238D01*
X54348342Y-78138619D01*
X54193593Y-78169400D01*
X54035807Y-78169400D01*
X53881058Y-78138619D01*
X53735286Y-78078238D01*
X53735285Y-78078238D01*
X53735284Y-78078237D01*
X53604092Y-77990578D01*
X53492522Y-77879008D01*
X53404863Y-77747816D01*
X53404862Y-77747814D01*
X53344481Y-77602042D01*
X53313700Y-77447293D01*
X53313700Y-77289507D01*
X53344481Y-77134758D01*
X53404862Y-76988986D01*
X53404863Y-76988984D01*
X53492522Y-76857792D01*
X53604092Y-76746222D01*
X53735284Y-76658563D01*
X53759274Y-76648626D01*
X53881058Y-76598181D01*
X54035807Y-76567400D01*
X54193593Y-76567400D01*
X54348342Y-76598181D01*
G37*
G36*
X158069242Y-76257821D02*
G01*
X158214200Y-76317865D01*
X158215016Y-76318203D01*
X158346208Y-76405862D01*
X158457778Y-76517432D01*
X158491165Y-76567400D01*
X158545438Y-76648626D01*
X158605819Y-76794398D01*
X158636600Y-76949147D01*
X158636600Y-77106933D01*
X158605819Y-77261682D01*
X158594293Y-77289507D01*
X158545437Y-77407456D01*
X158457778Y-77538648D01*
X158346208Y-77650218D01*
X158215016Y-77737877D01*
X158215015Y-77737878D01*
X158215014Y-77737878D01*
X158069242Y-77798259D01*
X157914493Y-77829040D01*
X157756707Y-77829040D01*
X157601958Y-77798259D01*
X157456186Y-77737878D01*
X157456185Y-77737878D01*
X157456184Y-77737877D01*
X157324992Y-77650218D01*
X157213422Y-77538648D01*
X157125763Y-77407456D01*
X157076907Y-77289507D01*
X157065381Y-77261682D01*
X157034600Y-77106933D01*
X157034600Y-76949147D01*
X157065381Y-76794398D01*
X157125762Y-76648626D01*
X157180035Y-76567400D01*
X157213422Y-76517432D01*
X157324992Y-76405862D01*
X157456184Y-76318203D01*
X157457000Y-76317865D01*
X157601958Y-76257821D01*
X157756707Y-76227040D01*
X157914493Y-76227040D01*
X158069242Y-76257821D01*
G37*
G36*
X153189242Y-76257821D02*
G01*
X153334200Y-76317865D01*
X153335016Y-76318203D01*
X153466208Y-76405862D01*
X153577778Y-76517432D01*
X153611165Y-76567400D01*
X153665438Y-76648626D01*
X153725819Y-76794398D01*
X153756600Y-76949147D01*
X153756600Y-77106933D01*
X153725819Y-77261682D01*
X153714293Y-77289507D01*
X153665437Y-77407456D01*
X153577778Y-77538648D01*
X153466208Y-77650218D01*
X153335016Y-77737877D01*
X153335015Y-77737878D01*
X153335014Y-77737878D01*
X153189242Y-77798259D01*
X153034493Y-77829040D01*
X152876707Y-77829040D01*
X152721958Y-77798259D01*
X152576186Y-77737878D01*
X152576185Y-77737878D01*
X152576184Y-77737877D01*
X152444992Y-77650218D01*
X152333422Y-77538648D01*
X152245763Y-77407456D01*
X152196907Y-77289507D01*
X152185381Y-77261682D01*
X152154600Y-77106933D01*
X152154600Y-76949147D01*
X152185381Y-76794398D01*
X152245762Y-76648626D01*
X152300035Y-76567400D01*
X152333422Y-76517432D01*
X152444992Y-76405862D01*
X152576184Y-76318203D01*
X152577000Y-76317865D01*
X152721958Y-76257821D01*
X152876707Y-76227040D01*
X153034493Y-76227040D01*
X153189242Y-76257821D01*
G37*
G36*
X82015964Y-74490889D02*
G01*
X82207233Y-74570115D01*
X82207235Y-74570116D01*
X82379373Y-74685135D01*
X82525765Y-74831527D01*
X82640785Y-75003667D01*
X82720011Y-75194936D01*
X82760400Y-75397984D01*
X82760400Y-75605016D01*
X82720011Y-75808064D01*
X82640785Y-75999333D01*
X82640784Y-75999335D01*
X82525765Y-76171473D01*
X82379373Y-76317865D01*
X82207235Y-76432884D01*
X82207234Y-76432885D01*
X82207233Y-76432885D01*
X82015964Y-76512111D01*
X81812916Y-76552500D01*
X81605884Y-76552500D01*
X81402836Y-76512111D01*
X81211567Y-76432885D01*
X81211566Y-76432885D01*
X81211565Y-76432884D01*
X81039427Y-76317865D01*
X80893035Y-76171473D01*
X80778016Y-75999335D01*
X80778015Y-75999333D01*
X80698789Y-75808064D01*
X80658400Y-75605016D01*
X80658400Y-75397984D01*
X80698789Y-75194936D01*
X80778015Y-75003667D01*
X80893035Y-74831527D01*
X81039427Y-74685135D01*
X81211565Y-74570116D01*
X81211567Y-74570115D01*
X81402836Y-74490889D01*
X81605884Y-74450500D01*
X81812916Y-74450500D01*
X82015964Y-74490889D01*
G37*
G36*
X75515964Y-74490889D02*
G01*
X75707233Y-74570115D01*
X75707235Y-74570116D01*
X75879373Y-74685135D01*
X76025765Y-74831527D01*
X76140785Y-75003667D01*
X76220011Y-75194936D01*
X76260400Y-75397984D01*
X76260400Y-75605016D01*
X76220011Y-75808064D01*
X76140785Y-75999333D01*
X76140784Y-75999335D01*
X76025765Y-76171473D01*
X75879373Y-76317865D01*
X75707235Y-76432884D01*
X75707234Y-76432885D01*
X75707233Y-76432885D01*
X75515964Y-76512111D01*
X75312916Y-76552500D01*
X75105884Y-76552500D01*
X74902836Y-76512111D01*
X74711567Y-76432885D01*
X74711566Y-76432885D01*
X74711565Y-76432884D01*
X74539427Y-76317865D01*
X74393035Y-76171473D01*
X74278016Y-75999335D01*
X74278015Y-75999333D01*
X74198789Y-75808064D01*
X74158400Y-75605016D01*
X74158400Y-75397984D01*
X74198789Y-75194936D01*
X74278015Y-75003667D01*
X74393035Y-74831527D01*
X74539427Y-74685135D01*
X74711565Y-74570116D01*
X74711567Y-74570115D01*
X74902836Y-74490889D01*
X75105884Y-74450500D01*
X75312916Y-74450500D01*
X75515964Y-74490889D01*
G37*
G36*
X185909432Y-69944527D02*
G01*
X186058732Y-69974224D01*
X186222704Y-70042144D01*
X186370274Y-70140747D01*
X186495773Y-70266246D01*
X186594376Y-70413816D01*
X186662296Y-70577788D01*
X186696920Y-70751859D01*
X186696920Y-70929341D01*
X186662296Y-71103412D01*
X186594376Y-71267384D01*
X186495773Y-71414954D01*
X186370274Y-71540453D01*
X186222704Y-71639056D01*
X186058732Y-71706976D01*
X185909432Y-71736673D01*
X185884662Y-71741600D01*
X185707178Y-71741600D01*
X185682408Y-71736673D01*
X185533108Y-71706976D01*
X185369136Y-71639056D01*
X185221566Y-71540453D01*
X185096067Y-71414954D01*
X184997464Y-71267384D01*
X184929544Y-71103412D01*
X184894920Y-70929341D01*
X184894920Y-70751859D01*
X184929544Y-70577788D01*
X184997464Y-70413816D01*
X185096067Y-70266246D01*
X185221566Y-70140747D01*
X185369136Y-70042144D01*
X185533108Y-69974224D01*
X185682408Y-69944527D01*
X185707178Y-69939600D01*
X185884662Y-69939600D01*
X185909432Y-69944527D01*
G37*
G36*
X183369432Y-69944527D02*
G01*
X183518732Y-69974224D01*
X183682704Y-70042144D01*
X183830274Y-70140747D01*
X183955773Y-70266246D01*
X184054376Y-70413816D01*
X184122296Y-70577788D01*
X184156920Y-70751859D01*
X184156920Y-70929341D01*
X184122296Y-71103412D01*
X184054376Y-71267384D01*
X183955773Y-71414954D01*
X183830274Y-71540453D01*
X183682704Y-71639056D01*
X183518732Y-71706976D01*
X183369432Y-71736673D01*
X183344662Y-71741600D01*
X183167178Y-71741600D01*
X183142408Y-71736673D01*
X182993108Y-71706976D01*
X182829136Y-71639056D01*
X182681566Y-71540453D01*
X182556067Y-71414954D01*
X182457464Y-71267384D01*
X182389544Y-71103412D01*
X182354920Y-70929341D01*
X182354920Y-70751859D01*
X182389544Y-70577788D01*
X182457464Y-70413816D01*
X182556067Y-70266246D01*
X182681566Y-70140747D01*
X182829136Y-70042144D01*
X182993108Y-69974224D01*
X183142408Y-69944527D01*
X183167178Y-69939600D01*
X183344662Y-69939600D01*
X183369432Y-69944527D01*
G37*
G36*
X180829432Y-69944527D02*
G01*
X180978732Y-69974224D01*
X181142704Y-70042144D01*
X181290274Y-70140747D01*
X181415773Y-70266246D01*
X181514376Y-70413816D01*
X181582296Y-70577788D01*
X181616920Y-70751859D01*
X181616920Y-70929341D01*
X181582296Y-71103412D01*
X181514376Y-71267384D01*
X181415773Y-71414954D01*
X181290274Y-71540453D01*
X181142704Y-71639056D01*
X180978732Y-71706976D01*
X180829432Y-71736673D01*
X180804662Y-71741600D01*
X180627178Y-71741600D01*
X180602408Y-71736673D01*
X180453108Y-71706976D01*
X180289136Y-71639056D01*
X180141566Y-71540453D01*
X180016067Y-71414954D01*
X179917464Y-71267384D01*
X179849544Y-71103412D01*
X179814920Y-70929341D01*
X179814920Y-70751859D01*
X179849544Y-70577788D01*
X179917464Y-70413816D01*
X180016067Y-70266246D01*
X180141566Y-70140747D01*
X180289136Y-70042144D01*
X180453108Y-69974224D01*
X180602408Y-69944527D01*
X180627178Y-69939600D01*
X180804662Y-69939600D01*
X180829432Y-69944527D01*
G37*
G36*
X179076920Y-71741600D02*
G01*
X177274920Y-71741600D01*
X177274920Y-69939600D01*
X179076920Y-69939600D01*
X179076920Y-71741600D01*
G37*
G36*
X83842072Y-67361347D02*
G01*
X83991372Y-67391044D01*
X84155344Y-67458964D01*
X84302914Y-67557567D01*
X84428413Y-67683066D01*
X84527016Y-67830636D01*
X84594936Y-67994608D01*
X84629560Y-68168679D01*
X84629560Y-68346161D01*
X84594936Y-68520232D01*
X84527016Y-68684204D01*
X84428413Y-68831774D01*
X84302914Y-68957273D01*
X84155344Y-69055876D01*
X83991372Y-69123796D01*
X83842072Y-69153493D01*
X83817302Y-69158420D01*
X83639818Y-69158420D01*
X83615048Y-69153493D01*
X83465748Y-69123796D01*
X83301776Y-69055876D01*
X83154206Y-68957273D01*
X83028707Y-68831774D01*
X82930104Y-68684204D01*
X82862184Y-68520232D01*
X82827560Y-68346161D01*
X82827560Y-68168679D01*
X82862184Y-67994608D01*
X82930104Y-67830636D01*
X83028707Y-67683066D01*
X83154206Y-67557567D01*
X83301776Y-67458964D01*
X83465748Y-67391044D01*
X83615048Y-67361347D01*
X83639818Y-67356420D01*
X83817302Y-67356420D01*
X83842072Y-67361347D01*
G37*
G36*
X86382072Y-67361347D02*
G01*
X86531372Y-67391044D01*
X86695344Y-67458964D01*
X86842914Y-67557567D01*
X86968413Y-67683066D01*
X87067016Y-67830636D01*
X87134936Y-67994608D01*
X87169560Y-68168679D01*
X87169560Y-68346161D01*
X87134936Y-68520232D01*
X87067016Y-68684204D01*
X86968413Y-68831774D01*
X86842914Y-68957273D01*
X86695344Y-69055876D01*
X86531372Y-69123796D01*
X86382072Y-69153493D01*
X86357302Y-69158420D01*
X86179818Y-69158420D01*
X86155048Y-69153493D01*
X86005748Y-69123796D01*
X85841776Y-69055876D01*
X85694206Y-68957273D01*
X85568707Y-68831774D01*
X85470104Y-68684204D01*
X85402184Y-68520232D01*
X85367560Y-68346161D01*
X85367560Y-68168679D01*
X85402184Y-67994608D01*
X85470104Y-67830636D01*
X85568707Y-67683066D01*
X85694206Y-67557567D01*
X85841776Y-67458964D01*
X86005748Y-67391044D01*
X86155048Y-67361347D01*
X86179818Y-67356420D01*
X86357302Y-67356420D01*
X86382072Y-67361347D01*
G37*
G36*
X171817512Y-64966127D02*
G01*
X171966812Y-64995824D01*
X172130784Y-65063744D01*
X172278354Y-65162347D01*
X172403853Y-65287846D01*
X172502456Y-65435416D01*
X172570376Y-65599388D01*
X172605000Y-65773459D01*
X172605000Y-65950941D01*
X172570376Y-66125012D01*
X172502456Y-66288984D01*
X172403853Y-66436554D01*
X172278354Y-66562053D01*
X172130784Y-66660656D01*
X171966812Y-66728576D01*
X171817512Y-66758273D01*
X171792742Y-66763200D01*
X171615258Y-66763200D01*
X171590488Y-66758273D01*
X171441188Y-66728576D01*
X171277216Y-66660656D01*
X171129646Y-66562053D01*
X171004147Y-66436554D01*
X170905544Y-66288984D01*
X170837624Y-66125012D01*
X170803000Y-65950941D01*
X170803000Y-65773459D01*
X170837624Y-65599388D01*
X170905544Y-65435416D01*
X171004147Y-65287846D01*
X171129646Y-65162347D01*
X171277216Y-65063744D01*
X171441188Y-64995824D01*
X171590488Y-64966127D01*
X171615258Y-64961200D01*
X171792742Y-64961200D01*
X171817512Y-64966127D01*
G37*
G36*
X86382072Y-64821347D02*
G01*
X86531372Y-64851044D01*
X86695344Y-64918964D01*
X86842914Y-65017567D01*
X86968413Y-65143066D01*
X87067016Y-65290636D01*
X87134936Y-65454608D01*
X87169560Y-65628679D01*
X87169560Y-65806161D01*
X87134936Y-65980232D01*
X87067016Y-66144204D01*
X86968413Y-66291774D01*
X86842914Y-66417273D01*
X86695344Y-66515876D01*
X86531372Y-66583796D01*
X86382072Y-66613493D01*
X86357302Y-66618420D01*
X86179818Y-66618420D01*
X86155048Y-66613493D01*
X86005748Y-66583796D01*
X85841776Y-66515876D01*
X85694206Y-66417273D01*
X85568707Y-66291774D01*
X85470104Y-66144204D01*
X85402184Y-65980232D01*
X85367560Y-65806161D01*
X85367560Y-65628679D01*
X85402184Y-65454608D01*
X85470104Y-65290636D01*
X85568707Y-65143066D01*
X85694206Y-65017567D01*
X85841776Y-64918964D01*
X86005748Y-64851044D01*
X86155048Y-64821347D01*
X86179818Y-64816420D01*
X86357302Y-64816420D01*
X86382072Y-64821347D01*
G37*
G36*
X83842072Y-64821347D02*
G01*
X83991372Y-64851044D01*
X84155344Y-64918964D01*
X84302914Y-65017567D01*
X84428413Y-65143066D01*
X84527016Y-65290636D01*
X84594936Y-65454608D01*
X84629560Y-65628679D01*
X84629560Y-65806161D01*
X84594936Y-65980232D01*
X84527016Y-66144204D01*
X84428413Y-66291774D01*
X84302914Y-66417273D01*
X84155344Y-66515876D01*
X83991372Y-66583796D01*
X83842072Y-66613493D01*
X83817302Y-66618420D01*
X83639818Y-66618420D01*
X83615048Y-66613493D01*
X83465748Y-66583796D01*
X83301776Y-66515876D01*
X83154206Y-66417273D01*
X83028707Y-66291774D01*
X82930104Y-66144204D01*
X82862184Y-65980232D01*
X82827560Y-65806161D01*
X82827560Y-65628679D01*
X82862184Y-65454608D01*
X82930104Y-65290636D01*
X83028707Y-65143066D01*
X83154206Y-65017567D01*
X83301776Y-64918964D01*
X83465748Y-64851044D01*
X83615048Y-64821347D01*
X83639818Y-64816420D01*
X83817302Y-64816420D01*
X83842072Y-64821347D01*
G37*
G36*
X142150400Y-66331400D02*
G01*
X140348400Y-66331400D01*
X140348400Y-64529400D01*
X142150400Y-64529400D01*
X142150400Y-66331400D01*
G37*
G36*
X153918228Y-63138903D02*
G01*
X154073100Y-63203053D01*
X154212481Y-63296185D01*
X154331015Y-63414719D01*
X154424147Y-63554100D01*
X154488297Y-63708972D01*
X154521000Y-63873384D01*
X154521000Y-64041016D01*
X154488297Y-64205428D01*
X154424147Y-64360300D01*
X154331015Y-64499681D01*
X154212481Y-64618215D01*
X154073100Y-64711347D01*
X153918228Y-64775497D01*
X153753816Y-64808200D01*
X153586184Y-64808200D01*
X153421772Y-64775497D01*
X153266900Y-64711347D01*
X153127519Y-64618215D01*
X153008985Y-64499681D01*
X152915853Y-64360300D01*
X152851703Y-64205428D01*
X152819000Y-64041016D01*
X152819000Y-63873384D01*
X152851703Y-63708972D01*
X152915853Y-63554100D01*
X153008985Y-63414719D01*
X153127519Y-63296185D01*
X153266900Y-63203053D01*
X153421772Y-63138903D01*
X153586184Y-63106200D01*
X153753816Y-63106200D01*
X153918228Y-63138903D01*
G37*
G36*
X132376392Y-62888407D02*
G01*
X132525692Y-62918104D01*
X132689664Y-62986024D01*
X132837234Y-63084627D01*
X132962733Y-63210126D01*
X133061336Y-63357696D01*
X133129256Y-63521668D01*
X133149892Y-63625416D01*
X133163880Y-63695738D01*
X133163880Y-63873222D01*
X133163074Y-63877272D01*
X133129256Y-64047292D01*
X133061336Y-64211264D01*
X132962733Y-64358834D01*
X132837234Y-64484333D01*
X132689664Y-64582936D01*
X132525692Y-64650856D01*
X132376392Y-64680553D01*
X132351622Y-64685480D01*
X132174138Y-64685480D01*
X132149368Y-64680553D01*
X132000068Y-64650856D01*
X131836096Y-64582936D01*
X131688526Y-64484333D01*
X131563027Y-64358834D01*
X131464424Y-64211264D01*
X131396504Y-64047292D01*
X131362686Y-63877272D01*
X131361880Y-63873222D01*
X131361880Y-63695738D01*
X131375868Y-63625416D01*
X131396504Y-63521668D01*
X131464424Y-63357696D01*
X131563027Y-63210126D01*
X131688526Y-63084627D01*
X131836096Y-62986024D01*
X132000068Y-62918104D01*
X132149368Y-62888407D01*
X132174138Y-62883480D01*
X132351622Y-62883480D01*
X132376392Y-62888407D01*
G37*
G36*
X124756392Y-62888407D02*
G01*
X124905692Y-62918104D01*
X125069664Y-62986024D01*
X125217234Y-63084627D01*
X125342733Y-63210126D01*
X125441336Y-63357696D01*
X125509256Y-63521668D01*
X125529892Y-63625416D01*
X125543880Y-63695738D01*
X125543880Y-63873222D01*
X125543074Y-63877272D01*
X125509256Y-64047292D01*
X125441336Y-64211264D01*
X125342733Y-64358834D01*
X125217234Y-64484333D01*
X125069664Y-64582936D01*
X124905692Y-64650856D01*
X124756392Y-64680553D01*
X124731622Y-64685480D01*
X124554138Y-64685480D01*
X124529368Y-64680553D01*
X124380068Y-64650856D01*
X124216096Y-64582936D01*
X124068526Y-64484333D01*
X123943027Y-64358834D01*
X123844424Y-64211264D01*
X123776504Y-64047292D01*
X123742686Y-63877272D01*
X123741880Y-63873222D01*
X123741880Y-63695738D01*
X123755868Y-63625416D01*
X123776504Y-63521668D01*
X123844424Y-63357696D01*
X123943027Y-63210126D01*
X124068526Y-63084627D01*
X124216096Y-62986024D01*
X124380068Y-62918104D01*
X124529368Y-62888407D01*
X124554138Y-62883480D01*
X124731622Y-62883480D01*
X124756392Y-62888407D01*
G37*
G36*
X117923880Y-64685480D02*
G01*
X116121880Y-64685480D01*
X116121880Y-62883480D01*
X117923880Y-62883480D01*
X117923880Y-64685480D01*
G37*
G36*
X134916392Y-62888407D02*
G01*
X135065692Y-62918104D01*
X135229664Y-62986024D01*
X135377234Y-63084627D01*
X135502733Y-63210126D01*
X135601336Y-63357696D01*
X135669256Y-63521668D01*
X135689892Y-63625416D01*
X135703880Y-63695738D01*
X135703880Y-63873222D01*
X135703074Y-63877272D01*
X135669256Y-64047292D01*
X135601336Y-64211264D01*
X135502733Y-64358834D01*
X135377234Y-64484333D01*
X135229664Y-64582936D01*
X135065692Y-64650856D01*
X134916392Y-64680553D01*
X134891622Y-64685480D01*
X134714138Y-64685480D01*
X134689368Y-64680553D01*
X134540068Y-64650856D01*
X134376096Y-64582936D01*
X134228526Y-64484333D01*
X134103027Y-64358834D01*
X134004424Y-64211264D01*
X133936504Y-64047292D01*
X133902686Y-63877272D01*
X133901880Y-63873222D01*
X133901880Y-63695738D01*
X133915868Y-63625416D01*
X133936504Y-63521668D01*
X134004424Y-63357696D01*
X134103027Y-63210126D01*
X134228526Y-63084627D01*
X134376096Y-62986024D01*
X134540068Y-62918104D01*
X134689368Y-62888407D01*
X134714138Y-62883480D01*
X134891622Y-62883480D01*
X134916392Y-62888407D01*
G37*
G36*
X129836392Y-62888407D02*
G01*
X129985692Y-62918104D01*
X130149664Y-62986024D01*
X130297234Y-63084627D01*
X130422733Y-63210126D01*
X130521336Y-63357696D01*
X130589256Y-63521668D01*
X130609892Y-63625416D01*
X130623880Y-63695738D01*
X130623880Y-63873222D01*
X130623074Y-63877272D01*
X130589256Y-64047292D01*
X130521336Y-64211264D01*
X130422733Y-64358834D01*
X130297234Y-64484333D01*
X130149664Y-64582936D01*
X129985692Y-64650856D01*
X129836392Y-64680553D01*
X129811622Y-64685480D01*
X129634138Y-64685480D01*
X129609368Y-64680553D01*
X129460068Y-64650856D01*
X129296096Y-64582936D01*
X129148526Y-64484333D01*
X129023027Y-64358834D01*
X128924424Y-64211264D01*
X128856504Y-64047292D01*
X128822686Y-63877272D01*
X128821880Y-63873222D01*
X128821880Y-63695738D01*
X128835868Y-63625416D01*
X128856504Y-63521668D01*
X128924424Y-63357696D01*
X129023027Y-63210126D01*
X129148526Y-63084627D01*
X129296096Y-62986024D01*
X129460068Y-62918104D01*
X129609368Y-62888407D01*
X129634138Y-62883480D01*
X129811622Y-62883480D01*
X129836392Y-62888407D01*
G37*
G36*
X127296392Y-62888407D02*
G01*
X127445692Y-62918104D01*
X127609664Y-62986024D01*
X127757234Y-63084627D01*
X127882733Y-63210126D01*
X127981336Y-63357696D01*
X128049256Y-63521668D01*
X128069892Y-63625416D01*
X128083880Y-63695738D01*
X128083880Y-63873222D01*
X128083074Y-63877272D01*
X128049256Y-64047292D01*
X127981336Y-64211264D01*
X127882733Y-64358834D01*
X127757234Y-64484333D01*
X127609664Y-64582936D01*
X127445692Y-64650856D01*
X127296392Y-64680553D01*
X127271622Y-64685480D01*
X127094138Y-64685480D01*
X127069368Y-64680553D01*
X126920068Y-64650856D01*
X126756096Y-64582936D01*
X126608526Y-64484333D01*
X126483027Y-64358834D01*
X126384424Y-64211264D01*
X126316504Y-64047292D01*
X126282686Y-63877272D01*
X126281880Y-63873222D01*
X126281880Y-63695738D01*
X126295868Y-63625416D01*
X126316504Y-63521668D01*
X126384424Y-63357696D01*
X126483027Y-63210126D01*
X126608526Y-63084627D01*
X126756096Y-62986024D01*
X126920068Y-62918104D01*
X127069368Y-62888407D01*
X127094138Y-62883480D01*
X127271622Y-62883480D01*
X127296392Y-62888407D01*
G37*
G36*
X122216392Y-62888407D02*
G01*
X122365692Y-62918104D01*
X122529664Y-62986024D01*
X122677234Y-63084627D01*
X122802733Y-63210126D01*
X122901336Y-63357696D01*
X122969256Y-63521668D01*
X122989892Y-63625416D01*
X123003880Y-63695738D01*
X123003880Y-63873222D01*
X123003074Y-63877272D01*
X122969256Y-64047292D01*
X122901336Y-64211264D01*
X122802733Y-64358834D01*
X122677234Y-64484333D01*
X122529664Y-64582936D01*
X122365692Y-64650856D01*
X122216392Y-64680553D01*
X122191622Y-64685480D01*
X122014138Y-64685480D01*
X121989368Y-64680553D01*
X121840068Y-64650856D01*
X121676096Y-64582936D01*
X121528526Y-64484333D01*
X121403027Y-64358834D01*
X121304424Y-64211264D01*
X121236504Y-64047292D01*
X121202686Y-63877272D01*
X121201880Y-63873222D01*
X121201880Y-63695738D01*
X121215868Y-63625416D01*
X121236504Y-63521668D01*
X121304424Y-63357696D01*
X121403027Y-63210126D01*
X121528526Y-63084627D01*
X121676096Y-62986024D01*
X121840068Y-62918104D01*
X121989368Y-62888407D01*
X122014138Y-62883480D01*
X122191622Y-62883480D01*
X122216392Y-62888407D01*
G37*
G36*
X119676392Y-62888407D02*
G01*
X119825692Y-62918104D01*
X119989664Y-62986024D01*
X120137234Y-63084627D01*
X120262733Y-63210126D01*
X120361336Y-63357696D01*
X120429256Y-63521668D01*
X120449892Y-63625416D01*
X120463880Y-63695738D01*
X120463880Y-63873222D01*
X120463074Y-63877272D01*
X120429256Y-64047292D01*
X120361336Y-64211264D01*
X120262733Y-64358834D01*
X120137234Y-64484333D01*
X119989664Y-64582936D01*
X119825692Y-64650856D01*
X119676392Y-64680553D01*
X119651622Y-64685480D01*
X119474138Y-64685480D01*
X119449368Y-64680553D01*
X119300068Y-64650856D01*
X119136096Y-64582936D01*
X118988526Y-64484333D01*
X118863027Y-64358834D01*
X118764424Y-64211264D01*
X118696504Y-64047292D01*
X118662686Y-63877272D01*
X118661880Y-63873222D01*
X118661880Y-63695738D01*
X118675868Y-63625416D01*
X118696504Y-63521668D01*
X118764424Y-63357696D01*
X118863027Y-63210126D01*
X118988526Y-63084627D01*
X119136096Y-62986024D01*
X119300068Y-62918104D01*
X119449368Y-62888407D01*
X119474138Y-62883480D01*
X119651622Y-62883480D01*
X119676392Y-62888407D01*
G37*
G36*
X171817512Y-62426127D02*
G01*
X171966812Y-62455824D01*
X172130784Y-62523744D01*
X172278354Y-62622347D01*
X172403853Y-62747846D01*
X172502456Y-62895416D01*
X172570376Y-63059388D01*
X172605000Y-63233459D01*
X172605000Y-63410941D01*
X172570376Y-63585012D01*
X172502456Y-63748984D01*
X172403853Y-63896554D01*
X172278354Y-64022053D01*
X172130784Y-64120656D01*
X171966812Y-64188576D01*
X171817512Y-64218273D01*
X171792742Y-64223200D01*
X171615258Y-64223200D01*
X171590488Y-64218273D01*
X171441188Y-64188576D01*
X171277216Y-64120656D01*
X171129646Y-64022053D01*
X171004147Y-63896554D01*
X170905544Y-63748984D01*
X170837624Y-63585012D01*
X170803000Y-63410941D01*
X170803000Y-63233459D01*
X170837624Y-63059388D01*
X170905544Y-62895416D01*
X171004147Y-62747846D01*
X171129646Y-62622347D01*
X171277216Y-62523744D01*
X171441188Y-62455824D01*
X171590488Y-62426127D01*
X171615258Y-62421200D01*
X171792742Y-62421200D01*
X171817512Y-62426127D01*
G37*
G36*
X83842072Y-62281347D02*
G01*
X83991372Y-62311044D01*
X84155344Y-62378964D01*
X84302914Y-62477567D01*
X84428413Y-62603066D01*
X84527016Y-62750636D01*
X84594936Y-62914608D01*
X84629560Y-63088679D01*
X84629560Y-63266161D01*
X84594936Y-63440232D01*
X84527016Y-63604204D01*
X84428413Y-63751774D01*
X84302914Y-63877273D01*
X84155344Y-63975876D01*
X83991372Y-64043796D01*
X83842072Y-64073493D01*
X83817302Y-64078420D01*
X83639818Y-64078420D01*
X83615048Y-64073493D01*
X83465748Y-64043796D01*
X83301776Y-63975876D01*
X83154206Y-63877273D01*
X83028707Y-63751774D01*
X82930104Y-63604204D01*
X82862184Y-63440232D01*
X82827560Y-63266161D01*
X82827560Y-63088679D01*
X82862184Y-62914608D01*
X82930104Y-62750636D01*
X83028707Y-62603066D01*
X83154206Y-62477567D01*
X83301776Y-62378964D01*
X83465748Y-62311044D01*
X83615048Y-62281347D01*
X83639818Y-62276420D01*
X83817302Y-62276420D01*
X83842072Y-62281347D01*
G37*
G36*
X87169560Y-64078420D02*
G01*
X85367560Y-64078420D01*
X85367560Y-62276420D01*
X87169560Y-62276420D01*
X87169560Y-64078420D01*
G37*
G36*
X69283542Y-62475781D02*
G01*
X69399334Y-62523744D01*
X69429316Y-62536163D01*
X69560508Y-62623822D01*
X69672078Y-62735392D01*
X69733327Y-62827059D01*
X69759738Y-62866586D01*
X69820119Y-63012358D01*
X69850900Y-63167107D01*
X69850900Y-63324893D01*
X69820119Y-63479642D01*
X69763781Y-63615653D01*
X69759737Y-63625416D01*
X69672078Y-63756608D01*
X69560508Y-63868178D01*
X69429316Y-63955837D01*
X69429315Y-63955838D01*
X69429314Y-63955838D01*
X69283542Y-64016219D01*
X69128793Y-64047000D01*
X68971007Y-64047000D01*
X68816258Y-64016219D01*
X68670486Y-63955838D01*
X68670485Y-63955838D01*
X68670484Y-63955837D01*
X68539292Y-63868178D01*
X68427722Y-63756608D01*
X68340063Y-63625416D01*
X68336019Y-63615653D01*
X68279681Y-63479642D01*
X68248900Y-63324893D01*
X68248900Y-63167107D01*
X68279681Y-63012358D01*
X68340062Y-62866586D01*
X68366473Y-62827059D01*
X68427722Y-62735392D01*
X68539292Y-62623822D01*
X68670484Y-62536163D01*
X68700466Y-62523744D01*
X68816258Y-62475781D01*
X68971007Y-62445000D01*
X69128793Y-62445000D01*
X69283542Y-62475781D01*
G37*
G36*
X145376112Y-62019727D02*
G01*
X145525412Y-62049424D01*
X145689384Y-62117344D01*
X145836954Y-62215947D01*
X145962453Y-62341446D01*
X146061056Y-62489016D01*
X146128976Y-62652988D01*
X146163600Y-62827059D01*
X146163600Y-63004541D01*
X146128976Y-63178612D01*
X146061056Y-63342584D01*
X145962453Y-63490154D01*
X145836954Y-63615653D01*
X145689384Y-63714256D01*
X145525412Y-63782176D01*
X145376112Y-63811873D01*
X145351342Y-63816800D01*
X145173858Y-63816800D01*
X145149088Y-63811873D01*
X144999788Y-63782176D01*
X144835816Y-63714256D01*
X144688246Y-63615653D01*
X144562747Y-63490154D01*
X144464144Y-63342584D01*
X144396224Y-63178612D01*
X144361600Y-63004541D01*
X144361600Y-62827059D01*
X144396224Y-62652988D01*
X144464144Y-62489016D01*
X144562747Y-62341446D01*
X144688246Y-62215947D01*
X144835816Y-62117344D01*
X144999788Y-62049424D01*
X145149088Y-62019727D01*
X145173858Y-62014800D01*
X145351342Y-62014800D01*
X145376112Y-62019727D01*
G37*
G36*
X141362912Y-61994327D02*
G01*
X141512212Y-62024024D01*
X141676184Y-62091944D01*
X141823754Y-62190547D01*
X141949253Y-62316046D01*
X142047856Y-62463616D01*
X142115776Y-62627588D01*
X142150400Y-62801659D01*
X142150400Y-62979141D01*
X142115776Y-63153212D01*
X142047856Y-63317184D01*
X141949253Y-63464754D01*
X141823754Y-63590253D01*
X141676184Y-63688856D01*
X141512212Y-63756776D01*
X141362912Y-63786473D01*
X141338142Y-63791400D01*
X141160658Y-63791400D01*
X141135888Y-63786473D01*
X140986588Y-63756776D01*
X140822616Y-63688856D01*
X140675046Y-63590253D01*
X140549547Y-63464754D01*
X140450944Y-63317184D01*
X140383024Y-63153212D01*
X140348400Y-62979141D01*
X140348400Y-62801659D01*
X140383024Y-62627588D01*
X140450944Y-62463616D01*
X140549547Y-62316046D01*
X140675046Y-62190547D01*
X140822616Y-62091944D01*
X140986588Y-62024024D01*
X141135888Y-61994327D01*
X141160658Y-61989400D01*
X141338142Y-61989400D01*
X141362912Y-61994327D01*
G37*
G36*
X154521000Y-62808200D02*
G01*
X152819000Y-62808200D01*
X152819000Y-61106200D01*
X154521000Y-61106200D01*
X154521000Y-62808200D01*
G37*
G36*
X171817512Y-59886127D02*
G01*
X171966812Y-59915824D01*
X172130784Y-59983744D01*
X172278354Y-60082347D01*
X172403853Y-60207846D01*
X172502456Y-60355416D01*
X172570376Y-60519388D01*
X172605000Y-60693459D01*
X172605000Y-60870941D01*
X172570376Y-61045012D01*
X172502456Y-61208984D01*
X172403853Y-61356554D01*
X172278354Y-61482053D01*
X172130784Y-61580656D01*
X171966812Y-61648576D01*
X171817512Y-61678273D01*
X171792742Y-61683200D01*
X171615258Y-61683200D01*
X171590488Y-61678273D01*
X171441188Y-61648576D01*
X171277216Y-61580656D01*
X171129646Y-61482053D01*
X171004147Y-61356554D01*
X170905544Y-61208984D01*
X170837624Y-61045012D01*
X170803000Y-60870941D01*
X170803000Y-60693459D01*
X170837624Y-60519388D01*
X170905544Y-60355416D01*
X171004147Y-60207846D01*
X171129646Y-60082347D01*
X171277216Y-59983744D01*
X171441188Y-59915824D01*
X171590488Y-59886127D01*
X171615258Y-59881200D01*
X171792742Y-59881200D01*
X171817512Y-59886127D01*
G37*
G36*
X145376112Y-59479727D02*
G01*
X145525412Y-59509424D01*
X145689384Y-59577344D01*
X145836954Y-59675947D01*
X145962453Y-59801446D01*
X146061056Y-59949016D01*
X146128976Y-60112988D01*
X146163600Y-60287059D01*
X146163600Y-60464541D01*
X146128976Y-60638612D01*
X146061056Y-60802584D01*
X145962453Y-60950154D01*
X145836954Y-61075653D01*
X145689384Y-61174256D01*
X145525412Y-61242176D01*
X145376112Y-61271873D01*
X145351342Y-61276800D01*
X145173858Y-61276800D01*
X145149088Y-61271873D01*
X144999788Y-61242176D01*
X144835816Y-61174256D01*
X144688246Y-61075653D01*
X144562747Y-60950154D01*
X144464144Y-60802584D01*
X144396224Y-60638612D01*
X144361600Y-60464541D01*
X144361600Y-60287059D01*
X144396224Y-60112988D01*
X144464144Y-59949016D01*
X144562747Y-59801446D01*
X144688246Y-59675947D01*
X144835816Y-59577344D01*
X144999788Y-59509424D01*
X145149088Y-59479727D01*
X145173858Y-59474800D01*
X145351342Y-59474800D01*
X145376112Y-59479727D01*
G37*
G36*
X141362912Y-59454327D02*
G01*
X141512212Y-59484024D01*
X141676184Y-59551944D01*
X141823754Y-59650547D01*
X141949253Y-59776046D01*
X142047856Y-59923616D01*
X142115776Y-60087588D01*
X142150400Y-60261659D01*
X142150400Y-60439141D01*
X142115776Y-60613212D01*
X142047856Y-60777184D01*
X141949253Y-60924754D01*
X141823754Y-61050253D01*
X141676184Y-61148856D01*
X141512212Y-61216776D01*
X141362912Y-61246473D01*
X141338142Y-61251400D01*
X141160658Y-61251400D01*
X141135888Y-61246473D01*
X140986588Y-61216776D01*
X140822616Y-61148856D01*
X140675046Y-61050253D01*
X140549547Y-60924754D01*
X140450944Y-60777184D01*
X140383024Y-60613212D01*
X140348400Y-60439141D01*
X140348400Y-60261659D01*
X140383024Y-60087588D01*
X140450944Y-59923616D01*
X140549547Y-59776046D01*
X140675046Y-59650547D01*
X140822616Y-59551944D01*
X140986588Y-59484024D01*
X141135888Y-59454327D01*
X141160658Y-59449400D01*
X141338142Y-59449400D01*
X141362912Y-59454327D01*
G37*
G36*
X69283542Y-57595781D02*
G01*
X69429314Y-57656162D01*
X69429316Y-57656163D01*
X69560508Y-57743822D01*
X69672078Y-57855392D01*
X69718282Y-57924542D01*
X69759738Y-57986586D01*
X69820119Y-58132358D01*
X69850900Y-58287107D01*
X69850900Y-58444893D01*
X69820119Y-58599642D01*
X69816302Y-58608856D01*
X69759737Y-58745416D01*
X69672078Y-58876608D01*
X69560508Y-58988178D01*
X69429316Y-59075837D01*
X69429315Y-59075838D01*
X69429314Y-59075838D01*
X69283542Y-59136219D01*
X69128793Y-59167000D01*
X68971007Y-59167000D01*
X68816258Y-59136219D01*
X68670486Y-59075838D01*
X68670485Y-59075838D01*
X68670484Y-59075837D01*
X68539292Y-58988178D01*
X68427722Y-58876608D01*
X68340063Y-58745416D01*
X68283498Y-58608856D01*
X68279681Y-58599642D01*
X68248900Y-58444893D01*
X68248900Y-58287107D01*
X68279681Y-58132358D01*
X68340062Y-57986586D01*
X68381518Y-57924542D01*
X68427722Y-57855392D01*
X68539292Y-57743822D01*
X68670484Y-57656163D01*
X68670486Y-57656162D01*
X68816258Y-57595781D01*
X68971007Y-57565000D01*
X69128793Y-57565000D01*
X69283542Y-57595781D01*
G37*
G36*
X172605000Y-59143200D02*
G01*
X170803000Y-59143200D01*
X170803000Y-57341200D01*
X172605000Y-57341200D01*
X172605000Y-59143200D01*
G37*
G36*
X107303860Y-54556716D02*
G01*
X107684573Y-54632444D01*
X108094229Y-54802129D01*
X108462909Y-55048474D01*
X108776446Y-55362011D01*
X109022791Y-55730691D01*
X109192476Y-56140347D01*
X109241881Y-56388725D01*
X109278980Y-56575235D01*
X109278980Y-57018645D01*
X109268204Y-57072820D01*
X109192476Y-57453533D01*
X109022791Y-57863189D01*
X108776446Y-58231869D01*
X108462909Y-58545406D01*
X108094229Y-58791751D01*
X107684573Y-58961436D01*
X107303860Y-59037164D01*
X107249685Y-59047940D01*
X106806275Y-59047940D01*
X106752100Y-59037164D01*
X106371387Y-58961436D01*
X105961731Y-58791751D01*
X105593051Y-58545406D01*
X105279514Y-58231869D01*
X105033169Y-57863189D01*
X104863484Y-57453533D01*
X104787756Y-57072820D01*
X104776980Y-57018645D01*
X104776980Y-56575235D01*
X104814079Y-56388725D01*
X104863484Y-56140347D01*
X105033169Y-55730691D01*
X105279514Y-55362011D01*
X105593051Y-55048474D01*
X105961731Y-54802129D01*
X106371387Y-54632444D01*
X106752100Y-54556716D01*
X106806275Y-54545940D01*
X107249685Y-54545940D01*
X107303860Y-54556716D01*
G37*
G36*
X146163600Y-58736800D02*
G01*
X144361600Y-58736800D01*
X144361600Y-56934800D01*
X146163600Y-56934800D01*
X146163600Y-58736800D01*
G37*
G36*
X152691400Y-58736800D02*
G01*
X150889400Y-58736800D01*
X150889400Y-56934800D01*
X152691400Y-56934800D01*
X152691400Y-58736800D01*
G37*
G36*
X149363912Y-56939727D02*
G01*
X149513212Y-56969424D01*
X149677184Y-57037344D01*
X149824754Y-57135947D01*
X149950253Y-57261446D01*
X150048856Y-57409016D01*
X150116776Y-57572988D01*
X150151400Y-57747059D01*
X150151400Y-57924541D01*
X150116776Y-58098612D01*
X150048856Y-58262584D01*
X149950253Y-58410154D01*
X149824754Y-58535653D01*
X149677184Y-58634256D01*
X149513212Y-58702176D01*
X149363912Y-58731873D01*
X149339142Y-58736800D01*
X149161658Y-58736800D01*
X149136888Y-58731873D01*
X148987588Y-58702176D01*
X148823616Y-58634256D01*
X148676046Y-58535653D01*
X148550547Y-58410154D01*
X148451944Y-58262584D01*
X148384024Y-58098612D01*
X148349400Y-57924541D01*
X148349400Y-57747059D01*
X148384024Y-57572988D01*
X148451944Y-57409016D01*
X148550547Y-57261446D01*
X148676046Y-57135947D01*
X148823616Y-57037344D01*
X148987588Y-56969424D01*
X149136888Y-56939727D01*
X149161658Y-56934800D01*
X149339142Y-56934800D01*
X149363912Y-56939727D01*
G37*
G36*
X141362912Y-56914327D02*
G01*
X141512212Y-56944024D01*
X141676184Y-57011944D01*
X141823754Y-57110547D01*
X141949253Y-57236046D01*
X142047856Y-57383616D01*
X142115776Y-57547588D01*
X142150400Y-57721659D01*
X142150400Y-57899141D01*
X142115776Y-58073212D01*
X142047856Y-58237184D01*
X141949253Y-58384754D01*
X141823754Y-58510253D01*
X141676184Y-58608856D01*
X141512212Y-58676776D01*
X141362912Y-58706473D01*
X141338142Y-58711400D01*
X141160658Y-58711400D01*
X141135888Y-58706473D01*
X140986588Y-58676776D01*
X140822616Y-58608856D01*
X140675046Y-58510253D01*
X140549547Y-58384754D01*
X140450944Y-58237184D01*
X140383024Y-58073212D01*
X140348400Y-57899141D01*
X140348400Y-57721659D01*
X140383024Y-57547588D01*
X140450944Y-57383616D01*
X140549547Y-57236046D01*
X140675046Y-57110547D01*
X140822616Y-57011944D01*
X140986588Y-56944024D01*
X141135888Y-56914327D01*
X141160658Y-56909400D01*
X141338142Y-56909400D01*
X141362912Y-56914327D01*
G37*
G36*
X199051200Y-53926796D02*
G01*
X199431913Y-54002524D01*
X199841569Y-54172209D01*
X200210249Y-54418554D01*
X200523786Y-54732091D01*
X200770131Y-55100771D01*
X200939816Y-55510427D01*
X201026320Y-55945316D01*
X201026320Y-56388724D01*
X200939816Y-56823613D01*
X200770131Y-57233269D01*
X200523786Y-57601949D01*
X200210249Y-57915486D01*
X199841569Y-58161831D01*
X199431913Y-58331516D01*
X199051200Y-58407244D01*
X198997025Y-58418020D01*
X198553615Y-58418020D01*
X198499440Y-58407244D01*
X198118727Y-58331516D01*
X197709071Y-58161831D01*
X197340391Y-57915486D01*
X197026854Y-57601949D01*
X196780509Y-57233269D01*
X196610824Y-56823613D01*
X196524320Y-56388724D01*
X196524320Y-55945316D01*
X196610824Y-55510427D01*
X196780509Y-55100771D01*
X197026854Y-54732091D01*
X197340391Y-54418554D01*
X197709071Y-54172209D01*
X198118727Y-54002524D01*
X198499440Y-53926796D01*
X198553615Y-53916020D01*
X198997025Y-53916020D01*
X199051200Y-53926796D01*
G37*
M02*
