G04 #@! TF.GenerationSoftware,KiCad,Pcbnew,(5.1.6)-1*
G04 #@! TF.CreationDate,2020-10-23T22:44:23-07:00*
G04 #@! TF.ProjectId,ReceiverCircuit,52656365-6976-4657-9243-697263756974,rev?*
G04 #@! TF.SameCoordinates,Original*
G04 #@! TF.FileFunction,Paste,Top*
G04 #@! TF.FilePolarity,Positive*
%FSLAX46Y46*%
G04 Gerber Fmt 4.6, Leading zero omitted, Abs format (unit mm)*
G04 Created by KiCad (PCBNEW (5.1.6)-1) date 2020-10-23 22:44:23*
%MOMM*%
%LPD*%
G01*
G04 APERTURE LIST*
%ADD10R,0.550000X1.600000*%
%ADD11R,1.600000X0.550000*%
%ADD12R,0.800000X0.900000*%
%ADD13R,0.450000X1.450000*%
G04 APERTURE END LIST*
G36*
G01*
X124501340Y-94647640D02*
X123001340Y-94647640D01*
G75*
G02*
X122751340Y-94397640I0J250000D01*
G01*
X122751340Y-93897640D01*
G75*
G02*
X123001340Y-93647640I250000J0D01*
G01*
X124501340Y-93647640D01*
G75*
G02*
X124751340Y-93897640I0J-250000D01*
G01*
X124751340Y-94397640D01*
G75*
G02*
X124501340Y-94647640I-250000J0D01*
G01*
G37*
G36*
G01*
X124468320Y-90101040D02*
X122968320Y-90101040D01*
G75*
G02*
X122718320Y-89851040I0J250000D01*
G01*
X122718320Y-89351040D01*
G75*
G02*
X122968320Y-89101040I250000J0D01*
G01*
X124468320Y-89101040D01*
G75*
G02*
X124718320Y-89351040I0J-250000D01*
G01*
X124718320Y-89851040D01*
G75*
G02*
X124468320Y-90101040I-250000J0D01*
G01*
G37*
D10*
X161392520Y-83788940D03*
X160592520Y-83788940D03*
X159792520Y-83788940D03*
X158992520Y-83788940D03*
X158192520Y-83788940D03*
X157392520Y-83788940D03*
X156592520Y-83788940D03*
X155792520Y-83788940D03*
D11*
X154342520Y-85238940D03*
X154342520Y-86038940D03*
X154342520Y-86838940D03*
X154342520Y-87638940D03*
X154342520Y-88438940D03*
X154342520Y-89238940D03*
X154342520Y-90038940D03*
X154342520Y-90838940D03*
D10*
X155792520Y-92288940D03*
X156592520Y-92288940D03*
X157392520Y-92288940D03*
X158192520Y-92288940D03*
X158992520Y-92288940D03*
X159792520Y-92288940D03*
X160592520Y-92288940D03*
X161392520Y-92288940D03*
D11*
X162842520Y-90838940D03*
X162842520Y-90038940D03*
X162842520Y-89238940D03*
X162842520Y-88438940D03*
X162842520Y-87638940D03*
X162842520Y-86838940D03*
X162842520Y-86038940D03*
X162842520Y-85238940D03*
G36*
G01*
X172933860Y-83853240D02*
X172933860Y-84198240D01*
G75*
G02*
X172786360Y-84345740I-147500J0D01*
G01*
X172491360Y-84345740D01*
G75*
G02*
X172343860Y-84198240I0J147500D01*
G01*
X172343860Y-83853240D01*
G75*
G02*
X172491360Y-83705740I147500J0D01*
G01*
X172786360Y-83705740D01*
G75*
G02*
X172933860Y-83853240I0J-147500D01*
G01*
G37*
G36*
G01*
X173903860Y-83853240D02*
X173903860Y-84198240D01*
G75*
G02*
X173756360Y-84345740I-147500J0D01*
G01*
X173461360Y-84345740D01*
G75*
G02*
X173313860Y-84198240I0J147500D01*
G01*
X173313860Y-83853240D01*
G75*
G02*
X173461360Y-83705740I147500J0D01*
G01*
X173756360Y-83705740D01*
G75*
G02*
X173903860Y-83853240I0J-147500D01*
G01*
G37*
G36*
G01*
X183147200Y-93594140D02*
X183147200Y-93939140D01*
G75*
G02*
X182999700Y-94086640I-147500J0D01*
G01*
X182704700Y-94086640D01*
G75*
G02*
X182557200Y-93939140I0J147500D01*
G01*
X182557200Y-93594140D01*
G75*
G02*
X182704700Y-93446640I147500J0D01*
G01*
X182999700Y-93446640D01*
G75*
G02*
X183147200Y-93594140I0J-147500D01*
G01*
G37*
G36*
G01*
X184117200Y-93594140D02*
X184117200Y-93939140D01*
G75*
G02*
X183969700Y-94086640I-147500J0D01*
G01*
X183674700Y-94086640D01*
G75*
G02*
X183527200Y-93939140I0J147500D01*
G01*
X183527200Y-93594140D01*
G75*
G02*
X183674700Y-93446640I147500J0D01*
G01*
X183969700Y-93446640D01*
G75*
G02*
X184117200Y-93594140I0J-147500D01*
G01*
G37*
G36*
G01*
X159626520Y-81815440D02*
X159971520Y-81815440D01*
G75*
G02*
X160119020Y-81962940I0J-147500D01*
G01*
X160119020Y-82257940D01*
G75*
G02*
X159971520Y-82405440I-147500J0D01*
G01*
X159626520Y-82405440D01*
G75*
G02*
X159479020Y-82257940I0J147500D01*
G01*
X159479020Y-81962940D01*
G75*
G02*
X159626520Y-81815440I147500J0D01*
G01*
G37*
G36*
G01*
X159626520Y-80845440D02*
X159971520Y-80845440D01*
G75*
G02*
X160119020Y-80992940I0J-147500D01*
G01*
X160119020Y-81287940D01*
G75*
G02*
X159971520Y-81435440I-147500J0D01*
G01*
X159626520Y-81435440D01*
G75*
G02*
X159479020Y-81287940I0J147500D01*
G01*
X159479020Y-80992940D01*
G75*
G02*
X159626520Y-80845440I147500J0D01*
G01*
G37*
G36*
G01*
X158774900Y-94050900D02*
X158774900Y-93705900D01*
G75*
G02*
X158922400Y-93558400I147500J0D01*
G01*
X159217400Y-93558400D01*
G75*
G02*
X159364900Y-93705900I0J-147500D01*
G01*
X159364900Y-94050900D01*
G75*
G02*
X159217400Y-94198400I-147500J0D01*
G01*
X158922400Y-94198400D01*
G75*
G02*
X158774900Y-94050900I0J147500D01*
G01*
G37*
G36*
G01*
X157804900Y-94050900D02*
X157804900Y-93705900D01*
G75*
G02*
X157952400Y-93558400I147500J0D01*
G01*
X158247400Y-93558400D01*
G75*
G02*
X158394900Y-93705900I0J-147500D01*
G01*
X158394900Y-94050900D01*
G75*
G02*
X158247400Y-94198400I-147500J0D01*
G01*
X157952400Y-94198400D01*
G75*
G02*
X157804900Y-94050900I0J147500D01*
G01*
G37*
G36*
G01*
X158516540Y-80835280D02*
X158861540Y-80835280D01*
G75*
G02*
X159009040Y-80982780I0J-147500D01*
G01*
X159009040Y-81277780D01*
G75*
G02*
X158861540Y-81425280I-147500J0D01*
G01*
X158516540Y-81425280D01*
G75*
G02*
X158369040Y-81277780I0J147500D01*
G01*
X158369040Y-80982780D01*
G75*
G02*
X158516540Y-80835280I147500J0D01*
G01*
G37*
G36*
G01*
X158516540Y-81805280D02*
X158861540Y-81805280D01*
G75*
G02*
X159009040Y-81952780I0J-147500D01*
G01*
X159009040Y-82247780D01*
G75*
G02*
X158861540Y-82395280I-147500J0D01*
G01*
X158516540Y-82395280D01*
G75*
G02*
X158369040Y-82247780I0J147500D01*
G01*
X158369040Y-81952780D01*
G75*
G02*
X158516540Y-81805280I147500J0D01*
G01*
G37*
G36*
G01*
X160693320Y-80444120D02*
X161038320Y-80444120D01*
G75*
G02*
X161185820Y-80591620I0J-147500D01*
G01*
X161185820Y-80886620D01*
G75*
G02*
X161038320Y-81034120I-147500J0D01*
G01*
X160693320Y-81034120D01*
G75*
G02*
X160545820Y-80886620I0J147500D01*
G01*
X160545820Y-80591620D01*
G75*
G02*
X160693320Y-80444120I147500J0D01*
G01*
G37*
G36*
G01*
X160693320Y-81414120D02*
X161038320Y-81414120D01*
G75*
G02*
X161185820Y-81561620I0J-147500D01*
G01*
X161185820Y-81856620D01*
G75*
G02*
X161038320Y-82004120I-147500J0D01*
G01*
X160693320Y-82004120D01*
G75*
G02*
X160545820Y-81856620I0J147500D01*
G01*
X160545820Y-81561620D01*
G75*
G02*
X160693320Y-81414120I147500J0D01*
G01*
G37*
G36*
G01*
X126482060Y-83350320D02*
X126482060Y-83695320D01*
G75*
G02*
X126334560Y-83842820I-147500J0D01*
G01*
X126039560Y-83842820D01*
G75*
G02*
X125892060Y-83695320I0J147500D01*
G01*
X125892060Y-83350320D01*
G75*
G02*
X126039560Y-83202820I147500J0D01*
G01*
X126334560Y-83202820D01*
G75*
G02*
X126482060Y-83350320I0J-147500D01*
G01*
G37*
G36*
G01*
X125512060Y-83350320D02*
X125512060Y-83695320D01*
G75*
G02*
X125364560Y-83842820I-147500J0D01*
G01*
X125069560Y-83842820D01*
G75*
G02*
X124922060Y-83695320I0J147500D01*
G01*
X124922060Y-83350320D01*
G75*
G02*
X125069560Y-83202820I147500J0D01*
G01*
X125364560Y-83202820D01*
G75*
G02*
X125512060Y-83350320I0J-147500D01*
G01*
G37*
G36*
G01*
X125512060Y-82093020D02*
X125512060Y-82438020D01*
G75*
G02*
X125364560Y-82585520I-147500J0D01*
G01*
X125069560Y-82585520D01*
G75*
G02*
X124922060Y-82438020I0J147500D01*
G01*
X124922060Y-82093020D01*
G75*
G02*
X125069560Y-81945520I147500J0D01*
G01*
X125364560Y-81945520D01*
G75*
G02*
X125512060Y-82093020I0J-147500D01*
G01*
G37*
G36*
G01*
X126482060Y-82093020D02*
X126482060Y-82438020D01*
G75*
G02*
X126334560Y-82585520I-147500J0D01*
G01*
X126039560Y-82585520D01*
G75*
G02*
X125892060Y-82438020I0J147500D01*
G01*
X125892060Y-82093020D01*
G75*
G02*
X126039560Y-81945520I147500J0D01*
G01*
X126334560Y-81945520D01*
G75*
G02*
X126482060Y-82093020I0J-147500D01*
G01*
G37*
G36*
G01*
X126443960Y-80861120D02*
X126443960Y-81206120D01*
G75*
G02*
X126296460Y-81353620I-147500J0D01*
G01*
X126001460Y-81353620D01*
G75*
G02*
X125853960Y-81206120I0J147500D01*
G01*
X125853960Y-80861120D01*
G75*
G02*
X126001460Y-80713620I147500J0D01*
G01*
X126296460Y-80713620D01*
G75*
G02*
X126443960Y-80861120I0J-147500D01*
G01*
G37*
G36*
G01*
X125473960Y-80861120D02*
X125473960Y-81206120D01*
G75*
G02*
X125326460Y-81353620I-147500J0D01*
G01*
X125031460Y-81353620D01*
G75*
G02*
X124883960Y-81206120I0J147500D01*
G01*
X124883960Y-80861120D01*
G75*
G02*
X125031460Y-80713620I147500J0D01*
G01*
X125326460Y-80713620D01*
G75*
G02*
X125473960Y-80861120I0J-147500D01*
G01*
G37*
G36*
G01*
X121264600Y-124708700D02*
X121264600Y-124363700D01*
G75*
G02*
X121412100Y-124216200I147500J0D01*
G01*
X121707100Y-124216200D01*
G75*
G02*
X121854600Y-124363700I0J-147500D01*
G01*
X121854600Y-124708700D01*
G75*
G02*
X121707100Y-124856200I-147500J0D01*
G01*
X121412100Y-124856200D01*
G75*
G02*
X121264600Y-124708700I0J147500D01*
G01*
G37*
G36*
G01*
X122234600Y-124708700D02*
X122234600Y-124363700D01*
G75*
G02*
X122382100Y-124216200I147500J0D01*
G01*
X122677100Y-124216200D01*
G75*
G02*
X122824600Y-124363700I0J-147500D01*
G01*
X122824600Y-124708700D01*
G75*
G02*
X122677100Y-124856200I-147500J0D01*
G01*
X122382100Y-124856200D01*
G75*
G02*
X122234600Y-124708700I0J147500D01*
G01*
G37*
G36*
G01*
X122234600Y-123692700D02*
X122234600Y-123347700D01*
G75*
G02*
X122382100Y-123200200I147500J0D01*
G01*
X122677100Y-123200200D01*
G75*
G02*
X122824600Y-123347700I0J-147500D01*
G01*
X122824600Y-123692700D01*
G75*
G02*
X122677100Y-123840200I-147500J0D01*
G01*
X122382100Y-123840200D01*
G75*
G02*
X122234600Y-123692700I0J147500D01*
G01*
G37*
G36*
G01*
X121264600Y-123692700D02*
X121264600Y-123347700D01*
G75*
G02*
X121412100Y-123200200I147500J0D01*
G01*
X121707100Y-123200200D01*
G75*
G02*
X121854600Y-123347700I0J-147500D01*
G01*
X121854600Y-123692700D01*
G75*
G02*
X121707100Y-123840200I-147500J0D01*
G01*
X121412100Y-123840200D01*
G75*
G02*
X121264600Y-123692700I0J147500D01*
G01*
G37*
G36*
G01*
X169961060Y-96583280D02*
X169961060Y-96238280D01*
G75*
G02*
X170108560Y-96090780I147500J0D01*
G01*
X170403560Y-96090780D01*
G75*
G02*
X170551060Y-96238280I0J-147500D01*
G01*
X170551060Y-96583280D01*
G75*
G02*
X170403560Y-96730780I-147500J0D01*
G01*
X170108560Y-96730780D01*
G75*
G02*
X169961060Y-96583280I0J147500D01*
G01*
G37*
G36*
G01*
X168991060Y-96583280D02*
X168991060Y-96238280D01*
G75*
G02*
X169138560Y-96090780I147500J0D01*
G01*
X169433560Y-96090780D01*
G75*
G02*
X169581060Y-96238280I0J-147500D01*
G01*
X169581060Y-96583280D01*
G75*
G02*
X169433560Y-96730780I-147500J0D01*
G01*
X169138560Y-96730780D01*
G75*
G02*
X168991060Y-96583280I0J147500D01*
G01*
G37*
G36*
G01*
X168265060Y-94904780D02*
X168265060Y-95249780D01*
G75*
G02*
X168117560Y-95397280I-147500J0D01*
G01*
X167822560Y-95397280D01*
G75*
G02*
X167675060Y-95249780I0J147500D01*
G01*
X167675060Y-94904780D01*
G75*
G02*
X167822560Y-94757280I147500J0D01*
G01*
X168117560Y-94757280D01*
G75*
G02*
X168265060Y-94904780I0J-147500D01*
G01*
G37*
G36*
G01*
X167295060Y-94904780D02*
X167295060Y-95249780D01*
G75*
G02*
X167147560Y-95397280I-147500J0D01*
G01*
X166852560Y-95397280D01*
G75*
G02*
X166705060Y-95249780I0J147500D01*
G01*
X166705060Y-94904780D01*
G75*
G02*
X166852560Y-94757280I147500J0D01*
G01*
X167147560Y-94757280D01*
G75*
G02*
X167295060Y-94904780I0J-147500D01*
G01*
G37*
G36*
G01*
X167295060Y-96111280D02*
X167295060Y-96456280D01*
G75*
G02*
X167147560Y-96603780I-147500J0D01*
G01*
X166852560Y-96603780D01*
G75*
G02*
X166705060Y-96456280I0J147500D01*
G01*
X166705060Y-96111280D01*
G75*
G02*
X166852560Y-95963780I147500J0D01*
G01*
X167147560Y-95963780D01*
G75*
G02*
X167295060Y-96111280I0J-147500D01*
G01*
G37*
G36*
G01*
X168265060Y-96111280D02*
X168265060Y-96456280D01*
G75*
G02*
X168117560Y-96603780I-147500J0D01*
G01*
X167822560Y-96603780D01*
G75*
G02*
X167675060Y-96456280I0J147500D01*
G01*
X167675060Y-96111280D01*
G75*
G02*
X167822560Y-95963780I147500J0D01*
G01*
X168117560Y-95963780D01*
G75*
G02*
X168265060Y-96111280I0J-147500D01*
G01*
G37*
G36*
G01*
X145931120Y-135280620D02*
X145931120Y-135625620D01*
G75*
G02*
X145783620Y-135773120I-147500J0D01*
G01*
X145488620Y-135773120D01*
G75*
G02*
X145341120Y-135625620I0J147500D01*
G01*
X145341120Y-135280620D01*
G75*
G02*
X145488620Y-135133120I147500J0D01*
G01*
X145783620Y-135133120D01*
G75*
G02*
X145931120Y-135280620I0J-147500D01*
G01*
G37*
G36*
G01*
X146901120Y-135280620D02*
X146901120Y-135625620D01*
G75*
G02*
X146753620Y-135773120I-147500J0D01*
G01*
X146458620Y-135773120D01*
G75*
G02*
X146311120Y-135625620I0J147500D01*
G01*
X146311120Y-135280620D01*
G75*
G02*
X146458620Y-135133120I147500J0D01*
G01*
X146753620Y-135133120D01*
G75*
G02*
X146901120Y-135280620I0J-147500D01*
G01*
G37*
G36*
G01*
X146901120Y-134074120D02*
X146901120Y-134419120D01*
G75*
G02*
X146753620Y-134566620I-147500J0D01*
G01*
X146458620Y-134566620D01*
G75*
G02*
X146311120Y-134419120I0J147500D01*
G01*
X146311120Y-134074120D01*
G75*
G02*
X146458620Y-133926620I147500J0D01*
G01*
X146753620Y-133926620D01*
G75*
G02*
X146901120Y-134074120I0J-147500D01*
G01*
G37*
G36*
G01*
X145931120Y-134074120D02*
X145931120Y-134419120D01*
G75*
G02*
X145783620Y-134566620I-147500J0D01*
G01*
X145488620Y-134566620D01*
G75*
G02*
X145341120Y-134419120I0J147500D01*
G01*
X145341120Y-134074120D01*
G75*
G02*
X145488620Y-133926620I147500J0D01*
G01*
X145783620Y-133926620D01*
G75*
G02*
X145931120Y-134074120I0J-147500D01*
G01*
G37*
G36*
G01*
X145931120Y-132867620D02*
X145931120Y-133212620D01*
G75*
G02*
X145783620Y-133360120I-147500J0D01*
G01*
X145488620Y-133360120D01*
G75*
G02*
X145341120Y-133212620I0J147500D01*
G01*
X145341120Y-132867620D01*
G75*
G02*
X145488620Y-132720120I147500J0D01*
G01*
X145783620Y-132720120D01*
G75*
G02*
X145931120Y-132867620I0J-147500D01*
G01*
G37*
G36*
G01*
X146901120Y-132867620D02*
X146901120Y-133212620D01*
G75*
G02*
X146753620Y-133360120I-147500J0D01*
G01*
X146458620Y-133360120D01*
G75*
G02*
X146311120Y-133212620I0J147500D01*
G01*
X146311120Y-132867620D01*
G75*
G02*
X146458620Y-132720120I147500J0D01*
G01*
X146753620Y-132720120D01*
G75*
G02*
X146901120Y-132867620I0J-147500D01*
G01*
G37*
G36*
G01*
X156283160Y-118252020D02*
X156283160Y-117907020D01*
G75*
G02*
X156430660Y-117759520I147500J0D01*
G01*
X156725660Y-117759520D01*
G75*
G02*
X156873160Y-117907020I0J-147500D01*
G01*
X156873160Y-118252020D01*
G75*
G02*
X156725660Y-118399520I-147500J0D01*
G01*
X156430660Y-118399520D01*
G75*
G02*
X156283160Y-118252020I0J147500D01*
G01*
G37*
G36*
G01*
X155313160Y-118252020D02*
X155313160Y-117907020D01*
G75*
G02*
X155460660Y-117759520I147500J0D01*
G01*
X155755660Y-117759520D01*
G75*
G02*
X155903160Y-117907020I0J-147500D01*
G01*
X155903160Y-118252020D01*
G75*
G02*
X155755660Y-118399520I-147500J0D01*
G01*
X155460660Y-118399520D01*
G75*
G02*
X155313160Y-118252020I0J147500D01*
G01*
G37*
G36*
G01*
X155313160Y-117083620D02*
X155313160Y-116738620D01*
G75*
G02*
X155460660Y-116591120I147500J0D01*
G01*
X155755660Y-116591120D01*
G75*
G02*
X155903160Y-116738620I0J-147500D01*
G01*
X155903160Y-117083620D01*
G75*
G02*
X155755660Y-117231120I-147500J0D01*
G01*
X155460660Y-117231120D01*
G75*
G02*
X155313160Y-117083620I0J147500D01*
G01*
G37*
G36*
G01*
X156283160Y-117083620D02*
X156283160Y-116738620D01*
G75*
G02*
X156430660Y-116591120I147500J0D01*
G01*
X156725660Y-116591120D01*
G75*
G02*
X156873160Y-116738620I0J-147500D01*
G01*
X156873160Y-117083620D01*
G75*
G02*
X156725660Y-117231120I-147500J0D01*
G01*
X156430660Y-117231120D01*
G75*
G02*
X156283160Y-117083620I0J147500D01*
G01*
G37*
G36*
G01*
X154046140Y-120514880D02*
X154391140Y-120514880D01*
G75*
G02*
X154538640Y-120662380I0J-147500D01*
G01*
X154538640Y-120957380D01*
G75*
G02*
X154391140Y-121104880I-147500J0D01*
G01*
X154046140Y-121104880D01*
G75*
G02*
X153898640Y-120957380I0J147500D01*
G01*
X153898640Y-120662380D01*
G75*
G02*
X154046140Y-120514880I147500J0D01*
G01*
G37*
G36*
G01*
X154046140Y-119544880D02*
X154391140Y-119544880D01*
G75*
G02*
X154538640Y-119692380I0J-147500D01*
G01*
X154538640Y-119987380D01*
G75*
G02*
X154391140Y-120134880I-147500J0D01*
G01*
X154046140Y-120134880D01*
G75*
G02*
X153898640Y-119987380I0J147500D01*
G01*
X153898640Y-119692380D01*
G75*
G02*
X154046140Y-119544880I147500J0D01*
G01*
G37*
G36*
G01*
X147472620Y-111638300D02*
X147472620Y-111983300D01*
G75*
G02*
X147325120Y-112130800I-147500J0D01*
G01*
X147030120Y-112130800D01*
G75*
G02*
X146882620Y-111983300I0J147500D01*
G01*
X146882620Y-111638300D01*
G75*
G02*
X147030120Y-111490800I147500J0D01*
G01*
X147325120Y-111490800D01*
G75*
G02*
X147472620Y-111638300I0J-147500D01*
G01*
G37*
G36*
G01*
X146502620Y-111638300D02*
X146502620Y-111983300D01*
G75*
G02*
X146355120Y-112130800I-147500J0D01*
G01*
X146060120Y-112130800D01*
G75*
G02*
X145912620Y-111983300I0J147500D01*
G01*
X145912620Y-111638300D01*
G75*
G02*
X146060120Y-111490800I147500J0D01*
G01*
X146355120Y-111490800D01*
G75*
G02*
X146502620Y-111638300I0J-147500D01*
G01*
G37*
G36*
G01*
X146505160Y-112727960D02*
X146505160Y-113072960D01*
G75*
G02*
X146357660Y-113220460I-147500J0D01*
G01*
X146062660Y-113220460D01*
G75*
G02*
X145915160Y-113072960I0J147500D01*
G01*
X145915160Y-112727960D01*
G75*
G02*
X146062660Y-112580460I147500J0D01*
G01*
X146357660Y-112580460D01*
G75*
G02*
X146505160Y-112727960I0J-147500D01*
G01*
G37*
G36*
G01*
X147475160Y-112727960D02*
X147475160Y-113072960D01*
G75*
G02*
X147327660Y-113220460I-147500J0D01*
G01*
X147032660Y-113220460D01*
G75*
G02*
X146885160Y-113072960I0J147500D01*
G01*
X146885160Y-112727960D01*
G75*
G02*
X147032660Y-112580460I147500J0D01*
G01*
X147327660Y-112580460D01*
G75*
G02*
X147475160Y-112727960I0J-147500D01*
G01*
G37*
G36*
G01*
X147475160Y-110538480D02*
X147475160Y-110883480D01*
G75*
G02*
X147327660Y-111030980I-147500J0D01*
G01*
X147032660Y-111030980D01*
G75*
G02*
X146885160Y-110883480I0J147500D01*
G01*
X146885160Y-110538480D01*
G75*
G02*
X147032660Y-110390980I147500J0D01*
G01*
X147327660Y-110390980D01*
G75*
G02*
X147475160Y-110538480I0J-147500D01*
G01*
G37*
G36*
G01*
X146505160Y-110538480D02*
X146505160Y-110883480D01*
G75*
G02*
X146357660Y-111030980I-147500J0D01*
G01*
X146062660Y-111030980D01*
G75*
G02*
X145915160Y-110883480I0J147500D01*
G01*
X145915160Y-110538480D01*
G75*
G02*
X146062660Y-110390980I147500J0D01*
G01*
X146357660Y-110390980D01*
G75*
G02*
X146505160Y-110538480I0J-147500D01*
G01*
G37*
D12*
X148300400Y-68030600D03*
X150200400Y-68030600D03*
X149250400Y-66030600D03*
G36*
G01*
X119714440Y-119154240D02*
X120224440Y-119154240D01*
G75*
G02*
X120474440Y-119404240I0J-250000D01*
G01*
X120474440Y-119914240D01*
G75*
G02*
X120224440Y-120164240I-250000J0D01*
G01*
X119714440Y-120164240D01*
G75*
G02*
X119464440Y-119914240I0J250000D01*
G01*
X119464440Y-119404240D01*
G75*
G02*
X119714440Y-119154240I250000J0D01*
G01*
G37*
G36*
G01*
X118464440Y-119154240D02*
X118974440Y-119154240D01*
G75*
G02*
X119224440Y-119404240I0J-250000D01*
G01*
X119224440Y-119914240D01*
G75*
G02*
X118974440Y-120164240I-250000J0D01*
G01*
X118464440Y-120164240D01*
G75*
G02*
X118214440Y-119914240I0J250000D01*
G01*
X118214440Y-119404240D01*
G75*
G02*
X118464440Y-119154240I250000J0D01*
G01*
G37*
G36*
G01*
X119714440Y-120404240D02*
X120224440Y-120404240D01*
G75*
G02*
X120474440Y-120654240I0J-250000D01*
G01*
X120474440Y-121164240D01*
G75*
G02*
X120224440Y-121414240I-250000J0D01*
G01*
X119714440Y-121414240D01*
G75*
G02*
X119464440Y-121164240I0J250000D01*
G01*
X119464440Y-120654240D01*
G75*
G02*
X119714440Y-120404240I250000J0D01*
G01*
G37*
G36*
G01*
X118464440Y-120404240D02*
X118974440Y-120404240D01*
G75*
G02*
X119224440Y-120654240I0J-250000D01*
G01*
X119224440Y-121164240D01*
G75*
G02*
X118974440Y-121414240I-250000J0D01*
G01*
X118464440Y-121414240D01*
G75*
G02*
X118214440Y-121164240I0J250000D01*
G01*
X118214440Y-120654240D01*
G75*
G02*
X118464440Y-120404240I250000J0D01*
G01*
G37*
G36*
G01*
X120281940Y-117934240D02*
X120406940Y-117934240D01*
G75*
G02*
X120469440Y-117996740I0J-62500D01*
G01*
X120469440Y-118696740D01*
G75*
G02*
X120406940Y-118759240I-62500J0D01*
G01*
X120281940Y-118759240D01*
G75*
G02*
X120219440Y-118696740I0J62500D01*
G01*
X120219440Y-117996740D01*
G75*
G02*
X120281940Y-117934240I62500J0D01*
G01*
G37*
G36*
G01*
X119781940Y-117934240D02*
X119906940Y-117934240D01*
G75*
G02*
X119969440Y-117996740I0J-62500D01*
G01*
X119969440Y-118696740D01*
G75*
G02*
X119906940Y-118759240I-62500J0D01*
G01*
X119781940Y-118759240D01*
G75*
G02*
X119719440Y-118696740I0J62500D01*
G01*
X119719440Y-117996740D01*
G75*
G02*
X119781940Y-117934240I62500J0D01*
G01*
G37*
G36*
G01*
X119281940Y-117934240D02*
X119406940Y-117934240D01*
G75*
G02*
X119469440Y-117996740I0J-62500D01*
G01*
X119469440Y-118696740D01*
G75*
G02*
X119406940Y-118759240I-62500J0D01*
G01*
X119281940Y-118759240D01*
G75*
G02*
X119219440Y-118696740I0J62500D01*
G01*
X119219440Y-117996740D01*
G75*
G02*
X119281940Y-117934240I62500J0D01*
G01*
G37*
G36*
G01*
X118781940Y-117934240D02*
X118906940Y-117934240D01*
G75*
G02*
X118969440Y-117996740I0J-62500D01*
G01*
X118969440Y-118696740D01*
G75*
G02*
X118906940Y-118759240I-62500J0D01*
G01*
X118781940Y-118759240D01*
G75*
G02*
X118719440Y-118696740I0J62500D01*
G01*
X118719440Y-117996740D01*
G75*
G02*
X118781940Y-117934240I62500J0D01*
G01*
G37*
G36*
G01*
X118281940Y-117934240D02*
X118406940Y-117934240D01*
G75*
G02*
X118469440Y-117996740I0J-62500D01*
G01*
X118469440Y-118696740D01*
G75*
G02*
X118406940Y-118759240I-62500J0D01*
G01*
X118281940Y-118759240D01*
G75*
G02*
X118219440Y-118696740I0J62500D01*
G01*
X118219440Y-117996740D01*
G75*
G02*
X118281940Y-117934240I62500J0D01*
G01*
G37*
G36*
G01*
X117056940Y-119159240D02*
X117756940Y-119159240D01*
G75*
G02*
X117819440Y-119221740I0J-62500D01*
G01*
X117819440Y-119346740D01*
G75*
G02*
X117756940Y-119409240I-62500J0D01*
G01*
X117056940Y-119409240D01*
G75*
G02*
X116994440Y-119346740I0J62500D01*
G01*
X116994440Y-119221740D01*
G75*
G02*
X117056940Y-119159240I62500J0D01*
G01*
G37*
G36*
G01*
X117056940Y-119659240D02*
X117756940Y-119659240D01*
G75*
G02*
X117819440Y-119721740I0J-62500D01*
G01*
X117819440Y-119846740D01*
G75*
G02*
X117756940Y-119909240I-62500J0D01*
G01*
X117056940Y-119909240D01*
G75*
G02*
X116994440Y-119846740I0J62500D01*
G01*
X116994440Y-119721740D01*
G75*
G02*
X117056940Y-119659240I62500J0D01*
G01*
G37*
G36*
G01*
X117056940Y-120159240D02*
X117756940Y-120159240D01*
G75*
G02*
X117819440Y-120221740I0J-62500D01*
G01*
X117819440Y-120346740D01*
G75*
G02*
X117756940Y-120409240I-62500J0D01*
G01*
X117056940Y-120409240D01*
G75*
G02*
X116994440Y-120346740I0J62500D01*
G01*
X116994440Y-120221740D01*
G75*
G02*
X117056940Y-120159240I62500J0D01*
G01*
G37*
G36*
G01*
X117056940Y-120659240D02*
X117756940Y-120659240D01*
G75*
G02*
X117819440Y-120721740I0J-62500D01*
G01*
X117819440Y-120846740D01*
G75*
G02*
X117756940Y-120909240I-62500J0D01*
G01*
X117056940Y-120909240D01*
G75*
G02*
X116994440Y-120846740I0J62500D01*
G01*
X116994440Y-120721740D01*
G75*
G02*
X117056940Y-120659240I62500J0D01*
G01*
G37*
G36*
G01*
X117056940Y-121159240D02*
X117756940Y-121159240D01*
G75*
G02*
X117819440Y-121221740I0J-62500D01*
G01*
X117819440Y-121346740D01*
G75*
G02*
X117756940Y-121409240I-62500J0D01*
G01*
X117056940Y-121409240D01*
G75*
G02*
X116994440Y-121346740I0J62500D01*
G01*
X116994440Y-121221740D01*
G75*
G02*
X117056940Y-121159240I62500J0D01*
G01*
G37*
G36*
G01*
X118281940Y-121809240D02*
X118406940Y-121809240D01*
G75*
G02*
X118469440Y-121871740I0J-62500D01*
G01*
X118469440Y-122571740D01*
G75*
G02*
X118406940Y-122634240I-62500J0D01*
G01*
X118281940Y-122634240D01*
G75*
G02*
X118219440Y-122571740I0J62500D01*
G01*
X118219440Y-121871740D01*
G75*
G02*
X118281940Y-121809240I62500J0D01*
G01*
G37*
G36*
G01*
X118781940Y-121809240D02*
X118906940Y-121809240D01*
G75*
G02*
X118969440Y-121871740I0J-62500D01*
G01*
X118969440Y-122571740D01*
G75*
G02*
X118906940Y-122634240I-62500J0D01*
G01*
X118781940Y-122634240D01*
G75*
G02*
X118719440Y-122571740I0J62500D01*
G01*
X118719440Y-121871740D01*
G75*
G02*
X118781940Y-121809240I62500J0D01*
G01*
G37*
G36*
G01*
X119281940Y-121809240D02*
X119406940Y-121809240D01*
G75*
G02*
X119469440Y-121871740I0J-62500D01*
G01*
X119469440Y-122571740D01*
G75*
G02*
X119406940Y-122634240I-62500J0D01*
G01*
X119281940Y-122634240D01*
G75*
G02*
X119219440Y-122571740I0J62500D01*
G01*
X119219440Y-121871740D01*
G75*
G02*
X119281940Y-121809240I62500J0D01*
G01*
G37*
G36*
G01*
X119781940Y-121809240D02*
X119906940Y-121809240D01*
G75*
G02*
X119969440Y-121871740I0J-62500D01*
G01*
X119969440Y-122571740D01*
G75*
G02*
X119906940Y-122634240I-62500J0D01*
G01*
X119781940Y-122634240D01*
G75*
G02*
X119719440Y-122571740I0J62500D01*
G01*
X119719440Y-121871740D01*
G75*
G02*
X119781940Y-121809240I62500J0D01*
G01*
G37*
G36*
G01*
X120281940Y-121809240D02*
X120406940Y-121809240D01*
G75*
G02*
X120469440Y-121871740I0J-62500D01*
G01*
X120469440Y-122571740D01*
G75*
G02*
X120406940Y-122634240I-62500J0D01*
G01*
X120281940Y-122634240D01*
G75*
G02*
X120219440Y-122571740I0J62500D01*
G01*
X120219440Y-121871740D01*
G75*
G02*
X120281940Y-121809240I62500J0D01*
G01*
G37*
G36*
G01*
X120931940Y-121159240D02*
X121631940Y-121159240D01*
G75*
G02*
X121694440Y-121221740I0J-62500D01*
G01*
X121694440Y-121346740D01*
G75*
G02*
X121631940Y-121409240I-62500J0D01*
G01*
X120931940Y-121409240D01*
G75*
G02*
X120869440Y-121346740I0J62500D01*
G01*
X120869440Y-121221740D01*
G75*
G02*
X120931940Y-121159240I62500J0D01*
G01*
G37*
G36*
G01*
X120931940Y-120659240D02*
X121631940Y-120659240D01*
G75*
G02*
X121694440Y-120721740I0J-62500D01*
G01*
X121694440Y-120846740D01*
G75*
G02*
X121631940Y-120909240I-62500J0D01*
G01*
X120931940Y-120909240D01*
G75*
G02*
X120869440Y-120846740I0J62500D01*
G01*
X120869440Y-120721740D01*
G75*
G02*
X120931940Y-120659240I62500J0D01*
G01*
G37*
G36*
G01*
X120931940Y-120159240D02*
X121631940Y-120159240D01*
G75*
G02*
X121694440Y-120221740I0J-62500D01*
G01*
X121694440Y-120346740D01*
G75*
G02*
X121631940Y-120409240I-62500J0D01*
G01*
X120931940Y-120409240D01*
G75*
G02*
X120869440Y-120346740I0J62500D01*
G01*
X120869440Y-120221740D01*
G75*
G02*
X120931940Y-120159240I62500J0D01*
G01*
G37*
G36*
G01*
X120931940Y-119659240D02*
X121631940Y-119659240D01*
G75*
G02*
X121694440Y-119721740I0J-62500D01*
G01*
X121694440Y-119846740D01*
G75*
G02*
X121631940Y-119909240I-62500J0D01*
G01*
X120931940Y-119909240D01*
G75*
G02*
X120869440Y-119846740I0J62500D01*
G01*
X120869440Y-119721740D01*
G75*
G02*
X120931940Y-119659240I62500J0D01*
G01*
G37*
G36*
G01*
X120931940Y-119159240D02*
X121631940Y-119159240D01*
G75*
G02*
X121694440Y-119221740I0J-62500D01*
G01*
X121694440Y-119346740D01*
G75*
G02*
X121631940Y-119409240I-62500J0D01*
G01*
X120931940Y-119409240D01*
G75*
G02*
X120869440Y-119346740I0J62500D01*
G01*
X120869440Y-119221740D01*
G75*
G02*
X120931940Y-119159240I62500J0D01*
G01*
G37*
G36*
G01*
X148477600Y-133291720D02*
X148477600Y-132991720D01*
G75*
G02*
X148627600Y-132841720I150000J0D01*
G01*
X150377600Y-132841720D01*
G75*
G02*
X150527600Y-132991720I0J-150000D01*
G01*
X150527600Y-133291720D01*
G75*
G02*
X150377600Y-133441720I-150000J0D01*
G01*
X148627600Y-133441720D01*
G75*
G02*
X148477600Y-133291720I0J150000D01*
G01*
G37*
G36*
G01*
X148477600Y-134561720D02*
X148477600Y-134261720D01*
G75*
G02*
X148627600Y-134111720I150000J0D01*
G01*
X150377600Y-134111720D01*
G75*
G02*
X150527600Y-134261720I0J-150000D01*
G01*
X150527600Y-134561720D01*
G75*
G02*
X150377600Y-134711720I-150000J0D01*
G01*
X148627600Y-134711720D01*
G75*
G02*
X148477600Y-134561720I0J150000D01*
G01*
G37*
G36*
G01*
X148477600Y-135831720D02*
X148477600Y-135531720D01*
G75*
G02*
X148627600Y-135381720I150000J0D01*
G01*
X150377600Y-135381720D01*
G75*
G02*
X150527600Y-135531720I0J-150000D01*
G01*
X150527600Y-135831720D01*
G75*
G02*
X150377600Y-135981720I-150000J0D01*
G01*
X148627600Y-135981720D01*
G75*
G02*
X148477600Y-135831720I0J150000D01*
G01*
G37*
G36*
G01*
X148477600Y-137101720D02*
X148477600Y-136801720D01*
G75*
G02*
X148627600Y-136651720I150000J0D01*
G01*
X150377600Y-136651720D01*
G75*
G02*
X150527600Y-136801720I0J-150000D01*
G01*
X150527600Y-137101720D01*
G75*
G02*
X150377600Y-137251720I-150000J0D01*
G01*
X148627600Y-137251720D01*
G75*
G02*
X148477600Y-137101720I0J150000D01*
G01*
G37*
G36*
G01*
X148477600Y-138371720D02*
X148477600Y-138071720D01*
G75*
G02*
X148627600Y-137921720I150000J0D01*
G01*
X150377600Y-137921720D01*
G75*
G02*
X150527600Y-138071720I0J-150000D01*
G01*
X150527600Y-138371720D01*
G75*
G02*
X150377600Y-138521720I-150000J0D01*
G01*
X148627600Y-138521720D01*
G75*
G02*
X148477600Y-138371720I0J150000D01*
G01*
G37*
G36*
G01*
X148477600Y-139641720D02*
X148477600Y-139341720D01*
G75*
G02*
X148627600Y-139191720I150000J0D01*
G01*
X150377600Y-139191720D01*
G75*
G02*
X150527600Y-139341720I0J-150000D01*
G01*
X150527600Y-139641720D01*
G75*
G02*
X150377600Y-139791720I-150000J0D01*
G01*
X148627600Y-139791720D01*
G75*
G02*
X148477600Y-139641720I0J150000D01*
G01*
G37*
G36*
G01*
X148477600Y-140911720D02*
X148477600Y-140611720D01*
G75*
G02*
X148627600Y-140461720I150000J0D01*
G01*
X150377600Y-140461720D01*
G75*
G02*
X150527600Y-140611720I0J-150000D01*
G01*
X150527600Y-140911720D01*
G75*
G02*
X150377600Y-141061720I-150000J0D01*
G01*
X148627600Y-141061720D01*
G75*
G02*
X148477600Y-140911720I0J150000D01*
G01*
G37*
G36*
G01*
X148477600Y-142181720D02*
X148477600Y-141881720D01*
G75*
G02*
X148627600Y-141731720I150000J0D01*
G01*
X150377600Y-141731720D01*
G75*
G02*
X150527600Y-141881720I0J-150000D01*
G01*
X150527600Y-142181720D01*
G75*
G02*
X150377600Y-142331720I-150000J0D01*
G01*
X148627600Y-142331720D01*
G75*
G02*
X148477600Y-142181720I0J150000D01*
G01*
G37*
G36*
G01*
X157777600Y-142181720D02*
X157777600Y-141881720D01*
G75*
G02*
X157927600Y-141731720I150000J0D01*
G01*
X159677600Y-141731720D01*
G75*
G02*
X159827600Y-141881720I0J-150000D01*
G01*
X159827600Y-142181720D01*
G75*
G02*
X159677600Y-142331720I-150000J0D01*
G01*
X157927600Y-142331720D01*
G75*
G02*
X157777600Y-142181720I0J150000D01*
G01*
G37*
G36*
G01*
X157777600Y-140911720D02*
X157777600Y-140611720D01*
G75*
G02*
X157927600Y-140461720I150000J0D01*
G01*
X159677600Y-140461720D01*
G75*
G02*
X159827600Y-140611720I0J-150000D01*
G01*
X159827600Y-140911720D01*
G75*
G02*
X159677600Y-141061720I-150000J0D01*
G01*
X157927600Y-141061720D01*
G75*
G02*
X157777600Y-140911720I0J150000D01*
G01*
G37*
G36*
G01*
X157777600Y-139641720D02*
X157777600Y-139341720D01*
G75*
G02*
X157927600Y-139191720I150000J0D01*
G01*
X159677600Y-139191720D01*
G75*
G02*
X159827600Y-139341720I0J-150000D01*
G01*
X159827600Y-139641720D01*
G75*
G02*
X159677600Y-139791720I-150000J0D01*
G01*
X157927600Y-139791720D01*
G75*
G02*
X157777600Y-139641720I0J150000D01*
G01*
G37*
G36*
G01*
X157777600Y-138371720D02*
X157777600Y-138071720D01*
G75*
G02*
X157927600Y-137921720I150000J0D01*
G01*
X159677600Y-137921720D01*
G75*
G02*
X159827600Y-138071720I0J-150000D01*
G01*
X159827600Y-138371720D01*
G75*
G02*
X159677600Y-138521720I-150000J0D01*
G01*
X157927600Y-138521720D01*
G75*
G02*
X157777600Y-138371720I0J150000D01*
G01*
G37*
G36*
G01*
X157777600Y-137101720D02*
X157777600Y-136801720D01*
G75*
G02*
X157927600Y-136651720I150000J0D01*
G01*
X159677600Y-136651720D01*
G75*
G02*
X159827600Y-136801720I0J-150000D01*
G01*
X159827600Y-137101720D01*
G75*
G02*
X159677600Y-137251720I-150000J0D01*
G01*
X157927600Y-137251720D01*
G75*
G02*
X157777600Y-137101720I0J150000D01*
G01*
G37*
G36*
G01*
X157777600Y-135831720D02*
X157777600Y-135531720D01*
G75*
G02*
X157927600Y-135381720I150000J0D01*
G01*
X159677600Y-135381720D01*
G75*
G02*
X159827600Y-135531720I0J-150000D01*
G01*
X159827600Y-135831720D01*
G75*
G02*
X159677600Y-135981720I-150000J0D01*
G01*
X157927600Y-135981720D01*
G75*
G02*
X157777600Y-135831720I0J150000D01*
G01*
G37*
G36*
G01*
X157777600Y-134561720D02*
X157777600Y-134261720D01*
G75*
G02*
X157927600Y-134111720I150000J0D01*
G01*
X159677600Y-134111720D01*
G75*
G02*
X159827600Y-134261720I0J-150000D01*
G01*
X159827600Y-134561720D01*
G75*
G02*
X159677600Y-134711720I-150000J0D01*
G01*
X157927600Y-134711720D01*
G75*
G02*
X157777600Y-134561720I0J150000D01*
G01*
G37*
G36*
G01*
X157777600Y-133291720D02*
X157777600Y-132991720D01*
G75*
G02*
X157927600Y-132841720I150000J0D01*
G01*
X159677600Y-132841720D01*
G75*
G02*
X159827600Y-132991720I0J-150000D01*
G01*
X159827600Y-133291720D01*
G75*
G02*
X159677600Y-133441720I-150000J0D01*
G01*
X157927600Y-133441720D01*
G75*
G02*
X157777600Y-133291720I0J150000D01*
G01*
G37*
D13*
X148385340Y-112180580D03*
X149035340Y-112180580D03*
X149685340Y-112180580D03*
X150335340Y-112180580D03*
X150985340Y-112180580D03*
X151635340Y-112180580D03*
X152285340Y-112180580D03*
X152935340Y-112180580D03*
X153585340Y-112180580D03*
X154235340Y-112180580D03*
X154235340Y-118080580D03*
X153585340Y-118080580D03*
X152935340Y-118080580D03*
X152285340Y-118080580D03*
X151635340Y-118080580D03*
X150985340Y-118080580D03*
X150335340Y-118080580D03*
X149685340Y-118080580D03*
X149035340Y-118080580D03*
X148385340Y-118080580D03*
D12*
X165486080Y-113846100D03*
X166436080Y-115846100D03*
X164536080Y-115846100D03*
G36*
G01*
X156425400Y-97238600D02*
X156425400Y-96893600D01*
G75*
G02*
X156572900Y-96746100I147500J0D01*
G01*
X156867900Y-96746100D01*
G75*
G02*
X157015400Y-96893600I0J-147500D01*
G01*
X157015400Y-97238600D01*
G75*
G02*
X156867900Y-97386100I-147500J0D01*
G01*
X156572900Y-97386100D01*
G75*
G02*
X156425400Y-97238600I0J147500D01*
G01*
G37*
G36*
G01*
X155455400Y-97238600D02*
X155455400Y-96893600D01*
G75*
G02*
X155602900Y-96746100I147500J0D01*
G01*
X155897900Y-96746100D01*
G75*
G02*
X156045400Y-96893600I0J-147500D01*
G01*
X156045400Y-97238600D01*
G75*
G02*
X155897900Y-97386100I-147500J0D01*
G01*
X155602900Y-97386100D01*
G75*
G02*
X155455400Y-97238600I0J147500D01*
G01*
G37*
G36*
G01*
X156311100Y-82067180D02*
X156311100Y-81722180D01*
G75*
G02*
X156458600Y-81574680I147500J0D01*
G01*
X156753600Y-81574680D01*
G75*
G02*
X156901100Y-81722180I0J-147500D01*
G01*
X156901100Y-82067180D01*
G75*
G02*
X156753600Y-82214680I-147500J0D01*
G01*
X156458600Y-82214680D01*
G75*
G02*
X156311100Y-82067180I0J147500D01*
G01*
G37*
G36*
G01*
X155341100Y-82067180D02*
X155341100Y-81722180D01*
G75*
G02*
X155488600Y-81574680I147500J0D01*
G01*
X155783600Y-81574680D01*
G75*
G02*
X155931100Y-81722180I0J-147500D01*
G01*
X155931100Y-82067180D01*
G75*
G02*
X155783600Y-82214680I-147500J0D01*
G01*
X155488600Y-82214680D01*
G75*
G02*
X155341100Y-82067180I0J147500D01*
G01*
G37*
G36*
G01*
X156151800Y-80612200D02*
X156151800Y-80957200D01*
G75*
G02*
X156004300Y-81104700I-147500J0D01*
G01*
X155709300Y-81104700D01*
G75*
G02*
X155561800Y-80957200I0J147500D01*
G01*
X155561800Y-80612200D01*
G75*
G02*
X155709300Y-80464700I147500J0D01*
G01*
X156004300Y-80464700D01*
G75*
G02*
X156151800Y-80612200I0J-147500D01*
G01*
G37*
G36*
G01*
X155181800Y-80612200D02*
X155181800Y-80957200D01*
G75*
G02*
X155034300Y-81104700I-147500J0D01*
G01*
X154739300Y-81104700D01*
G75*
G02*
X154591800Y-80957200I0J147500D01*
G01*
X154591800Y-80612200D01*
G75*
G02*
X154739300Y-80464700I147500J0D01*
G01*
X155034300Y-80464700D01*
G75*
G02*
X155181800Y-80612200I0J-147500D01*
G01*
G37*
G36*
G01*
X165023080Y-112308350D02*
X165023080Y-111795850D01*
G75*
G02*
X165241830Y-111577100I218750J0D01*
G01*
X165679330Y-111577100D01*
G75*
G02*
X165898080Y-111795850I0J-218750D01*
G01*
X165898080Y-112308350D01*
G75*
G02*
X165679330Y-112527100I-218750J0D01*
G01*
X165241830Y-112527100D01*
G75*
G02*
X165023080Y-112308350I0J218750D01*
G01*
G37*
G36*
G01*
X166598080Y-112308350D02*
X166598080Y-111795850D01*
G75*
G02*
X166816830Y-111577100I218750J0D01*
G01*
X167254330Y-111577100D01*
G75*
G02*
X167473080Y-111795850I0J-218750D01*
G01*
X167473080Y-112308350D01*
G75*
G02*
X167254330Y-112527100I-218750J0D01*
G01*
X166816830Y-112527100D01*
G75*
G02*
X166598080Y-112308350I0J218750D01*
G01*
G37*
G36*
G01*
X164673780Y-116985000D02*
X164673780Y-117330000D01*
G75*
G02*
X164526280Y-117477500I-147500J0D01*
G01*
X164231280Y-117477500D01*
G75*
G02*
X164083780Y-117330000I0J147500D01*
G01*
X164083780Y-116985000D01*
G75*
G02*
X164231280Y-116837500I147500J0D01*
G01*
X164526280Y-116837500D01*
G75*
G02*
X164673780Y-116985000I0J-147500D01*
G01*
G37*
G36*
G01*
X165643780Y-116985000D02*
X165643780Y-117330000D01*
G75*
G02*
X165496280Y-117477500I-147500J0D01*
G01*
X165201280Y-117477500D01*
G75*
G02*
X165053780Y-117330000I0J147500D01*
G01*
X165053780Y-116985000D01*
G75*
G02*
X165201280Y-116837500I147500J0D01*
G01*
X165496280Y-116837500D01*
G75*
G02*
X165643780Y-116985000I0J-147500D01*
G01*
G37*
G36*
G01*
X123847360Y-119725220D02*
X123847360Y-119380220D01*
G75*
G02*
X123994860Y-119232720I147500J0D01*
G01*
X124289860Y-119232720D01*
G75*
G02*
X124437360Y-119380220I0J-147500D01*
G01*
X124437360Y-119725220D01*
G75*
G02*
X124289860Y-119872720I-147500J0D01*
G01*
X123994860Y-119872720D01*
G75*
G02*
X123847360Y-119725220I0J147500D01*
G01*
G37*
G36*
G01*
X122877360Y-119725220D02*
X122877360Y-119380220D01*
G75*
G02*
X123024860Y-119232720I147500J0D01*
G01*
X123319860Y-119232720D01*
G75*
G02*
X123467360Y-119380220I0J-147500D01*
G01*
X123467360Y-119725220D01*
G75*
G02*
X123319860Y-119872720I-147500J0D01*
G01*
X123024860Y-119872720D01*
G75*
G02*
X122877360Y-119725220I0J147500D01*
G01*
G37*
G36*
G01*
X117622100Y-126101200D02*
X117277100Y-126101200D01*
G75*
G02*
X117129600Y-125953700I0J147500D01*
G01*
X117129600Y-125658700D01*
G75*
G02*
X117277100Y-125511200I147500J0D01*
G01*
X117622100Y-125511200D01*
G75*
G02*
X117769600Y-125658700I0J-147500D01*
G01*
X117769600Y-125953700D01*
G75*
G02*
X117622100Y-126101200I-147500J0D01*
G01*
G37*
G36*
G01*
X117622100Y-127071200D02*
X117277100Y-127071200D01*
G75*
G02*
X117129600Y-126923700I0J147500D01*
G01*
X117129600Y-126628700D01*
G75*
G02*
X117277100Y-126481200I147500J0D01*
G01*
X117622100Y-126481200D01*
G75*
G02*
X117769600Y-126628700I0J-147500D01*
G01*
X117769600Y-126923700D01*
G75*
G02*
X117622100Y-127071200I-147500J0D01*
G01*
G37*
G36*
G01*
X116606100Y-127071200D02*
X116261100Y-127071200D01*
G75*
G02*
X116113600Y-126923700I0J147500D01*
G01*
X116113600Y-126628700D01*
G75*
G02*
X116261100Y-126481200I147500J0D01*
G01*
X116606100Y-126481200D01*
G75*
G02*
X116753600Y-126628700I0J-147500D01*
G01*
X116753600Y-126923700D01*
G75*
G02*
X116606100Y-127071200I-147500J0D01*
G01*
G37*
G36*
G01*
X116606100Y-126101200D02*
X116261100Y-126101200D01*
G75*
G02*
X116113600Y-125953700I0J147500D01*
G01*
X116113600Y-125658700D01*
G75*
G02*
X116261100Y-125511200I147500J0D01*
G01*
X116606100Y-125511200D01*
G75*
G02*
X116753600Y-125658700I0J-147500D01*
G01*
X116753600Y-125953700D01*
G75*
G02*
X116606100Y-126101200I-147500J0D01*
G01*
G37*
G36*
G01*
X114929700Y-124300200D02*
X114584700Y-124300200D01*
G75*
G02*
X114437200Y-124152700I0J147500D01*
G01*
X114437200Y-123857700D01*
G75*
G02*
X114584700Y-123710200I147500J0D01*
G01*
X114929700Y-123710200D01*
G75*
G02*
X115077200Y-123857700I0J-147500D01*
G01*
X115077200Y-124152700D01*
G75*
G02*
X114929700Y-124300200I-147500J0D01*
G01*
G37*
G36*
G01*
X114929700Y-123330200D02*
X114584700Y-123330200D01*
G75*
G02*
X114437200Y-123182700I0J147500D01*
G01*
X114437200Y-122887700D01*
G75*
G02*
X114584700Y-122740200I147500J0D01*
G01*
X114929700Y-122740200D01*
G75*
G02*
X115077200Y-122887700I0J-147500D01*
G01*
X115077200Y-123182700D01*
G75*
G02*
X114929700Y-123330200I-147500J0D01*
G01*
G37*
G36*
G01*
X114894140Y-119865360D02*
X114549140Y-119865360D01*
G75*
G02*
X114401640Y-119717860I0J147500D01*
G01*
X114401640Y-119422860D01*
G75*
G02*
X114549140Y-119275360I147500J0D01*
G01*
X114894140Y-119275360D01*
G75*
G02*
X115041640Y-119422860I0J-147500D01*
G01*
X115041640Y-119717860D01*
G75*
G02*
X114894140Y-119865360I-147500J0D01*
G01*
G37*
G36*
G01*
X114894140Y-118895360D02*
X114549140Y-118895360D01*
G75*
G02*
X114401640Y-118747860I0J147500D01*
G01*
X114401640Y-118452860D01*
G75*
G02*
X114549140Y-118305360I147500J0D01*
G01*
X114894140Y-118305360D01*
G75*
G02*
X115041640Y-118452860I0J-147500D01*
G01*
X115041640Y-118747860D01*
G75*
G02*
X114894140Y-118895360I-147500J0D01*
G01*
G37*
G36*
G01*
X119654100Y-128110200D02*
X119309100Y-128110200D01*
G75*
G02*
X119161600Y-127962700I0J147500D01*
G01*
X119161600Y-127667700D01*
G75*
G02*
X119309100Y-127520200I147500J0D01*
G01*
X119654100Y-127520200D01*
G75*
G02*
X119801600Y-127667700I0J-147500D01*
G01*
X119801600Y-127962700D01*
G75*
G02*
X119654100Y-128110200I-147500J0D01*
G01*
G37*
G36*
G01*
X119654100Y-127140200D02*
X119309100Y-127140200D01*
G75*
G02*
X119161600Y-126992700I0J147500D01*
G01*
X119161600Y-126697700D01*
G75*
G02*
X119309100Y-126550200I147500J0D01*
G01*
X119654100Y-126550200D01*
G75*
G02*
X119801600Y-126697700I0J-147500D01*
G01*
X119801600Y-126992700D01*
G75*
G02*
X119654100Y-127140200I-147500J0D01*
G01*
G37*
G36*
G01*
X157991000Y-95533200D02*
X157991000Y-96008200D01*
G75*
G02*
X157753500Y-96245700I-237500J0D01*
G01*
X157178500Y-96245700D01*
G75*
G02*
X156941000Y-96008200I0J237500D01*
G01*
X156941000Y-95533200D01*
G75*
G02*
X157178500Y-95295700I237500J0D01*
G01*
X157753500Y-95295700D01*
G75*
G02*
X157991000Y-95533200I0J-237500D01*
G01*
G37*
G36*
G01*
X156241000Y-95533200D02*
X156241000Y-96008200D01*
G75*
G02*
X156003500Y-96245700I-237500J0D01*
G01*
X155428500Y-96245700D01*
G75*
G02*
X155191000Y-96008200I0J237500D01*
G01*
X155191000Y-95533200D01*
G75*
G02*
X155428500Y-95295700I237500J0D01*
G01*
X156003500Y-95295700D01*
G75*
G02*
X156241000Y-95533200I0J-237500D01*
G01*
G37*
G36*
G01*
X172308740Y-87286880D02*
X172653740Y-87286880D01*
G75*
G02*
X172801240Y-87434380I0J-147500D01*
G01*
X172801240Y-87729380D01*
G75*
G02*
X172653740Y-87876880I-147500J0D01*
G01*
X172308740Y-87876880D01*
G75*
G02*
X172161240Y-87729380I0J147500D01*
G01*
X172161240Y-87434380D01*
G75*
G02*
X172308740Y-87286880I147500J0D01*
G01*
G37*
G36*
G01*
X172308740Y-88256880D02*
X172653740Y-88256880D01*
G75*
G02*
X172801240Y-88404380I0J-147500D01*
G01*
X172801240Y-88699380D01*
G75*
G02*
X172653740Y-88846880I-147500J0D01*
G01*
X172308740Y-88846880D01*
G75*
G02*
X172161240Y-88699380I0J147500D01*
G01*
X172161240Y-88404380D01*
G75*
G02*
X172308740Y-88256880I147500J0D01*
G01*
G37*
G36*
G01*
X166672040Y-91419460D02*
X166672040Y-91074460D01*
G75*
G02*
X166819540Y-90926960I147500J0D01*
G01*
X167114540Y-90926960D01*
G75*
G02*
X167262040Y-91074460I0J-147500D01*
G01*
X167262040Y-91419460D01*
G75*
G02*
X167114540Y-91566960I-147500J0D01*
G01*
X166819540Y-91566960D01*
G75*
G02*
X166672040Y-91419460I0J147500D01*
G01*
G37*
G36*
G01*
X167642040Y-91419460D02*
X167642040Y-91074460D01*
G75*
G02*
X167789540Y-90926960I147500J0D01*
G01*
X168084540Y-90926960D01*
G75*
G02*
X168232040Y-91074460I0J-147500D01*
G01*
X168232040Y-91419460D01*
G75*
G02*
X168084540Y-91566960I-147500J0D01*
G01*
X167789540Y-91566960D01*
G75*
G02*
X167642040Y-91419460I0J147500D01*
G01*
G37*
G36*
G01*
X168277320Y-92845120D02*
X167932320Y-92845120D01*
G75*
G02*
X167784820Y-92697620I0J147500D01*
G01*
X167784820Y-92402620D01*
G75*
G02*
X167932320Y-92255120I147500J0D01*
G01*
X168277320Y-92255120D01*
G75*
G02*
X168424820Y-92402620I0J-147500D01*
G01*
X168424820Y-92697620D01*
G75*
G02*
X168277320Y-92845120I-147500J0D01*
G01*
G37*
G36*
G01*
X168277320Y-93815120D02*
X167932320Y-93815120D01*
G75*
G02*
X167784820Y-93667620I0J147500D01*
G01*
X167784820Y-93372620D01*
G75*
G02*
X167932320Y-93225120I147500J0D01*
G01*
X168277320Y-93225120D01*
G75*
G02*
X168424820Y-93372620I0J-147500D01*
G01*
X168424820Y-93667620D01*
G75*
G02*
X168277320Y-93815120I-147500J0D01*
G01*
G37*
G36*
G01*
X139817300Y-80001100D02*
X139817300Y-80476100D01*
G75*
G02*
X139579800Y-80713600I-237500J0D01*
G01*
X139004800Y-80713600D01*
G75*
G02*
X138767300Y-80476100I0J237500D01*
G01*
X138767300Y-80001100D01*
G75*
G02*
X139004800Y-79763600I237500J0D01*
G01*
X139579800Y-79763600D01*
G75*
G02*
X139817300Y-80001100I0J-237500D01*
G01*
G37*
G36*
G01*
X138067300Y-80001100D02*
X138067300Y-80476100D01*
G75*
G02*
X137829800Y-80713600I-237500J0D01*
G01*
X137254800Y-80713600D01*
G75*
G02*
X137017300Y-80476100I0J237500D01*
G01*
X137017300Y-80001100D01*
G75*
G02*
X137254800Y-79763600I237500J0D01*
G01*
X137829800Y-79763600D01*
G75*
G02*
X138067300Y-80001100I0J-237500D01*
G01*
G37*
G36*
G01*
X122984040Y-121899460D02*
X122984040Y-121554460D01*
G75*
G02*
X123131540Y-121406960I147500J0D01*
G01*
X123426540Y-121406960D01*
G75*
G02*
X123574040Y-121554460I0J-147500D01*
G01*
X123574040Y-121899460D01*
G75*
G02*
X123426540Y-122046960I-147500J0D01*
G01*
X123131540Y-122046960D01*
G75*
G02*
X122984040Y-121899460I0J147500D01*
G01*
G37*
G36*
G01*
X123954040Y-121899460D02*
X123954040Y-121554460D01*
G75*
G02*
X124101540Y-121406960I147500J0D01*
G01*
X124396540Y-121406960D01*
G75*
G02*
X124544040Y-121554460I0J-147500D01*
G01*
X124544040Y-121899460D01*
G75*
G02*
X124396540Y-122046960I-147500J0D01*
G01*
X124101540Y-122046960D01*
G75*
G02*
X123954040Y-121899460I0J147500D01*
G01*
G37*
G36*
G01*
X114909380Y-122082640D02*
X114564380Y-122082640D01*
G75*
G02*
X114416880Y-121935140I0J147500D01*
G01*
X114416880Y-121640140D01*
G75*
G02*
X114564380Y-121492640I147500J0D01*
G01*
X114909380Y-121492640D01*
G75*
G02*
X115056880Y-121640140I0J-147500D01*
G01*
X115056880Y-121935140D01*
G75*
G02*
X114909380Y-122082640I-147500J0D01*
G01*
G37*
G36*
G01*
X114909380Y-121112640D02*
X114564380Y-121112640D01*
G75*
G02*
X114416880Y-120965140I0J147500D01*
G01*
X114416880Y-120670140D01*
G75*
G02*
X114564380Y-120522640I147500J0D01*
G01*
X114909380Y-120522640D01*
G75*
G02*
X115056880Y-120670140I0J-147500D01*
G01*
X115056880Y-120965140D01*
G75*
G02*
X114909380Y-121112640I-147500J0D01*
G01*
G37*
G36*
G01*
X156290920Y-119455980D02*
X156290920Y-119110980D01*
G75*
G02*
X156438420Y-118963480I147500J0D01*
G01*
X156733420Y-118963480D01*
G75*
G02*
X156880920Y-119110980I0J-147500D01*
G01*
X156880920Y-119455980D01*
G75*
G02*
X156733420Y-119603480I-147500J0D01*
G01*
X156438420Y-119603480D01*
G75*
G02*
X156290920Y-119455980I0J147500D01*
G01*
G37*
G36*
G01*
X155320920Y-119455980D02*
X155320920Y-119110980D01*
G75*
G02*
X155468420Y-118963480I147500J0D01*
G01*
X155763420Y-118963480D01*
G75*
G02*
X155910920Y-119110980I0J-147500D01*
G01*
X155910920Y-119455980D01*
G75*
G02*
X155763420Y-119603480I-147500J0D01*
G01*
X155468420Y-119603480D01*
G75*
G02*
X155320920Y-119455980I0J147500D01*
G01*
G37*
G36*
G01*
X133039780Y-68883760D02*
X133314780Y-68883760D01*
G75*
G02*
X133452280Y-69021260I0J-137500D01*
G01*
X133452280Y-70746260D01*
G75*
G02*
X133314780Y-70883760I-137500J0D01*
G01*
X133039780Y-70883760D01*
G75*
G02*
X132902280Y-70746260I0J137500D01*
G01*
X132902280Y-69021260D01*
G75*
G02*
X133039780Y-68883760I137500J0D01*
G01*
G37*
G36*
G01*
X131769780Y-68883760D02*
X132044780Y-68883760D01*
G75*
G02*
X132182280Y-69021260I0J-137500D01*
G01*
X132182280Y-70746260D01*
G75*
G02*
X132044780Y-70883760I-137500J0D01*
G01*
X131769780Y-70883760D01*
G75*
G02*
X131632280Y-70746260I0J137500D01*
G01*
X131632280Y-69021260D01*
G75*
G02*
X131769780Y-68883760I137500J0D01*
G01*
G37*
G36*
G01*
X130499780Y-68883760D02*
X130774780Y-68883760D01*
G75*
G02*
X130912280Y-69021260I0J-137500D01*
G01*
X130912280Y-70746260D01*
G75*
G02*
X130774780Y-70883760I-137500J0D01*
G01*
X130499780Y-70883760D01*
G75*
G02*
X130362280Y-70746260I0J137500D01*
G01*
X130362280Y-69021260D01*
G75*
G02*
X130499780Y-68883760I137500J0D01*
G01*
G37*
G36*
G01*
X129229780Y-68883760D02*
X129504780Y-68883760D01*
G75*
G02*
X129642280Y-69021260I0J-137500D01*
G01*
X129642280Y-70746260D01*
G75*
G02*
X129504780Y-70883760I-137500J0D01*
G01*
X129229780Y-70883760D01*
G75*
G02*
X129092280Y-70746260I0J137500D01*
G01*
X129092280Y-69021260D01*
G75*
G02*
X129229780Y-68883760I137500J0D01*
G01*
G37*
G36*
G01*
X127959780Y-68883760D02*
X128234780Y-68883760D01*
G75*
G02*
X128372280Y-69021260I0J-137500D01*
G01*
X128372280Y-70746260D01*
G75*
G02*
X128234780Y-70883760I-137500J0D01*
G01*
X127959780Y-70883760D01*
G75*
G02*
X127822280Y-70746260I0J137500D01*
G01*
X127822280Y-69021260D01*
G75*
G02*
X127959780Y-68883760I137500J0D01*
G01*
G37*
G36*
G01*
X126689780Y-68883760D02*
X126964780Y-68883760D01*
G75*
G02*
X127102280Y-69021260I0J-137500D01*
G01*
X127102280Y-70746260D01*
G75*
G02*
X126964780Y-70883760I-137500J0D01*
G01*
X126689780Y-70883760D01*
G75*
G02*
X126552280Y-70746260I0J137500D01*
G01*
X126552280Y-69021260D01*
G75*
G02*
X126689780Y-68883760I137500J0D01*
G01*
G37*
G36*
G01*
X125419780Y-68883760D02*
X125694780Y-68883760D01*
G75*
G02*
X125832280Y-69021260I0J-137500D01*
G01*
X125832280Y-70746260D01*
G75*
G02*
X125694780Y-70883760I-137500J0D01*
G01*
X125419780Y-70883760D01*
G75*
G02*
X125282280Y-70746260I0J137500D01*
G01*
X125282280Y-69021260D01*
G75*
G02*
X125419780Y-68883760I137500J0D01*
G01*
G37*
G36*
G01*
X124149780Y-68883760D02*
X124424780Y-68883760D01*
G75*
G02*
X124562280Y-69021260I0J-137500D01*
G01*
X124562280Y-70746260D01*
G75*
G02*
X124424780Y-70883760I-137500J0D01*
G01*
X124149780Y-70883760D01*
G75*
G02*
X124012280Y-70746260I0J137500D01*
G01*
X124012280Y-69021260D01*
G75*
G02*
X124149780Y-68883760I137500J0D01*
G01*
G37*
G36*
G01*
X122879780Y-68883760D02*
X123154780Y-68883760D01*
G75*
G02*
X123292280Y-69021260I0J-137500D01*
G01*
X123292280Y-70746260D01*
G75*
G02*
X123154780Y-70883760I-137500J0D01*
G01*
X122879780Y-70883760D01*
G75*
G02*
X122742280Y-70746260I0J137500D01*
G01*
X122742280Y-69021260D01*
G75*
G02*
X122879780Y-68883760I137500J0D01*
G01*
G37*
G36*
G01*
X121609780Y-68883760D02*
X121884780Y-68883760D01*
G75*
G02*
X122022280Y-69021260I0J-137500D01*
G01*
X122022280Y-70746260D01*
G75*
G02*
X121884780Y-70883760I-137500J0D01*
G01*
X121609780Y-70883760D01*
G75*
G02*
X121472280Y-70746260I0J137500D01*
G01*
X121472280Y-69021260D01*
G75*
G02*
X121609780Y-68883760I137500J0D01*
G01*
G37*
G36*
G01*
X120339780Y-68883760D02*
X120614780Y-68883760D01*
G75*
G02*
X120752280Y-69021260I0J-137500D01*
G01*
X120752280Y-70746260D01*
G75*
G02*
X120614780Y-70883760I-137500J0D01*
G01*
X120339780Y-70883760D01*
G75*
G02*
X120202280Y-70746260I0J137500D01*
G01*
X120202280Y-69021260D01*
G75*
G02*
X120339780Y-68883760I137500J0D01*
G01*
G37*
G36*
G01*
X119069780Y-68883760D02*
X119344780Y-68883760D01*
G75*
G02*
X119482280Y-69021260I0J-137500D01*
G01*
X119482280Y-70746260D01*
G75*
G02*
X119344780Y-70883760I-137500J0D01*
G01*
X119069780Y-70883760D01*
G75*
G02*
X118932280Y-70746260I0J137500D01*
G01*
X118932280Y-69021260D01*
G75*
G02*
X119069780Y-68883760I137500J0D01*
G01*
G37*
G36*
G01*
X119069780Y-78183760D02*
X119344780Y-78183760D01*
G75*
G02*
X119482280Y-78321260I0J-137500D01*
G01*
X119482280Y-80046260D01*
G75*
G02*
X119344780Y-80183760I-137500J0D01*
G01*
X119069780Y-80183760D01*
G75*
G02*
X118932280Y-80046260I0J137500D01*
G01*
X118932280Y-78321260D01*
G75*
G02*
X119069780Y-78183760I137500J0D01*
G01*
G37*
G36*
G01*
X120339780Y-78183760D02*
X120614780Y-78183760D01*
G75*
G02*
X120752280Y-78321260I0J-137500D01*
G01*
X120752280Y-80046260D01*
G75*
G02*
X120614780Y-80183760I-137500J0D01*
G01*
X120339780Y-80183760D01*
G75*
G02*
X120202280Y-80046260I0J137500D01*
G01*
X120202280Y-78321260D01*
G75*
G02*
X120339780Y-78183760I137500J0D01*
G01*
G37*
G36*
G01*
X121609780Y-78183760D02*
X121884780Y-78183760D01*
G75*
G02*
X122022280Y-78321260I0J-137500D01*
G01*
X122022280Y-80046260D01*
G75*
G02*
X121884780Y-80183760I-137500J0D01*
G01*
X121609780Y-80183760D01*
G75*
G02*
X121472280Y-80046260I0J137500D01*
G01*
X121472280Y-78321260D01*
G75*
G02*
X121609780Y-78183760I137500J0D01*
G01*
G37*
G36*
G01*
X122879780Y-78183760D02*
X123154780Y-78183760D01*
G75*
G02*
X123292280Y-78321260I0J-137500D01*
G01*
X123292280Y-80046260D01*
G75*
G02*
X123154780Y-80183760I-137500J0D01*
G01*
X122879780Y-80183760D01*
G75*
G02*
X122742280Y-80046260I0J137500D01*
G01*
X122742280Y-78321260D01*
G75*
G02*
X122879780Y-78183760I137500J0D01*
G01*
G37*
G36*
G01*
X124149780Y-78183760D02*
X124424780Y-78183760D01*
G75*
G02*
X124562280Y-78321260I0J-137500D01*
G01*
X124562280Y-80046260D01*
G75*
G02*
X124424780Y-80183760I-137500J0D01*
G01*
X124149780Y-80183760D01*
G75*
G02*
X124012280Y-80046260I0J137500D01*
G01*
X124012280Y-78321260D01*
G75*
G02*
X124149780Y-78183760I137500J0D01*
G01*
G37*
G36*
G01*
X125419780Y-78183760D02*
X125694780Y-78183760D01*
G75*
G02*
X125832280Y-78321260I0J-137500D01*
G01*
X125832280Y-80046260D01*
G75*
G02*
X125694780Y-80183760I-137500J0D01*
G01*
X125419780Y-80183760D01*
G75*
G02*
X125282280Y-80046260I0J137500D01*
G01*
X125282280Y-78321260D01*
G75*
G02*
X125419780Y-78183760I137500J0D01*
G01*
G37*
G36*
G01*
X126689780Y-78183760D02*
X126964780Y-78183760D01*
G75*
G02*
X127102280Y-78321260I0J-137500D01*
G01*
X127102280Y-80046260D01*
G75*
G02*
X126964780Y-80183760I-137500J0D01*
G01*
X126689780Y-80183760D01*
G75*
G02*
X126552280Y-80046260I0J137500D01*
G01*
X126552280Y-78321260D01*
G75*
G02*
X126689780Y-78183760I137500J0D01*
G01*
G37*
G36*
G01*
X127959780Y-78183760D02*
X128234780Y-78183760D01*
G75*
G02*
X128372280Y-78321260I0J-137500D01*
G01*
X128372280Y-80046260D01*
G75*
G02*
X128234780Y-80183760I-137500J0D01*
G01*
X127959780Y-80183760D01*
G75*
G02*
X127822280Y-80046260I0J137500D01*
G01*
X127822280Y-78321260D01*
G75*
G02*
X127959780Y-78183760I137500J0D01*
G01*
G37*
G36*
G01*
X129229780Y-78183760D02*
X129504780Y-78183760D01*
G75*
G02*
X129642280Y-78321260I0J-137500D01*
G01*
X129642280Y-80046260D01*
G75*
G02*
X129504780Y-80183760I-137500J0D01*
G01*
X129229780Y-80183760D01*
G75*
G02*
X129092280Y-80046260I0J137500D01*
G01*
X129092280Y-78321260D01*
G75*
G02*
X129229780Y-78183760I137500J0D01*
G01*
G37*
G36*
G01*
X130499780Y-78183760D02*
X130774780Y-78183760D01*
G75*
G02*
X130912280Y-78321260I0J-137500D01*
G01*
X130912280Y-80046260D01*
G75*
G02*
X130774780Y-80183760I-137500J0D01*
G01*
X130499780Y-80183760D01*
G75*
G02*
X130362280Y-80046260I0J137500D01*
G01*
X130362280Y-78321260D01*
G75*
G02*
X130499780Y-78183760I137500J0D01*
G01*
G37*
G36*
G01*
X131769780Y-78183760D02*
X132044780Y-78183760D01*
G75*
G02*
X132182280Y-78321260I0J-137500D01*
G01*
X132182280Y-80046260D01*
G75*
G02*
X132044780Y-80183760I-137500J0D01*
G01*
X131769780Y-80183760D01*
G75*
G02*
X131632280Y-80046260I0J137500D01*
G01*
X131632280Y-78321260D01*
G75*
G02*
X131769780Y-78183760I137500J0D01*
G01*
G37*
G36*
G01*
X133039780Y-78183760D02*
X133314780Y-78183760D01*
G75*
G02*
X133452280Y-78321260I0J-137500D01*
G01*
X133452280Y-80046260D01*
G75*
G02*
X133314780Y-80183760I-137500J0D01*
G01*
X133039780Y-80183760D01*
G75*
G02*
X132902280Y-80046260I0J137500D01*
G01*
X132902280Y-78321260D01*
G75*
G02*
X133039780Y-78183760I137500J0D01*
G01*
G37*
G36*
G01*
X175888060Y-94863780D02*
X175888060Y-95163780D01*
G75*
G02*
X175738060Y-95313780I-150000J0D01*
G01*
X174088060Y-95313780D01*
G75*
G02*
X173938060Y-95163780I0J150000D01*
G01*
X173938060Y-94863780D01*
G75*
G02*
X174088060Y-94713780I150000J0D01*
G01*
X175738060Y-94713780D01*
G75*
G02*
X175888060Y-94863780I0J-150000D01*
G01*
G37*
G36*
G01*
X175888060Y-93593780D02*
X175888060Y-93893780D01*
G75*
G02*
X175738060Y-94043780I-150000J0D01*
G01*
X174088060Y-94043780D01*
G75*
G02*
X173938060Y-93893780I0J150000D01*
G01*
X173938060Y-93593780D01*
G75*
G02*
X174088060Y-93443780I150000J0D01*
G01*
X175738060Y-93443780D01*
G75*
G02*
X175888060Y-93593780I0J-150000D01*
G01*
G37*
G36*
G01*
X175888060Y-92323780D02*
X175888060Y-92623780D01*
G75*
G02*
X175738060Y-92773780I-150000J0D01*
G01*
X174088060Y-92773780D01*
G75*
G02*
X173938060Y-92623780I0J150000D01*
G01*
X173938060Y-92323780D01*
G75*
G02*
X174088060Y-92173780I150000J0D01*
G01*
X175738060Y-92173780D01*
G75*
G02*
X175888060Y-92323780I0J-150000D01*
G01*
G37*
G36*
G01*
X175888060Y-91053780D02*
X175888060Y-91353780D01*
G75*
G02*
X175738060Y-91503780I-150000J0D01*
G01*
X174088060Y-91503780D01*
G75*
G02*
X173938060Y-91353780I0J150000D01*
G01*
X173938060Y-91053780D01*
G75*
G02*
X174088060Y-90903780I150000J0D01*
G01*
X175738060Y-90903780D01*
G75*
G02*
X175888060Y-91053780I0J-150000D01*
G01*
G37*
G36*
G01*
X170938060Y-91053780D02*
X170938060Y-91353780D01*
G75*
G02*
X170788060Y-91503780I-150000J0D01*
G01*
X169138060Y-91503780D01*
G75*
G02*
X168988060Y-91353780I0J150000D01*
G01*
X168988060Y-91053780D01*
G75*
G02*
X169138060Y-90903780I150000J0D01*
G01*
X170788060Y-90903780D01*
G75*
G02*
X170938060Y-91053780I0J-150000D01*
G01*
G37*
G36*
G01*
X170938060Y-92323780D02*
X170938060Y-92623780D01*
G75*
G02*
X170788060Y-92773780I-150000J0D01*
G01*
X169138060Y-92773780D01*
G75*
G02*
X168988060Y-92623780I0J150000D01*
G01*
X168988060Y-92323780D01*
G75*
G02*
X169138060Y-92173780I150000J0D01*
G01*
X170788060Y-92173780D01*
G75*
G02*
X170938060Y-92323780I0J-150000D01*
G01*
G37*
G36*
G01*
X170938060Y-93593780D02*
X170938060Y-93893780D01*
G75*
G02*
X170788060Y-94043780I-150000J0D01*
G01*
X169138060Y-94043780D01*
G75*
G02*
X168988060Y-93893780I0J150000D01*
G01*
X168988060Y-93593780D01*
G75*
G02*
X169138060Y-93443780I150000J0D01*
G01*
X170788060Y-93443780D01*
G75*
G02*
X170938060Y-93593780I0J-150000D01*
G01*
G37*
G36*
G01*
X170938060Y-94863780D02*
X170938060Y-95163780D01*
G75*
G02*
X170788060Y-95313780I-150000J0D01*
G01*
X169138060Y-95313780D01*
G75*
G02*
X168988060Y-95163780I0J150000D01*
G01*
X168988060Y-94863780D01*
G75*
G02*
X169138060Y-94713780I150000J0D01*
G01*
X170788060Y-94713780D01*
G75*
G02*
X170938060Y-94863780I0J-150000D01*
G01*
G37*
G36*
G01*
X120746600Y-128681700D02*
X120746600Y-129026700D01*
G75*
G02*
X120599100Y-129174200I-147500J0D01*
G01*
X120304100Y-129174200D01*
G75*
G02*
X120156600Y-129026700I0J147500D01*
G01*
X120156600Y-128681700D01*
G75*
G02*
X120304100Y-128534200I147500J0D01*
G01*
X120599100Y-128534200D01*
G75*
G02*
X120746600Y-128681700I0J-147500D01*
G01*
G37*
G36*
G01*
X119776600Y-128681700D02*
X119776600Y-129026700D01*
G75*
G02*
X119629100Y-129174200I-147500J0D01*
G01*
X119334100Y-129174200D01*
G75*
G02*
X119186600Y-129026700I0J147500D01*
G01*
X119186600Y-128681700D01*
G75*
G02*
X119334100Y-128534200I147500J0D01*
G01*
X119629100Y-128534200D01*
G75*
G02*
X119776600Y-128681700I0J-147500D01*
G01*
G37*
G36*
G01*
X117200600Y-124962700D02*
X117200600Y-124617700D01*
G75*
G02*
X117348100Y-124470200I147500J0D01*
G01*
X117643100Y-124470200D01*
G75*
G02*
X117790600Y-124617700I0J-147500D01*
G01*
X117790600Y-124962700D01*
G75*
G02*
X117643100Y-125110200I-147500J0D01*
G01*
X117348100Y-125110200D01*
G75*
G02*
X117200600Y-124962700I0J147500D01*
G01*
G37*
G36*
G01*
X118170600Y-124962700D02*
X118170600Y-124617700D01*
G75*
G02*
X118318100Y-124470200I147500J0D01*
G01*
X118613100Y-124470200D01*
G75*
G02*
X118760600Y-124617700I0J-147500D01*
G01*
X118760600Y-124962700D01*
G75*
G02*
X118613100Y-125110200I-147500J0D01*
G01*
X118318100Y-125110200D01*
G75*
G02*
X118170600Y-124962700I0J147500D01*
G01*
G37*
G36*
G01*
X118216600Y-123946700D02*
X118216600Y-123601700D01*
G75*
G02*
X118364100Y-123454200I147500J0D01*
G01*
X118659100Y-123454200D01*
G75*
G02*
X118806600Y-123601700I0J-147500D01*
G01*
X118806600Y-123946700D01*
G75*
G02*
X118659100Y-124094200I-147500J0D01*
G01*
X118364100Y-124094200D01*
G75*
G02*
X118216600Y-123946700I0J147500D01*
G01*
G37*
G36*
G01*
X119186600Y-123946700D02*
X119186600Y-123601700D01*
G75*
G02*
X119334100Y-123454200I147500J0D01*
G01*
X119629100Y-123454200D01*
G75*
G02*
X119776600Y-123601700I0J-147500D01*
G01*
X119776600Y-123946700D01*
G75*
G02*
X119629100Y-124094200I-147500J0D01*
G01*
X119334100Y-124094200D01*
G75*
G02*
X119186600Y-123946700I0J147500D01*
G01*
G37*
G36*
G01*
X119654100Y-125085200D02*
X119309100Y-125085200D01*
G75*
G02*
X119161600Y-124937700I0J147500D01*
G01*
X119161600Y-124642700D01*
G75*
G02*
X119309100Y-124495200I147500J0D01*
G01*
X119654100Y-124495200D01*
G75*
G02*
X119801600Y-124642700I0J-147500D01*
G01*
X119801600Y-124937700D01*
G75*
G02*
X119654100Y-125085200I-147500J0D01*
G01*
G37*
G36*
G01*
X119654100Y-126055200D02*
X119309100Y-126055200D01*
G75*
G02*
X119161600Y-125907700I0J147500D01*
G01*
X119161600Y-125612700D01*
G75*
G02*
X119309100Y-125465200I147500J0D01*
G01*
X119654100Y-125465200D01*
G75*
G02*
X119801600Y-125612700I0J-147500D01*
G01*
X119801600Y-125907700D01*
G75*
G02*
X119654100Y-126055200I-147500J0D01*
G01*
G37*
G36*
G01*
X177601380Y-95153260D02*
X177601380Y-94808260D01*
G75*
G02*
X177748880Y-94660760I147500J0D01*
G01*
X178043880Y-94660760D01*
G75*
G02*
X178191380Y-94808260I0J-147500D01*
G01*
X178191380Y-95153260D01*
G75*
G02*
X178043880Y-95300760I-147500J0D01*
G01*
X177748880Y-95300760D01*
G75*
G02*
X177601380Y-95153260I0J147500D01*
G01*
G37*
G36*
G01*
X176631380Y-95153260D02*
X176631380Y-94808260D01*
G75*
G02*
X176778880Y-94660760I147500J0D01*
G01*
X177073880Y-94660760D01*
G75*
G02*
X177221380Y-94808260I0J-147500D01*
G01*
X177221380Y-95153260D01*
G75*
G02*
X177073880Y-95300760I-147500J0D01*
G01*
X176778880Y-95300760D01*
G75*
G02*
X176631380Y-95153260I0J147500D01*
G01*
G37*
G36*
G01*
X176588060Y-93862940D02*
X176588060Y-93517940D01*
G75*
G02*
X176735560Y-93370440I147500J0D01*
G01*
X177030560Y-93370440D01*
G75*
G02*
X177178060Y-93517940I0J-147500D01*
G01*
X177178060Y-93862940D01*
G75*
G02*
X177030560Y-94010440I-147500J0D01*
G01*
X176735560Y-94010440D01*
G75*
G02*
X176588060Y-93862940I0J147500D01*
G01*
G37*
G36*
G01*
X177558060Y-93862940D02*
X177558060Y-93517940D01*
G75*
G02*
X177705560Y-93370440I147500J0D01*
G01*
X178000560Y-93370440D01*
G75*
G02*
X178148060Y-93517940I0J-147500D01*
G01*
X178148060Y-93862940D01*
G75*
G02*
X178000560Y-94010440I-147500J0D01*
G01*
X177705560Y-94010440D01*
G75*
G02*
X177558060Y-93862940I0J147500D01*
G01*
G37*
G36*
G01*
X176600900Y-92633580D02*
X176600900Y-92288580D01*
G75*
G02*
X176748400Y-92141080I147500J0D01*
G01*
X177043400Y-92141080D01*
G75*
G02*
X177190900Y-92288580I0J-147500D01*
G01*
X177190900Y-92633580D01*
G75*
G02*
X177043400Y-92781080I-147500J0D01*
G01*
X176748400Y-92781080D01*
G75*
G02*
X176600900Y-92633580I0J147500D01*
G01*
G37*
G36*
G01*
X177570900Y-92633580D02*
X177570900Y-92288580D01*
G75*
G02*
X177718400Y-92141080I147500J0D01*
G01*
X178013400Y-92141080D01*
G75*
G02*
X178160900Y-92288580I0J-147500D01*
G01*
X178160900Y-92633580D01*
G75*
G02*
X178013400Y-92781080I-147500J0D01*
G01*
X177718400Y-92781080D01*
G75*
G02*
X177570900Y-92633580I0J147500D01*
G01*
G37*
G36*
G01*
X163907460Y-121642620D02*
X164382460Y-121642620D01*
G75*
G02*
X164619960Y-121880120I0J-237500D01*
G01*
X164619960Y-122455120D01*
G75*
G02*
X164382460Y-122692620I-237500J0D01*
G01*
X163907460Y-122692620D01*
G75*
G02*
X163669960Y-122455120I0J237500D01*
G01*
X163669960Y-121880120D01*
G75*
G02*
X163907460Y-121642620I237500J0D01*
G01*
G37*
G36*
G01*
X163907460Y-119892620D02*
X164382460Y-119892620D01*
G75*
G02*
X164619960Y-120130120I0J-237500D01*
G01*
X164619960Y-120705120D01*
G75*
G02*
X164382460Y-120942620I-237500J0D01*
G01*
X163907460Y-120942620D01*
G75*
G02*
X163669960Y-120705120I0J237500D01*
G01*
X163669960Y-120130120D01*
G75*
G02*
X163907460Y-119892620I237500J0D01*
G01*
G37*
G36*
G01*
X160177700Y-131205600D02*
X160522700Y-131205600D01*
G75*
G02*
X160670200Y-131353100I0J-147500D01*
G01*
X160670200Y-131648100D01*
G75*
G02*
X160522700Y-131795600I-147500J0D01*
G01*
X160177700Y-131795600D01*
G75*
G02*
X160030200Y-131648100I0J147500D01*
G01*
X160030200Y-131353100D01*
G75*
G02*
X160177700Y-131205600I147500J0D01*
G01*
G37*
G36*
G01*
X160177700Y-130235600D02*
X160522700Y-130235600D01*
G75*
G02*
X160670200Y-130383100I0J-147500D01*
G01*
X160670200Y-130678100D01*
G75*
G02*
X160522700Y-130825600I-147500J0D01*
G01*
X160177700Y-130825600D01*
G75*
G02*
X160030200Y-130678100I0J147500D01*
G01*
X160030200Y-130383100D01*
G75*
G02*
X160177700Y-130235600I147500J0D01*
G01*
G37*
G36*
G01*
X151190600Y-126791500D02*
X151190600Y-126446500D01*
G75*
G02*
X151338100Y-126299000I147500J0D01*
G01*
X151633100Y-126299000D01*
G75*
G02*
X151780600Y-126446500I0J-147500D01*
G01*
X151780600Y-126791500D01*
G75*
G02*
X151633100Y-126939000I-147500J0D01*
G01*
X151338100Y-126939000D01*
G75*
G02*
X151190600Y-126791500I0J147500D01*
G01*
G37*
G36*
G01*
X152160600Y-126791500D02*
X152160600Y-126446500D01*
G75*
G02*
X152308100Y-126299000I147500J0D01*
G01*
X152603100Y-126299000D01*
G75*
G02*
X152750600Y-126446500I0J-147500D01*
G01*
X152750600Y-126791500D01*
G75*
G02*
X152603100Y-126939000I-147500J0D01*
G01*
X152308100Y-126939000D01*
G75*
G02*
X152160600Y-126791500I0J147500D01*
G01*
G37*
M02*
