G04 #@! TF.GenerationSoftware,KiCad,Pcbnew,(5.1.6)-1*
G04 #@! TF.CreationDate,2020-10-23T22:44:24-07:00*
G04 #@! TF.ProjectId,ReceiverCircuit,52656365-6976-4657-9243-697263756974,rev?*
G04 #@! TF.SameCoordinates,Original*
G04 #@! TF.FileFunction,Profile,NP*
%FSLAX46Y46*%
G04 Gerber Fmt 4.6, Leading zero omitted, Abs format (unit mm)*
G04 Created by KiCad (PCBNEW (5.1.6)-1) date 2020-10-23 22:44:24*
%MOMM*%
%LPD*%
G01*
G04 APERTURE LIST*
G04 #@! TA.AperFunction,Profile*
%ADD10C,0.050000*%
G04 #@! TD*
G04 #@! TA.AperFunction,Profile*
%ADD11C,0.100000*%
G04 #@! TD*
G04 #@! TA.AperFunction,Profile*
%ADD12C,0.000100*%
G04 #@! TD*
G04 APERTURE END LIST*
D10*
X102364540Y-51887120D02*
X203410820Y-51615340D01*
X203483600Y-88081600D02*
X203454000Y-100126800D01*
X203454000Y-101371400D02*
X203454000Y-100126800D01*
X191392920Y-147839540D02*
G75*
G03*
X191392920Y-147839540I-1152000J0D01*
G01*
X106876960Y-62323980D02*
G75*
G03*
X106876960Y-62323980I-1152000J0D01*
G01*
X203453120Y-144991340D02*
X203454000Y-151892000D01*
X203454000Y-102844600D02*
X203454000Y-101371400D01*
X203454000Y-104140000D02*
X203454000Y-102844600D01*
X203454000Y-105206800D02*
X203454000Y-104140000D01*
X203454000Y-106781600D02*
X203454000Y-105206800D01*
X203454000Y-107492800D02*
X203454000Y-106781600D01*
X203454000Y-108331000D02*
X203454000Y-107492800D01*
X203454000Y-109397800D02*
X203454000Y-108331000D01*
X203445500Y-111538500D02*
X203454000Y-109397800D01*
X203454000Y-125577600D02*
X203445500Y-123538500D01*
X203454000Y-127457200D02*
X203454000Y-125577600D01*
X203454000Y-128828800D02*
X203454000Y-127457200D01*
X203454000Y-130505200D02*
X203454000Y-128828800D01*
X203453120Y-144991340D02*
X203454000Y-130505200D01*
X203483600Y-88081600D02*
X203410820Y-51615340D01*
D11*
X102362000Y-151892000D02*
X140970000Y-151892000D01*
X102362000Y-151130000D02*
X102362000Y-151892000D01*
X102362000Y-130556000D02*
X102362000Y-151130000D01*
X102362000Y-109474000D02*
X102362000Y-130556000D01*
X102362000Y-86614000D02*
X102362000Y-109474000D01*
X102362000Y-68580000D02*
X102362000Y-86614000D01*
D10*
X102364540Y-51887120D02*
X102362000Y-68580000D01*
D11*
X140970000Y-151892000D02*
X203454000Y-151892000D01*
D12*
X203445500Y-115538500D02*
X203445500Y-111538500D01*
X202245500Y-115538500D02*
X203445500Y-115538500D01*
X202245500Y-119538500D02*
X202245500Y-115538500D01*
X203445500Y-119538500D02*
X202245500Y-119538500D01*
X203445500Y-123538500D02*
X203445500Y-119538500D01*
M02*
